<svg width="22" height="22" viewBox="0 0 22 22" fill="none" xmlns="http://www.w3.org/2000/svg">
<path d="M17.3868 11.8944C17.19 11.8944 16.9843 11.8318 16.7875 11.7871C16.3891 11.6993 15.9975 11.5827 15.6159 11.4383C15.201 11.2873 14.7449 11.2951 14.3354 11.4603C13.9259 11.6254 13.592 11.9361 13.3978 12.3326L13.2011 12.7351C12.33 12.2505 11.5295 11.6486 10.822 10.9463C10.1197 10.2389 9.51785 9.43841 9.03326 8.56728L9.4089 8.31686C9.80544 8.1227 10.1162 7.78875 10.2813 7.37927C10.4464 6.96979 10.4542 6.5137 10.3033 6.09879C10.1613 5.71637 10.0447 5.32497 9.95447 4.92715C9.90975 4.73039 9.87398 4.52468 9.84715 4.31897C9.73854 3.68898 9.40856 3.11848 8.91665 2.71019C8.42474 2.3019 7.80321 2.08266 7.164 2.09196H4.48085C4.0954 2.08834 3.7137 2.16781 3.36172 2.32497C3.00975 2.48213 2.69576 2.71328 2.44115 3.00269C2.18654 3.2921 1.99727 3.63297 1.88624 4.0021C1.77521 4.37123 1.74501 4.75995 1.79771 5.1418C2.27418 8.88871 3.98539 12.3701 6.66104 15.036C9.3367 17.702 12.8243 19.4005 16.5729 19.8633H16.9128C17.5723 19.8643 18.2091 19.6223 18.7015 19.1836C18.9845 18.9305 19.2105 18.6203 19.3647 18.2734C19.5189 17.9265 19.5977 17.5508 19.5959 17.1712V14.4881C19.585 13.8668 19.3587 13.2687 18.9558 12.7956C18.5529 12.3226 17.9984 12.0041 17.3868 11.8944ZM17.834 17.2607C17.8338 17.3877 17.8066 17.5132 17.7542 17.6288C17.7017 17.7445 17.6253 17.8477 17.5299 17.9315C17.43 18.0177 17.3131 18.0822 17.1868 18.1207C17.0605 18.1592 16.9276 18.1709 16.7965 18.1551C13.4469 17.7256 10.3357 16.1932 7.95348 13.7997C5.57128 11.4061 4.0537 8.28764 3.64013 4.93609C3.6259 4.80508 3.63837 4.67255 3.67681 4.54649C3.71524 4.42044 3.77883 4.30349 3.86373 4.2027C3.94754 4.1073 4.05071 4.03084 4.16637 3.9784C4.28203 3.92597 4.40753 3.89877 4.53452 3.89861H7.21766C7.42565 3.89398 7.62874 3.962 7.79198 4.09097C7.95523 4.21993 8.06841 4.40176 8.11204 4.60517C8.14782 4.84964 8.19254 5.09112 8.2462 5.32962C8.34952 5.80109 8.48702 6.26441 8.65762 6.71591L7.40548 7.29726C7.29842 7.34638 7.20212 7.41617 7.1221 7.50261C7.04209 7.58905 6.97994 7.69044 6.93921 7.80097C6.89849 7.9115 6.88001 8.02898 6.88482 8.14668C6.88962 8.26437 6.91763 8.37995 6.96723 8.48679C8.25443 11.2439 10.4707 13.4603 13.2279 14.7475C13.4457 14.8369 13.6899 14.8369 13.9076 14.7475C14.0192 14.7076 14.1217 14.6459 14.2092 14.5661C14.2967 14.4862 14.3675 14.3898 14.4174 14.2824L14.972 13.0303C15.4343 13.1956 15.9062 13.333 16.3851 13.4417C16.6236 13.4953 16.8651 13.54 17.1095 13.5758C17.3129 13.6195 17.4948 13.7326 17.6237 13.8959C17.7527 14.0591 17.8207 14.2622 17.8161 14.4702L17.834 17.2607Z" fill="black"/>
</svg>
