<svg width="22" height="22" viewBox="0 0 22 22" fill="none" xmlns="http://www.w3.org/2000/svg">
<path d="M17.2488 3.06645H4.72746C4.01584 3.06645 3.33337 3.34914 2.83019 3.85233C2.327 4.35551 2.04431 5.03798 2.04431 5.7496V14.6934C2.04431 15.405 2.327 16.0875 2.83019 16.5907C3.33337 17.0939 4.01584 17.3766 4.72746 17.3766H17.2488C17.9604 17.3766 18.6429 17.0939 19.1461 16.5907C19.6493 16.0875 19.932 15.405 19.932 14.6934V5.7496C19.932 5.03798 19.6493 4.35551 19.1461 3.85233C18.6429 3.34914 17.9604 3.06645 17.2488 3.06645ZM16.6496 4.85522L10.9881 9.10353L5.32669 4.85522H16.6496ZM17.2488 15.5878H4.72746C4.49025 15.5878 4.26276 15.4936 4.09503 15.3258C3.9273 15.1581 3.83308 14.9306 3.83308 14.6934V5.97319L10.4515 10.937C10.6063 11.0531 10.7946 11.1159 10.9881 11.1159C11.1816 11.1159 11.3699 11.0531 11.5248 10.937L18.1432 5.97319V14.6934C18.1432 14.9306 18.049 15.1581 17.8812 15.3258C17.7135 15.4936 17.486 15.5878 17.2488 15.5878Z" fill="black"/>
</svg>
