<svg width="23" height="29" viewBox="0 0 23 29" fill="none" xmlns="http://www.w3.org/2000/svg">
<g id="SVG" clip-path="url(#clip0_412_4717)">
<path id="Vector" d="M19.1191 14.8522C19.1063 12.6725 20.0939 11.0299 22.0881 9.81858C20.9727 8.22066 19.2853 7.34179 17.0609 7.17241C14.9549 7.00622 12.6506 8.39963 11.8069 8.39963C10.9153 8.39963 8.87627 7.22994 7.27193 7.22994C3.96099 7.28107 0.442322 9.86974 0.442322 15.1365C0.442322 16.693 0.726755 18.3005 1.29563 19.9559C2.05624 22.1356 4.79832 27.4759 7.65863 27.3896C9.15428 27.3544 10.2122 26.3285 12.1584 26.3285C14.0472 26.3285 15.0251 27.3896 16.6934 27.3896C19.5793 27.348 22.0593 22.4935 22.7816 20.3075C18.9113 18.4827 19.1191 14.964 19.1191 14.8522ZM15.7603 5.10467C17.3805 3.18074 17.2335 1.42939 17.1856 0.799805C15.7538 0.882898 14.0984 1.77456 13.1555 2.87074C12.1169 4.04683 11.5065 5.50096 11.6375 7.14045C13.1843 7.25869 14.5969 6.46292 15.7603 5.10467Z" fill="black"/>
</g>
<defs>
<clipPath id="clip0_412_4717">
<rect width="22.3914" height="27.5587" fill="white" transform="translate(0.400192 0.525391)"/>
</clipPath>
</defs>
</svg>
