<svg width="23" height="22" viewBox="0 0 23 22" fill="none" xmlns="http://www.w3.org/2000/svg">
<path d="M14.1295 4.90935C14.4676 4.51965 14.7254 4.067 14.8881 3.57738C15.0508 3.08777 15.1152 2.57084 15.0775 2.05627C14.0395 2.14007 13.0759 2.62828 12.3944 3.41573C12.068 3.79314 11.8207 4.2322 11.6671 4.7069C11.5135 5.18161 11.4566 5.68232 11.5 6.17938C12.0064 6.18359 12.5069 6.07124 12.9629 5.85101C13.4188 5.63078 13.818 5.30858 14.1295 4.90935ZM16.3833 11.5636C16.3893 10.8782 16.5698 10.2057 16.9079 9.60951C17.2459 9.0133 17.7302 8.51305 18.3152 8.15596C17.946 7.62402 17.458 7.18541 16.8898 6.87491C16.3216 6.56442 15.6888 6.39059 15.0418 6.3672C13.6465 6.22409 12.3586 7.18108 11.6163 7.18108C10.8739 7.18108 9.82751 6.38508 8.66481 6.40297C7.9047 6.42801 7.16406 6.64962 6.51512 7.0462C5.86618 7.44277 5.3311 8.00077 4.96207 8.66576C3.38796 11.4026 4.5596 15.472 6.13371 17.6811C6.84922 18.7633 7.7436 19.9886 8.92418 19.9439C10.1048 19.8992 10.4894 19.2105 11.8578 19.2105C13.2262 19.2105 13.6465 19.9439 14.8092 19.9171C15.9719 19.8902 16.7947 18.808 17.546 17.7258C18.0782 16.9402 18.4939 16.0816 18.7803 15.1769C18.0715 14.8746 17.4667 14.3713 17.0407 13.7291C16.6148 13.087 16.3862 12.3341 16.3833 11.5636Z" fill="#8C9199"/>
</svg>
