<svg width="24" height="24" viewBox="0 0 24 24" fill="none" xmlns="http://www.w3.org/2000/svg">
<g id="SVG">
<path id="Vector" fill-rule="evenodd" clip-rule="evenodd" d="M14.8307 6.51269C15.0493 6.29415 15.3458 6.17139 15.6549 6.17139C15.964 6.17139 16.2604 6.29415 16.479 6.51269L21.1419 11.1755C21.3604 11.3942 21.4832 11.6906 21.4832 11.9997C21.4832 12.3088 21.3604 12.6053 21.1419 12.8239L16.479 17.4867C16.2592 17.6991 15.9647 17.8166 15.6591 17.8139C15.3534 17.8113 15.0611 17.6887 14.8449 17.4725C14.6288 17.2564 14.5062 16.964 14.5035 16.6584C14.5009 16.3527 14.6184 16.0583 14.8307 15.8384L17.5037 13.1654H3.99775C3.68858 13.1654 3.39207 13.0426 3.17346 12.824C2.95485 12.6054 2.83203 12.3089 2.83203 11.9997C2.83203 11.6905 2.95485 11.394 3.17346 11.1754C3.39207 10.9568 3.68858 10.834 3.99775 10.834H17.5037L14.8307 8.16101C14.6122 7.94241 14.4894 7.64596 14.4894 7.33685C14.4894 7.02775 14.6122 6.7313 14.8307 6.51269Z" fill="#1F1F1F"/>
</g>
</svg>
