<svg width="62" height="63" viewBox="0 0 62 63" fill="none" xmlns="http://www.w3.org/2000/svg">
<g id="Traced Image" clip-path="url(#clip0_425_920)">
<path id="Vector" fill-rule="evenodd" clip-rule="evenodd" d="M24.8372 10.6209C23.4233 11.0012 21.9687 11.897 21.1574 12.8871C20.9137 13.1846 19.7535 15.0283 18.5794 16.9844C17.4053 18.9404 16.4354 20.5508 16.4243 20.563C16.4132 20.5751 14.3342 21.0549 11.8045 21.6291C9.27469 22.2033 6.90513 22.7889 6.53882 22.9302C4.97477 23.534 3.61222 24.7272 2.87004 26.1429C2.05569 27.6963 2.05835 27.6653 2.05835 35.4688V42.4906L1.54261 42.6205C0.976982 42.7629 0.336275 43.3378 0.128236 43.8895C0.0576387 44.077 -0.000244141 44.842 -0.000244141 45.5894C-0.000244141 47.2881 0.233467 47.8722 1.085 48.3016C1.60849 48.5656 1.73539 48.574 5.15472 48.574H8.68412L9.12696 49.2915C9.70227 50.2237 10.9062 51.3183 11.8982 51.8113C15.1302 53.4178 19.0173 52.3622 20.9659 49.3489L21.467 48.574H32.1498H42.8326L43.2754 49.2915C44.1748 50.7487 45.9034 51.9835 47.6057 52.3847C49.2071 52.7623 50.6983 52.5874 52.2517 51.8399C53.9207 51.037 55.0479 49.8139 55.7637 48.0291C56.1653 47.0278 56.3092 45.2039 56.0755 44.0777C55.9417 43.4332 55.3633 42.1217 54.8949 41.4004L54.6795 41.0686L55.3389 40.4009L55.9982 39.7333L56.7586 40.4869L57.519 41.2406L58.2461 40.521L58.9731 39.8015L58.1673 38.9895L57.3614 38.1773L58.1295 37.3775L58.8976 36.5776L59.7231 37.3967L60.5486 38.2159L61.2416 37.5229L61.9346 36.8299L61.1195 36.0085C60.6712 35.5567 60.3044 35.1447 60.3044 35.093C60.3044 35.0412 60.6854 34.5964 61.151 34.1045L61.9975 33.2101L61.2622 32.5088L60.5268 31.8074L59.6702 32.752L58.8135 33.6968L57.863 32.7518L56.9122 31.8067L56.2189 32.5002L55.5254 33.1935L56.4804 34.1543L57.4355 35.1149L56.9459 35.699C56.6767 36.0202 56.3394 36.3887 56.1962 36.5178L55.936 36.7526L54.9993 35.8215C54.4842 35.3094 54.0076 34.8904 53.9402 34.8904C53.8728 34.8904 53.5214 35.1905 53.1592 35.5572L52.5007 36.2239L53.5151 37.2437L54.5294 38.2633L54.0301 38.8596C53.2409 39.8022 53.3039 39.7854 52.3619 39.3061C51.2854 38.7585 50.1533 38.528 48.5281 38.5253L47.2263 38.5232V37.4939V36.4647H48.1951H49.1638V35.4959V34.5272H48.1951H47.2263V32.5291V30.5311H46.197H45.1677V29.5018V28.4725H44.2038H43.24L43.2048 29.4715L43.1697 30.4705L42.1707 30.5056L41.1716 30.5409V32.534V34.5272H40.1423H39.113V35.4959V36.4647H40.1423H41.1716V37.4939V38.5232H34.6326H28.0935V37.4939V36.4647H26.0955C24.1015 36.4647 24.0974 36.464 24.0974 36.191C24.0974 35.9971 24.7668 35.2486 26.3938 33.6233L28.6903 31.3293L29.5913 32.203C30.639 33.219 31.1436 33.4666 32.1665 33.4672C33.7898 33.4681 35.1169 32.169 35.1169 30.5793C35.1169 29.3548 35.0144 29.204 32.3444 26.5031C30.7968 24.9376 29.6714 23.8981 29.3618 23.7482C29.0332 23.5891 28.6157 23.5076 28.1296 23.5076C26.2242 23.5076 24.7793 25.2596 25.1865 27.0765C25.3672 27.8831 25.4744 28.0517 26.4419 29.052L27.2953 29.9343L25 32.2346C23.1034 34.1354 22.6523 34.5288 22.4021 34.5006L22.0994 34.4666L22.0661 32.4988L22.0328 30.5311H21.0827H20.1324L20.0764 29.5926C20.0109 28.4954 19.7313 27.8566 19.0577 27.2652C18.2658 26.57 18.0752 26.535 15.0759 26.535C12.0557 26.535 11.7852 26.5861 11.0348 27.298C10.3974 27.9026 10.0531 28.7484 10.0517 29.7137L10.0505 30.5311H9.02124H7.99194V32.5291V34.5272H7.02319H6.05444V38.5232V42.5193H5.02515H3.99585V35.7635C3.99585 28.4102 4.00941 28.2397 4.69093 26.9874C5.07746 26.2773 6.07963 25.3296 6.8263 24.9681C7.12237 24.8248 9.69343 24.1739 12.5396 23.5215L17.7147 22.3356L20.0678 18.4108C22.5194 14.3218 23.0521 13.6135 24.1083 13.0388C25.2841 12.3988 25.6865 12.3714 33.906 12.3698C38.1974 12.3691 41.783 12.4189 42.1872 12.4852C43.2357 12.6568 44.349 13.2249 45.0526 13.9473C45.5686 14.4769 46.0185 15.2891 48.1039 19.4541L50.55 24.3397L53.3383 25.0296C54.9481 25.4279 56.376 25.8522 56.7164 26.0334C57.8425 26.6324 58.2459 27.5044 58.2459 29.3402V30.5409L59.2449 30.5056L60.2439 30.4705L60.2802 29.6318C60.3305 28.4706 60.1152 27.2038 59.7336 26.4139C59.3347 25.5884 58.2542 24.4936 57.485 24.1355C57.1665 23.9873 55.7852 23.581 54.4154 23.2326L51.9251 22.5994L49.6162 18.0009L47.3075 13.4022L46.389 12.4905C45.3761 11.4852 44.3753 10.9173 43.0783 10.6114C41.9682 10.3497 25.8145 10.3582 24.8372 10.6209ZM35.238 15.4481V16.4842H38.5681C41.7334 16.4842 41.9102 16.4962 42.1397 16.7256C42.2725 16.8585 43.2593 18.7248 44.3328 20.8731C45.4062 23.0214 46.3066 24.8028 46.3337 24.8318C46.407 24.91 48.074 24.0826 48.074 23.9679C48.074 23.6988 44.0333 15.8365 43.6998 15.4566C43.4874 15.2148 43.0906 14.8974 42.8179 14.7515C42.3453 14.4986 42.1559 14.4844 38.78 14.4491L35.238 14.4121V15.4481ZM27.4929 25.7849C27.2357 26.0421 27.1248 26.2701 27.1248 26.5417C27.1248 26.8826 27.382 27.1908 29.2136 29.0441C31.7884 31.6495 32.0677 31.8196 32.7731 31.2128C33.0247 30.9963 33.1068 30.8162 33.1068 30.4806C33.1068 30.0645 32.9608 29.8895 30.8726 27.8029C28.3386 25.2709 28.1309 25.1469 27.4929 25.7849ZM12.4134 28.7626C12.1555 29.0205 12.1091 29.1786 12.1091 29.799V30.5311H15.0759H18.0427V29.8179C18.0427 29.2965 17.9805 29.0279 17.8114 28.8189C17.5843 28.5381 17.5369 28.5324 15.1489 28.4957L12.7176 28.4584L12.4134 28.7626ZM10.0505 33.4979V34.5272H15.0759H20.1013V33.4979V32.4686H15.0759H10.0505V33.4979ZM43.2302 33.4979V34.5272H44.199H45.1677V33.4979V32.4686H44.199H43.2302V33.4979ZM8.07271 36.5454C8.02827 36.5897 7.99194 37.952 7.99194 39.5728V42.5193H8.33839C8.63144 42.5193 8.76246 42.3992 9.18968 41.7386C10.884 39.1187 14.181 37.9439 17.21 38.8808C18.7476 39.3565 20.394 40.6791 21.0988 42.0047L21.3724 42.5193H23.7642H26.156V40.5213V38.5232H24.0974H22.0388V37.4939V36.4647H15.0962C11.2776 36.4647 8.11703 36.501 8.07271 36.5454ZM43.2302 37.4939V38.5232H44.199H45.1677V37.4939V36.4647H44.199H43.2302V37.4939ZM13.6228 40.7446C10.9557 41.6249 9.47268 44.3951 10.28 46.9888C10.5711 47.9241 11.1526 48.833 11.7917 49.3516C14.8804 51.8571 19.3665 50.197 20.0106 46.3102C20.3574 44.217 19.1693 41.9848 17.204 41.038C16.5102 40.7037 16.2602 40.6499 15.2576 40.6195C14.5375 40.5977 13.926 40.6444 13.6228 40.7446ZM28.0935 41.5506V42.5193H35.4703H42.8472L43.1195 42.0652C43.2693 41.8155 43.5772 41.3795 43.8035 41.0965L44.2152 40.5818H36.1544H28.0935V41.5506ZM47.7712 40.7446C45.0968 41.6274 43.6189 44.3878 44.4284 46.9888C45.3542 49.9636 48.5588 51.3764 51.383 50.0548C53.3447 49.1367 54.5322 46.8524 54.1437 44.744C53.847 43.1336 52.7905 41.7308 51.3525 41.038C50.6586 40.7037 50.4087 40.6499 49.406 40.6195C48.686 40.5977 48.0745 40.6444 47.7712 40.7446ZM14.164 42.7053C12.9298 43.0858 12.1091 44.2132 12.1091 45.5283C12.1091 46.7577 12.6564 47.6682 13.7439 48.248C14.4202 48.6087 15.7308 48.6089 16.408 48.2485C18.7853 46.9833 18.4829 43.4585 15.9318 42.6975C15.2107 42.4824 14.8827 42.4839 14.164 42.7053ZM48.2172 42.7497C46.9935 43.1723 46.2576 44.2157 46.2576 45.5283C46.2576 46.7577 46.8048 47.6682 47.8923 48.248C48.5686 48.6087 49.8792 48.6089 50.5564 48.2485C52.9337 46.9833 52.6313 43.4585 50.0803 42.6975C49.3135 42.4687 49.0057 42.4773 48.2172 42.7497ZM2.05835 45.5467V46.5154H5.05699H8.05564V45.5467V44.5779H5.05699H2.05835V45.5467ZM14.5587 44.6589C14.3551 44.7409 14.0466 45.3482 14.0466 45.6673C14.0466 46.0432 14.5775 46.5154 15 46.5154C15.5242 46.5154 15.7295 46.4065 15.9281 46.0223C16.1738 45.5473 16.1523 45.3791 15.7917 44.9505C15.4869 44.5882 15.0131 44.4762 14.5587 44.6589ZM22.0388 45.5467V46.5154H32.1214H42.2041V45.5467V44.5779H32.1214H22.0388V45.5467ZM48.568 44.7898C48.4255 44.9063 48.2767 45.2021 48.2376 45.447C48.1781 45.8179 48.2183 45.9441 48.4779 46.2039C48.9822 46.7081 49.768 46.619 50.0765 46.0223C50.3222 45.5473 50.3008 45.3791 49.9402 44.9505C49.5742 44.5156 48.9876 44.4469 48.568 44.7898Z" fill="black"/>
</g>
<defs>
<clipPath id="clip0_425_920">
<rect width="62" height="62" fill="white" transform="translate(0 0.5)"/>
</clipPath>
</defs>
</svg>
