<svg width="62" height="63" viewBox="0 0 62 63" fill="none" xmlns="http://www.w3.org/2000/svg">
<g id="Traced Image">
<path id="Vector" fill-rule="evenodd" clip-rule="evenodd" d="M11.9715 2.66879C11.6915 2.89536 11.6849 2.94755 11.6483 5.25027C11.6033 8.09585 11.6201 8.13859 12.818 8.2253L13.5626 8.27906V9.23328V10.1875H12.8911C12.3396 10.1875 12.1664 10.2407 11.9224 10.4848C11.6342 10.7729 11.6251 10.8355 11.6251 12.5298V14.2777L11.2315 14.3518C10.6331 14.4643 9.33752 15.1134 8.64401 15.6481C7.85182 16.2588 6.99411 17.3512 6.53311 18.3364C5.89373 19.7027 5.81708 20.3806 5.81466 24.6885L5.8126 28.5938H4.17238C2.59223 28.5938 2.52115 28.6046 2.23488 28.891L1.9376 29.1882V32.4499C1.9376 36.3482 1.902 36.2386 3.19286 36.3209C3.63473 36.349 3.99619 36.4242 3.99619 36.4879C3.99619 36.5515 4.40488 40.6827 4.90439 45.668C5.40391 50.6533 5.8126 54.8205 5.8126 54.9282C5.8126 55.036 5.94641 55.258 6.10988 55.4215C6.40693 55.7186 6.40838 55.7188 9.00087 55.7188H11.5947L11.6491 56.7178C11.7392 58.3722 12.4413 59.5052 13.7853 60.1653L14.4708 60.502H20.3438H26.2169L26.9024 60.1653C28.2464 59.5052 28.9485 58.3722 29.0386 56.7178L29.093 55.7188H30.5309H31.9688V56.1816C31.9688 57.8504 33.3464 59.2265 35.0199 59.2293C35.5981 59.2302 35.8626 59.149 36.6547 58.7268C38.8282 57.5687 38.7594 57.5947 39.597 57.6108C40.0303 57.6191 40.9573 57.6665 41.6568 57.7162C42.8294 57.7994 42.9964 57.7829 43.7933 57.5059L44.6578 57.2052L44.9279 57.6857C45.6616 58.9913 46.4879 59.5261 47.7716 59.5261C48.7682 59.5261 49.3893 59.2551 50.0082 58.5502C50.5621 57.9193 50.7384 57.4267 50.7384 56.5097V55.7188H53.1657C55.5342 55.7188 55.5999 55.712 55.8705 55.4414C56.074 55.2379 56.1687 54.9645 56.2262 54.4137C56.304 53.6694 56.312 53.6563 57.2173 52.7964C60.5304 49.6493 60.9196 44.6161 58.1233 41.0786L57.6154 40.436L57.8098 38.5383C57.9166 37.4946 58.004 36.5802 58.004 36.5063C58.004 36.4268 58.3259 36.3515 58.7926 36.3217C60.0592 36.2411 60.002 36.4238 60.002 32.4537V29.0567L59.7161 28.8253C59.4593 28.6172 59.2175 28.5938 57.3293 28.5938H55.2282L55.1922 21.6611C55.1568 14.8611 55.1509 14.7133 54.8866 13.9327C54.1675 11.8099 52.3087 10.0338 50.2515 9.50393L49.4208 9.28995L49.3833 7.06377C49.3468 4.89159 49.3389 4.83189 49.0599 4.60629C48.787 4.38541 48.4962 4.375 42.6062 4.375H36.4383L36.1411 4.67229C35.8477 4.96557 35.8438 4.99766 35.8438 7.12782V9.2862L35.0153 9.49969C32.7464 10.0841 30.878 12.0016 30.2732 14.3666C30.0459 15.2553 30.0313 15.7117 30.0313 21.953V28.5938H28.5782H27.1251L27.123 24.6885C27.1207 20.3969 27.0423 19.694 26.4183 18.372C25.9327 17.3429 25.0692 16.2436 24.2766 15.6452C23.5308 15.0822 22.3061 14.4645 21.7148 14.3534L21.3297 14.281L21.2909 12.4654C21.2536 10.7262 21.2401 10.6403 20.9662 10.4187C20.7639 10.2551 20.4894 10.1875 20.0277 10.1875H19.3751V9.22444V8.2615L22.5194 8.22542C25.3455 8.19309 25.6857 8.16766 25.8798 7.97354C26.064 7.78948 26.1016 7.48941 26.1349 5.93747C26.1773 3.96461 26.0866 3.60085 25.519 3.46752C25.2928 3.41448 12.8547 2.4375 12.4046 2.4375C12.3236 2.4375 12.1287 2.54152 11.9715 2.66879ZM13.5626 5.4043V6.3125H18.8907H24.2188V5.76758C24.2188 5.25414 24.1996 5.22254 23.8858 5.22145C23.7027 5.22084 21.4821 5.05785 18.9513 4.85938C16.4204 4.6609 14.1725 4.49791 13.9562 4.4973L13.5626 4.49609V5.4043ZM37.7813 7.76562V9.21875H38.7501H39.7188V7.76562V6.3125H38.7501H37.7813V7.76562ZM41.6563 7.76562V9.21875H42.6251H43.5938V7.76562V6.3125H42.6251H41.6563V7.76562ZM45.5313 7.76562V9.21875H46.5001H47.4688V7.76562V6.3125H46.5001H45.5313V7.76562ZM15.5001 9.21875V10.1875H16.4688H17.4376V9.21875V8.25H16.4688H15.5001V9.21875ZM35.6017 11.3202C34.6708 11.5806 34.1129 11.9085 33.4166 12.6044C32.1902 13.8301 31.9481 14.6928 31.9959 17.6676L32.0294 19.759L32.6904 18.7574C33.4749 17.5688 35.1179 15.8776 36.1822 15.1632C37.2588 14.4407 38.7586 13.7542 39.961 13.4335C41.3904 13.0523 43.926 13.0555 45.3497 13.44C46.4928 13.7487 48.0041 14.4492 49.068 15.1632C50.114 15.8653 51.7644 17.5581 52.5401 18.7246C52.8945 19.2574 53.211 19.7206 53.2437 19.7539C53.2763 19.7872 53.2845 18.6943 53.2618 17.3252L53.2208 14.8362L52.7685 13.9215C52.2238 12.8198 51.5222 12.1332 50.3969 11.6001L49.588 11.2168L42.8673 11.1922C37.7711 11.1737 36.0148 11.2046 35.6017 11.3202ZM13.5626 13.0938V14.0625H16.4688H19.3751V13.0938V12.125H16.4688H13.5626V13.0938ZM42.3278 15.3285C42.6014 15.602 42.6251 15.7169 42.6251 16.7652V17.9046L43.181 17.9807C43.9575 18.0872 44.6966 18.4397 45.3105 18.9962C45.5984 19.2574 46.0793 19.5666 46.379 19.6834C48.5657 20.5358 50.4945 22.6615 51.1127 24.9004C51.2953 25.5617 51.3373 27.2634 51.191 28.0791L51.0988 28.5938H52.19H53.2813L53.2809 27.5342C53.2784 22.3425 50.2681 17.3887 46.1019 15.7209C45.1185 15.3272 43.6828 15.0312 42.7568 15.0312H42.0306L42.3278 15.3285ZM40.1427 15.379C37.3201 16.1925 34.9112 18.3118 33.4491 21.2676C32.5237 23.1386 32.1099 24.7804 32.0072 26.9893L31.9325 28.5938H33.042H34.1514L34.0592 28.0791C33.8921 27.1467 33.9652 25.4316 34.2027 24.7188C34.747 23.0841 35.7333 21.674 36.9552 20.7832C37.6042 20.3102 37.6231 20.2796 37.7617 19.4753C38.0119 18.0244 38.4659 17.3363 39.9809 16.1116C40.5694 15.636 41.0509 15.2255 41.0509 15.1996C41.0509 15.128 40.9323 15.1514 40.1427 15.379ZM11.7491 16.1941C9.95921 16.6751 8.40328 18.2497 7.93682 20.0518C7.78727 20.6297 7.7501 21.553 7.7501 24.6836V28.5938H11.3063H14.8624L15.1729 28.1245C15.3438 27.8665 15.8382 27.3419 16.2718 26.9589C17.3149 26.0373 17.4376 25.7105 17.4376 23.8524C17.4376 21.9953 17.5677 21.5531 18.3417 20.7791C19.5066 19.6142 21.1421 19.5815 22.3228 20.6995C23.0362 21.3752 23.171 21.8286 23.2477 23.8105C23.3297 25.9316 23.3775 26.0582 24.4516 26.9964L25.1876 27.6393V24.2064C25.1876 21.4946 25.1481 20.6219 24.9997 20.0518C24.5218 18.2166 22.966 16.6604 21.1358 16.1867C20.1134 15.9223 12.7395 15.9279 11.7491 16.1941ZM40.2359 18.481C39.4478 19.4371 39.4012 20.7059 40.1164 21.7322L40.3558 22.0758L39.7084 22.7312C39.3524 23.0917 39.0258 23.3867 38.9826 23.3867C38.9395 23.3867 38.7489 23.1552 38.5591 22.8721C38.3694 22.589 38.1973 22.3336 38.1768 22.3044C38.1043 22.2013 37.0373 23.3342 36.6726 23.9016C35.9004 25.1027 35.6501 26.6865 36.0302 27.9662L36.2164 28.5938H42.6204H49.0243L49.1843 28.1396C49.4513 27.3814 49.3836 25.6277 49.0552 24.7982C48.7251 23.9645 48.0128 23.053 47.1272 22.3311C46.4966 21.817 46.4825 21.8125 45.5269 21.8125C44.626 21.8125 44.5626 21.7957 44.5626 21.5565C44.5626 20.7902 43.559 19.875 42.7185 19.875C41.9952 19.875 41.2754 19.3967 40.9151 18.6765L40.5976 18.0421L40.2359 18.481ZM19.6724 22.1098C19.3887 22.3935 19.3751 22.4755 19.3751 23.9134C19.3751 25.0997 19.3211 25.5962 19.1207 26.25C18.8884 27.0081 18.778 27.1658 17.8473 28.0691C16.8405 29.046 16.4688 29.6272 16.4688 30.2246V30.5312H20.3438H24.2188V30.2246C24.2188 29.6272 23.8472 29.046 22.8404 28.0691C21.9097 27.1658 21.7993 27.0081 21.567 26.25C21.3666 25.5962 21.3126 25.0997 21.3126 23.9134C21.3126 22.4755 21.299 22.3935 21.0153 22.1098C20.828 21.9223 20.5797 21.8125 20.3438 21.8125C20.108 21.8125 19.8597 21.9223 19.6724 22.1098ZM38.7501 25.6875V26.6562H39.7188H40.6876V25.6875V24.7188H39.7188H38.7501V25.6875ZM43.5938 25.6875V26.6562H44.5626H45.5313V25.6875V24.7188H44.5626H43.5938V25.6875ZM3.8751 32.4688V34.4062H8.23447H12.5938V32.766C12.5938 31.1859 12.6047 31.1148 12.8911 30.8285L13.1883 30.5312H8.53176H3.8751V32.4688ZM27.7474 30.7624C28.0195 30.9824 28.0352 31.076 28.0728 32.6999L28.1121 34.4062H43.1187H58.1251V32.4688V30.5312H42.7933C27.6852 30.5312 27.4657 30.5346 27.7474 30.7624ZM14.5313 33.4375V34.4062H20.3438H26.1563V33.4375V32.4688H20.3438H14.5313V33.4375ZM5.93369 36.4743C5.93369 36.5461 6.31514 40.4108 6.78135 45.0625C7.24756 49.7142 7.629 53.5789 7.629 53.6507C7.629 53.7387 8.27891 53.7812 9.62705 53.7812H11.6251V47.1318C11.6251 41.8816 11.6614 40.2926 11.7975 39.5811C11.9691 38.6839 12.4585 37.4868 12.9598 36.7373L13.2231 36.3438H9.57837C7.05272 36.3438 5.93369 36.3838 5.93369 36.4743ZM15.2298 37.0466C14.8612 37.4331 14.4164 38.0317 14.2417 38.3765C13.5593 39.723 13.5626 39.6735 13.5626 48.7951C13.5626 57.1311 13.5647 57.2031 13.8191 57.6558C13.9601 57.9068 14.2808 58.2274 14.5318 58.3685C14.9775 58.6191 15.1132 58.625 20.3438 58.625C25.5745 58.625 25.7102 58.6191 26.1559 58.3685C26.4069 58.2274 26.7275 57.9068 26.8686 57.6558C27.123 57.2031 27.1251 57.1311 27.1251 48.7951C27.1251 39.6735 27.1284 39.723 26.446 38.3765C26.2713 38.0317 25.8265 37.4331 25.4579 37.0466L24.7875 36.3438H20.3438H15.9002L15.2298 37.0466ZM27.7279 36.7373C28.2188 37.4713 28.6786 38.5916 28.8709 39.5229C29.0322 40.3035 29.0626 41.5082 29.0626 47.116V53.7812H31.157H33.2515L34.1541 53.2265C35.6244 52.3229 35.9801 51.891 36.4393 50.4512C36.7999 49.3205 37.1735 48.705 37.973 47.9244L38.6393 47.2739L38.1902 46.4139C37.8209 45.7071 37.7415 45.4294 37.7437 44.8541C37.747 44.024 38.0126 43.3361 38.5444 42.7813C39.7047 41.5709 41.4519 41.5003 42.7503 42.6117C43.0438 42.863 43.2928 42.9989 43.3184 42.922C43.3435 42.8467 43.5656 42.4524 43.8119 42.0458C45.4488 39.344 48.1863 37.7929 51.3072 37.7989C52.6675 37.8017 53.8328 38.0501 54.9309 38.5716L55.8003 38.9844L55.8678 38.4815C55.905 38.2048 55.9712 37.6106 56.015 37.1611L56.0947 36.3438H41.7796H27.4646L27.7279 36.7373ZM50.3718 39.7391C48.1293 40.0773 46.2589 41.4292 45.2895 43.4122C44.373 45.2875 44.2543 44.8484 46.8452 49.1695L49.0986 52.928L49.7672 53.075C52.0583 53.5789 54.4122 52.8925 56.0665 51.2383C57.4062 49.8986 58.0493 48.347 58.0493 46.4551C58.0493 44.5631 57.4062 43.0115 56.0665 41.6719C55.6336 41.239 54.9463 40.7085 54.5391 40.4929C53.3085 39.8415 51.6643 39.5441 50.3718 39.7391ZM49.608 41.9682C48.2331 42.5335 47.5103 43.2172 46.8917 44.5374C46.5969 45.1668 46.5606 45.3834 46.5606 46.5156C46.5606 47.6769 46.5915 47.8501 46.9165 48.5137C48.8333 52.4277 54.4252 52.0855 55.8874 47.9648C56.1307 47.2789 56.1327 45.802 55.8914 44.996C55.647 44.1801 54.9279 43.1751 54.1875 42.6151C52.9182 41.6548 51.0215 41.3869 49.608 41.9682ZM21.3126 43.125V44.0938H23.2501H25.1876V43.125V42.1562H23.2501H21.3126V43.125ZM50.0724 43.8395C49.0402 44.3184 48.4358 45.2968 48.4403 46.4815C48.4516 49.4909 52.3834 50.4771 53.8232 47.8317C54.6374 46.3359 53.9759 44.4515 52.4073 43.7972C51.7924 43.5407 50.6726 43.5609 50.0724 43.8395ZM40.1729 43.8612C39.8608 44.0431 39.5675 44.6834 39.6485 45.0062C39.7517 45.4172 46.831 57.1945 47.1252 57.4443C47.4065 57.6834 47.969 57.7212 48.3343 57.5256C48.6795 57.3408 48.9149 56.722 48.7968 56.3099C48.6361 55.7496 41.6754 44.2474 41.335 43.9797C40.9942 43.7116 40.5139 43.6627 40.1729 43.8612ZM21.3126 47V47.9688H23.2501H25.1876V47V46.0312H23.2501H21.3126V47ZM39.1997 49.4093C38.6773 49.9875 38.5049 50.3134 38.1506 51.3916C37.6265 52.9868 36.7947 53.9084 34.7716 55.1357C34.2723 55.4385 34.011 55.6816 33.9581 55.8925C33.7773 56.6129 34.267 57.293 34.9664 57.293C35.239 57.293 35.7125 57.0938 36.3863 56.6959C38.1232 55.6699 39.2507 55.4399 41.0079 55.753C41.6539 55.8682 42.197 55.896 42.5821 55.8338C43.2057 55.7332 43.5938 55.61 43.5938 55.5128C43.5938 55.4442 39.8468 49.1662 39.7204 49.023C39.6737 48.9701 39.4394 49.144 39.1997 49.4093ZM21.3126 50.875V51.8438H23.2501H25.1876V50.875V49.9062H23.2501H21.3126V50.875ZM21.3126 54.75V55.7188H23.2501H25.1876V54.75V53.7812H23.2501H21.3126V54.75Z" fill="black"/>
</g>
</svg>
