<?xml version="1.0" encoding="UTF-8"?>
<svg xmlns="http://www.w3.org/2000/svg" xmlns:xlink="http://www.w3.org/1999/xlink" width="768px" height="873px" viewBox="0 0 768 873" version="1.1">
<defs>
<filter id="alpha" filterUnits="objectBoundingBox" x="0%" y="0%" width="100%" height="100%">
  <feColorMatrix type="matrix" in="SourceGraphic" values="0 0 0 0 1 0 0 0 0 1 0 0 0 0 1 0 0 0 1 0"/>
</filter>
<mask id="mask0">
  <g filter="url(#alpha)">
<rect x="0" y="0" width="768" height="873" style="fill:rgb(0%,0%,0%);fill-opacity:0.501961;stroke:none;"/>
  </g>
</mask>
<clipPath id="clip1">
  <rect x="0" y="0" width="768" height="873"/>
</clipPath>
<g id="surface5" clip-path="url(#clip1)">
<path style=" stroke:none;fill-rule:nonzero;fill:rgb(87.843137%,87.843137%,87.843137%);fill-opacity:1;" d="M 626.199219 157.597656 C 634.242188 155.488281 647.777344 145.4375 648.867188 144.621094 C 655.917969 150.917969 663.488281 156.820312 671.527344 162.285156 C 676.175781 165.472656 680.976562 168.589844 685.835938 171.660156 C 683.363281 170.53125 681.121094 169.527344 680.800781 169.421875 C 671.542969 166.261719 651.425781 164.582031 644.050781 171.5 C 642.871094 172.675781 642.007812 174.039062 641.523438 175.5 C 641.035156 176.960938 640.933594 178.492188 641.222656 179.988281 C 641.515625 181.484375 642.191406 182.910156 643.207031 184.179688 C 644.226562 185.449219 645.558594 186.527344 647.128906 187.347656 C 653.621094 191.050781 663.335938 190.242188 670.488281 188.351562 C 677.636719 186.464844 689.492188 178.082031 692.550781 175.820312 L 698.195312 179.3125 C 707.257812 184.867188 716.320312 190.367188 725.023438 195.984375 C 728.085938 197.964844 731.03125 200.011719 733.976562 202.039062 C 731.765625 201.035156 729.902344 200.207031 729.582031 200.101562 C 720.355469 196.941406 700.207031 195.261719 692.832031 202.179688 C 691.648438 203.355469 690.789062 204.722656 690.300781 206.183594 C 689.816406 207.648438 689.710938 209.179688 690.003906 210.679688 C 690.292969 212.175781 690.96875 213.605469 691.988281 214.875 C 693.003906 216.148438 694.339844 217.230469 695.910156 218.050781 C 702.402344 221.730469 712.144531 220.921875 719.269531 219.054688 C 726.386719 217.191406 737.125 209.578125 740.785156 206.917969 C 743.667969 209.0625 746.550781 211.207031 749.433594 213.421875 C 751.273438 214.945312 753.148438 216.324219 754.863281 217.941406 C 756.585938 219.554688 758.335938 221.078125 760.027344 222.644531 C 763.203125 225.703125 766.464844 228.863281 769.464844 231.941406 C 771.550781 234.066406 773.519531 236.097656 775.488281 238.175781 C 772.453125 236.171875 766.4375 232.359375 765.886719 232.085938 C 757.34375 227.835938 737.722656 223.675781 729.195312 229.632812 C 727.808594 230.648438 726.699219 231.890625 725.945312 233.277344 C 725.1875 234.660156 724.800781 236.160156 724.804688 237.675781 C 724.8125 239.191406 725.210938 240.6875 725.976562 242.066406 C 726.742188 243.445312 727.859375 244.679688 729.253906 245.683594 C 735.015625 250.113281 744.75 250.53125 752.164062 249.554688 C 760.292969 248.453125 774.996094 240.558594 776.832031 239.566406 C 780.085938 242.988281 783.195312 246.355469 786.101562 249.554688 C 793.847656 258.144531 800.332031 265.777344 805.296875 271.9375 L 812.03125 269.25 C 806.742188 263.007812 799.828125 255.152344 791.464844 246.308594 C 788.183594 242.816406 784.585938 239.148438 780.839844 235.40625 C 784.632812 231.988281 788.175781 228.386719 791.445312 224.628906 C 799.363281 227.1875 815.820312 227.066406 817.945312 227.0625 C 818.304688 231.382812 818.640625 235.558594 818.863281 239.539062 C 819.464844 249.878906 819.636719 258.9375 819.632812 266.195312 L 826.9375 263.253906 C 826.71875 256.445312 826.28125 248.339844 825.515625 239.269531 C 825.128906 234.875 824.632812 230.21875 824.085938 225.417969 C 826.167969 224.980469 843.242188 221.304688 849.671875 217.074219 C 855.5 213.242188 861.613281 207.042969 861.355469 200.546875 C 861.359375 199.03125 860.96875 197.53125 860.214844 196.148438 C 859.457031 194.765625 858.347656 193.527344 856.957031 192.515625 C 855.570312 191.503906 853.9375 190.742188 852.160156 190.277344 C 850.382812 189.8125 848.503906 189.660156 846.648438 189.824219 C 835.5 191.054688 826.273438 205.695312 824.503906 213.710938 C 824.484375 214.1875 823.957031 219.425781 823.761719 222.726562 C 823.5 220.78125 823.296875 218.882812 823.007812 216.867188 C 822.492188 212.878906 821.824219 208.914062 821.109375 204.65625 C 820.703125 202.613281 820.273438 200.542969 819.839844 198.449219 C 819.40625 196.359375 818.738281 194.210938 818.1875 192.070312 C 816.789062 187.105469 815.089844 182.160156 813.246094 177.1875 C 817.542969 176.820312 832.777344 175.191406 839.285156 172.183594 C 845.792969 169.179688 852.976562 163.722656 853.894531 157.34375 C 854.179688 155.847656 854.074219 154.316406 853.585938 152.855469 C 853.097656 151.394531 852.234375 150.035156 851.050781 148.863281 C 849.871094 147.691406 848.398438 146.734375 846.730469 146.054688 C 845.0625 145.375 843.234375 144.988281 841.371094 144.917969 C 830.125 144.6875 818.25 158.125 815.007812 165.9375 C 814.785156 166.4375 813.234375 172.179688 812.453125 175.347656 C 811.308594 172.355469 810.167969 169.386719 808.90625 166.414062 C 805.207031 157.808594 801.148438 149.199219 797.152344 140.585938 C 795.910156 137.949219 794.726562 135.316406 793.542969 132.679688 C 795.054688 132.542969 813.238281 131.023438 820.53125 127.578125 C 826.984375 124.5 834.191406 119.113281 835.140625 112.738281 C 835.425781 111.238281 835.320312 109.710938 834.832031 108.25 C 834.339844 106.789062 833.476562 105.425781 832.296875 104.253906 C 831.113281 103.082031 829.644531 102.125 827.972656 101.445312 C 826.304688 100.765625 824.480469 100.378906 822.613281 100.3125 C 811.371094 100.082031 799.496094 113.515625 796.226562 121.210938 C 796 121.804688 793.75 130.074219 793.324219 132.195312 C 790.5625 126.390625 788.125 120.566406 785.867188 114.769531 C 782.800781 106.9375 780.363281 98.949219 778.566406 90.859375 C 779.273438 90.871094 798.230469 89.269531 805.703125 85.734375 C 812.183594 82.65625 819.390625 77.269531 820.339844 70.894531 C 820.621094 69.394531 820.511719 67.863281 820.019531 66.402344 C 819.523438 64.941406 818.660156 63.582031 817.472656 62.410156 C 816.289062 61.238281 814.816406 60.28125 813.148438 59.605469 C 811.480469 58.925781 809.652344 58.535156 807.785156 58.46875 C 796.539062 58.238281 784.695312 71.675781 781.425781 79.367188 C 781.167969 79.988281 778.777344 88.898438 778.488281 90.519531 C 778.503906 90.042969 778.195312 89.578125 778.121094 89.101562 C 776.589844 80.941406 775.964844 72.6875 776.25 64.433594 C 776.402344 59.886719 776.722656 55.53125 777.21875 51.300781 C 780.789062 51.375 797.097656 51.230469 804.242188 48.644531 C 811.386719 46.058594 818.980469 41.449219 820.785156 35.183594 C 821.269531 33.71875 821.371094 32.191406 821.082031 30.691406 C 820.792969 29.195312 820.117188 27.765625 819.101562 26.496094 C 818.082031 25.226562 816.75 24.144531 815.183594 23.320312 C 813.617188 22.496094 811.851562 21.949219 810.003906 21.714844 C 798.851562 20.578125 785.242188 32.78125 780.980469 40.167969 C 780.734375 40.570312 778.933594 44.917969 777.769531 47.984375 C 778.039062 46.097656 778.25 44.113281 778.546875 42.296875 C 779.632812 35.445312 781.136719 29.246094 782.558594 23.742188 C 783.371094 20.621094 784.203125 17.835938 784.996094 15.214844 C 788.503906 13.730469 802.554688 7.667969 807.355469 2.785156 C 812.152344 -2.101562 816.367188 -9.011719 814.421875 -15.328125 C 814.019531 -16.804688 813.242188 -18.199219 812.128906 -19.414062 C 811.023438 -20.632812 809.609375 -21.644531 807.984375 -22.390625 C 806.363281 -23.136719 804.5625 -23.59375 802.703125 -23.738281 C 800.84375 -23.882812 798.96875 -23.707031 797.199219 -23.226562 C 786.640625 -20.085938 781.503906 -4.164062 781.882812 3.964844 C 781.859375 4.683594 784.007812 15.625 784.191406 15.535156 L 784.394531 15.539062 C 783.574219 18.035156 782.6875 20.726562 781.820312 23.703125 C 780.28125 29.179688 778.484375 35.371094 777.308594 42.222656 C 775.839844 49.589844 774.90625 57.019531 774.507812 64.46875 C 773.992188 72.820312 774.398438 81.191406 775.71875 89.480469 L 775.707031 89.769531 C 774.3125 87.34375 770.101562 80.695312 769.703125 80.230469 C 764.019531 73.453125 748.503906 63.027344 737.699219 65.515625 C 735.917969 65.96875 734.273438 66.71875 732.871094 67.722656 C 731.46875 68.726562 730.34375 69.957031 729.570312 71.335938 C 728.792969 72.714844 728.382812 74.210938 728.367188 75.726562 C 728.351562 77.242188 728.730469 78.738281 729.476562 80.128906 C 732.382812 86.105469 740.972656 89.800781 748.242188 91.433594 C 756.394531 93.253906 774.515625 90.917969 775.972656 90.730469 C 777.566406 99.136719 779.855469 107.441406 782.828125 115.597656 C 784.527344 120.421875 786.410156 125.109375 788.261719 129.839844 C 786.972656 127.777344 785.792969 125.957031 785.59375 125.714844 C 779.910156 118.9375 764.363281 108.511719 753.589844 110.996094 C 751.808594 111.449219 750.164062 112.203125 748.761719 113.207031 C 747.359375 114.207031 746.230469 115.4375 745.453125 116.816406 C 744.675781 118.195312 744.261719 119.691406 744.242188 121.203125 C 744.222656 122.71875 744.597656 124.21875 745.339844 125.609375 C 748.273438 131.609375 756.832031 135.285156 764.132812 136.917969 C 771.433594 138.550781 786.96875 136.832031 791.0625 136.320312 L 793.363281 141.757812 C 797.148438 150.457031 800.96875 159.113281 804.316406 167.683594 C 805.515625 170.703125 806.570312 173.71875 807.621094 176.734375 C 806.46875 174.914062 805.488281 173.386719 805.316406 173.167969 C 799.632812 166.390625 784.089844 155.964844 773.316406 158.449219 C 771.535156 158.90625 769.890625 159.660156 768.492188 160.664062 C 767.09375 161.667969 765.972656 162.898438 765.195312 164.277344 C 764.421875 165.65625 764.011719 167.148438 763.992188 168.664062 C 763.976562 170.175781 764.351562 171.675781 765.09375 173.0625 C 768.027344 179.039062 776.585938 182.738281 783.886719 184.371094 C 791.1875 186.007812 805.210938 184.425781 810.074219 183.851562 C 811.03125 186.964844 812.023438 190.074219 812.71875 193.128906 C 813.183594 195.222656 813.824219 197.226562 814.136719 199.339844 C 814.453125 201.453125 814.886719 203.523438 815.261719 205.566406 C 815.808594 209.554688 816.382812 213.664062 816.78125 217.578125 C 817.109375 220.289062 817.347656 222.882812 817.585938 225.476562 C 816.414062 222.457031 813.980469 216.585938 813.730469 216.101562 C 809.804688 209.667969 803.902344 204.160156 796.597656 200.105469 C 796.207031 199.375 795.714844 198.683594 795.128906 198.042969 C 794.101562 196.777344 792.757812 195.707031 791.183594 194.894531 C 789.613281 194.082031 787.84375 193.550781 786 193.328125 C 784.152344 193.109375 782.273438 193.207031 780.472656 193.613281 C 778.675781 194.023438 777.003906 194.734375 775.566406 195.699219 C 767.097656 201.707031 769.335938 218.042969 773.308594 225.527344 C 773.5625 225.964844 776.75 230.507812 778.957031 233.359375 C 777.414062 231.839844 775.925781 230.347656 774.324219 228.808594 C 771.175781 225.722656 767.9375 222.710938 764.441406 219.476562 L 759.160156 214.867188 C 757.410156 213.320312 755.332031 211.839844 753.40625 210.292969 C 748.882812 206.796875 744.09375 203.417969 739.152344 200.132812 C 742.476562 197.800781 754.261719 189.78125 757.398438 184.285156 C 760.53125 178.792969 763.089844 171.128906 759.527344 165.378906 C 758.75 164.003906 757.621094 162.773438 756.21875 161.773438 C 754.8125 160.777344 753.164062 160.027344 751.378906 159.582031 C 749.59375 159.132812 747.714844 158.996094 745.855469 159.175781 C 744 159.359375 742.210938 159.855469 740.605469 160.632812 C 731.109375 165.539062 730.300781 181.980469 732.816406 189.867188 C 732.976562 190.351562 735.570312 195.839844 737.066406 198.816406 C 734.179688 196.867188 731.144531 194.886719 728.046875 192.980469 C 719.101562 187.453125 709.859375 182.089844 700.644531 176.730469 L 692.273438 171.765625 C 693.449219 170.976562 707.585938 161.585938 711.332031 155.386719 C 714.644531 149.917969 716.996094 142.230469 713.4375 136.480469 C 712.65625 135.101562 711.527344 133.875 710.125 132.875 C 708.71875 131.875 707.070312 131.128906 705.285156 130.683594 C 703.496094 130.238281 701.613281 130.101562 699.757812 130.289062 C 697.902344 130.472656 696.113281 130.972656 694.511719 131.757812 C 685.046875 136.640625 684.207031 153.105469 686.722656 160.96875 C 686.910156 161.546875 690.664062 169.457031 691.753906 171.421875 C 685.582031 167.75 679.503906 163.984375 673.691406 160.222656 C 665.796875 155.074219 658.324219 149.511719 651.324219 143.570312 C 651.867188 143.199219 666.664062 133.4375 670.503906 127.195312 C 673.8125 121.75 676.167969 114.039062 672.605469 108.285156 C 671.828125 106.914062 670.699219 105.6875 669.296875 104.691406 C 667.894531 103.695312 666.246094 102.949219 664.464844 102.503906 C 662.683594 102.058594 660.804688 101.921875 658.953125 102.105469 C 657.097656 102.289062 655.3125 102.785156 653.710938 103.566406 C 644.214844 108.472656 643.375 124.914062 645.921875 132.773438 C 646.109375 133.402344 650.140625 141.894531 651.003906 143.371094 L 649.738281 142.363281 C 642.929688 136.25 636.800781 129.652344 631.429688 122.65625 C 628.398438 118.808594 625.777344 115.019531 623.300781 111.28125 C 626.308594 109.6875 639.84375 102.296875 644.035156 96.945312 C 648.230469 91.59375 651.453125 84.378906 648.699219 78.355469 C 648.109375 76.917969 647.15625 75.597656 645.894531 74.476562 C 644.636719 73.359375 643.101562 72.46875 641.386719 71.863281 C 639.675781 71.261719 637.824219 70.957031 635.953125 70.96875 C 634.085938 70.984375 632.242188 71.316406 630.539062 71.949219 C 620.453125 75.980469 617.402344 92.257812 618.851562 100.3125 C 618.835938 100.742188 620.34375 105.132812 621.539062 108.296875 C 620.472656 106.597656 619.320312 104.847656 618.308594 103.199219 C 614.558594 97.015625 611.625 91.085938 609.046875 85.976562 C 607.609375 83 606.28125 80.292969 605.273438 77.753906 C 607.222656 74.96875 614.808594 63.578125 615.515625 57.410156 C 616.21875 51.242188 614.941406 43.480469 609.089844 39.167969 C 607.75 38.113281 606.152344 37.296875 604.398438 36.777344 C 602.644531 36.257812 600.773438 36.042969 598.910156 36.148438 C 597.046875 36.25 595.226562 36.671875 593.574219 37.382812 C 591.925781 38.09375 590.476562 39.078125 589.324219 40.273438 C 582.640625 47.609375 589.183594 63.171875 595.019531 69.785156 C 595.53125 70.367188 604.742188 78.535156 604.835938 78.394531 L 604.84375 78.226562 C 605.824219 80.640625 606.949219 83.324219 608.242188 86.175781 C 610.667969 91.425781 613.484375 97.351562 617.085938 103.628906 C 620.863281 110.429688 625.132812 117.046875 629.867188 123.441406 C 635.105469 130.628906 641.136719 137.414062 647.894531 143.714844 L 648.152344 143.9375 C 645.246094 142.535156 637.300781 138.921875 636.511719 138.667969 C 627.285156 135.507812 607.136719 133.828125 599.761719 140.742188 C 598.578125 141.917969 597.71875 143.28125 597.234375 144.746094 C 596.746094 146.207031 596.644531 147.738281 596.933594 149.230469 C 597.226562 150.726562 597.902344 152.15625 598.917969 153.425781 C 599.9375 154.691406 601.269531 155.773438 602.839844 156.59375 C 609.332031 160.34375 619.078125 159.488281 626.199219 157.597656 Z M 626.199219 157.597656 "/>
</g>
</defs>
<g id="surface1">
<rect x="0" y="0" width="768" height="873" style="fill:rgb(100%,100%,100%);fill-opacity:1;stroke:none;"/>
<use xlink:href="#surface5" mask="url(#mask0)"/>
<path style=" stroke:none;fill-rule:nonzero;fill:rgb(87.843137%,87.843137%,87.843137%);fill-opacity:1;" d="M 116.117188 827 C 111.660156 825.78125 104.210938 820.117188 103.609375 819.65625 C 99.632812 823.125 95.367188 826.367188 90.84375 829.367188 C 88.226562 831.117188 85.53125 832.824219 82.796875 834.507812 C 84.183594 833.894531 85.441406 833.347656 85.621094 833.289062 C 90.800781 831.582031 102.015625 830.753906 106.0625 834.640625 C 106.707031 835.300781 107.175781 836.066406 107.433594 836.882812 C 107.691406 837.699219 107.734375 838.550781 107.558594 839.382812 C 107.386719 840.214844 106.996094 841.003906 106.417969 841.707031 C 105.84375 842.40625 105.089844 843 104.210938 843.449219 C 100.5625 845.476562 95.164062 844.972656 91.199219 843.882812 C 87.234375 842.792969 80.707031 838.0625 79.023438 836.789062 L 75.851562 838.703125 C 70.757812 841.746094 65.667969 844.761719 60.773438 847.839844 C 59.050781 848.925781 57.394531 850.050781 55.734375 851.164062 C 56.976562 850.613281 58.019531 850.164062 58.199219 850.109375 C 63.363281 848.398438 74.59375 847.570312 78.640625 851.460938 C 79.285156 852.121094 79.753906 852.886719 80.011719 853.707031 C 80.273438 854.527344 80.316406 855.378906 80.140625 856.203125 C 79.964844 857.039062 79.578125 857.832031 79 858.53125 C 78.421875 859.230469 77.667969 859.828125 76.789062 860.28125 C 73.144531 862.292969 67.726562 861.789062 63.777344 860.714844 C 59.828125 859.640625 53.917969 855.34375 51.902344 853.84375 C 50.28125 855.019531 48.65625 856.195312 47.035156 857.414062 C 45.996094 858.25 44.941406 859.011719 43.972656 859.90625 C 43 860.792969 42.011719 861.628906 41.058594 862.496094 C 39.261719 864.183594 37.417969 865.925781 35.722656 867.621094 C 34.542969 868.789062 33.429688 869.914062 32.316406 871.054688 C 34.023438 869.957031 37.402344 867.867188 37.714844 867.714844 C 42.507812 865.394531 53.464844 863.1875 58.160156 866.546875 C 58.921875 867.125 59.527344 867.816406 59.9375 868.59375 C 60.347656 869.367188 60.550781 870.203125 60.535156 871.046875 C 60.519531 871.890625 60.28125 872.726562 59.84375 873.484375 C 59.40625 874.253906 58.773438 874.933594 57.988281 875.480469 C 54.742188 877.917969 49.320312 878.097656 45.203125 877.519531 C 40.683594 876.863281 32.566406 872.386719 31.554688 871.824219 C 29.714844 873.707031 27.957031 875.574219 26.308594 877.339844 C 21.921875 882.078125 18.246094 886.292969 15.429688 889.691406 L 11.703125 888.15625 C 14.703125 884.714844 18.621094 880.382812 23.351562 875.496094 C 25.207031 873.570312 27.242188 871.550781 29.359375 869.488281 C 27.277344 867.5625 25.339844 865.539062 23.550781 863.433594 C 19.121094 864.816406 9.960938 864.664062 8.777344 864.644531 C 8.539062 867.050781 8.316406 869.367188 8.160156 871.585938 C 7.734375 877.339844 7.558594 882.378906 7.5 886.417969 L 3.457031 884.738281 C 3.636719 880.953125 3.953125 876.445312 4.457031 871.398438 C 4.710938 868.957031 5.027344 866.367188 5.375 863.699219 C 4.21875 863.441406 -5.253906 861.304688 -8.796875 858.917969 C -12.007812 856.75 -15.359375 853.265625 -15.160156 849.652344 C -15.148438 848.808594 -14.917969 847.976562 -14.484375 847.210938 C -14.050781 846.445312 -13.421875 845.761719 -12.640625 845.207031 C -11.859375 844.648438 -10.945312 844.234375 -9.949219 843.984375 C -8.957031 843.738281 -7.910156 843.660156 -6.878906 843.761719 C -0.683594 844.507812 4.324219 852.710938 5.242188 857.175781 C 5.246094 857.441406 5.496094 860.355469 5.578125 862.199219 C 5.738281 861.117188 5.867188 860.066406 6.046875 858.941406 C 6.367188 856.726562 6.773438 854.515625 7.210938 852.15625 C 7.453125 851.019531 7.710938 849.871094 7.96875 848.707031 C 8.230469 847.542969 8.621094 846.351562 8.945312 845.164062 C 9.765625 842.40625 10.753906 839.664062 11.824219 836.90625 C 9.4375 836.675781 0.96875 835.691406 -2.628906 833.980469 C -6.226562 832.273438 -10.175781 829.199219 -10.632812 825.640625 C -10.777344 824.808594 -10.707031 823.957031 -10.421875 823.144531 C -10.136719 822.335938 -9.644531 821.582031 -8.976562 820.9375 C -8.308594 820.289062 -7.480469 819.765625 -6.546875 819.394531 C -5.613281 819.027344 -4.59375 818.820312 -3.554688 818.792969 C 2.710938 818.722656 9.203125 826.265625 10.941406 830.636719 C 11.058594 830.914062 11.875 834.117188 12.28125 835.886719 C 12.945312 834.226562 13.605469 832.578125 14.332031 830.929688 C 16.46875 826.160156 18.800781 821.390625 21.101562 816.617188 C 21.8125 815.15625 22.496094 813.695312 23.175781 812.234375 C 22.335938 812.152344 12.226562 811.207031 8.199219 809.25 C 4.632812 807.503906 0.667969 804.464844 0.191406 800.910156 C 0.046875 800.074219 0.117188 799.226562 0.402344 798.414062 C 0.6875 797.601562 1.183594 796.851562 1.851562 796.203125 C 2.515625 795.558594 3.34375 795.035156 4.28125 794.664062 C 5.214844 794.296875 6.234375 794.089844 7.273438 794.058594 C 13.535156 793.992188 20.03125 801.535156 21.78125 805.835938 C 21.902344 806.167969 23.085938 810.78125 23.304688 811.964844 C 24.890625 808.75 26.296875 805.519531 27.605469 802.304688 C 29.378906 797.960938 30.804688 793.527344 31.875 789.035156 C 31.480469 789.039062 20.941406 788.046875 16.8125 786.035156 C 13.234375 784.289062 9.265625 781.25 8.792969 777.695312 C 8.648438 776.859375 8.722656 776.011719 9.011719 775.199219 C 9.296875 774.386719 9.792969 773.636719 10.460938 772.992188 C 11.128906 772.34375 11.960938 771.820312 12.894531 771.449219 C 13.828125 771.082031 14.851562 770.875 15.890625 770.847656 C 22.152344 770.777344 28.628906 778.320312 30.382812 782.621094 C 30.519531 782.96875 31.773438 787.941406 31.921875 788.847656 C 31.917969 788.578125 32.09375 788.324219 32.136719 788.058594 C 33.0625 783.523438 33.480469 778.933594 33.394531 774.335938 C 33.347656 771.804688 33.207031 769.378906 32.96875 767.019531 C 30.980469 767.042969 21.902344 766.875 17.949219 765.398438 C 13.992188 763.921875 9.804688 761.3125 8.855469 757.816406 C 8.597656 757 8.554688 756.144531 8.726562 755.3125 C 8.902344 754.484375 9.289062 753.691406 9.867188 752.988281 C 10.445312 752.285156 11.195312 751.691406 12.074219 751.242188 C 12.957031 750.792969 13.941406 750.496094 14.972656 750.375 C 21.191406 749.800781 28.660156 756.667969 30.96875 760.800781 C 31.105469 761.027344 32.066406 763.457031 32.6875 765.171875 C 32.554688 764.117188 32.453125 763.011719 32.304688 762 C 31.761719 758.179688 30.976562 754.722656 30.230469 751.652344 C 29.808594 749.90625 29.367188 748.351562 28.949219 746.890625 C 27.011719 746.046875 19.238281 742.59375 16.609375 739.851562 C 13.980469 737.105469 11.695312 733.238281 12.832031 729.730469 C 13.070312 728.910156 13.515625 728.140625 14.144531 727.46875 C 14.769531 726.796875 15.566406 726.238281 16.476562 725.832031 C 17.386719 725.429688 18.394531 725.183594 19.429688 725.113281 C 20.464844 725.042969 21.507812 725.148438 22.488281 725.425781 C 28.339844 727.230469 31.0625 736.121094 30.777344 740.644531 C 30.785156 741.042969 29.496094 747.125 29.394531 747.074219 L 29.28125 747.074219 C 29.714844 748.46875 30.1875 749.972656 30.644531 751.632812 C 31.453125 754.691406 32.402344 758.148438 32.996094 761.96875 C 33.75 766.074219 34.207031 770.214844 34.363281 774.367188 C 34.578125 779.015625 34.277344 783.675781 33.472656 788.28125 L 33.476562 788.441406 C 34.273438 787.101562 36.675781 783.421875 36.902344 783.164062 C 40.125 779.421875 48.851562 773.703125 54.84375 775.144531 C 55.832031 775.40625 56.742188 775.832031 57.511719 776.398438 C 58.285156 776.964844 58.898438 777.65625 59.320312 778.429688 C 59.738281 779.199219 59.953125 780.035156 59.949219 780.878906 C 59.945312 781.722656 59.722656 782.554688 59.292969 783.324219 C 57.625 786.632812 52.8125 788.644531 48.75 789.515625 C 44.199219 790.484375 34.128906 789.089844 33.320312 788.976562 C 32.359375 793.648438 31.015625 798.257812 29.289062 802.78125 C 28.300781 805.460938 27.210938 808.058594 26.140625 810.683594 C 26.878906 809.542969 27.550781 808.535156 27.664062 808.398438 C 30.882812 804.65625 39.628906 798.9375 45.605469 800.378906 C 46.59375 800.640625 47.503906 801.066406 48.273438 801.632812 C 49.046875 802.199219 49.664062 802.890625 50.082031 803.660156 C 50.503906 804.433594 50.722656 805.265625 50.71875 806.109375 C 50.71875 806.953125 50.496094 807.785156 50.070312 808.554688 C 48.386719 811.878906 43.589844 813.878906 39.511719 814.75 C 35.433594 815.621094 26.800781 814.582031 24.527344 814.273438 L 23.199219 817.289062 C 21.015625 822.113281 18.816406 826.910156 16.875 831.664062 C 16.183594 833.335938 15.570312 835.011719 14.960938 836.683594 C 15.617188 835.675781 16.175781 834.832031 16.273438 834.710938 C 19.496094 830.96875 28.238281 825.246094 34.214844 826.6875 C 35.203125 826.953125 36.109375 827.378906 36.878906 827.949219 C 37.648438 828.511719 38.265625 829.203125 38.683594 829.976562 C 39.101562 830.746094 39.320312 831.582031 39.316406 832.421875 C 39.3125 833.265625 39.089844 834.097656 38.664062 834.867188 C 36.980469 838.179688 32.183594 840.191406 28.105469 841.0625 C 24.027344 841.933594 16.234375 840.976562 13.53125 840.632812 C 12.972656 842.359375 12.394531 844.085938 11.980469 845.785156 C 11.703125 846.945312 11.328125 848.058594 11.136719 849.234375 C 10.941406 850.410156 10.683594 851.558594 10.457031 852.691406 C 10.117188 854.910156 9.761719 857.195312 9.503906 859.367188 C 9.300781 860.875 9.148438 862.316406 8.992188 863.765625 C 9.667969 862.085938 11.074219 858.832031 11.21875 858.566406 C 13.460938 855.003906 16.792969 851.96875 20.894531 849.753906 C 21.117188 849.347656 21.398438 848.964844 21.726562 848.613281 C 22.3125 847.914062 23.070312 847.324219 23.953125 846.878906 C 24.835938 846.4375 25.824219 846.148438 26.851562 846.035156 C 27.882812 845.925781 28.929688 845.988281 29.925781 846.226562 C 30.921875 846.460938 31.847656 846.867188 32.640625 847.414062 C 37.300781 850.800781 35.914062 859.886719 33.636719 864.03125 C 33.492188 864.269531 31.679688 866.785156 30.425781 868.355469 C 31.300781 867.519531 32.140625 866.699219 33.046875 865.847656 C 34.824219 864.152344 36.652344 862.488281 38.625 860.707031 L 41.605469 858.164062 C 42.59375 857.320312 43.761719 856.503906 44.851562 855.652344 C 47.398438 853.734375 50.09375 851.875 52.871094 850.074219 C 51.042969 848.757812 44.550781 844.230469 42.851562 841.15625 C 41.15625 838.078125 39.796875 833.800781 41.828125 830.621094 C 42.273438 829.855469 42.914062 829.179688 43.703125 828.628906 C 44.492188 828.082031 45.417969 827.675781 46.414062 827.433594 C 47.414062 827.195312 48.460938 827.128906 49.492188 827.238281 C 50.523438 827.351562 51.515625 827.636719 52.402344 828.078125 C 57.648438 830.859375 57.957031 840.019531 56.488281 844.394531 C 56.394531 844.660156 54.902344 847.703125 54.042969 849.355469 C 55.667969 848.28125 57.375 847.195312 59.117188 846.152344 C 64.144531 843.125 69.335938 840.1875 74.511719 837.25 L 79.214844 834.535156 C 78.566406 834.085938 70.777344 828.785156 68.746094 825.3125 C 66.949219 822.253906 65.707031 817.960938 67.738281 814.777344 C 68.183594 814.015625 68.820312 813.335938 69.613281 812.789062 C 70.402344 812.242188 71.328125 811.832031 72.324219 811.59375 C 73.324219 811.355469 74.375 811.292969 75.40625 811.402344 C 76.4375 811.515625 77.425781 811.804688 78.3125 812.25 C 83.539062 815.019531 83.867188 824.191406 82.398438 828.550781 C 82.289062 828.875 80.128906 833.257812 79.507812 834.34375 C 82.972656 832.332031 86.386719 830.269531 89.65625 828.207031 C 94.097656 825.382812 98.304688 822.328125 102.253906 819.054688 C 101.953125 818.847656 93.800781 813.335938 91.71875 809.835938 C 89.921875 806.789062 88.679688 802.484375 90.710938 799.300781 C 91.15625 798.539062 91.792969 797.863281 92.582031 797.316406 C 93.375 796.769531 94.296875 796.363281 95.292969 796.125 C 96.289062 795.886719 97.335938 795.820312 98.363281 795.933594 C 99.394531 796.042969 100.382812 796.332031 101.269531 796.773438 C 106.511719 799.554688 106.835938 808.710938 105.351562 813.074219 C 105.242188 813.421875 102.925781 818.128906 102.429688 818.949219 L 103.144531 818.394531 C 106.988281 815.023438 110.457031 811.386719 113.507812 807.519531 C 115.230469 805.394531 116.722656 803.300781 118.132812 801.230469 C 116.472656 800.328125 109 796.144531 106.710938 793.140625 C 104.421875 790.140625 102.691406 786.105469 104.277344 782.765625 C 104.617188 781.96875 105.160156 781.238281 105.871094 780.625 C 106.582031 780.007812 107.445312 779.519531 108.402344 779.191406 C 109.363281 778.863281 110.394531 778.703125 111.4375 778.722656 C 112.476562 778.742188 113.5 778.9375 114.441406 779.296875 C 120.023438 781.597656 121.578125 790.671875 120.703125 795.148438 C 120.707031 795.390625 119.832031 797.824219 119.136719 799.578125 C 119.746094 798.640625 120.402344 797.671875 120.976562 796.757812 C 123.121094 793.335938 124.804688 790.050781 126.285156 787.222656 C 127.113281 785.570312 127.875 784.070312 128.457031 782.664062 C 127.394531 781.101562 123.269531 774.71875 122.929688 771.285156 C 122.589844 767.847656 123.371094 763.53125 126.664062 761.164062 C 127.421875 760.582031 128.316406 760.136719 129.296875 759.859375 C 130.277344 759.578125 131.320312 759.46875 132.359375 759.535156 C 133.394531 759.605469 134.402344 759.847656 135.316406 760.253906 C 136.230469 760.65625 137.027344 761.214844 137.660156 761.882812 C 141.316406 766.003906 137.539062 774.632812 134.234375 778.28125 C 133.941406 778.605469 128.742188 783.101562 128.695312 783.023438 L 128.691406 782.929688 C 128.125 784.269531 127.476562 785.753906 126.730469 787.335938 C 125.335938 790.246094 123.714844 793.53125 121.65625 797.003906 C 119.496094 800.769531 117.0625 804.429688 114.371094 807.964844 C 111.390625 811.9375 107.976562 815.683594 104.160156 819.15625 L 104.015625 819.277344 C 105.644531 818.511719 110.097656 816.542969 110.539062 816.40625 C 115.703125 814.695312 126.933594 813.867188 130.980469 817.757812 C 131.628906 818.417969 132.09375 819.183594 132.355469 820 C 132.613281 820.816406 132.65625 821.667969 132.480469 822.5 C 132.304688 823.328125 131.917969 824.121094 131.339844 824.820312 C 130.761719 825.523438 130.011719 826.117188 129.128906 826.566406 C 125.484375 828.617188 120.066406 828.089844 116.117188 827 Z M 116.117188 827 "/>
</g>
</svg>
