<svg width="265" height="266" viewBox="0 0 265 266" fill="none" xmlns="http://www.w3.org/2000/svg">
<mask id="mask0_654_3578" style="mask-type:alpha" maskUnits="userSpaceOnUse" x="0" y="0" width="265" height="266">
<circle cx="132.5" cy="132.823" r="132.5" fill="#C4C4C4"/>
</mask>
<g mask="url(#mask0_654_3578)">
<path d="M-9.43747 102.604C-9.43747 102.604 -14.1431 153.721 24.0886 194.71C62.3203 235.698 120.867 247.945 168.126 259.122C215.384 270.3 255.317 249.457 265.888 209.635C276.46 169.813 241.584 151.766 227.624 102.096C213.663 52.4259 217.333 37.4486 179.101 1.94772C140.869 -33.5532 73.3154 -26.964 32.9394 16.2015C-7.4366 59.367 -9.43747 102.604 -9.43747 102.604Z" fill="white" fill-opacity="0.4"/>
<path d="M140.985 -18.6208C140.985 -18.6208 89.7102 -21.0714 50.4445 18.9279C11.1789 58.9271 1.52198 117.956 -7.56406 165.661C-16.6501 213.366 5.93083 252.342 46.1796 261.15C86.4285 269.958 102.923 234.322 151.93 218.188C200.937 202.055 216.061 205.061 249.844 165.303C283.628 125.546 274.071 58.3472 229.169 19.9109C184.268 -18.5255 140.985 -18.6208 140.985 -18.6208Z" fill="white" fill-opacity="0.56"/>
<g opacity="0.5">
<path d="M-6.54757 213.527C-4.78784 212.908 -1.87451 210.099 -1.6464 209.87C-0.0427716 211.543 1.6708 213.106 3.48288 214.55C4.5322 215.391 5.61411 216.212 6.74163 217.02C6.18113 216.727 5.6858 216.466 5.61411 216.44C3.54805 215.632 -0.903406 215.286 -2.48716 217.209C-2.74563 217.535 -2.93199 217.911 -3.03386 218.314C-3.13574 218.717 -3.15082 219.137 -3.0781 219.546C-3.00539 219.955 -2.84653 220.345 -2.61206 220.688C-2.3776 221.031 -2.07288 221.32 -1.71809 221.537C-0.258172 222.508 1.88609 222.234 3.44378 221.68C5.00146 221.126 7.56284 218.78 8.22763 218.148C8.65127 218.454 9.06839 218.767 9.49203 219.067C11.532 220.527 13.5785 221.973 15.5403 223.453C16.2311 223.974 16.8894 224.515 17.5542 225.05C17.0589 224.789 16.6417 224.574 16.5766 224.548C14.5105 223.74 10.059 223.394 8.47529 225.317C8.22347 225.644 8.0433 226.02 7.94649 226.421C7.84969 226.822 7.83842 227.239 7.91343 227.645C7.98843 228.051 8.14802 228.436 8.38183 228.776C8.61563 229.116 8.91839 229.403 9.27043 229.618C10.7304 230.583 12.8746 230.309 14.4323 229.762C15.99 229.214 18.3037 227.083 19.0923 226.34C19.7441 226.907 20.3958 227.474 21.0476 228.061C21.4582 228.465 21.8818 228.83 22.2729 229.26L23.4525 230.511C24.1695 231.326 24.919 232.167 25.5968 232.988C26.0791 233.555 26.5223 234.096 26.972 234.65C26.3202 234.122 24.932 233.118 24.8147 233.047C22.8594 231.939 18.5383 230.915 16.6939 232.584C16.3952 232.868 16.1598 233.212 16.003 233.593C15.8462 233.974 15.7715 234.384 15.7838 234.796C15.7961 235.208 15.8951 235.613 16.0744 235.984C16.2536 236.356 16.5091 236.685 16.8242 236.951C18.1277 238.124 20.285 238.182 21.9079 237.876C23.7002 237.531 26.8873 235.302 27.2848 235.021C28.0213 235.934 28.7382 236.833 29.3965 237.687C31.1758 239.981 32.6553 242.021 33.7958 243.67L35.2558 242.901C34.0435 241.233 32.4663 239.134 30.5501 236.775C29.8006 235.843 28.9794 234.865 28.1321 233.868C28.9435 232.917 29.6966 231.918 30.3872 230.876C32.1534 231.528 35.7837 231.404 36.2529 231.391C36.3702 232.564 36.468 233.698 36.5462 234.78C36.7548 237.589 36.8591 240.053 36.9177 242.028L38.5015 241.187C38.4037 239.336 38.2538 237.133 38.0127 234.67C37.9019 233.477 37.7585 232.212 37.5955 230.909C38.0518 230.779 41.7993 229.684 43.181 228.497C44.4454 227.422 45.7489 225.701 45.6447 223.935C45.6337 223.523 45.5361 223.117 45.3581 222.745C45.1801 222.373 44.9258 222.042 44.6117 221.775C44.2975 221.508 43.9306 221.309 43.5348 221.193C43.1389 221.077 42.7231 221.045 42.3142 221.1C39.8701 221.498 37.9344 225.532 37.6021 227.722C37.6021 227.852 37.5238 229.28 37.5043 230.179C37.4391 229.651 37.3739 229.136 37.3022 228.589C37.1523 227.507 36.9764 226.431 36.7939 225.278C36.6853 224.726 36.5745 224.165 36.4615 223.596C36.3637 223.029 36.1878 222.449 36.0509 221.869C35.712 220.527 35.2949 219.19 34.8517 217.848C35.7967 217.724 39.1467 217.196 40.561 216.342C41.9753 215.488 43.52 213.963 43.6829 212.223C43.7341 211.814 43.6988 211.398 43.5792 211.004C43.4596 210.609 43.2584 210.243 42.9887 209.931C42.719 209.619 42.3867 209.367 42.0134 209.192C41.6401 209.016 41.2341 208.921 40.8217 208.912C38.345 208.912 35.8228 212.634 35.158 214.778C35.1189 214.915 34.8126 216.486 34.6627 217.352C34.3889 216.544 34.1217 215.743 33.8154 214.941C32.942 212.621 31.9774 210.301 31.0324 207.98L30.1786 205.849C30.5175 205.803 34.5127 205.289 36.0965 204.311C37.5043 203.438 39.0555 201.932 39.2119 200.192C39.273 199.779 39.2456 199.358 39.1313 198.956C39.017 198.555 38.8186 198.182 38.5491 197.864C38.2796 197.545 37.9454 197.287 37.5686 197.108C37.1918 196.928 36.781 196.831 36.3637 196.822C33.8806 196.822 31.3583 200.544 30.7 202.656C30.6479 202.818 30.2177 205.08 30.133 205.66C29.4812 204.096 28.9012 202.525 28.3667 200.961C27.6355 198.846 27.0412 196.687 26.5875 194.496C26.7439 194.496 30.9216 193.955 32.5445 192.951C33.9457 192.078 35.4969 190.572 35.6598 188.832C35.712 188.423 35.6776 188.008 35.5588 187.613C35.44 187.218 35.2395 186.853 34.9703 186.54C34.701 186.228 34.3692 185.976 33.9961 185.8C33.6231 185.625 33.2174 185.53 32.8052 185.521C30.322 185.521 27.7997 189.242 27.1414 191.354C27.0893 191.524 26.62 193.961 26.5679 194.404C26.5679 194.274 26.5027 194.15 26.4767 194.02C26.0821 191.808 25.8837 189.566 25.8836 187.32C25.8836 186.081 25.9227 184.895 26.0009 183.742C26.7895 183.742 30.3872 183.611 31.9514 182.868C33.5156 182.125 35.145 180.828 35.5034 179.114C35.5991 178.713 35.6096 178.297 35.5343 177.892C35.4589 177.486 35.2994 177.102 35.066 176.762C34.8325 176.422 34.5304 176.135 34.1792 175.92C33.8279 175.704 33.4353 175.564 33.0268 175.51C30.5566 175.262 27.6433 178.658 26.7504 180.691C26.7048 180.802 26.3333 181.995 26.0986 182.836C26.1443 182.321 26.1769 181.78 26.229 181.285C26.418 179.414 26.7113 177.719 26.9785 176.214C27.1349 175.36 27.2979 174.598 27.4543 173.881C28.2234 173.457 31.2801 171.73 32.3033 170.374C33.3266 169.019 34.2064 167.116 33.7241 165.408C33.6251 165.006 33.4422 164.629 33.1873 164.302C32.9324 163.975 32.6114 163.706 32.2452 163.512C31.879 163.319 31.476 163.204 31.0625 163.177C30.6491 163.15 30.2346 163.211 29.8462 163.355C27.539 164.267 26.5223 168.628 26.6657 170.837C26.6657 171.033 27.2197 173.998 27.2588 173.972H27.3044C27.1414 174.656 26.972 175.393 26.8025 176.207C26.5027 177.706 26.1508 179.401 25.9422 181.272C25.6697 183.283 25.5152 185.309 25.4795 187.339C25.4294 189.614 25.5821 191.889 25.9357 194.137C25.9357 194.137 25.9357 194.189 25.9357 194.215C25.6098 193.564 24.6322 191.778 24.541 191.654C23.2375 189.842 19.7376 187.092 17.3717 187.828C16.9822 187.962 16.6252 188.177 16.3239 188.458C16.0226 188.738 15.7837 189.08 15.6227 189.459C15.4617 189.838 15.3822 190.247 15.3893 190.658C15.3964 191.07 15.4901 191.476 15.6641 191.849C16.3484 193.459 18.2711 194.417 19.894 194.821C21.7058 195.271 25.6815 194.535 26.0009 194.476C26.4142 196.754 26.9803 199.001 27.6954 201.202C28.106 202.506 28.5557 203.77 28.9989 205.047C28.6991 204.493 28.4254 204.005 28.3798 203.939C27.0763 202.128 23.5764 199.377 21.2105 200.114C20.821 200.248 20.464 200.462 20.1627 200.743C19.8614 201.024 19.6225 201.365 19.4615 201.744C19.3005 202.123 19.221 202.532 19.2281 202.944C19.2353 203.356 19.3289 203.762 19.5029 204.135C20.1873 205.751 22.1099 206.703 23.7263 207.107C25.3426 207.511 28.7643 206.957 29.6637 206.794C29.8527 207.283 30.0287 207.772 30.2177 208.261C31.1106 210.607 32.0165 212.94 32.8247 215.254C33.1115 216.069 33.3657 216.883 33.6264 217.698C33.3592 217.209 33.1245 216.799 33.0854 216.74C31.7819 214.928 28.2755 212.178 25.9162 212.914C25.5261 213.047 25.1684 213.261 24.8664 213.542C24.5644 213.823 24.3248 214.164 24.1631 214.543C24.0015 214.922 23.9214 215.331 23.9281 215.743C23.9348 216.155 24.0281 216.562 24.202 216.935C24.8929 218.545 26.8091 219.503 28.4319 219.907C30.0548 220.311 33.1376 219.803 34.2064 219.621C34.4476 220.461 34.6887 221.302 34.8582 222.13C34.9755 222.697 35.1319 223.238 35.2232 223.811C35.3144 224.385 35.4187 224.945 35.5164 225.499C35.6598 226.581 35.8228 227.696 35.9401 228.758C36.0248 229.495 36.0965 230.199 36.1682 230.902C35.8879 230.088 35.3144 228.504 35.2492 228.374C34.3225 226.666 32.9769 225.221 31.3387 224.176C31.2422 223.982 31.1288 223.797 30.9998 223.622C30.7632 223.285 30.4582 223 30.1045 222.788C29.7509 222.576 29.3565 222.441 28.9472 222.391C28.5378 222.341 28.1225 222.378 27.7283 222.499C27.3341 222.62 26.9698 222.823 26.6592 223.094C24.8342 224.776 25.4534 229.208 26.3789 231.222C26.4376 231.339 27.174 232.558 27.6824 233.32C27.3305 232.916 27.0306 232.519 26.6331 232.108C25.9162 231.287 25.1732 230.485 24.3845 229.625L23.1788 228.4C22.7877 227.989 22.3185 227.598 21.8753 227.187C20.852 226.262 19.7701 225.369 18.6622 224.502C19.3791 223.85 21.9209 221.602 22.5727 220.09C23.2244 218.578 23.7263 216.479 22.8985 214.934C22.7202 214.562 22.465 214.231 22.1498 213.964C21.8347 213.696 21.4665 213.499 21.0696 213.384C20.6727 213.268 20.256 213.239 19.8467 213.296C19.4374 213.353 19.0449 213.496 18.6948 213.716C16.6352 215.104 16.57 219.581 17.1827 221.713C17.2218 221.843 17.8344 223.323 18.1864 224.124C17.5346 223.609 16.8829 223.088 16.1529 222.586C14.1455 221.133 12.0599 219.725 9.99387 218.317L8.10379 217.014C8.3645 216.792 11.4082 214.159 12.1903 212.451C12.8811 210.946 13.3439 208.841 12.5162 207.296C12.3334 206.931 12.0761 206.607 11.7609 206.347C11.4457 206.087 11.0795 205.896 10.6859 205.786C10.2924 205.677 9.88019 205.65 9.47587 205.709C9.07156 205.768 8.68409 205.911 8.33843 206.129C6.27889 207.511 6.21372 211.995 6.83288 214.12C6.8785 214.276 7.76488 216.407 8.01255 216.935C6.63084 215.971 5.26216 214.98 3.94562 213.989C2.16674 212.631 0.477366 211.159 -1.11197 209.584C-0.994651 209.479 2.20545 206.742 3.00058 205.021C3.69144 203.522 4.1607 201.411 3.33298 199.866C3.1503 199.496 2.89187 199.169 2.57448 198.906C2.25709 198.643 1.88785 198.449 1.49076 198.338C1.09367 198.226 0.677607 198.2 0.269619 198.26C-0.138369 198.32 -0.529152 198.465 -0.877335 198.686C-2.93687 200.075 -3.00204 204.552 -2.38288 206.677C-2.33726 206.846 -1.37918 209.134 -1.17714 209.531L-1.46391 209.264C-3.01548 207.64 -4.41803 205.88 -5.65467 204.005C-6.35205 202.975 -6.95817 201.958 -7.53172 200.954C-6.87996 200.505 -3.94708 198.419 -3.05418 196.94C-2.16129 195.46 -1.50953 193.479 -2.16129 191.856C-2.30151 191.468 -2.52185 191.114 -2.80797 190.817C-3.09409 190.519 -3.43958 190.286 -3.82196 190.131C-4.20435 189.976 -4.61506 189.903 -5.02739 189.917C-5.43972 189.932 -5.84442 190.033 -6.21518 190.214C-8.41158 191.367 -8.96557 195.812 -8.58755 197.995C-8.58755 198.113 -8.22909 199.299 -7.9358 200.153C-8.18347 199.697 -8.45068 199.227 -8.6788 198.784C-9.55214 197.122 -10.2495 195.525 -10.8556 194.15C-11.188 193.349 -11.5074 192.619 -11.742 191.934C-11.3379 191.165 -9.74115 188.024 -9.63687 186.342C-9.53259 184.661 -9.91061 182.542 -11.2141 181.402C-11.5174 181.122 -11.876 180.91 -12.2669 180.778C-12.6577 180.646 -13.0719 180.598 -13.4825 180.637C-13.8931 180.675 -14.291 180.8 -14.6503 181.003C-15.0096 181.205 -15.3222 181.481 -15.5678 181.812C-16.9886 183.846 -15.4309 188.043 -14.0883 189.809C-13.971 189.966 -11.8854 192.136 -11.8659 192.097V192.052C-11.6247 192.703 -11.3575 193.427 -11.0577 194.196C-10.4776 195.61 -9.81284 197.207 -8.9786 198.895C-8.09089 200.725 -7.09634 202.5 -6.0001 204.213C-4.78775 206.137 -3.40714 207.949 -1.87451 209.629L-1.81586 209.688C-2.46761 209.323 -4.24689 208.384 -4.42286 208.319C-6.48891 207.511 -10.9404 207.166 -12.5176 209.088C-12.7696 209.414 -12.9501 209.79 -13.0473 210.19C-13.1446 210.59 -13.1564 211.007 -13.082 211.412C-13.0076 211.817 -12.8486 212.202 -12.6155 212.542C-12.3824 212.881 -12.0803 213.168 -11.729 213.383C-10.2495 214.367 -8.11177 214.081 -6.54757 213.527Z" fill="#333333"/>
<path d="M25.6753 183.383C25.721 183.383 25.0236 180.45 24.9584 180.268C24.2089 178.182 21.5302 174.597 19.047 174.682C18.636 174.709 18.2353 174.822 17.8707 175.014C17.5061 175.205 17.1857 175.471 16.9302 175.794C16.6747 176.117 16.4898 176.49 16.3874 176.889C16.285 177.288 16.2674 177.704 16.3357 178.11C16.5769 179.851 18.1867 181.284 19.6336 182.093C21.3282 183.044 25.6688 183.383 25.6753 183.383Z" fill="#333333"/>
<path d="M278.926 213.527C277.166 212.908 274.253 210.099 274.018 209.87C272.416 211.544 270.703 213.108 268.889 214.55C267.84 215.391 266.758 216.212 265.663 217.02C266.217 216.727 266.719 216.466 266.79 216.44C268.856 215.632 273.308 215.286 274.885 217.209C275.137 217.536 275.317 217.911 275.414 218.312C275.51 218.712 275.522 219.129 275.447 219.534C275.372 219.939 275.212 220.324 274.978 220.664C274.744 221.003 274.442 221.29 274.09 221.504C272.63 222.475 270.492 222.202 268.928 221.648C267.364 221.094 264.809 218.747 264.151 218.115L262.88 219.034C260.84 220.494 258.8 221.941 256.838 223.42C256.147 223.942 255.482 224.483 254.818 225.017C255.313 224.756 255.73 224.541 255.802 224.515C257.861 223.707 262.319 223.362 263.897 225.284C264.148 225.611 264.329 225.987 264.425 226.389C264.522 226.79 264.533 227.207 264.458 227.612C264.383 228.018 264.224 228.404 263.99 228.744C263.756 229.084 263.454 229.371 263.101 229.586C261.642 230.551 259.497 230.277 257.94 229.729C256.382 229.182 254.068 227.051 253.28 226.308C252.628 226.875 251.976 227.442 251.324 228.028C250.907 228.432 250.484 228.797 250.092 229.227C249.701 229.658 249.304 230.062 248.919 230.479C248.196 231.294 247.453 232.134 246.769 232.955C246.293 233.522 245.843 234.063 245.393 234.617C246.078 234.09 247.433 233.086 247.557 233.014C249.473 231.906 253.834 230.883 255.671 232.551C255.97 232.836 256.206 233.179 256.362 233.561C256.519 233.942 256.594 234.352 256.582 234.764C256.569 235.176 256.47 235.581 256.291 235.952C256.112 236.323 255.856 236.652 255.541 236.918C254.238 238.091 252.087 238.15 250.457 237.844C248.672 237.498 245.485 235.269 245.087 234.989C244.344 235.901 243.634 236.801 242.969 237.655C241.196 239.949 239.71 241.989 238.57 243.638L237.103 242.869C238.315 241.2 239.899 239.101 241.809 236.742C242.558 235.81 243.379 234.833 244.233 233.835C243.421 232.884 242.666 231.885 241.972 230.844C240.205 231.496 236.575 231.372 236.106 231.359C235.995 232.532 235.891 233.666 235.813 234.748C235.604 237.557 235.5 240.02 235.448 241.995L233.857 241.155C233.955 239.304 234.112 237.101 234.346 234.637C234.464 233.444 234.607 232.18 234.763 230.876C234.307 230.746 230.566 229.651 229.178 228.465C227.92 227.39 226.616 225.669 226.721 223.903C226.731 223.491 226.828 223.085 227.005 222.713C227.182 222.341 227.436 222.01 227.749 221.743C228.063 221.475 228.43 221.277 228.825 221.16C229.221 221.044 229.636 221.012 230.045 221.068C232.495 221.465 234.424 225.499 234.757 227.689C234.757 227.82 234.835 229.247 234.855 230.146C234.926 229.619 234.985 229.104 235.063 228.556C235.207 227.474 235.382 226.399 235.571 225.245C235.676 224.691 235.787 224.131 235.897 223.564C236.008 222.997 236.171 222.417 236.308 221.837C236.653 220.494 237.064 219.158 237.507 217.815C236.562 217.691 233.212 217.164 231.798 216.31C230.384 215.456 228.839 213.931 228.682 212.191C228.63 211.782 228.665 211.366 228.784 210.972C228.902 210.577 229.103 210.211 229.372 209.899C229.641 209.587 229.973 209.335 230.346 209.159C230.719 208.984 231.125 208.888 231.537 208.88C234.02 208.88 236.543 212.601 237.201 214.746C237.246 214.882 237.546 216.453 237.696 217.32C237.97 216.512 238.244 215.71 238.543 214.908C239.423 212.588 240.381 210.268 241.326 207.948C241.62 207.237 241.9 206.527 242.18 205.817C241.848 205.771 237.846 205.256 236.262 204.278C234.861 203.405 233.31 201.9 233.147 200.159C233.095 199.75 233.129 199.335 233.248 198.94C233.367 198.545 233.567 198.18 233.837 197.868C234.106 197.556 234.438 197.303 234.811 197.128C235.184 196.952 235.589 196.857 236.002 196.848C238.485 196.848 241.007 200.57 241.672 202.682C241.718 202.845 242.154 205.106 242.232 205.686C242.884 204.122 243.464 202.551 244.005 200.987C244.739 198.873 245.335 196.713 245.791 194.522C245.635 194.522 241.463 193.981 239.84 192.977C238.433 192.104 236.882 190.598 236.719 188.858C236.667 188.449 236.703 188.033 236.822 187.638C236.942 187.244 237.143 186.878 237.413 186.566C237.682 186.254 238.015 186.002 238.388 185.827C238.761 185.651 239.167 185.556 239.58 185.547C242.063 185.547 244.579 189.269 245.243 191.38C245.296 191.55 245.758 193.987 245.81 194.43C245.81 194.3 245.882 194.176 245.902 194.046C246.299 191.835 246.498 189.593 246.495 187.346C246.495 186.108 246.456 184.921 246.378 183.768C245.589 183.768 241.991 183.637 240.434 182.894C238.876 182.151 237.233 180.854 236.882 179.14C236.785 178.739 236.773 178.323 236.848 177.917C236.923 177.511 237.083 177.126 237.316 176.786C237.55 176.446 237.852 176.159 238.204 175.944C238.556 175.729 238.949 175.59 239.358 175.536C241.828 175.289 244.742 178.684 245.628 180.718C245.68 180.828 246.045 182.021 246.28 182.862C246.234 182.347 246.202 181.806 246.149 181.311C245.96 179.44 245.674 177.746 245.4 176.24C245.243 175.386 245.081 174.624 244.924 173.907C244.162 173.483 241.105 171.756 240.082 170.4C239.058 169.045 238.178 167.142 238.654 165.434C238.754 165.034 238.936 164.659 239.19 164.335C239.443 164.01 239.762 163.742 240.126 163.548C240.49 163.355 240.89 163.24 241.302 163.211C241.713 163.182 242.125 163.24 242.513 163.381C244.82 164.293 245.837 168.654 245.693 170.863C245.693 171.059 245.139 174.024 245.1 173.998H245.054C245.217 174.682 245.393 175.419 245.563 176.234C245.863 177.733 246.215 179.427 246.423 181.298C246.693 183.31 246.846 185.336 246.879 187.365C246.932 189.64 246.781 191.915 246.43 194.163V194.241C246.756 193.59 247.733 191.804 247.824 191.68C249.128 189.868 252.628 187.118 254.994 187.854C255.384 187.987 255.741 188.201 256.043 188.482C256.345 188.763 256.585 189.104 256.746 189.484C256.907 189.863 256.986 190.272 256.978 190.684C256.971 191.096 256.876 191.502 256.701 191.876C256.017 193.485 254.094 194.443 252.478 194.848C250.666 195.297 246.684 194.561 246.364 194.502C245.951 196.78 245.385 199.027 244.67 201.228C244.259 202.532 243.81 203.796 243.366 205.074C243.666 204.52 243.94 204.031 243.986 203.966C245.289 202.154 248.796 199.403 251.155 200.14C251.545 200.273 251.903 200.487 252.205 200.768C252.507 201.048 252.746 201.389 252.908 201.769C253.07 202.148 253.15 202.557 253.143 202.969C253.136 203.381 253.043 203.787 252.869 204.161C252.178 205.777 250.262 206.729 248.639 207.133C247.016 207.537 243.601 206.983 242.702 206.82L242.154 208.287C241.255 210.633 240.349 212.966 239.547 215.28C239.26 216.095 239.006 216.909 238.752 217.724C239.019 217.235 239.247 216.825 239.286 216.766C240.59 214.954 244.096 212.204 246.456 212.94C246.845 213.074 247.202 213.289 247.504 213.57C247.805 213.85 248.044 214.192 248.205 214.571C248.366 214.95 248.445 215.359 248.438 215.771C248.431 216.182 248.337 216.588 248.163 216.962C247.472 218.571 245.556 219.529 243.933 219.933C242.311 220.338 239.228 219.829 238.159 219.647C237.924 220.487 237.683 221.328 237.507 222.156C237.39 222.723 237.233 223.264 237.149 223.837C237.064 224.411 236.953 224.972 236.855 225.526C236.706 226.607 236.549 227.722 236.432 228.784C236.341 229.521 236.269 230.225 236.197 230.929C236.477 230.114 237.057 228.53 237.116 228.4C238.03 226.671 239.372 225.206 241.014 224.144C241.105 223.947 241.219 223.761 241.353 223.59C241.588 223.252 241.893 222.968 242.246 222.756C242.599 222.544 242.993 222.408 243.402 222.359C243.811 222.309 244.225 222.346 244.619 222.467C245.013 222.588 245.377 222.791 245.687 223.062C247.512 224.743 246.899 229.175 245.967 231.189C245.908 231.307 245.172 232.525 244.663 233.288C245.015 232.884 245.354 232.486 245.719 232.076C246.436 231.254 247.173 230.453 247.968 229.592L249.167 228.367C249.565 227.957 250.034 227.565 250.471 227.155C251.494 226.229 252.576 225.337 253.69 224.47C252.973 223.818 250.431 221.569 249.78 220.057C249.128 218.545 248.62 216.447 249.447 214.902C249.629 214.532 249.887 214.204 250.204 213.94C250.522 213.676 250.891 213.482 251.288 213.37C251.685 213.258 252.101 213.231 252.51 213.291C252.918 213.35 253.309 213.495 253.658 213.716C255.717 215.104 255.776 219.582 255.163 221.713C255.124 221.843 254.511 223.323 254.159 224.124C254.811 223.609 255.496 223.088 256.193 222.586C258.207 221.133 260.286 219.725 262.358 218.317L264.242 217.014C263.988 216.792 260.938 214.159 260.156 212.451C259.465 210.946 259.002 208.841 259.83 207.296C260.012 206.926 260.27 206.598 260.587 206.334C260.904 206.07 261.274 205.876 261.671 205.765C262.068 205.653 262.485 205.627 262.893 205.688C263.301 205.748 263.692 205.894 264.04 206.116C266.093 207.498 266.158 211.982 265.546 214.107C265.5 214.263 264.614 216.394 264.359 216.922C265.748 215.958 267.116 214.967 268.426 213.976C270.207 212.62 271.896 211.148 273.484 209.571C273.367 209.466 270.173 206.729 269.371 205.008C268.68 203.509 268.218 201.398 269.045 199.853C269.227 199.484 269.485 199.156 269.802 198.893C270.119 198.63 270.487 198.436 270.884 198.325C271.281 198.214 271.696 198.187 272.104 198.247C272.511 198.307 272.902 198.452 273.249 198.673C275.309 200.062 275.374 204.539 274.755 206.664C274.709 206.833 273.758 209.121 273.556 209.519L273.842 209.251C275.39 207.625 276.79 205.865 278.027 203.992C278.724 202.962 279.33 201.945 279.904 200.941C279.252 200.492 276.319 198.406 275.433 196.927C274.546 195.447 273.888 193.466 274.54 191.843C274.68 191.455 274.9 191.101 275.186 190.804C275.472 190.506 275.818 190.273 276.2 190.118C276.583 189.963 276.993 189.89 277.406 189.904C277.818 189.919 278.223 190.02 278.594 190.201C280.79 191.354 281.344 195.799 280.966 197.982C280.966 198.1 280.601 199.286 280.314 200.14C280.562 199.684 280.829 199.214 281.064 198.771C281.937 197.109 282.628 195.512 283.234 194.137C283.573 193.336 283.886 192.606 284.127 191.921C283.716 191.152 282.126 188.011 282.015 186.329C281.904 184.648 282.243 182.543 283.566 181.402C283.87 181.122 284.228 180.91 284.619 180.778C285.01 180.646 285.424 180.598 285.835 180.637C286.245 180.675 286.643 180.8 287.003 181.003C287.362 181.205 287.675 181.481 287.92 181.813C289.341 183.846 287.783 188.043 286.447 189.81C286.33 189.966 284.238 192.136 284.218 192.097V192.052C283.984 192.703 283.716 193.427 283.41 194.196C282.836 195.61 282.172 197.207 281.331 198.895C280.447 200.724 279.457 202.5 278.365 204.213C277.157 206.14 275.777 207.953 274.24 209.629L274.181 209.688C274.833 209.323 276.612 208.384 276.788 208.319C278.848 207.511 283.306 207.166 284.883 209.088C285.135 209.415 285.315 209.79 285.412 210.191C285.508 210.592 285.519 211.008 285.444 211.413C285.369 211.819 285.21 212.204 284.976 212.543C284.742 212.882 284.44 213.169 284.088 213.383C282.628 214.368 280.484 214.081 278.926 213.527Z" fill="#333333"/>
<path d="M246.703 183.383C246.658 183.383 247.355 180.45 247.414 180.268C248.163 178.182 250.848 174.597 253.325 174.682C253.736 174.708 254.138 174.821 254.503 175.012C254.868 175.203 255.189 175.469 255.444 175.792C255.7 176.116 255.885 176.489 255.987 176.888C256.089 177.288 256.106 177.704 256.036 178.11C255.802 179.851 254.185 181.284 252.745 182.093C251.05 183.044 246.703 183.383 246.703 183.383Z" fill="#333333"/>
</g>
<rect x="49.3838" y="77.5107" width="166.231" height="109.881" rx="13.6864" fill="#FFC700"/>
<rect x="64.6436" y="93.4429" width="24.9996" height="19.5454" rx="7" fill="black"/>
<path d="M184.446 97.5488L187.296 105.341L194.998 108.225L187.296 111.108L184.446 118.901L181.596 111.108L173.895 108.225L181.596 105.341L184.446 97.5488Z" fill="white"/>
<rect x="49.3838" y="153.393" width="166.231" height="13.7968" fill="black"/>
</g>
</svg>
