<svg width="168" height="167" viewBox="0 0 168 167" fill="none" xmlns="http://www.w3.org/2000/svg">
<g id="Group 1">
<g id="Group 1_2">
<g id="illustration">
<g id="forgot password illustration">
<mask id="mask0_677_5130" style="mask-type:alpha" maskUnits="userSpaceOnUse" x="0" y="0" width="168" height="167">
<circle id="Ellipse 1" cx="84" cy="83.5" r="83.5" fill="#C4C4C4"/>
</mask>
<g mask="url(#mask0_677_5130)">
<g id="email-campaign/bro">
<g id="background-simple">
<path id="Vector" d="M-5.44727 64.4566C-5.44727 64.4566 -8.41272 96.6699 15.6805 122.5C39.7737 148.331 76.6692 156.049 106.451 163.093C136.233 170.137 161.398 157.001 168.06 131.906C174.722 106.811 152.744 95.4377 143.946 64.1363C135.148 32.8348 137.461 23.3963 113.368 1.02408C89.2744 -21.3482 46.7026 -17.1957 21.2581 10.0067C-4.18634 37.2091 -5.44727 64.4566 -5.44727 64.4566Z" fill="#ECD825" fill-opacity="0.54"/>
<path id="Vector_2" d="M89.3471 -11.938C89.3471 -11.938 57.0345 -13.4823 32.2897 11.7248C7.54496 36.9318 1.45932 74.1314 -4.2666 104.194C-9.99253 134.257 4.23772 158.82 29.6021 164.371C54.9664 169.921 65.3608 147.464 96.2445 137.296C127.128 127.129 136.659 129.024 157.949 103.969C179.239 78.9141 173.216 36.5664 144.92 12.3442C116.624 -11.8779 89.3471 -11.938 89.3471 -11.938Z" fill="#FFC700" fill-opacity="0.37"/>
</g>
<g id="Plants" opacity="0.5">
<path id="Vector_3" d="M-3.62576 134.359C-2.5168 133.968 -0.680852 132.198 -0.537098 132.054C0.473492 133.108 1.55337 134.094 2.69532 135.004C3.35659 135.533 4.03839 136.051 4.74895 136.56C4.39572 136.375 4.08357 136.211 4.03839 136.195C2.73639 135.685 -0.0688705 135.468 -1.06694 136.679C-1.22982 136.884 -1.34726 137.122 -1.41146 137.376C-1.47566 137.63 -1.48517 137.894 -1.43934 138.152C-1.39351 138.41 -1.2934 138.655 -1.14565 138.871C-0.997889 139.088 -0.805857 139.27 -0.582278 139.406C0.337749 140.018 1.68904 139.846 2.67067 139.497C3.65231 139.148 5.26646 137.669 5.6854 137.271C5.95238 137.464 6.21524 137.661 6.48221 137.85C7.76779 138.77 9.05747 139.682 10.2938 140.614C10.7291 140.943 11.144 141.284 11.5629 141.62C11.2507 141.456 10.9879 141.32 10.9468 141.304C9.6448 140.795 6.83954 140.577 5.84148 141.789C5.68279 141.995 5.56924 142.232 5.50824 142.485C5.44723 142.737 5.44013 143 5.4874 143.256C5.53466 143.512 5.63524 143.754 5.78258 143.969C5.92992 144.183 6.12072 144.364 6.34257 144.499C7.26259 145.107 8.61388 144.935 9.59552 144.59C10.5772 144.245 12.0352 142.902 12.5322 142.434C12.9429 142.791 13.3537 143.148 13.7644 143.518C14.0231 143.773 14.2901 144.003 14.5366 144.274L15.28 145.062C15.7318 145.576 16.2041 146.105 16.6313 146.623C16.9352 146.98 17.2145 147.321 17.4979 147.67C17.0872 147.338 16.2123 146.705 16.1384 146.66C14.9062 145.962 12.1831 145.317 11.0207 146.368C10.8325 146.547 10.6842 146.764 10.5853 147.004C10.4865 147.245 10.4394 147.503 10.4472 147.763C10.4549 148.022 10.5173 148.277 10.6303 148.511C10.7433 148.745 10.9043 148.953 11.1029 149.12C11.9243 149.859 13.2838 149.896 14.3065 149.703C15.436 149.486 17.4445 148.081 17.695 147.904C18.1592 148.479 18.611 149.046 19.0258 149.584C20.1471 151.03 21.0794 152.316 21.7982 153.355L22.7182 152.87C21.9543 151.819 20.9603 150.496 19.7528 149.009C19.2804 148.422 18.7629 147.806 18.229 147.177C18.7403 146.578 19.2149 145.949 19.6501 145.292C20.7632 145.703 23.0509 145.625 23.3466 145.617C23.4206 146.356 23.4822 147.071 23.5315 147.752C23.6629 149.523 23.7286 151.075 23.7656 152.32L24.7636 151.79C24.702 150.623 24.6076 149.235 24.4556 147.683C24.3858 146.931 24.2954 146.134 24.1927 145.313C24.4802 145.231 26.8419 144.541 27.7127 143.793C28.5095 143.115 29.3309 142.031 29.2652 140.918C29.2583 140.658 29.1968 140.403 29.0846 140.168C28.9724 139.933 28.8122 139.725 28.6142 139.557C28.4162 139.388 28.185 139.263 27.9356 139.19C27.6861 139.117 27.424 139.097 27.1664 139.131C25.6262 139.382 24.4063 141.924 24.1968 143.304C24.1968 143.386 24.1475 144.286 24.1352 144.853C24.0942 144.52 24.0531 144.196 24.0079 143.851C23.9134 143.169 23.8025 142.491 23.6875 141.764C23.6191 141.416 23.5493 141.063 23.4781 140.704C23.4165 140.347 23.3056 139.982 23.2193 139.616C23.0057 138.77 22.7429 137.928 22.4636 137.082C23.0591 137.004 25.1703 136.671 26.0615 136.133C26.9528 135.595 27.9262 134.634 28.0289 133.537C28.0612 133.279 28.0389 133.017 27.9635 132.769C27.8882 132.52 27.7614 132.29 27.5914 132.093C27.4215 131.896 27.2121 131.737 26.9768 131.627C26.7416 131.516 26.4857 131.456 26.2258 131.451C24.6651 131.451 23.0756 133.796 22.6566 135.147C22.632 135.234 22.4389 136.223 22.3445 136.77C22.172 136.26 22.0036 135.755 21.8105 135.25C21.2601 133.788 20.6523 132.326 20.0567 130.863L19.5187 129.52C19.7322 129.492 22.25 129.167 23.2481 128.551C24.1352 128.001 25.1128 127.052 25.2113 125.955C25.2499 125.695 25.2326 125.43 25.1605 125.177C25.0885 124.924 24.9635 124.689 24.7937 124.488C24.6238 124.287 24.4132 124.125 24.1757 124.012C23.9383 123.898 23.6794 123.837 23.4165 123.832C21.8516 123.832 20.2621 126.177 19.8472 127.508C19.8144 127.61 19.5433 129.036 19.4899 129.401C19.0792 128.415 18.7136 127.426 18.3768 126.44C17.916 125.107 17.5415 123.746 17.2556 122.365C17.3541 122.365 19.9869 122.025 21.0096 121.392C21.8927 120.842 22.8702 119.893 22.9729 118.796C23.0058 118.539 22.9841 118.277 22.9092 118.028C22.8343 117.779 22.708 117.549 22.5383 117.352C22.3687 117.155 22.1595 116.996 21.9244 116.886C21.6894 116.775 21.4336 116.715 21.1739 116.71C19.609 116.71 18.0195 119.055 17.6047 120.386C17.5718 120.493 17.2761 122.029 17.2432 122.308C17.2432 122.226 17.2022 122.148 17.1857 122.066C16.9371 120.672 16.812 119.259 16.812 117.843C16.812 117.063 16.8366 116.315 16.8859 115.588C17.3829 115.588 19.6501 115.506 20.6358 115.038C21.6216 114.57 22.6484 113.753 22.8743 112.672C22.9346 112.42 22.9412 112.157 22.8937 111.902C22.8463 111.646 22.7457 111.404 22.5986 111.19C22.4515 110.976 22.2611 110.795 22.0398 110.659C21.8184 110.523 21.571 110.435 21.3135 110.401C19.7569 110.245 17.9209 112.385 17.3582 113.666C17.3295 113.736 17.0954 114.488 16.9475 115.018C16.9763 114.693 16.9968 114.352 17.0297 114.04C17.1488 112.861 17.3336 111.793 17.502 110.845C17.6006 110.307 17.7033 109.826 17.8018 109.374C18.2865 109.107 20.2128 108.019 20.8576 107.164C21.5025 106.31 22.0569 105.111 21.753 104.035C21.6906 103.781 21.5753 103.544 21.4147 103.338C21.2541 103.132 21.0518 102.962 20.821 102.84C20.5902 102.718 20.3363 102.646 20.0757 102.629C19.8152 102.612 19.554 102.65 19.3092 102.741C17.8552 103.316 17.2145 106.064 17.3048 107.456C17.3048 107.579 17.654 109.448 17.6786 109.432H17.7074C17.6047 109.863 17.4979 110.327 17.3911 110.84C17.2022 111.785 16.9804 112.853 16.8489 114.032C16.6772 115.3 16.5798 116.576 16.5573 117.856C16.5258 119.289 16.622 120.723 16.8448 122.14C16.8448 122.14 16.8448 122.172 16.8448 122.189C16.6395 121.778 16.0234 120.653 15.9659 120.575C15.1444 119.433 12.9388 117.7 11.4479 118.164C11.2024 118.248 10.9775 118.383 10.7876 118.56C10.5977 118.737 10.4472 118.952 10.3457 119.191C10.2442 119.43 10.1941 119.688 10.1986 119.947C10.2031 120.207 10.2621 120.463 10.3718 120.698C10.8031 121.712 12.0147 122.316 13.0374 122.571C14.1792 122.854 16.6847 122.39 16.8859 122.353C17.1464 123.788 17.5031 125.204 17.9538 126.592C18.2126 127.413 18.496 128.21 18.7752 129.015C18.5863 128.666 18.4138 128.358 18.3851 128.317C17.5636 127.175 15.358 125.442 13.8671 125.906C13.6216 125.99 13.3966 126.126 13.2068 126.303C13.0169 126.48 12.8663 126.695 12.7649 126.933C12.6634 127.172 12.6133 127.43 12.6178 127.69C12.6223 127.949 12.6813 128.205 12.791 128.44C13.2222 129.459 14.4339 130.058 15.4525 130.313C16.4711 130.568 18.6274 130.219 19.1942 130.116C19.3133 130.424 19.4242 130.732 19.5433 131.04C20.106 132.519 20.6769 133.989 21.1862 135.447C21.3669 135.96 21.5271 136.474 21.6914 136.987C21.523 136.679 21.3751 136.421 21.3505 136.384C20.529 135.242 18.3193 133.508 16.8325 133.973C16.5867 134.057 16.3613 134.191 16.171 134.368C15.9806 134.545 15.8296 134.76 15.7278 134.999C15.6259 135.238 15.5754 135.496 15.5797 135.755C15.5839 136.015 15.6427 136.271 15.7523 136.507C16.1877 137.521 17.3952 138.125 18.4179 138.38C19.4406 138.634 21.3834 138.314 22.0569 138.199C22.2089 138.729 22.3609 139.259 22.4677 139.78C22.5416 140.138 22.6402 140.478 22.6977 140.84C22.7552 141.201 22.8209 141.555 22.8825 141.904C22.9729 142.586 23.0756 143.288 23.1495 143.957C23.2029 144.421 23.2481 144.865 23.2932 145.309C23.1166 144.795 22.7552 143.797 22.7141 143.715C22.1301 142.639 21.2821 141.729 20.2498 141.07C20.1889 140.948 20.1174 140.831 20.0362 140.721C19.8871 140.508 19.6948 140.329 19.472 140.195C19.2491 140.061 19.0006 139.976 18.7426 139.945C18.4846 139.913 18.2229 139.937 17.9745 140.013C17.7261 140.089 17.4965 140.217 17.3007 140.388C16.1507 141.448 16.5409 144.241 17.1241 145.51C17.1611 145.584 17.6252 146.352 17.9456 146.832C17.7238 146.578 17.5349 146.327 17.2843 146.068C16.8325 145.551 16.3643 145.046 15.8673 144.504L15.1075 143.731C14.861 143.473 14.5653 143.226 14.286 142.967C13.6412 142.384 12.9594 141.822 12.2611 141.275C12.7129 140.865 14.3148 139.448 14.7255 138.495C15.1362 137.542 15.4525 136.219 14.9308 135.246C14.8184 135.011 14.6576 134.802 14.459 134.634C14.2604 134.466 14.0284 134.341 13.7783 134.268C13.5282 134.196 13.2655 134.177 13.0076 134.213C12.7497 134.249 12.5023 134.339 12.2817 134.478C10.9838 135.353 10.9427 138.174 11.3288 139.517C11.3534 139.6 11.7395 140.532 11.9613 141.037C11.5506 140.713 11.1398 140.384 10.6798 140.068C9.4148 139.152 8.10047 138.265 6.79847 137.378L5.60737 136.556C5.77166 136.416 7.68975 134.757 8.18262 133.681C8.61799 132.732 8.9096 131.406 8.38798 130.432C8.2728 130.202 8.11067 129.998 7.91202 129.834C7.71337 129.67 7.48262 129.55 7.23461 129.481C6.9866 129.412 6.72683 129.395 6.47203 129.432C6.21724 129.469 5.97306 129.56 5.75523 129.697C4.45733 130.568 4.41626 133.393 4.80645 134.732C4.8352 134.831 5.39379 136.174 5.54986 136.507C4.67912 135.899 3.8166 135.275 2.98693 134.65C1.8659 133.794 0.801276 132.867 -0.200303 131.874C-0.126372 131.808 1.89029 130.083 2.39138 128.999C2.82675 128.054 3.12247 126.723 2.60085 125.75C2.48573 125.517 2.32287 125.311 2.12285 125.145C1.92284 124.979 1.69015 124.857 1.43991 124.787C1.18966 124.717 0.927465 124.7 0.670357 124.738C0.413247 124.776 0.16698 124.867 -0.0524416 125.006C-1.35034 125.881 -1.39141 128.703 -1.00122 130.042C-0.972468 130.149 -0.3687 131.59 -0.241375 131.841L-0.422095 131.673C-1.39987 130.649 -2.28375 129.54 -3.06306 128.358C-3.50254 127.709 -3.88452 127.068 -4.24596 126.436C-3.83523 126.152 -1.98696 124.838 -1.42427 123.906C-0.861572 122.973 -0.450846 121.725 -0.861572 120.702C-0.949942 120.457 -1.0888 120.234 -1.2691 120.047C-1.44941 119.86 -1.66714 119.712 -1.90811 119.615C-2.14909 119.517 -2.40791 119.471 -2.66776 119.48C-2.9276 119.489 -3.18264 119.553 -3.41629 119.667C-4.80044 120.394 -5.14955 123.195 -4.91133 124.571C-4.91133 124.645 -4.68543 125.393 -4.50061 125.931C-4.65668 125.643 -4.82508 125.347 -4.96883 125.068C-5.51921 124.021 -5.95868 123.014 -6.34066 122.148C-6.55013 121.643 -6.75139 121.183 -6.89925 120.751C-6.6446 120.267 -5.63832 118.287 -5.5726 117.227C-5.50689 116.168 -5.74511 114.833 -6.56656 114.114C-6.75766 113.938 -6.98371 113.804 -7.22999 113.721C-7.47628 113.638 -7.73729 113.607 -7.99607 113.632C-8.25485 113.656 -8.50559 113.735 -8.732 113.862C-8.95841 113.99 -9.15542 114.164 -9.31021 114.373C-10.2056 115.654 -9.22396 118.299 -8.37786 119.412C-8.30393 119.511 -6.98961 120.879 -6.97729 120.854V120.825C-6.82532 121.236 -6.65692 121.692 -6.46798 122.177C-6.10244 123.068 -5.6835 124.074 -5.15777 125.138C-4.59834 126.291 -3.97159 127.41 -3.28075 128.489C-2.51674 129.702 -1.6467 130.844 -0.680852 131.903L-0.643888 131.939C-1.05461 131.709 -2.1759 131.118 -2.28679 131.077C-3.58879 130.568 -6.39405 130.35 -7.38801 131.562C-7.54681 131.767 -7.66056 132.004 -7.72184 132.256C-7.78312 132.508 -7.79056 132.771 -7.74367 133.026C-7.69678 133.281 -7.59662 133.524 -7.44971 133.738C-7.3028 133.952 -7.11244 134.133 -6.89103 134.268C-5.95868 134.888 -4.6115 134.708 -3.62576 134.359Z" fill="#333333"/>
<path id="Vector_4" d="M16.6805 115.363C16.7092 115.363 16.2697 113.514 16.2287 113.399C15.7563 112.085 14.0683 109.826 12.5034 109.879C12.2444 109.896 11.9919 109.968 11.7621 110.088C11.5323 110.209 11.3304 110.377 11.1694 110.58C11.0084 110.784 10.8919 111.019 10.8273 111.27C10.7628 111.522 10.7517 111.784 10.7948 112.04C10.9467 113.136 11.9612 114.04 12.873 114.549C13.9409 115.149 16.6764 115.363 16.6805 115.363Z" fill="#333333"/>
<path id="Vector_5" d="M176.276 134.359C175.167 133.968 173.331 132.198 173.184 132.054C172.174 133.109 171.094 134.095 169.951 135.003C169.29 135.533 168.608 136.051 167.918 136.56C168.267 136.375 168.583 136.211 168.629 136.195C169.931 135.685 172.736 135.468 173.73 136.679C173.889 136.885 174.002 137.122 174.063 137.374C174.124 137.627 174.131 137.889 174.084 138.144C174.036 138.4 173.936 138.642 173.789 138.856C173.641 139.07 173.451 139.251 173.229 139.386C172.309 139.998 170.962 139.825 169.976 139.476C168.99 139.127 167.38 137.649 166.965 137.25L166.164 137.829C164.879 138.749 163.593 139.661 162.357 140.593C161.922 140.922 161.503 141.263 161.084 141.6C161.396 141.435 161.659 141.3 161.704 141.283C163.002 140.774 165.811 140.556 166.805 141.768C166.964 141.974 167.077 142.211 167.138 142.464C167.199 142.717 167.206 142.98 167.159 143.235C167.112 143.491 167.011 143.734 166.864 143.948C166.717 144.162 166.526 144.343 166.304 144.479C165.384 145.087 164.033 144.914 163.051 144.569C162.069 144.224 160.611 142.881 160.114 142.413C159.704 142.77 159.293 143.128 158.882 143.497C158.619 143.752 158.352 143.982 158.106 144.253C157.859 144.524 157.609 144.779 157.367 145.042C156.911 145.555 156.442 146.085 156.011 146.602C155.711 146.96 155.428 147.301 155.145 147.65C155.576 147.317 156.43 146.684 156.508 146.639C157.716 145.941 160.463 145.296 161.622 146.348C161.81 146.527 161.958 146.743 162.057 146.984C162.156 147.224 162.203 147.482 162.195 147.742C162.187 148.002 162.125 148.257 162.012 148.491C161.899 148.725 161.738 148.932 161.54 149.1C160.718 149.839 159.363 149.876 158.336 149.683C157.21 149.465 155.202 148.06 154.951 147.884C154.483 148.459 154.036 149.026 153.617 149.564C152.499 151.009 151.563 152.295 150.844 153.334L149.92 152.849C150.684 151.798 151.682 150.475 152.886 148.989C153.358 148.401 153.875 147.785 154.413 147.157C153.902 146.557 153.426 145.928 152.988 145.272C151.875 145.682 149.587 145.604 149.292 145.596C149.222 146.335 149.156 147.05 149.107 147.732C148.975 149.502 148.91 151.055 148.877 152.299L147.875 151.769C147.936 150.603 148.035 149.215 148.183 147.662C148.257 146.91 148.347 146.114 148.446 145.292C148.158 145.21 145.801 144.52 144.926 143.772C144.133 143.095 143.312 142.01 143.377 140.897C143.384 140.638 143.445 140.382 143.556 140.148C143.668 139.913 143.828 139.705 144.026 139.536C144.223 139.368 144.454 139.243 144.703 139.169C144.953 139.096 145.214 139.076 145.472 139.111C147.016 139.361 148.232 141.904 148.441 143.284C148.441 143.366 148.491 144.265 148.503 144.832C148.548 144.499 148.585 144.175 148.635 143.83C148.725 143.148 148.836 142.47 148.955 141.743C149.021 141.394 149.09 141.041 149.16 140.684C149.23 140.326 149.333 139.961 149.419 139.595C149.637 138.749 149.895 137.907 150.175 137.061C149.579 136.983 147.468 136.65 146.577 136.112C145.686 135.574 144.712 134.613 144.614 133.517C144.581 133.259 144.602 132.997 144.677 132.748C144.752 132.5 144.878 132.269 145.048 132.072C145.218 131.876 145.427 131.717 145.662 131.606C145.897 131.495 146.153 131.436 146.412 131.43C147.977 131.43 149.567 133.775 149.982 135.127C150.01 135.213 150.199 136.203 150.294 136.749C150.466 136.24 150.639 135.735 150.828 135.229C151.382 133.767 151.986 132.305 152.582 130.843C152.766 130.395 152.943 129.947 153.12 129.5C152.91 129.471 150.388 129.146 149.39 128.53C148.507 127.98 147.53 127.031 147.427 125.935C147.394 125.677 147.416 125.415 147.491 125.166C147.566 124.918 147.692 124.687 147.862 124.49C148.031 124.294 148.24 124.135 148.475 124.024C148.71 123.913 148.966 123.854 149.226 123.848C150.791 123.848 152.38 126.193 152.799 127.524C152.828 127.627 153.103 129.052 153.153 129.418C153.563 128.432 153.929 127.442 154.27 126.456C154.732 125.124 155.108 123.763 155.395 122.382C155.297 122.382 152.668 122.041 151.645 121.408C150.758 120.858 149.78 119.909 149.678 118.813C149.646 118.555 149.668 118.293 149.743 118.044C149.818 117.795 149.945 117.565 150.115 117.368C150.285 117.172 150.495 117.013 150.73 116.902C150.965 116.792 151.221 116.732 151.481 116.726C153.046 116.726 154.631 119.071 155.05 120.402C155.083 120.509 155.375 122.045 155.407 122.324C155.407 122.242 155.453 122.164 155.465 122.082C155.716 120.689 155.841 119.275 155.839 117.86C155.839 117.079 155.814 116.332 155.765 115.605C155.268 115.605 153.001 115.523 152.019 115.054C151.037 114.586 150.002 113.769 149.78 112.689C149.719 112.436 149.712 112.173 149.76 111.918C149.807 111.662 149.907 111.419 150.054 111.205C150.202 110.991 150.392 110.81 150.614 110.674C150.836 110.539 151.083 110.451 151.341 110.417C152.898 110.261 154.734 112.401 155.292 113.683C155.325 113.752 155.555 114.504 155.703 115.034C155.674 114.709 155.654 114.369 155.621 114.056C155.502 112.878 155.321 111.81 155.149 110.861C155.05 110.323 154.947 109.842 154.849 109.391C154.368 109.124 152.442 108.035 151.797 107.181C151.152 106.327 150.598 105.127 150.898 104.051C150.96 103.799 151.075 103.563 151.235 103.358C151.395 103.153 151.596 102.985 151.825 102.863C152.054 102.741 152.307 102.668 152.566 102.65C152.825 102.632 153.085 102.668 153.329 102.757C154.783 103.332 155.424 106.08 155.333 107.472C155.333 107.596 154.984 109.464 154.96 109.448H154.931C155.034 109.879 155.145 110.343 155.251 110.857C155.44 111.802 155.662 112.869 155.793 114.048C155.964 115.316 156.06 116.593 156.081 117.872C156.114 119.306 156.019 120.739 155.798 122.156V122.205C156.003 121.794 156.619 120.669 156.677 120.591C157.498 119.449 159.704 117.716 161.195 118.18C161.44 118.264 161.666 118.399 161.856 118.576C162.046 118.753 162.197 118.968 162.299 119.207C162.4 119.446 162.45 119.704 162.445 119.964C162.44 120.223 162.381 120.479 162.271 120.714C161.839 121.729 160.628 122.333 159.609 122.587C158.467 122.871 155.958 122.406 155.757 122.369C155.496 123.805 155.139 125.221 154.689 126.608C154.43 127.43 154.146 128.226 153.867 129.031C154.056 128.682 154.229 128.374 154.257 128.333C155.079 127.191 157.289 125.458 158.775 125.922C159.021 126.006 159.247 126.141 159.437 126.318C159.627 126.495 159.778 126.71 159.88 126.949C159.982 127.188 160.032 127.445 160.028 127.705C160.024 127.965 159.965 128.221 159.856 128.456C159.42 129.475 158.213 130.075 157.19 130.329C156.167 130.584 154.015 130.235 153.448 130.132L153.103 131.056C152.536 132.535 151.966 134.005 151.46 135.463C151.28 135.977 151.119 136.49 150.959 137.004C151.128 136.696 151.271 136.437 151.296 136.4C152.117 135.258 154.327 133.525 155.814 133.989C156.059 134.073 156.284 134.209 156.474 134.386C156.664 134.563 156.815 134.778 156.916 135.016C157.018 135.255 157.068 135.513 157.063 135.773C157.059 136.032 157 136.288 156.89 136.523C156.455 137.538 155.247 138.141 154.225 138.396C153.202 138.651 151.259 138.33 150.585 138.215C150.438 138.745 150.286 139.275 150.175 139.797C150.101 140.154 150.002 140.495 149.949 140.856C149.895 141.218 149.826 141.571 149.764 141.92C149.67 142.602 149.571 143.304 149.497 143.974C149.44 144.438 149.394 144.881 149.349 145.325C149.526 144.812 149.891 143.814 149.928 143.731C150.504 142.642 151.35 141.719 152.384 141.049C152.442 140.925 152.514 140.808 152.598 140.7C152.747 140.487 152.939 140.308 153.161 140.175C153.384 140.041 153.632 139.956 153.889 139.924C154.147 139.893 154.409 139.916 154.657 139.993C154.905 140.069 155.134 140.197 155.329 140.368C156.479 141.427 156.093 144.22 155.506 145.489C155.469 145.563 155.005 146.331 154.685 146.812C154.906 146.557 155.12 146.307 155.35 146.048C155.802 145.53 156.266 145.025 156.767 144.483L157.523 143.711C157.773 143.452 158.069 143.206 158.344 142.947C158.989 142.364 159.671 141.801 160.373 141.255C159.921 140.844 158.319 139.427 157.909 138.474C157.498 137.521 157.178 136.199 157.699 135.225C157.814 134.992 157.977 134.785 158.176 134.619C158.376 134.453 158.609 134.33 158.859 134.26C159.109 134.189 159.372 134.172 159.629 134.21C159.886 134.247 160.133 134.339 160.353 134.478C161.65 135.353 161.687 138.174 161.301 139.517C161.277 139.599 160.891 140.532 160.669 141.037C161.08 140.713 161.511 140.384 161.95 140.068C163.219 139.152 164.53 138.265 165.836 137.377L167.023 136.556C166.863 136.416 164.94 134.757 164.447 133.681C164.012 132.732 163.72 131.405 164.242 130.432C164.357 130.199 164.519 129.992 164.719 129.826C164.919 129.659 165.152 129.537 165.403 129.467C165.653 129.397 165.915 129.38 166.173 129.418C166.43 129.457 166.676 129.549 166.895 129.689C168.189 130.559 168.23 133.385 167.844 134.724C167.815 134.823 167.257 136.166 167.097 136.498C167.972 135.891 168.834 135.266 169.66 134.642C170.781 133.787 171.846 132.86 172.847 131.865C172.773 131.8 170.76 130.075 170.255 128.99C169.82 128.046 169.528 126.715 170.05 125.742C170.164 125.509 170.327 125.303 170.527 125.137C170.726 124.971 170.959 124.849 171.208 124.779C171.458 124.709 171.72 124.692 171.977 124.73C172.234 124.767 172.48 124.859 172.699 124.998C173.997 125.873 174.038 128.695 173.648 130.034C173.619 130.14 173.019 131.582 172.892 131.833L173.073 131.664C174.048 130.64 174.93 129.53 175.71 128.35C176.149 127.701 176.531 127.06 176.892 126.427C176.482 126.144 174.633 124.83 174.075 123.897C173.516 122.965 173.101 121.716 173.512 120.694C173.601 120.449 173.739 120.226 173.92 120.039C174.1 119.851 174.318 119.704 174.559 119.606C174.8 119.509 175.059 119.463 175.318 119.472C175.578 119.481 175.833 119.545 176.067 119.659C177.451 120.386 177.8 123.187 177.562 124.563C177.562 124.637 177.332 125.384 177.151 125.922C177.307 125.635 177.476 125.339 177.624 125.06C178.174 124.012 178.609 123.006 178.991 122.139C179.205 121.634 179.402 121.174 179.554 120.743C179.295 120.258 178.293 118.279 178.223 117.219C178.153 116.159 178.367 114.833 179.201 114.114C179.392 113.938 179.618 113.804 179.864 113.721C180.11 113.638 180.372 113.607 180.63 113.632C180.889 113.656 181.14 113.735 181.366 113.862C181.593 113.99 181.79 114.164 181.944 114.373C182.84 115.654 181.858 118.299 181.016 119.412C180.942 119.511 179.624 120.879 179.611 120.854V120.825C179.464 121.236 179.295 121.692 179.102 122.176C178.741 123.068 178.322 124.074 177.792 125.138C177.235 126.291 176.611 127.41 175.923 128.489C175.162 129.704 174.292 130.846 173.323 131.902L173.286 131.939C173.697 131.709 174.818 131.118 174.929 131.077C176.227 130.568 179.036 130.35 180.03 131.562C180.189 131.767 180.303 132.004 180.364 132.256C180.424 132.509 180.432 132.771 180.384 133.027C180.337 133.282 180.236 133.525 180.089 133.739C179.942 133.953 179.751 134.133 179.529 134.268C178.609 134.888 177.258 134.708 176.276 134.359Z" fill="#333333"/>
<path id="Vector_6" d="M155.97 115.363C155.941 115.363 156.381 113.514 156.418 113.399C156.89 112.085 158.582 109.826 160.143 109.879C160.402 109.896 160.655 109.967 160.885 110.087C161.115 110.208 161.318 110.375 161.479 110.579C161.64 110.783 161.756 111.018 161.821 111.27C161.885 111.521 161.895 111.784 161.852 112.04C161.704 113.136 160.685 114.04 159.778 114.549C158.71 115.149 155.97 115.363 155.97 115.363Z" fill="#333333"/>
</g>
<g id="Group 45">
<rect id="Rectangle 384" x="31.6216" y="48.6431" width="104.757" height="69.246" rx="8.62504" fill="white"/>
<rect id="Rectangle 385" x="41.2378" y="58.6836" width="15.7544" height="12.3173" rx="4.41132" fill="black"/>
<path id="Star 1" d="M116.737 61.271L118.533 66.1818L123.386 67.9989L118.533 69.8161L116.737 74.7269L114.941 69.8161L110.087 67.9989L114.941 66.1818L116.737 61.271Z" fill="#FFC700"/>
<rect id="Rectangle 386" x="31.6216" y="96.4634" width="104.757" height="8.69456" fill="black"/>
</g>
</g>
</g>
</g>
</g>
</g>
</g>
</svg>
