<svg width="62" height="63" viewBox="0 0 62 63" fill="none" xmlns="http://www.w3.org/2000/svg">
<g id="Traced Image">
<path id="Vector" fill-rule="evenodd" clip-rule="evenodd" d="M12.3879 2.66295C10.7763 3.21986 9.92823 4.33792 9.69234 6.21705C9.521 7.58178 9.01373 8.08408 7.63205 8.25761C5.98869 8.46395 4.87305 9.21752 4.25281 10.5403L3.93555 11.2168L3.90019 16.2239C3.8612 21.7481 3.88311 21.9614 4.60374 23.0492C5.01401 23.6686 5.84471 24.2828 6.56352 24.4982C6.81649 24.574 7.02344 24.707 7.02344 24.7939C7.02344 24.8808 7.1363 25.2534 7.27422 25.622C7.70786 26.7812 9.06883 28.0457 10.2267 28.3655L10.6562 28.484V29.992V31.5L8.93066 31.5018C6.20678 31.5046 5.03205 31.8947 3.6821 33.2446C2.30708 34.6197 1.94198 35.7536 1.93932 38.6587L1.9375 40.5498L5.74202 45.1977L9.54667 49.8457L8.01253 49.9095C7.16887 49.9446 6.38842 50.0165 6.27823 50.0693C6.16815 50.1221 5.57976 50.9165 4.9709 51.8346L3.86374 53.5039L3.89958 56.7869C3.93204 59.7482 3.95674 60.0911 4.15182 60.2859C4.35695 60.4909 5.13498 60.5019 19.375 60.5019C33.615 60.5019 34.393 60.4909 34.5982 60.2859C34.7933 60.0911 34.818 59.7482 34.8504 56.7869L34.8863 53.5039L33.7695 51.8201C33.1553 50.8941 32.5942 50.0983 32.5226 50.0515C32.4511 50.0049 31.675 49.9395 30.7979 49.9062L29.2032 49.8457L33.0079 45.1977L36.8125 40.5498L36.8107 38.6587C36.8079 35.7433 36.4441 34.6209 35.0501 33.2269C34.2103 32.3871 33.1836 31.8285 32.103 31.6236C31.7446 31.5556 30.6958 31.5 29.7726 31.5H28.0938V30.0025V28.5051L28.8206 28.2401C30.1154 27.768 31.424 26.2863 31.6761 25.0068C31.7364 24.7009 31.8362 24.6031 32.1985 24.4946C32.906 24.2825 33.7385 23.6648 34.1463 23.0492C34.8669 21.9614 34.8888 21.7481 34.8498 16.2239L34.8145 11.2168L34.4972 10.5403C33.8769 9.21752 32.7613 8.46395 31.1179 8.25761C29.7288 8.08323 29.2292 7.58372 29.0549 6.19453C28.8485 4.55117 28.095 3.43553 26.7721 2.81529C26.142 2.5197 25.9575 2.49524 24.0726 2.45758C21.7496 2.4112 21.0658 2.54222 20.0074 3.23633L19.3682 3.65544L18.8084 3.27024C17.837 2.6018 17.0621 2.43699 14.914 2.44147C13.4111 2.44462 12.8869 2.49052 12.3879 2.66295ZM31 3.40477V4.37498H43.8643H56.7287L55.2793 5.8281L53.8299 7.28123H44.3525H34.875V8.24998V9.21873H44.0781H53.2812V18.9062C53.2812 24.2344 53.2625 28.5937 53.2395 28.5937C53.2165 28.5937 51.9768 27.7219 50.4847 26.6562C48.9668 25.5721 47.6554 24.7187 47.5073 24.7187C47.3617 24.7187 45.6481 25.5634 43.6993 26.5957C41.7505 27.628 40.1067 28.4726 40.0466 28.4726C39.9862 28.4726 39.0025 27.6388 37.8601 26.6197C36.7178 25.6005 35.7177 24.727 35.6376 24.6785C35.5072 24.5997 34.6145 25.432 34.3633 25.8667C34.3054 25.967 34.9346 26.6043 36.2099 27.7375C37.274 28.6827 38.1445 29.4761 38.1445 29.5005C38.1445 29.5248 37.5451 29.8598 36.8125 30.2448C36.0799 30.6299 35.4805 30.994 35.4805 31.0541C35.4805 31.2778 36.2458 32.5897 36.3752 32.588C36.4492 32.587 38.959 31.2881 41.9526 29.7014L47.3954 26.8166L50.3383 28.922L53.2812 31.0276V34.6543V38.2812H46.0156H38.75V39.25V40.2187H46.29H53.8299L55.2793 41.6718L56.7287 43.125H46.7705H36.8125V44.0955V45.0661L48.191 45.034C58.9285 45.0037 59.5818 44.9897 59.7857 44.7857C59.9917 44.5798 60.002 43.5742 60.002 23.75C60.002 3.92536 59.9917 2.92016 59.7857 2.7143C59.5809 2.50953 58.8126 2.49633 45.2847 2.4663L31 2.43457V3.40477ZM12.7693 4.54536C12.5663 4.63375 12.2552 4.87848 12.0779 5.08907C11.7658 5.45998 11.7135 5.63471 11.5668 6.7977C11.3355 8.63057 9.92339 9.9218 7.86795 10.1798C6.94388 10.2959 6.56219 10.4931 6.12274 11.0818C5.87983 11.407 5.87305 11.5544 5.87305 16.4844C5.87305 21.4143 5.87983 21.5617 6.12274 21.8869C6.52187 22.4216 6.92269 22.6588 7.6105 22.7675C7.96385 22.8234 8.33391 22.9499 8.43261 23.0487C8.53142 23.1474 8.70918 23.6044 8.82773 24.0643C9.08046 25.0442 9.31453 25.5292 9.70627 25.8843C9.98139 26.1336 10.448 26.414 10.5877 26.414C10.6254 26.414 10.6562 23.6349 10.6562 20.2383V14.0625H9.6875H8.71875V13.0937V12.125H10.6292C12.1193 12.125 12.5962 12.0856 12.7955 11.9459C12.9561 11.8334 13.3511 11.0119 13.858 9.73592C14.3018 8.61895 14.7771 7.60963 14.9143 7.49314C15.2335 7.22177 15.7688 7.22177 16.0775 7.49314C16.2101 7.60963 16.7628 8.45148 17.3055 9.3638C18.3549 11.1274 18.925 11.746 19.7211 11.9844C20.0437 12.0811 21.7268 12.125 25.1107 12.125H30.0312V13.0937V14.0625H29.0625H28.0938V20.2383C28.0938 23.6349 28.1246 26.414 28.1623 26.414C28.302 26.414 28.7686 26.1336 29.0437 25.8843C29.4355 25.5292 29.6695 25.0442 29.9223 24.0643C30.0408 23.6044 30.2186 23.1474 30.3174 23.0487C30.4161 22.9499 30.7861 22.8234 31.1395 22.7675C31.8273 22.6588 32.2281 22.4216 32.6273 21.8869C32.8702 21.5617 32.877 21.4143 32.877 16.4844C32.877 11.5544 32.8702 11.407 32.6273 11.0818C32.1878 10.4931 31.8061 10.2959 30.8821 10.1798C28.6765 9.90291 27.4096 8.63602 27.1326 6.43042C27.0166 5.5066 26.8196 5.12515 26.2312 4.68522C25.9336 4.46265 25.6916 4.43128 24.0087 4.39641C21.4978 4.34446 21.1125 4.49873 20.0874 5.96615C19.8085 6.36539 18.9428 6.36661 18.6626 5.96809C17.6437 4.51968 17.3164 4.3797 14.9551 4.38236C13.7151 4.38382 13.0215 4.43552 12.7693 4.54536ZM56.6397 7.25277L55.2188 8.67744V23.7537V38.8299L56.6719 40.2793L58.125 41.7286V23.7783C58.125 13.9057 58.1105 5.8281 58.0928 5.8281C58.0751 5.8281 57.4212 6.46917 56.6397 7.25277ZM15.2103 11.5706C14.8291 12.5338 14.6538 12.8156 14.158 13.2612C13.8184 13.5666 13.3683 13.8421 13.1088 13.9035L12.6543 14.011L12.6226 18.7647C12.587 24.1136 12.6267 24.4786 13.4071 25.9637C14.5423 28.1239 16.9503 29.5666 19.4112 29.5607C21.8233 29.555 24.2189 28.1026 25.3423 25.9649C26.1117 24.5005 26.1525 24.1422 26.1544 18.8154L26.1562 14.0625H23.0811C20.3605 14.0625 19.9167 14.0349 19.2313 13.8232C17.8378 13.3928 16.9787 12.6452 16.038 11.0446L15.6678 10.4148L15.2103 11.5706ZM40.5356 14.1862C39.1605 14.5337 37.9803 15.503 37.3298 16.8189C36.8974 17.6941 36.873 17.8052 36.873 18.9062C36.873 20.0052 36.898 20.1196 37.3253 20.9842C39.3856 25.1531 45.4378 24.3728 46.3792 19.817C46.5959 18.7676 46.4621 17.8006 45.9577 16.7739C45.1735 15.1773 43.692 14.1999 41.9286 14.116C41.4125 14.0914 40.7857 14.123 40.5356 14.1862ZM14.8285 16.2973C14.5556 16.5701 14.5141 16.6944 14.5734 17.06C14.6123 17.3003 14.7285 17.5811 14.8314 17.6841C15.0889 17.9416 15.9255 17.9272 16.1919 17.6607C16.4585 17.3943 16.4729 16.5576 16.2154 16.3002C16.1124 16.1972 15.8316 16.081 15.5913 16.0421C15.2257 15.9828 15.1014 16.0243 14.8285 16.2973ZM19.375 17.6402C19.375 19.2203 19.3641 19.2914 19.0777 19.5777C18.8337 19.8218 18.6605 19.875 18.109 19.875H17.4375V20.8597V21.8443L18.3154 21.787C19.6255 21.7014 20.4583 21.1882 21.0245 20.1172C21.2074 19.7714 21.2566 19.3531 21.2914 17.8467L21.3342 16H20.3546H19.375V17.6402ZM22.5785 16.2973C22.3056 16.5701 22.2641 16.6944 22.3234 17.06C22.3623 17.3003 22.4785 17.5811 22.5814 17.6841C22.8389 17.9416 23.6755 17.9272 23.9419 17.6607C24.2085 17.3943 24.2229 16.5576 23.9654 16.3002C23.8624 16.1972 23.5816 16.081 23.3413 16.0421C22.9757 15.9828 22.8514 16.0243 22.5785 16.2973ZM40.6276 16.1941C39.5974 16.5711 38.75 17.7952 38.75 18.9062C38.75 20.4164 40.1322 21.8125 41.6272 21.8125C43.1658 21.8125 44.5625 20.4405 44.5625 18.929C44.5625 18.1444 44.2912 17.5369 43.6584 16.9041C42.7802 16.0259 41.7479 15.7841 40.6276 16.1941ZM15.4395 23.7703C15.0398 23.9748 14.694 24.1592 14.671 24.1797C14.558 24.2809 15.4662 25.386 15.9642 25.7536C16.8863 26.4343 17.8027 26.6562 19.6904 26.6562H21.3125V25.6875V24.7187L19.708 24.7161C17.8698 24.713 17.3949 24.571 16.7439 23.8295C16.53 23.586 16.3125 23.3894 16.2606 23.3925C16.2085 23.3958 15.8391 23.5657 15.4395 23.7703ZM12.571 30.6369C12.5379 32.6587 12.5064 32.9719 12.3173 33.161C12.1271 33.3513 11.7808 33.3842 9.41104 33.4375C6.86565 33.4948 6.68825 33.514 6.11838 33.7945C5.35016 34.1724 4.60992 34.9126 4.23198 35.6809C3.95698 36.2397 3.93555 36.4159 3.93555 38.1205V39.958L7.99219 44.9288L12.0488 49.8996H19.375H26.7012L30.7578 44.9288L34.8145 39.958V38.1205C34.8145 36.4159 34.793 36.2397 34.518 35.6809C34.1401 34.9126 33.3998 34.1724 32.6316 33.7945C32.0618 33.514 31.8843 33.4948 29.339 33.4375C26.9693 33.3842 26.6229 33.3513 26.4327 33.161C26.2455 32.9737 26.2088 32.6395 26.1562 30.642L26.0957 28.3389L25.6113 28.841C24.9001 29.5781 23.7184 30.3897 22.792 30.777C19.4881 32.1586 15.921 31.4854 13.2975 28.9853L12.6086 28.3289L12.571 30.6369ZM22.0628 33.1031C21.7498 34.8018 20.9255 36.7115 19.9054 38.1007L19.3433 38.8662L18.6804 38.1502C17.9296 37.3392 16.7092 36.6639 15.6349 36.4647C15.2761 36.3981 14.0091 36.3437 12.8195 36.3437H10.6562V37.3035V38.2634L13.1084 38.3025C15.4236 38.3396 15.5942 38.3584 16.1629 38.6382C16.9318 39.0165 17.6719 39.7571 18.0482 40.5246C18.3015 41.0412 18.3497 41.338 18.3874 42.6103L18.4312 44.0937H19.375H20.3188L20.3626 42.6103C20.4003 41.338 20.4485 41.0412 20.7018 40.5246C21.0781 39.7571 21.8182 39.0165 22.5871 38.6382C23.1558 38.3584 23.3264 38.3396 25.6416 38.3025L28.0938 38.2634V37.2947V36.3259L25.6112 36.365C24.2458 36.3866 23.1287 36.37 23.1288 36.3282C23.1289 36.2864 23.2085 36.0618 23.3057 35.8291C23.4936 35.3792 23.9084 33.7926 24.0309 33.0552C24.1128 32.5616 24.2648 32.6345 22.6667 32.4013L22.2046 32.3338L22.0628 33.1031ZM6.55505 52.9699L5.8125 54.0959V56.3605V58.625H19.375H32.9375V56.3605V54.0959L32.195 52.9699L31.4524 51.8437H19.375H7.29759L6.55505 52.9699Z" fill="black"/>
</g>
</svg>
