<svg width="28" height="29" viewBox="0 0 28 29" fill="none" xmlns="http://www.w3.org/2000/svg">
<g id="Traced Image" clip-path="url(#clip0_654_2909)">
<path id="Vector" fill-rule="evenodd" clip-rule="evenodd" d="M1.39432 4.92165C0.841867 5.11027 0.441773 5.47952 0.176703 6.04532L0.0271328 6.36458V14.2669V22.1693L0.196391 22.5247C0.411422 22.9765 0.751141 23.3162 1.20291 23.5313L1.55838 23.7005L13.8884 23.7147C24.962 23.7274 26.2486 23.72 26.5141 23.6429C26.8697 23.5395 27.1538 23.3669 27.4279 23.0878C27.6478 22.8639 27.945 22.2986 27.945 22.1041C27.9451 22.0382 27.9697 21.9691 27.9998 21.9505C28.0358 21.9283 28.0545 19.2874 28.0545 14.2058C28.0545 9.0791 28.0362 6.50617 27.9998 6.52864C27.9694 6.54746 27.9451 6.50644 27.945 6.43617C27.945 6.23612 27.651 5.67322 27.4279 5.44605C27.1559 5.16911 26.875 4.99756 26.5217 4.89261C26.2591 4.81468 25.0024 4.80615 13.9762 4.80779C1.77155 4.80965 1.72113 4.81009 1.39432 4.92165ZM0.0263672 14.2669C0.0263672 18.523 0.032875 20.2641 0.0408047 18.1361C0.0487344 16.008 0.0487344 12.5258 0.0408047 10.3978C0.032875 8.26973 0.0263672 10.0109 0.0263672 14.2669ZM17.9545 8.41263C17.7332 8.54754 17.6639 8.67885 17.6639 8.96284C17.6639 9.14036 17.6985 9.22403 17.8237 9.34926L17.9836 9.50911L21.5014 9.50791C24.752 9.50676 25.0282 9.49949 25.136 9.41221C25.3803 9.21429 25.453 8.82486 25.2894 8.59129C25.0861 8.30096 25.1524 8.30599 21.5084 8.30621C18.2584 8.30637 18.122 8.31047 17.9545 8.41263ZM2.90424 10.5698C2.64163 10.7154 2.62878 10.8008 2.6267 12.4138C2.6249 13.854 2.62998 13.9307 2.73662 14.0663C2.7982 14.1445 2.93968 14.2338 3.05108 14.2647C3.31473 14.338 6.68659 14.3397 6.94915 14.2667C7.05666 14.2368 7.20432 14.1489 7.27727 14.0713C7.40989 13.9302 7.40995 13.9298 7.42624 12.4755C7.44363 10.9196 7.4275 10.7985 7.17643 10.601C7.04605 10.4985 6.94702 10.4936 5.03733 10.4954C3.48043 10.4969 3.00585 10.5135 2.90424 10.5698ZM2.97359 17.1893C2.73963 17.2911 2.62479 17.4749 2.62479 17.7476C2.62479 17.9312 2.65859 18.0111 2.79306 18.1455L2.96134 18.3138H4.60196H6.24259L6.40244 18.1539C6.53019 18.0262 6.56229 17.9462 6.56229 17.7559C6.56229 17.4701 6.44805 17.29 6.20141 17.1869C5.9423 17.0787 3.22323 17.0806 2.97359 17.1893ZM8.38475 17.1905C7.99685 17.3592 7.90088 17.8561 8.1987 18.1539L8.35855 18.3138L9.98972 18.3126C11.4526 18.3115 11.6329 18.3016 11.7375 18.2169C11.9842 18.0171 12.0544 17.6293 11.8872 17.3905C11.7085 17.1354 11.5386 17.1105 9.99568 17.1128C8.89734 17.1144 8.51742 17.1328 8.38475 17.1905ZM13.8357 17.1492C13.6702 17.2094 13.4534 17.4626 13.4214 17.6332C13.4006 17.7442 13.4202 17.8696 13.4751 17.9757C13.6502 18.3143 13.6472 18.3138 15.412 18.3138H17.0185L17.2045 18.1279C17.4151 17.9173 17.4458 17.7045 17.3048 17.4318C17.151 17.1345 17.0034 17.1102 15.3824 17.115C14.5769 17.1173 13.8808 17.1328 13.8357 17.1492ZM19.1487 17.2034C18.7703 17.3898 18.7117 17.8999 19.0371 18.1738L19.2035 18.3138H20.8084H22.4133L22.5797 18.1738C22.9023 17.9023 22.8329 17.3785 22.4502 17.1969C22.1749 17.0663 19.416 17.0717 19.1487 17.2034ZM2.97359 19.869C2.59329 20.0344 2.49715 20.5172 2.78344 20.8236L2.94209 20.9935H8.1386H13.3352L13.5015 20.8535C13.7203 20.6694 13.7773 20.3857 13.645 20.14C13.4471 19.7725 13.7242 19.7901 8.16731 19.7925C4.05853 19.7942 3.11326 19.8082 2.97359 19.869Z" fill="#FFC700"/>
</g>
<defs>
<clipPath id="clip0_654_2909">
<rect width="28" height="28" fill="white" transform="translate(0 0.26709)"/>
</clipPath>
</defs>
</svg>
