<svg width="33" height="32" viewBox="0 0 33 32" fill="none" xmlns="http://www.w3.org/2000/svg">
<g id="Frame 372">
<g id="Group 21">
<path id="Vector" d="M20.8312 23.7846H12.1797V8.24463H20.8314L20.8312 23.7846Z" fill="#FF5F00"/>
<path id="Vector_2" d="M12.7267 16.0129C12.7267 12.8607 14.2034 10.0526 16.503 8.24297C14.7623 6.87115 12.6094 6.12662 10.3927 6.12989C4.93223 6.12989 0.505859 10.5546 0.505859 16.0129C0.505859 21.4713 4.93223 25.896 10.3927 25.896C12.6095 25.8993 14.7625 25.1548 16.5032 23.7829C14.2038 21.9736 12.7267 19.1654 12.7267 16.0129Z" fill="#EB001B"/>
<path id="Vector_3" d="M32.501 16.0129C32.501 21.4713 28.0747 25.896 22.6142 25.896C20.3972 25.8992 18.244 25.1547 16.5029 23.7829C18.8031 21.9733 20.2799 19.1654 20.2799 16.0129C20.2799 12.8605 18.8031 10.0526 16.5029 8.24297C18.2439 6.87119 20.3971 6.12668 22.614 6.12989C28.0745 6.12989 32.5009 10.5546 32.5009 16.0129" fill="#F79E1B"/>
</g>
</g>
</svg>
