<svg width="22" height="22" viewBox="0 0 22 22" fill="none" xmlns="http://www.w3.org/2000/svg">
<path d="M15.5 7.66667H17.1667C17.3877 7.66667 17.5996 7.75196 17.7559 7.90377C17.9122 8.05559 18 8.26149 18 8.47619V18.1905C18 18.4052 17.9122 18.6111 17.7559 18.7629C17.5996 18.9147 17.3877 19 17.1667 19H3.83333C3.61232 19 3.40036 18.9147 3.24408 18.7629C3.0878 18.6111 3 18.4052 3 18.1905V8.47619C3 8.26149 3.0878 8.05559 3.24408 7.90377C3.40036 7.75196 3.61232 7.66667 3.83333 7.66667H5.5V6.85714C5.5 5.56895 6.02678 4.33352 6.96447 3.42262C7.90215 2.51173 9.17392 2 10.5 2C11.8261 2 13.0979 2.51173 14.0355 3.42262C14.9732 4.33352 15.5 5.56895 15.5 6.85714V7.66667ZM4.66667 9.28571V17.381H16.3333V9.28571H4.66667ZM9.66667 12.5238H11.3333V14.1429H9.66667V12.5238ZM6.33333 12.5238H8V14.1429H6.33333V12.5238ZM13 12.5238H14.6667V14.1429H13V12.5238ZM13.8333 7.66667V6.85714C13.8333 5.99835 13.4821 5.17472 12.857 4.56746C12.2319 3.9602 11.3841 3.61905 10.5 3.61905C9.61594 3.61905 8.7681 3.9602 8.14298 4.56746C7.51786 5.17472 7.16667 5.99835 7.16667 6.85714V7.66667H13.8333Z" fill="#A8AFB9"/>
</svg>
