<svg width="22" height="22" viewBox="0 0 22 22" fill="none" xmlns="http://www.w3.org/2000/svg">
<path fill-rule="evenodd" clip-rule="evenodd" d="M13.2742 8.01273C13.2742 8.81007 12.9575 9.57475 12.3937 10.1386C11.8299 10.7024 11.0652 11.0191 10.2678 11.0191C9.4705 11.0191 8.70582 10.7024 8.14202 10.1386C7.57822 9.57475 7.26147 8.81007 7.26147 8.01273C7.26147 7.21539 7.57822 6.45071 8.14202 5.88691C8.70582 5.3231 9.4705 5.00636 10.2678 5.00636C11.0652 5.00636 11.8299 5.3231 12.3937 5.88691C12.9575 6.45071 13.2742 7.21539 13.2742 8.01273V8.01273ZM11.771 8.01273C11.771 8.4114 11.6127 8.79374 11.3308 9.07564C11.0489 9.35754 10.6665 9.51591 10.2678 9.51591C9.86917 9.51591 9.48683 9.35754 9.20493 9.07564C8.92303 8.79374 8.76466 8.4114 8.76466 8.01273C8.76466 7.61406 8.92303 7.23172 9.20493 6.94982C9.48683 6.66792 9.86917 6.50955 10.2678 6.50955C10.6665 6.50955 11.0489 6.66792 11.3308 6.94982C11.6127 7.23172 11.771 7.61406 11.771 8.01273V8.01273Z" fill="#A8AFB9"/>
<path fill-rule="evenodd" clip-rule="evenodd" d="M10.2678 1.99999C5.70183 1.99999 2.00024 5.70158 2.00024 10.2675C2.00024 14.8334 5.70183 18.535 10.2678 18.535C14.8337 18.535 18.5353 14.8334 18.5353 10.2675C18.5353 5.70158 14.8337 1.99999 10.2678 1.99999ZM3.50343 10.2675C3.50343 11.8383 4.03931 13.2844 4.93747 14.4328C5.56822 13.6045 6.38195 12.9332 7.31508 12.4714C8.2482 12.0096 9.27546 11.7698 10.3166 11.7707C11.3443 11.7697 12.3586 12.0033 13.2823 12.4537C14.2061 12.9041 15.0148 13.5594 15.6469 14.3697C16.2981 13.5156 16.7366 12.5187 16.926 11.4615C17.1155 10.4043 17.0504 9.31714 16.7363 8.29005C16.4222 7.26296 15.868 6.32544 15.1196 5.55505C14.3713 4.78466 13.4502 4.20355 12.4326 3.85981C11.4151 3.51607 10.3303 3.41958 9.26803 3.57831C8.20578 3.73705 7.19659 4.14646 6.32398 4.77265C5.45136 5.39885 4.74041 6.22384 4.24993 7.17936C3.75946 8.13488 3.50356 9.19345 3.50343 10.2675V10.2675ZM10.2678 17.0318C8.71493 17.0342 7.20898 16.5 6.00473 15.5196C6.48945 14.8257 7.13462 14.2591 7.88535 13.8681C8.63608 13.4771 9.47016 13.2733 10.3166 13.2739C11.1525 13.2732 11.9765 13.472 12.7201 13.8537C13.4638 14.2354 14.1057 14.789 14.5924 15.4685C13.3788 16.4807 11.848 17.034 10.2678 17.0318V17.0318Z" fill="#A8AFB9"/>
</svg>
