<svg width="18" height="19" viewBox="0 0 18 19" fill="none" xmlns="http://www.w3.org/2000/svg">
<g id="SVG" clip-path="url(#clip0_412_4707)">
<path id="Vector" fill-rule="evenodd" clip-rule="evenodd" d="M16.6664 2.28907C16.6537 2.12433 16.5843 1.96315 16.4583 1.83715C16.2527 1.63157 15.9534 1.57679 15.6979 1.67281L1.3603 6.69098C1.08256 6.78819 0.892308 7.04509 0.880315 7.3391C0.868317 7.63312 1.03702 7.90466 1.30592 8.02418L7.51274 10.7827L10.2713 16.9896C10.3908 17.2585 10.6624 17.4272 10.9564 17.4152C11.2504 17.4032 11.5073 17.213 11.6046 16.9352L16.6232 2.59622C16.66 2.49768 16.6744 2.39267 16.6664 2.28907ZM13.2196 4.06096L3.54306 7.44774L7.89748 9.38306L13.2196 4.06096ZM8.91241 10.398L14.2346 5.07585L10.8478 14.7525L8.91241 10.398Z" fill="black"/>
</g>
<defs>
<clipPath id="clip0_412_4707">
<rect width="17.2242" height="17.2242" fill="white" transform="translate(0.163582 0.90918)"/>
</clipPath>
</defs>
</svg>
