<svg width="25" height="24" viewBox="0 0 25 24" fill="none" xmlns="http://www.w3.org/2000/svg">
<g id="edit-2">
<path id="Vector" d="M16.7965 4.46514C17.0349 4.23996 17.318 4.06134 17.6295 3.93947C17.941 3.81761 18.2749 3.75488 18.6121 3.75488C18.9493 3.75488 19.2831 3.81761 19.5947 3.93947C19.9062 4.06134 20.1892 4.23996 20.4277 4.46514C20.6661 4.69032 20.8552 4.95764 20.9842 5.25185C21.1133 5.54606 21.1797 5.8614 21.1797 6.17985C21.1797 6.4983 21.1133 6.81363 20.9842 7.10784C20.8552 7.40205 20.6661 7.66938 20.4277 7.89456L8.17252 19.4689L3.17969 20.7549L4.54137 16.0394L16.7965 4.46514Z" stroke="black" stroke-width="1.5" stroke-linecap="round" stroke-linejoin="round"/>
</g>
</svg>
