<svg width="62" height="63" viewBox="0 0 62 63" fill="none" xmlns="http://www.w3.org/2000/svg">
<g id="Traced Image">
<path id="Vector" fill-rule="evenodd" clip-rule="evenodd" d="M3.27202 3.7724L2.95239 4.09264V12.2582C2.95239 18.0093 2.98826 20.5027 3.07377 20.6908C3.14058 20.8376 3.3151 21.0125 3.46162 21.0794C3.83975 21.252 30.058 21.252 30.4361 21.0794C30.5826 21.0125 30.7572 20.8376 30.824 20.6908C30.9095 20.5027 30.9453 18.0093 30.9453 12.2582V4.09264L30.6257 3.7724L30.3061 3.45215H16.9489H3.59164L3.27202 3.7724ZM33.1239 3.7724L32.8042 4.09264V30.5685V57.0443L33.1239 57.3646C33.4007 57.642 33.5251 57.6848 34.0533 57.6848H34.6632V58.6161V59.5474H35.5926H36.5221V58.6161V57.6848H45.8713H55.2205V58.6161V59.5474H56.1499H57.0794V58.6161V57.6848H57.6952C58.2597 57.6848 58.3418 57.6522 58.6793 57.2936L59.0476 56.9024V45.1505C59.0476 38.687 59.0148 26.7965 58.9747 18.7274L58.9019 4.05616L58.6004 3.7541L58.299 3.45215H45.8713H33.4435L33.1239 3.7724ZM4.8113 12.3266V19.3385H13.2311H21.6508V12.3266V5.31469H13.2311H4.8113V12.3266ZM23.5097 12.3266V19.3385H26.2981H29.0864V12.3266V5.31469H26.2981H23.5097V12.3266ZM34.6632 13.2579V21.201H45.8713H57.0794V13.2579V5.31469H45.8713H34.6632V13.2579ZM7.21913 7.3179C6.68497 7.58873 6.67349 7.69512 6.67185 12.4172L6.67021 16.8355L6.98983 17.1557L7.30945 17.476H13.1752C17.1678 17.476 19.1113 17.4382 19.2616 17.3576C19.757 17.0919 19.7919 16.7614 19.7919 12.3266C19.7919 7.77444 19.7594 7.5035 19.1886 7.28613C18.7374 7.11422 7.56237 7.14392 7.21913 7.3179ZM25.3686 8.10849V9.03976H26.2981H27.2275V8.10849V7.17722H26.2981H25.3686V8.10849ZM8.52911 12.3254V15.6134H13.2327H17.9363L17.9073 12.354L17.8783 9.09454L13.2037 9.06594L8.52911 9.03746V12.3254ZM37.5062 14.6822V19.3385H38.4356H39.3651V14.6822V10.0258H38.4356H37.5062V14.6822ZM25.3686 11.8336V12.7648H26.2981H27.2275V11.8336V10.9023H26.2981H25.3686V11.8336ZM25.5614 15.3466C24.9679 15.6693 24.7436 16.6308 25.1149 17.2607C25.559 18.0138 26.6758 18.1303 27.2526 17.4835C27.8249 16.8418 27.7906 16.062 27.1656 15.5122C26.7291 15.1282 26.0855 15.0618 25.5614 15.3466ZM25.9778 16.2238C25.8833 16.3186 25.806 16.463 25.806 16.5447C25.806 16.7324 26.1051 17.0377 26.2889 17.0377C26.4498 17.0377 26.7901 16.69 26.7901 16.5256C26.7901 16.3826 26.4269 16.0517 26.27 16.0517C26.2038 16.0517 26.0724 16.1291 25.9778 16.2238ZM3.60848 23.1406C3.51827 23.1742 3.3584 23.2769 3.2531 23.3687C3.07246 23.5265 3.06174 24.4747 3.06174 40.3832V57.2307L3.34987 57.4577C3.56004 57.6234 3.79666 57.6848 4.22465 57.6848H4.8113V58.6161V59.5474H5.74075H6.67021V58.6161V57.6848H16.9489H27.2275V58.6161V59.5474H28.157H29.0864V58.6161V57.6848H29.6963C30.2245 57.6848 30.3488 57.642 30.6257 57.3646L30.9453 57.0443V40.3888V23.7332L30.6815 23.4258L30.4175 23.1183L17.0951 23.099C9.76769 23.0882 3.69869 23.1071 3.60848 23.1406ZM34.6632 39.4429V55.8223H45.8713H57.0794V39.4429V23.0636H45.8713H34.6632V39.4429ZM4.83678 27.7473L4.86597 30.5685H16.9489H29.0318L29.061 27.7473L29.0901 24.9261H16.9489H4.80758L4.83678 27.7473ZM37.5062 31.4998V38.0734H38.4356H39.3651V31.4998V24.9261H38.4356H37.5062V31.4998ZM6.67021 27.7199V28.6512H7.59966H8.52911V27.7199V26.7886H7.59966H6.67021V27.7199ZM10.461 26.8617C10.4208 26.9018 10.388 27.3209 10.388 27.793V28.6512H11.3175H12.2469V27.7199V26.7886H11.3904C10.9192 26.7886 10.501 26.8215 10.461 26.8617ZM14.1788 26.8617C14.1386 26.9018 14.1058 27.3209 14.1058 27.793V28.6512H15.0353H15.9647V27.7199V26.7886H15.1082C14.637 26.7886 14.2188 26.8215 14.1788 26.8617ZM21.6508 27.7199V28.6512H24.4392H27.2275V27.7199V26.7886H24.4392H21.6508V27.7199ZM4.88467 32.4488C4.84432 32.4892 4.8113 37.7648 4.8113 44.1724V55.8223H16.9494H29.0874L29.0596 44.1267L29.0318 32.431L16.9949 32.4032C10.3747 32.3879 4.92502 32.4084 4.88467 32.4488ZM15.4727 33.4752C9.11784 34.4584 5.19555 40.908 7.26178 46.9766C8.17625 49.6626 10.3235 51.9908 12.8984 53.0888C15.3906 54.1513 18.3684 54.1713 20.8953 53.1426C22.7059 52.4054 24.7164 50.6628 25.7371 48.9456C29.2947 42.9608 26.0198 35.2686 19.2184 33.6339C18.3587 33.4273 16.3363 33.3416 15.4727 33.4752ZM15.8007 35.2956C10.1833 36.2022 6.98699 42.0307 9.30198 47.1462C10.9855 50.8664 15.2047 52.8458 19.1404 51.7618C20.077 51.5038 21.3227 50.9127 21.8457 50.4781L22.2044 50.1799L21.5441 49.5251L20.8836 48.8703L20.5838 49.0664C20.0548 49.4127 18.9894 49.8725 18.3704 50.0219C18.0396 50.1017 17.324 50.1623 16.7803 50.1565C15.0182 50.1376 13.3833 49.4151 12.1755 48.1215C10.1466 45.9483 9.8123 42.7549 11.3479 40.216C13.1674 37.2078 17.3401 36.1969 20.284 38.051L20.8307 38.3953L21.4734 37.7536C21.8305 37.3972 22.0833 37.0585 22.0422 36.9917C21.8741 36.7194 20.387 35.9489 19.4398 35.6436C18.6406 35.386 18.1812 35.3087 17.2769 35.2796C16.6454 35.2594 15.9811 35.2665 15.8007 35.2956ZM22.055 39.8049L20.6667 41.199V43.6093V46.0198L22.0924 47.4424L23.5181 48.8652L23.7339 48.5913C24.48 47.6441 25.0839 46.1001 25.2772 44.6454C25.4354 43.4547 25.2956 42.1564 24.876 40.9205C24.6037 40.1183 23.8805 38.7745 23.5918 38.5345C23.474 38.4365 23.1553 38.6999 22.055 39.8049ZM15.984 39.0671C15.217 39.2183 14.4217 39.6419 13.7531 40.2552C11.3932 42.4199 11.9408 46.3583 14.7978 47.7701C15.7901 48.2605 16.7259 48.4215 17.6394 48.2588C18.3076 48.1398 19.4639 47.6865 19.4639 47.5436C19.4639 47.503 19.3162 47.3013 19.1358 47.0954L18.8078 46.7211V43.7048C18.8078 40.6025 18.8253 40.4615 19.2705 39.9711L19.4874 39.7325L18.9562 39.4644C18.0283 38.996 17.0248 38.8619 15.984 39.0671Z" fill="black"/>
</g>
</svg>
