<svg width="21" height="15" viewBox="0 0 21 15" fill="none" xmlns="http://www.w3.org/2000/svg">
<g clip-path="url(#clip0_128_26)">
<path d="M2.31441 1.03412C2.5013 0.93353 2.66742 0.912354 2.83355 0.912354C7.99375 0.912354 13.1488 0.912354 18.309 0.912354C18.4803 0.912354 18.6412 0.93353 18.8385 1.04471C18.7399 1.12941 18.6464 1.19824 18.5634 1.27765C16.6529 3.15708 14.7373 5.0365 12.8321 6.92122C12.4531 7.29711 12.0222 7.4877 11.4875 7.47182C10.8438 7.45064 10.2001 7.45593 9.55116 7.47182C9.08913 7.48241 8.70497 7.31829 8.38311 7.00064C7.35003 5.98416 6.31695 4.97297 5.28906 3.9565C4.37019 3.05649 3.45651 2.15119 2.53764 1.25118C2.47015 1.18765 2.40266 1.12941 2.30922 1.04471L2.31441 1.03412Z" fill="#BABBBB"/>
<path d="M2.44419 13.5601C2.99966 13.0995 3.54475 12.6495 4.08985 12.1942C5.5019 11.0242 6.91914 9.85949 8.33119 8.68948C8.68939 8.39301 9.08393 8.25536 9.54596 8.26595C10.2416 8.28183 10.9424 8.27654 11.6381 8.26595C12.0482 8.26065 12.4168 8.37183 12.7386 8.63654C14.701 10.2566 16.6633 11.8819 18.6256 13.5019C18.6464 13.523 18.6828 13.5283 18.7399 13.5495C18.418 13.6766 2.72452 13.6766 2.439 13.5654L2.44419 13.5601Z" fill="#BABBBB"/>
<path d="M19.3317 13.0519C18.8229 12.6283 18.3142 12.2101 17.8106 11.7972C16.2428 10.5054 14.675 9.2136 13.1072 7.92183C13.0346 7.8583 12.9878 7.83712 13.0917 7.74182C14.2961 6.57181 15.4901 5.40181 16.6841 4.2265C17.5355 3.39003 18.3869 2.54825 19.2382 1.71178C19.2798 1.66942 19.3265 1.63236 19.3836 1.58472C19.4822 1.75413 19.5082 1.92354 19.5082 2.09825C19.5082 5.54475 19.5082 8.99654 19.5082 12.443C19.5082 12.6548 19.4667 12.856 19.3369 13.0519H19.3317Z" fill="#BABBBB"/>
<path d="M8.12873 7.83716C6.07814 9.53129 4.02755 11.2201 1.98216 12.9196C1.81604 13.0572 1.75374 13.0307 1.69663 12.8401C1.6551 12.6972 1.63434 12.5543 1.63434 12.406C1.63434 8.986 1.63434 5.57126 1.63434 2.15124C1.63434 1.95535 1.64991 1.77006 1.76412 1.57947C3.88739 3.66537 6.00027 5.74597 8.12353 7.83716H8.12873Z" fill="#BABBBB"/>
</g>
<defs>
<clipPath id="clip0_128_26">
<rect width="19.4209" height="14.3101" fill="white" transform="translate(0.860825 0.118286)"/>
</clipPath>
</defs>
</svg>
