<svg width="309" height="309" viewBox="0 0 309 309" fill="none" xmlns="http://www.w3.org/2000/svg">
<mask id="mask0_4_551" style="mask-type:alpha" maskUnits="userSpaceOnUse" x="0" y="0" width="309" height="309">
<circle cx="154.5" cy="154.5" r="154.5" fill="#C4C4C4"/>
</mask>
<g mask="url(#mask0_4_551)">
<path d="M-11.0045 119.265C-11.0045 119.265 -16.4915 178.869 28.0882 226.664C72.6678 274.458 140.936 288.738 196.041 301.771C251.146 314.804 297.709 290.501 310.036 244.067C322.362 197.633 281.697 176.589 265.418 118.672C249.14 60.7553 253.418 43.2913 208.839 1.89588C164.259 -39.4995 85.4884 -31.8162 38.4085 18.5163C-8.67142 68.8489 -11.0045 119.265 -11.0045 119.265Z" fill="white" fill-opacity="0.4"/>
<path d="M164.393 -22.0878C164.393 -22.0878 104.605 -24.9453 58.8202 21.6954C13.035 68.3361 1.7747 137.166 -8.81995 192.792C-19.4146 248.417 6.91558 293.865 53.8472 304.136C100.779 314.406 120.012 272.853 177.156 254.041C234.3 235.228 251.935 238.734 291.328 192.375C330.72 146.016 319.577 67.6599 267.22 22.8416C214.863 -21.9767 164.393 -22.0878 164.393 -22.0878Z" fill="white" fill-opacity="0.56"/>
<g opacity="0.5">
<path d="M-7.63375 248.605C-5.58184 247.883 -2.18479 244.608 -1.9188 244.342C-0.0489101 246.292 1.94918 248.115 4.06213 249.798C5.28568 250.779 6.54722 251.736 7.86196 252.679C7.20839 252.337 6.63082 252.033 6.54722 252.002C4.13813 251.06 -1.05244 250.657 -2.89916 252.899C-3.20055 253.278 -3.41784 253.718 -3.53664 254.188C-3.65543 254.657 -3.67302 255.147 -3.58822 255.624C-3.50343 256.101 -3.3182 256.555 -3.0448 256.955C-2.7714 257.355 -2.41609 257.693 -2.0024 257.945C-0.300076 259.078 2.20021 258.758 4.01653 258.112C5.83286 257.466 8.81952 254.731 9.59469 253.993C10.0887 254.351 10.575 254.715 11.069 255.065C13.4477 256.767 15.834 258.454 18.1215 260.179C18.9271 260.787 19.6946 261.418 20.4698 262.041C19.8922 261.737 19.4059 261.487 19.3299 261.456C16.9208 260.514 11.7302 260.111 9.88347 262.353C9.58984 262.734 9.37975 263.173 9.26687 263.641C9.154 264.108 9.14086 264.595 9.22832 265.068C9.31577 265.541 9.50187 265.99 9.77449 266.387C10.0471 266.783 10.4001 267.118 10.8106 267.369C12.513 268.494 15.0132 268.174 16.8296 267.536C18.6459 266.898 21.3438 264.413 22.2633 263.546C23.0233 264.207 23.7833 264.868 24.5432 265.552C25.022 266.024 25.516 266.449 25.972 266.951L27.3475 268.41C28.1835 269.36 29.0574 270.34 29.8478 271.298C30.4102 271.959 30.9269 272.59 31.4513 273.236C30.6914 272.62 29.0726 271.45 28.9358 271.366C26.6559 270.074 21.6174 268.881 19.4667 270.827C19.1184 271.158 18.8439 271.559 18.661 272.003C18.4782 272.448 18.3911 272.926 18.4054 273.406C18.4198 273.887 18.5352 274.359 18.7443 274.792C18.9533 275.225 19.2512 275.608 19.6186 275.918C21.1386 277.286 23.6541 277.355 25.5464 276.998C27.6363 276.595 31.3525 273.996 31.8161 273.669C32.6749 274.733 33.5108 275.782 34.2784 276.777C36.3531 279.452 38.0782 281.831 39.4082 283.754L41.1105 282.857C39.697 280.911 37.8578 278.464 35.6235 275.713C34.7496 274.626 33.792 273.487 32.8041 272.324C33.7502 271.215 34.6283 270.05 35.4335 268.836C37.4931 269.595 41.7261 269.451 42.2732 269.436C42.41 270.804 42.524 272.126 42.6152 273.388C42.8584 276.663 42.98 279.536 43.0484 281.839L44.8951 280.858C44.7811 278.7 44.6063 276.131 44.3252 273.259C44.196 271.868 44.0288 270.393 43.8388 268.874C44.3708 268.722 48.7406 267.445 50.3517 266.062C51.826 264.808 53.346 262.801 53.2244 260.742C53.2116 260.261 53.0977 259.788 52.8902 259.354C52.6827 258.92 52.3861 258.535 52.0198 258.223C51.6535 257.911 51.2257 257.68 50.7641 257.544C50.3026 257.409 49.8177 257.372 49.3409 257.436C46.4911 257.9 44.234 262.604 43.8464 265.157C43.8464 265.309 43.7552 266.974 43.7324 268.022C43.6564 267.407 43.5804 266.806 43.4968 266.168C43.322 264.906 43.1168 263.653 42.904 262.307C42.7774 261.664 42.6482 261.01 42.5164 260.347C42.4024 259.686 42.1972 259.009 42.0377 258.333C41.6425 256.767 41.1561 255.209 40.6393 253.644C41.7413 253.499 45.6475 252.884 47.2966 251.888C48.9458 250.893 50.7469 249.114 50.9369 247.085C50.9966 246.608 50.9554 246.123 50.8159 245.663C50.6765 245.203 50.4419 244.777 50.1274 244.413C49.8129 244.049 49.4255 243.755 48.9902 243.55C48.5549 243.346 48.0815 243.235 47.6006 243.225C44.7127 243.225 41.7717 247.564 40.9965 250.064C40.9509 250.224 40.5937 252.055 40.4189 253.066C40.0997 252.124 39.7882 251.189 39.431 250.254C38.4126 247.549 37.2879 244.843 36.1859 242.138L35.1904 239.653C35.5855 239.6 40.2441 238.999 42.0909 237.859C43.7324 236.841 45.5411 235.085 45.7235 233.056C45.7948 232.575 45.7628 232.084 45.6295 231.616C45.4963 231.147 45.2649 230.713 44.9507 230.341C44.6365 229.97 44.2467 229.669 43.8074 229.46C43.368 229.251 42.889 229.137 42.4024 229.127C39.507 229.127 36.5659 233.467 35.7983 235.929C35.7375 236.119 35.236 238.756 35.1372 239.432C34.3772 237.609 33.7008 235.777 33.0777 233.953C32.225 231.487 31.532 228.969 31.0029 226.414C31.1853 226.414 36.0567 225.783 37.949 224.613C39.583 223.595 41.3917 221.839 41.5817 219.81C41.6425 219.333 41.6024 218.849 41.4639 218.389C41.3253 217.928 41.0915 217.502 40.7776 217.138C40.4637 216.774 40.0767 216.48 39.6418 216.275C39.2068 216.07 38.7337 215.959 38.253 215.949C35.3576 215.949 32.4165 220.289 31.6489 222.751C31.5881 222.949 31.0409 225.791 30.9801 226.308C30.9801 226.156 30.9041 226.011 30.8737 225.859C30.4137 223.281 30.1823 220.666 30.1822 218.047C30.1822 216.603 30.2278 215.22 30.319 213.875C31.2385 213.875 35.4335 213.723 37.2575 212.856C39.0814 211.99 40.9813 210.478 41.3993 208.479C41.5109 208.012 41.5231 207.526 41.4353 207.053C41.3474 206.581 41.1614 206.132 40.8892 205.736C40.617 205.34 40.2647 205.005 39.8552 204.754C39.4456 204.502 38.9878 204.34 38.5114 204.276C35.6311 203.988 32.2341 207.947 31.1929 210.318C31.1397 210.447 30.7066 211.838 30.433 212.818C30.4862 212.218 30.5242 211.587 30.585 211.01C30.8053 208.829 31.1473 206.853 31.4589 205.097C31.6413 204.102 31.8313 203.212 32.0137 202.376C32.9105 201.882 36.4747 199.869 37.6678 198.288C38.861 196.707 39.8869 194.488 39.3246 192.497C39.2091 192.028 38.9958 191.588 38.6986 191.207C38.4014 190.827 38.0271 190.513 37.6001 190.287C37.1731 190.061 36.7032 189.927 36.2211 189.896C35.739 189.864 35.2557 189.935 34.8028 190.103C32.1125 191.167 30.9269 196.251 31.0941 198.827C31.0941 199.055 31.7401 202.513 31.7857 202.483H31.8389C31.6489 203.281 31.4513 204.14 31.2537 205.09C30.9041 206.837 30.4938 208.813 30.2506 210.994C29.9328 213.34 29.7526 215.703 29.711 218.07C29.6526 220.722 29.8306 223.375 30.243 225.996C30.243 225.996 30.243 226.057 30.243 226.087C29.863 225.327 28.723 223.245 28.6166 223.101C27.0967 220.988 23.0157 217.781 20.257 218.64C19.8028 218.796 19.3866 219.046 19.0353 219.374C18.6839 219.701 18.4053 220.099 18.2176 220.541C18.0299 220.983 17.9372 221.46 17.9455 221.94C17.9538 222.42 18.063 222.893 18.2659 223.329C19.0639 225.206 21.3058 226.323 23.1981 226.794C25.3108 227.319 29.9466 226.46 30.319 226.391C30.8009 229.047 31.461 231.667 32.2949 234.234C32.7737 235.754 33.298 237.229 33.8148 238.718C33.4652 238.072 33.146 237.502 33.0928 237.426C31.5729 235.313 27.4919 232.106 24.7332 232.965C24.279 233.121 23.8628 233.371 23.5115 233.699C23.1601 234.027 22.8815 234.424 22.6938 234.866C22.5061 235.308 22.4134 235.785 22.4217 236.265C22.43 236.746 22.5392 237.219 22.7421 237.654C23.5401 239.539 25.782 240.648 27.6667 241.12C29.5514 241.591 33.5412 240.945 34.59 240.755C34.8104 241.325 35.0156 241.895 35.236 242.465C36.2771 245.201 37.3335 247.921 38.2758 250.619C38.6102 251.569 38.9066 252.519 39.2106 253.469C38.899 252.899 38.6254 252.42 38.5798 252.352C37.0599 250.239 32.9713 247.032 30.2202 247.891C29.7653 248.046 29.3483 248.296 28.9961 248.623C28.644 248.95 28.3645 249.348 28.1761 249.79C27.9876 250.232 27.8942 250.709 27.902 251.19C27.9098 251.67 28.0187 252.144 28.2215 252.58C29.027 254.457 31.2613 255.574 33.1536 256.045C35.046 256.516 38.6406 255.924 39.887 255.711C40.1681 256.691 40.4493 257.672 40.6469 258.637C40.7837 259.298 40.9661 259.929 41.0725 260.597C41.1789 261.266 41.3005 261.92 41.4145 262.566C41.5817 263.827 41.7717 265.127 41.9085 266.366C42.0073 267.224 42.0909 268.045 42.1744 268.866C41.8477 267.916 41.1789 266.069 41.1029 265.917C40.0223 263.926 38.4532 262.242 36.5431 261.023C36.4305 260.797 36.2983 260.58 36.1479 260.377C35.872 259.983 35.5163 259.652 35.104 259.404C34.6916 259.157 34.2318 258.999 33.7544 258.941C33.2771 258.883 32.7928 258.926 32.3332 259.067C31.8735 259.209 31.4488 259.445 31.0865 259.762C28.9586 261.722 29.6806 266.89 30.7598 269.238C30.8281 269.375 31.6869 270.796 32.2797 271.685C31.8693 271.214 31.5197 270.751 31.0561 270.272C30.2202 269.314 29.3538 268.38 28.4343 267.376L27.0283 265.948C26.5723 265.469 26.0252 265.013 25.5084 264.534C24.3152 263.455 23.0537 262.414 21.7617 261.403C22.5977 260.643 25.5616 258.021 26.3215 256.258C27.0815 254.495 27.6667 252.048 26.7015 250.247C26.4935 249.812 26.196 249.426 25.8285 249.115C25.461 248.803 25.0318 248.572 24.5689 248.438C24.1061 248.304 23.6202 248.269 23.1429 248.336C22.6657 248.403 22.208 248.57 21.7997 248.826C19.3983 250.444 19.3223 255.665 20.0366 258.15C20.0822 258.302 20.7966 260.028 21.207 260.962C20.447 260.362 19.687 259.754 18.8359 259.169C16.4952 257.474 14.0633 255.832 11.6542 254.191L9.45029 252.671C9.75428 252.413 13.3033 249.342 14.2153 247.351C15.0208 245.596 15.5604 243.141 14.5953 241.34C14.3821 240.914 14.0822 240.537 13.7146 240.234C13.347 239.931 12.9201 239.708 12.4612 239.58C12.0023 239.452 11.5216 239.421 11.0502 239.49C10.5787 239.559 10.1269 239.726 9.72388 239.98C7.32239 241.591 7.24639 246.819 7.96836 249.297C8.02155 249.479 9.05511 251.964 9.3439 252.58C7.73277 251.455 6.13684 250.3 4.60171 249.145C2.52746 247.561 0.55759 245.845 -1.29563 244.007C-1.15884 243.886 2.5726 240.694 3.49976 238.688C4.30532 236.94 4.8525 234.477 3.88734 232.676C3.67433 232.245 3.37299 231.864 3.0029 231.557C2.63282 231.25 2.20227 231.024 1.73924 230.894C1.27622 230.765 0.791079 230.734 0.315348 230.804C-0.160381 230.874 -0.616049 231.043 -1.02204 231.301C-3.42354 232.919 -3.49953 238.14 -2.77757 240.618C-2.72437 240.816 -1.60722 243.483 -1.37163 243.947L-1.70601 243.635C-3.5152 241.741 -5.15063 239.689 -6.5926 237.502C-7.40576 236.301 -8.11253 235.116 -8.7813 233.945C-8.02133 233.421 -4.60149 230.989 -3.56033 229.264C-2.51918 227.539 -1.75921 225.229 -2.51918 223.336C-2.68269 222.884 -2.93961 222.471 -3.27324 222.124C-3.60686 221.778 -4.00971 221.505 -4.45559 221.325C-4.90146 221.144 -5.38037 221.059 -5.86116 221.076C-6.34195 221.092 -6.81385 221.21 -7.24617 221.421C-9.80726 222.766 -10.4532 227.949 -10.0124 230.495C-10.0124 230.632 -9.59446 232.015 -9.25248 233.011C-9.54127 232.479 -9.85285 231.932 -10.1188 231.415C-11.1372 229.477 -11.9504 227.615 -12.6571 226.011C-13.0447 225.077 -13.4171 224.225 -13.6907 223.428C-13.2195 222.531 -11.3576 218.868 -11.236 216.907C-11.1144 214.946 -11.5552 212.476 -13.0751 211.146C-13.4287 210.82 -13.847 210.573 -14.3027 210.419C-14.7584 210.265 -15.2413 210.209 -15.7201 210.254C-16.199 210.299 -16.6629 210.445 -17.0818 210.681C-17.5008 210.917 -17.8653 211.239 -18.1517 211.625C-19.8084 213.996 -17.9921 218.891 -16.4266 220.95C-16.2898 221.132 -13.8579 223.663 -13.8351 223.618V223.564C-13.5539 224.324 -13.2423 225.168 -12.8927 226.065C-12.2163 227.714 -11.4412 229.576 -10.4684 231.544C-9.43332 233.677 -8.27363 235.748 -6.99538 237.745C-5.58173 239.988 -3.97189 242.102 -2.18479 244.061L-2.1164 244.129C-2.87636 243.703 -4.95107 242.609 -5.15626 242.533C-7.56536 241.591 -12.7559 241.188 -14.595 243.43C-14.8889 243.81 -15.0993 244.248 -15.2127 244.714C-15.3261 245.181 -15.3399 245.667 -15.2531 246.139C-15.1664 246.612 -14.981 247.061 -14.7092 247.457C-14.4374 247.853 -14.0852 248.187 -13.6755 248.438C-11.9504 249.586 -9.45767 249.251 -7.63375 248.605Z" fill="#333333"/>
<path d="M29.9389 213.457C29.9921 213.457 29.1789 210.037 29.1029 209.824C28.229 207.392 25.1055 203.212 22.21 203.311C21.7308 203.343 21.2636 203.474 20.8384 203.698C20.4132 203.921 20.0397 204.231 19.7418 204.608C19.4438 204.985 19.2282 205.419 19.1088 205.885C18.9894 206.35 18.9689 206.835 19.0486 207.308C19.3298 209.338 21.2069 211.01 22.894 211.952C24.8699 213.061 29.9313 213.457 29.9389 213.457Z" fill="#333333"/>
<path d="M325.239 248.605C323.187 247.883 319.79 244.608 319.517 244.342C317.649 246.294 315.65 248.117 313.536 249.798C312.312 250.779 311.051 251.736 309.774 252.679C310.42 252.337 311.005 252.033 311.089 252.002C313.498 251.06 318.688 250.657 320.527 252.899C320.821 253.279 321.031 253.718 321.144 254.185C321.256 254.652 321.27 255.137 321.182 255.61C321.095 256.083 320.909 256.531 320.636 256.927C320.363 257.323 320.01 257.657 319.6 257.907C317.898 259.039 315.405 258.72 313.581 258.074C311.757 257.428 308.778 254.692 308.011 253.955L306.529 255.027C304.15 256.729 301.771 258.416 299.484 260.141C298.678 260.749 297.903 261.38 297.128 262.003C297.706 261.699 298.192 261.449 298.276 261.418C300.677 260.476 305.875 260.073 307.714 262.315C308.008 262.696 308.218 263.135 308.331 263.602C308.444 264.07 308.457 264.556 308.369 265.03C308.282 265.503 308.096 265.952 307.823 266.349C307.551 266.745 307.198 267.08 306.787 267.331C305.085 268.455 302.585 268.136 300.768 267.498C298.952 266.859 296.254 264.374 295.334 263.508C294.575 264.169 293.815 264.83 293.055 265.514C292.568 265.986 292.074 266.411 291.618 266.913C291.162 267.414 290.699 267.885 290.25 268.372C289.407 269.322 288.54 270.302 287.742 271.26C287.188 271.921 286.663 272.552 286.139 273.198C286.937 272.582 288.518 271.412 288.662 271.328C290.896 270.036 295.98 268.843 298.124 270.789C298.472 271.12 298.746 271.521 298.929 271.965C299.112 272.41 299.199 272.888 299.185 273.368C299.17 273.849 299.055 274.321 298.846 274.754C298.637 275.186 298.339 275.57 297.972 275.88C296.452 277.248 293.944 277.317 292.044 276.959C289.962 276.557 286.245 273.958 285.782 273.631C284.915 274.695 284.087 275.744 283.312 276.739C281.245 279.414 279.512 281.793 278.182 283.716L276.472 282.819C277.886 280.873 279.732 278.426 281.959 275.675C282.833 274.588 283.791 273.448 284.786 272.286C283.839 271.176 282.959 270.011 282.149 268.797C280.09 269.557 275.857 269.413 275.309 269.398C275.18 270.766 275.059 272.088 274.967 273.35C274.724 276.625 274.603 279.498 274.542 281.8L272.687 280.82C272.801 278.662 272.984 276.093 273.257 273.22C273.394 271.83 273.561 270.355 273.744 268.835C273.212 268.683 268.85 267.407 267.231 266.024C265.764 264.77 264.244 262.763 264.366 260.704C264.378 260.223 264.49 259.751 264.697 259.317C264.904 258.883 265.2 258.497 265.565 258.185C265.931 257.873 266.358 257.642 266.82 257.506C267.281 257.371 267.765 257.334 268.242 257.398C271.099 257.861 273.349 262.566 273.736 265.119C273.736 265.271 273.827 266.935 273.85 267.984C273.934 267.369 274.002 266.768 274.093 266.13C274.261 264.868 274.466 263.614 274.686 262.269C274.808 261.623 274.937 260.97 275.066 260.309C275.195 259.647 275.385 258.971 275.545 258.295C275.948 256.729 276.427 255.171 276.943 253.606C275.841 253.461 271.935 252.846 270.286 251.85C268.637 250.855 266.836 249.076 266.653 247.047C266.592 246.57 266.633 246.086 266.771 245.626C266.91 245.165 267.143 244.739 267.457 244.375C267.771 244.011 268.158 243.717 268.593 243.512C269.028 243.308 269.501 243.197 269.982 243.187C272.877 243.187 275.819 247.526 276.586 250.026C276.639 250.186 276.989 252.017 277.164 253.028C277.483 252.086 277.802 251.151 278.152 250.216C279.178 247.511 280.295 244.805 281.397 242.1C281.739 241.271 282.065 240.443 282.392 239.615C282.005 239.561 277.338 238.961 275.492 237.821C273.858 236.803 272.049 235.047 271.859 233.018C271.798 232.541 271.838 232.057 271.977 231.597C272.115 231.136 272.349 230.71 272.663 230.346C272.977 229.982 273.364 229.688 273.799 229.483C274.234 229.279 274.707 229.168 275.188 229.158C278.083 229.158 281.024 233.497 281.799 235.959C281.853 236.149 282.362 238.786 282.453 239.463C283.213 237.639 283.889 235.807 284.52 233.983C285.376 231.518 286.071 229 286.602 226.444C286.42 226.444 281.556 225.814 279.664 224.643C278.022 223.625 276.214 221.869 276.024 219.84C275.964 219.363 276.005 218.879 276.145 218.418C276.284 217.958 276.519 217.532 276.833 217.168C277.148 216.804 277.535 216.51 277.97 216.306C278.406 216.101 278.879 215.99 279.36 215.98C282.255 215.98 285.189 220.319 285.964 222.781C286.025 222.979 286.564 225.821 286.625 226.338C286.625 226.186 286.709 226.042 286.732 225.89C287.195 223.311 287.427 220.697 287.423 218.077C287.423 216.633 287.378 215.25 287.286 213.905C286.367 213.905 282.172 213.753 280.356 212.887C278.539 212.02 276.624 210.508 276.214 208.509C276.101 208.042 276.088 207.556 276.175 207.083C276.262 206.61 276.448 206.161 276.721 205.764C276.993 205.368 277.346 205.033 277.756 204.782C278.166 204.531 278.625 204.369 279.102 204.307C281.982 204.018 285.379 207.977 286.412 210.348C286.473 210.478 286.899 211.868 287.172 212.849C287.119 212.248 287.081 211.618 287.02 211.04C286.8 208.859 286.466 206.883 286.146 205.127C285.964 204.132 285.774 203.243 285.592 202.407C284.703 201.913 281.138 199.899 279.945 198.318C278.752 196.737 277.726 194.518 278.281 192.527C278.397 192.061 278.609 191.624 278.905 191.245C279.201 190.866 279.573 190.554 279.997 190.328C280.421 190.102 280.888 189.968 281.368 189.935C281.847 189.901 282.328 189.969 282.78 190.133C285.47 191.197 286.656 196.281 286.488 198.858C286.488 199.086 285.842 202.544 285.797 202.513H285.744C285.934 203.311 286.139 204.17 286.336 205.12C286.686 206.868 287.096 208.844 287.34 211.025C287.655 213.371 287.832 215.733 287.872 218.1C287.933 220.753 287.757 223.405 287.347 226.026V226.118C287.727 225.358 288.867 223.275 288.974 223.131C290.494 221.018 294.575 217.811 297.333 218.67C297.788 218.825 298.205 219.075 298.557 219.402C298.909 219.729 299.188 220.127 299.376 220.57C299.564 221.012 299.656 221.489 299.648 221.97C299.639 222.451 299.528 222.924 299.324 223.359C298.526 225.236 296.284 226.353 294.4 226.824C292.287 227.349 287.644 226.49 287.271 226.422C286.789 229.077 286.129 231.698 285.295 234.265C284.817 235.784 284.292 237.259 283.775 238.748C284.125 238.102 284.444 237.532 284.497 237.456C286.017 235.344 290.106 232.137 292.857 232.995C293.312 233.151 293.729 233.4 294.081 233.728C294.433 234.055 294.713 234.452 294.901 234.895C295.09 235.337 295.183 235.814 295.175 236.294C295.167 236.775 295.058 237.249 294.856 237.684C294.05 239.569 291.816 240.679 289.924 241.15C288.031 241.621 284.049 240.975 283 240.785L282.362 242.495C281.313 245.231 280.257 247.952 279.322 250.649C278.988 251.599 278.691 252.549 278.395 253.499C278.706 252.929 278.972 252.451 279.018 252.382C280.538 250.269 284.627 247.062 287.378 247.921C287.832 248.077 288.248 248.327 288.599 248.655C288.951 248.983 289.229 249.38 289.417 249.822C289.605 250.264 289.697 250.741 289.689 251.221C289.681 251.702 289.572 252.175 289.369 252.61C288.563 254.487 286.329 255.604 284.437 256.076C282.544 256.547 278.95 255.954 277.703 255.741C277.43 256.722 277.148 257.702 276.943 258.667C276.806 259.328 276.624 259.959 276.525 260.628C276.427 261.297 276.297 261.95 276.183 262.596C276.009 263.858 275.826 265.157 275.689 266.396C275.583 267.255 275.499 268.075 275.416 268.896C275.743 267.946 276.419 266.1 276.487 265.948C277.553 263.932 279.118 262.223 281.032 260.985C281.139 260.755 281.271 260.539 281.427 260.339C281.702 259.945 282.057 259.614 282.469 259.367C282.881 259.119 283.34 258.961 283.817 258.903C284.293 258.845 284.777 258.888 285.236 259.03C285.695 259.171 286.119 259.407 286.481 259.723C288.609 261.684 287.894 266.852 286.808 269.2C286.739 269.337 285.881 270.758 285.288 271.647C285.698 271.176 286.093 270.713 286.519 270.234C287.355 269.276 288.214 268.341 289.141 267.338L290.539 265.91C291.003 265.431 291.55 264.975 292.059 264.496C293.252 263.417 294.514 262.376 295.813 261.365C294.977 260.605 292.013 257.983 291.253 256.22C290.494 254.457 289.901 252.01 290.866 250.209C291.078 249.777 291.379 249.395 291.749 249.087C292.119 248.779 292.549 248.553 293.012 248.422C293.475 248.292 293.961 248.26 294.437 248.33C294.913 248.399 295.369 248.568 295.775 248.825C298.177 250.444 298.245 255.665 297.531 258.15C297.485 258.302 296.771 260.027 296.36 260.962C297.12 260.362 297.918 259.754 298.732 259.169C301.08 257.474 303.504 255.832 305.921 254.191L308.117 252.671C307.821 252.413 304.264 249.342 303.352 247.351C302.547 245.596 302.007 243.141 302.972 241.34C303.184 240.908 303.485 240.526 303.855 240.218C304.225 239.91 304.656 239.684 305.119 239.554C305.583 239.424 306.068 239.394 306.544 239.464C307.02 239.535 307.476 239.705 307.882 239.964C310.275 241.575 310.351 246.804 309.637 249.281C309.584 249.464 308.55 251.949 308.254 252.565C309.873 251.44 311.469 250.285 312.996 249.129C315.072 247.548 317.042 245.831 318.893 243.992C318.757 243.871 315.033 240.679 314.098 238.672C313.292 236.924 312.753 234.462 313.718 232.661C313.93 232.23 314.231 231.849 314.6 231.542C314.97 231.235 315.4 231.009 315.862 230.879C316.324 230.75 316.809 230.719 317.284 230.789C317.759 230.859 318.214 231.028 318.62 231.285C321.021 232.904 321.097 238.125 320.375 240.603C320.322 240.8 319.213 243.468 318.977 243.931L319.311 243.62C321.116 241.724 322.749 239.671 324.19 237.487C325.004 236.286 325.71 235.1 326.379 233.93C325.619 233.406 322.199 230.974 321.166 229.249C320.132 227.524 319.365 225.213 320.125 223.321C320.288 222.869 320.545 222.456 320.879 222.109C321.212 221.762 321.615 221.49 322.061 221.309C322.507 221.129 322.986 221.044 323.467 221.061C323.947 221.077 324.419 221.195 324.852 221.406C327.413 222.751 328.059 227.934 327.618 230.48C327.618 230.617 327.192 232 326.858 232.995C327.147 232.463 327.458 231.916 327.732 231.399C328.75 229.462 329.556 227.6 330.263 225.996C330.658 225.061 331.022 224.21 331.304 223.412C330.825 222.515 328.971 218.852 328.841 216.892C328.712 214.931 329.107 212.476 330.65 211.146C331.004 210.82 331.422 210.572 331.878 210.419C332.333 210.265 332.816 210.209 333.295 210.254C333.774 210.299 334.238 210.445 334.657 210.681C335.076 210.917 335.44 211.239 335.727 211.625C337.383 213.996 335.567 218.89 334.009 220.95C333.872 221.132 331.433 223.663 331.41 223.617V223.564C331.137 224.324 330.825 225.168 330.468 226.064C329.799 227.714 329.024 229.576 328.043 231.544C327.013 233.677 325.859 235.748 324.586 237.745C323.177 239.992 321.567 242.106 319.775 244.061L319.707 244.129C320.467 243.703 322.541 242.609 322.746 242.533C325.148 241.591 330.346 241.188 332.185 243.43C332.479 243.81 332.689 244.248 332.802 244.716C332.914 245.183 332.927 245.668 332.84 246.141C332.752 246.613 332.566 247.062 332.294 247.458C332.021 247.854 331.668 248.188 331.258 248.438C329.556 249.585 327.055 249.251 325.239 248.605Z" fill="#333333"/>
<path d="M287.666 213.457C287.613 213.457 288.426 210.037 288.495 209.824C289.369 207.392 292.5 203.212 295.388 203.311C295.867 203.341 296.335 203.472 296.761 203.695C297.187 203.918 297.561 204.229 297.859 204.606C298.157 204.982 298.373 205.418 298.491 205.884C298.61 206.349 298.63 206.835 298.549 207.308C298.276 209.338 296.391 211.01 294.711 211.952C292.735 213.061 287.666 213.457 287.666 213.457Z" fill="#333333"/>
</g>
<path d="M45.6992 189.04L153.59 128.315L264.125 189.04V277.073H47.028L45.6992 189.04Z" fill="#333333" stroke="#333333" stroke-linecap="round" stroke-linejoin="round"/>
<path d="M235.671 144.694H74.1669V288.327H235.671V144.694Z" fill="white" stroke="#333333" stroke-miterlimit="10"/>
<path d="M92.8015 169.946H129.035" stroke="#FFC700" stroke-width="2" stroke-miterlimit="10"/>
<path d="M92.6956 182.423H215.149" stroke="#333333" stroke-miterlimit="10"/>
<path d="M92.6956 194.999H215.149" stroke="#FFC700" stroke-miterlimit="10"/>
<path d="M92.6956 207.575H215.149" stroke="#333333" stroke-miterlimit="10"/>
<path d="M92.6956 220.151H215.149" stroke="#333333" stroke-miterlimit="10"/>
<path d="M92.6956 232.728H215.149" stroke="#333333" stroke-miterlimit="10"/>
<path d="M264.125 310.171H45.6992V189.04L154.919 263.175L264.125 189.04V310.171Z" fill="#FFCE1F" stroke="#333333" stroke-miterlimit="10"/>
<path d="M45.6992 310.171L125.116 242.911" stroke="#333333" stroke-miterlimit="10"/>
<path d="M263.78 310.171L184.953 242.802" stroke="#333333" stroke-miterlimit="10"/>
</g>
</svg>
