<svg width="62" height="63" viewBox="0 0 62 63" fill="none" xmlns="http://www.w3.org/2000/svg">
<g id="Traced Image" clip-path="url(#clip0_425_861)">
<path id="Vector" fill-rule="evenodd" clip-rule="evenodd" d="M0.297285 0.797478L0 1.09464V29.4868C0 45.1024 0.0339063 57.967 0.0751992 58.0748C0.191813 58.3785 0.77948 58.6252 1.38652 58.6252H1.9375V59.6545V60.6838H1.26604C0.714453 60.6838 0.541289 60.7369 0.297285 60.9811C-0.0816172 61.3599 -0.0816172 61.8241 0.297285 62.2029C0.591301 62.497 0.618305 62.5002 2.82391 62.5002C4.89594 62.5002 5.07577 62.4825 5.37232 62.2492C5.60373 62.0672 5.69141 61.8866 5.69141 61.592C5.69141 61.0001 5.24288 60.6838 4.40357 60.6838H3.75391V59.669V58.6543L4.4841 58.6015C4.95649 58.5673 5.28792 58.4752 5.42258 58.3404C5.6179 58.1452 5.63461 56.514 5.69141 32.1921L5.75195 6.25215L15.8936 6.22115L26.0352 6.19027V6.95691C26.0352 7.60573 25.9913 7.76485 25.7497 7.99166C25.5928 8.13915 25.2683 8.29161 25.0284 8.33048C24.2481 8.45714 24.1633 8.66542 24.1187 10.5633L24.0794 12.2463H19.6424H15.2055L11.4777 15.974C8.0422 19.4096 7.75 19.7342 7.75 20.1157C7.75 20.4942 7.99594 20.7765 10.626 23.416C12.2078 25.0035 13.6286 26.3345 13.7834 26.3737C13.9381 26.4129 14.2106 26.3718 14.3888 26.2821C14.5671 26.1925 14.7537 26.0994 14.8037 26.0751C14.8536 26.0507 14.8945 26.662 14.8945 27.4335C14.8945 28.6747 14.9224 28.864 15.1367 29.0783C15.6255 29.5671 16.3883 29.3269 16.5839 28.6228C16.747 28.0351 16.747 24.1879 16.5839 23.6003C16.3251 22.6686 15.6202 22.6553 14.6676 23.5638L13.9742 24.2251L11.9522 22.2004L9.93005 20.1757L12.9884 17.1192L16.0466 14.0627H17.7108C19.2913 14.0627 19.375 14.0748 19.375 14.3035C19.375 14.7612 19.9849 16.0659 20.5139 16.74C22.2327 18.9298 25.4756 19.5594 27.9132 18.1764C29.1645 17.4664 30.3012 15.9924 30.6419 14.6379L30.7865 14.0627H32.4381H34.0897L37.115 17.0898L40.1403 20.1169L38.0853 22.1746L36.0302 24.2324L35.3583 23.5675C34.5881 22.8053 34.2005 22.7184 33.7192 23.1998L33.4219 23.497V31.3131V39.1291H25.0734H16.725L16.6877 35.7278L16.6504 32.3265L16.3106 32.0345C15.8944 31.6766 15.629 31.6667 15.2136 31.9934L14.8945 32.2443V35.6868V39.1291H14.04C12.7064 39.1291 12.159 39.3175 11.4315 40.0274C10.3775 41.0556 10.2273 42.4639 11.0463 43.6398C11.2749 43.968 11.2748 43.9777 11.0446 44.3059C10.6527 44.8643 10.4981 45.5231 10.5785 46.2917L10.6525 47.0002H9.40571C8.31841 47.0002 8.12503 47.0318 7.89398 47.2471L7.62891 47.494V54.7461V61.9983L7.94799 62.2492L8.26707 62.5002H31H53.7329L54.052 62.2492L54.3711 61.9983V54.7461V47.494L54.106 47.2471C53.875 47.0318 53.6816 47.0002 52.5943 47.0002H51.3475L51.4215 46.2917C51.5019 45.5231 51.3473 44.8643 50.9554 44.3059C50.7252 43.9777 50.7251 43.968 50.9537 43.6398C51.7727 42.4639 51.6225 41.0556 50.5685 40.0274C49.841 39.3175 49.2936 39.1291 47.96 39.1291H47.1055V36.167C47.1055 33.2758 47.0992 33.199 46.8404 32.958C46.5374 32.6758 46.0552 32.643 45.7386 32.8831C45.3656 33.166 45.2891 33.7812 45.2891 36.4945V39.1291H40.2637H35.2383V32.5957V26.0622L35.5781 26.2573C35.7831 26.3749 36.0353 26.4222 36.2138 26.3765C36.3778 26.3346 37.8015 25.0069 39.406 23.3999C42.8776 19.9225 42.7591 20.1992 41.3735 18.8055L40.445 17.8715L41.1029 17.1759C41.8148 16.4229 42.4649 15.2572 42.5824 14.5229L42.656 14.0627H44.3047H45.9534L49.0116 17.1192L52.07 20.1757L50.0478 22.2004L48.0258 24.2251L47.3324 23.5638C46.3798 22.6553 45.6749 22.6686 45.4161 23.6003C45.2577 24.1709 45.2491 29.0012 45.4056 29.5468C45.6164 30.2819 46.2086 30.4927 46.7864 30.0382L47.1055 29.7873V27.909C47.1055 26.876 47.1463 26.0507 47.1963 26.0751C47.2462 26.0994 47.4329 26.1925 47.6112 26.2821C47.7894 26.3718 48.0619 26.4129 48.2166 26.3737C48.3714 26.3345 49.7923 25.0035 51.374 23.416C54.0041 20.7765 54.25 20.4942 54.25 20.1157C54.25 19.7342 53.9578 19.4096 50.5223 15.974L46.7945 12.2463H42.3484H37.9023V11.1154C37.9023 10.0561 37.9198 9.97638 38.1781 9.8588C39.18 9.40228 39.7345 8.47773 39.815 7.12923L39.8711 6.1899L48.0596 6.22102L56.248 6.25215L56.3086 32.1921C56.3654 56.514 56.3821 58.1452 56.5774 58.3404C56.7121 58.4752 57.0435 58.5673 57.5159 58.6015L58.2461 58.6543V59.669V60.6838H57.5964C56.7571 60.6838 56.3086 61.0001 56.3086 61.592C56.3086 61.8866 56.3963 62.0672 56.6277 62.2492C56.9242 62.4825 57.1039 62.5002 59.1826 62.5002H61.4185L61.7698 62.1241C61.9682 61.9118 62.1211 61.6129 62.1211 61.438C62.1211 61.2673 62.0906 61.1584 62.0532 61.1956C62.0159 61.2331 61.8549 61.1332 61.6954 60.9737C61.4593 60.7376 61.2809 60.6838 60.734 60.6838H60.0625V59.6545V58.6252H60.6154C61.2359 58.6252 61.5985 58.4767 61.9065 58.0964C62.1034 57.8533 62.1159 56.1613 62.1184 29.3911C62.1199 13.7453 62.0906 0.97476 62.0532 1.01206C62.0159 1.04947 61.8549 0.949572 61.6954 0.790092C61.4106 0.505279 61.3663 0.500193 59.1761 0.500193C56.175 0.500193 56.3086 0.398232 56.3086 2.68872V4.37519H48.0742H39.8398V3.76282C39.8398 2.75472 39.6172 2.12236 39.0338 1.47354C37.6339 -0.0835998 35.123 0.346525 34.3117 2.28245C34.2219 2.49679 34.1484 3.05527 34.1484 3.52366V4.37519H31H27.8516V3.52366C27.8516 2.24273 27.3636 1.35584 26.3835 0.855846C25.2005 0.252314 24.0173 0.446791 23.06 1.40222C22.3855 2.07538 22.1602 2.66644 22.1602 3.76282V4.37519H13.9258H5.69141V2.68872C5.69141 0.398232 5.82497 0.500193 2.82391 0.500193C0.618305 0.500193 0.591301 0.503342 0.297285 0.797478ZM0.0595781 29.5627C0.0595781 45.2474 0.073625 51.6638 0.0908203 43.8215C0.108016 35.9791 0.108016 23.1462 0.0908203 15.3039C0.073625 7.46151 0.0595781 13.878 0.0595781 29.5627ZM1.81641 29.5627V56.8088H2.8457H3.875V29.5627V2.3166H2.8457H1.81641V29.5627ZM24.3305 2.67056C24.0239 2.97717 23.9766 3.11485 23.9766 3.69985V4.37519H25.0059H26.0352V3.64318C26.0352 3.0273 25.9879 2.86382 25.7379 2.61388C25.3213 2.1972 24.7822 2.21888 24.3305 2.67056ZM36.2621 2.61388C36.0121 2.86382 35.9648 3.0273 35.9648 3.64318V4.37519H36.9941H38.0234V3.69985C38.0234 3.11485 37.9761 2.97717 37.6695 2.67056C37.2178 2.21888 36.6787 2.1972 36.2621 2.61388ZM58.125 29.5627V56.8088H59.1543H60.1836V29.5627V2.3166H59.1543H58.125V29.5627ZM27.9323 6.27237C27.8879 6.31669 27.8516 6.73168 27.8516 7.19438C27.8516 7.88037 27.7909 8.14726 27.5232 8.63927C27.221 9.19424 26.3701 9.94551 26.0436 9.94551C25.9607 9.94551 25.9141 10.3596 25.9141 11.0959V12.2463H31H36.0859V10.551C36.0859 9.01708 36.1089 8.83265 36.3281 8.61347C36.4613 8.48027 36.682 8.37129 36.8186 8.37129C37.2201 8.37129 37.7826 8.02024 37.9076 7.69159C37.9712 7.52399 38.0234 7.11785 38.0234 6.7892V6.1916H33.0183C30.2653 6.1916 27.9767 6.22793 27.9323 6.27237ZM21.1914 14.1878C21.1914 14.4881 21.846 15.5638 22.2923 15.9969C23.1215 16.8016 23.7356 17.0297 25.0664 17.0277C26.0775 17.0261 26.2918 16.9866 26.8353 16.7014C27.6112 16.2942 28.4986 15.3192 28.7412 14.6069L28.9268 14.0627H25.059C22.4784 14.0627 21.1914 14.1043 21.1914 14.1878ZM37.8682 15.2986L39.1041 16.5345L39.5543 16.17C39.9808 15.8247 40.804 14.5396 40.8071 14.2141C40.8082 14.0988 40.311 14.0627 38.7205 14.0627H36.6323L37.8682 15.2986ZM12.7055 41.2995C12.2618 41.7431 12.2397 42.255 12.6438 42.7249L12.9361 43.0646H21.1712H29.4063L29.7187 42.7711C30.0294 42.4793 30.1287 41.9457 29.9561 41.4959C29.7468 40.9506 29.6652 40.9455 21.1276 40.9455H13.0595L12.7055 41.2995ZM32.5137 41.0854C31.8744 41.435 31.7579 42.2795 32.2813 42.7711L32.5937 43.0646H40.8288H49.0639L49.3562 42.7249C49.7603 42.255 49.7382 41.7431 49.2945 41.2995L48.9405 40.9455L40.8482 40.9491C35.225 40.9518 32.682 40.9933 32.5137 41.0854ZM12.6488 45.2389C12.2322 45.6554 12.2538 46.1946 12.7055 46.6462L13.0595 47.0002H21.1276C29.6652 47.0002 29.7468 46.9951 29.9561 46.4498C30.1207 46.0207 30.0294 45.4664 29.751 45.2049L29.4707 44.9416H21.2084H12.946L12.6488 45.2389ZM32.232 45.2218C31.9731 45.4974 31.8891 46.0462 32.0439 46.4498C32.2532 46.9951 32.3348 47.0002 40.8724 47.0002H48.9405L49.2945 46.6462C49.7462 46.1946 49.7678 45.6554 49.3512 45.2389L49.054 44.9416H40.7747H32.4954L32.232 45.2218ZM9.44531 54.7502V60.6838H31H52.5547V54.7502V48.8166H31H9.44531V54.7502ZM11.8012 51.1725L11.5039 51.4696V54.6743C11.5039 56.4368 11.5378 57.967 11.5791 58.0748C11.7979 58.6449 11.1031 58.6252 31 58.6252C50.8969 58.6252 50.2021 58.6449 50.4209 58.0748C50.4622 57.967 50.4961 56.4453 50.4961 54.6932C50.4961 51.737 50.4794 51.4868 50.2646 51.2216L50.0332 50.9357L35.0855 50.904L20.1378 50.8724L19.817 51.1248C19.4153 51.4407 19.3769 52.0881 19.7383 52.4494C19.9777 52.6888 20.1419 52.6916 34.3301 52.6916H48.6797V54.7502V56.8088H31H13.3203V54.7502V52.6916H14.842C15.683 52.6916 16.4709 52.6341 16.6036 52.5631C17.1844 52.2523 17.1298 51.2919 16.5154 51.012C16.3299 50.9275 15.4287 50.8752 14.1567 50.8752C12.1327 50.8752 12.0934 50.8802 11.8012 51.1725ZM0.0236133 61.592C0.0260352 61.7918 0.0531602 61.8589 0.083918 61.7411C0.114676 61.6232 0.112617 61.4598 0.0794375 61.3778C0.0462578 61.2958 0.0211914 61.3922 0.0236133 61.592Z" fill="black"/>
</g>
<defs>
<clipPath id="clip0_425_861">
<rect width="62" height="62" fill="white" transform="translate(0 0.5)"/>
</clipPath>
</defs>
</svg>
