<svg width="157" height="243" viewBox="0 0 157 243" fill="none" xmlns="http://www.w3.org/2000/svg">
<path id="Vector" d="M133.894 154.492C129.341 152.485 121.703 143.798 121.088 143.093C117.07 147.997 112.759 152.559 108.185 156.748C105.539 159.191 102.808 161.573 100.043 163.914C101.449 163.077 102.722 162.334 102.905 162.262C108.163 160 119.571 159.325 123.73 165.237C124.394 166.239 124.878 167.384 125.149 168.597C125.42 169.81 125.473 171.063 125.303 172.276C125.133 173.489 124.746 174.633 124.165 175.635C123.584 176.637 122.823 177.474 121.932 178.09C118.239 180.892 112.736 179.894 108.689 178.099C104.642 176.305 97.9496 169.039 96.2238 167.084L93.0132 169.744C87.8591 173.968 82.7042 178.153 77.752 182.443C76.008 183.954 74.332 185.527 72.6558 187.08C73.9126 186.336 74.9712 185.724 75.1538 185.651C80.3951 183.389 91.82 182.714 95.9783 188.626C96.6433 189.63 97.1272 190.777 97.3985 191.991C97.6698 193.205 97.7224 194.46 97.5529 195.675C97.3834 196.889 96.9956 198.035 96.4147 199.039C95.8338 200.042 95.0728 200.881 94.1813 201.499C90.4881 204.281 84.9678 203.283 80.9378 201.508C76.9078 199.734 70.8471 193.135 68.7804 190.836C67.1394 192.488 65.4984 194.14 63.8585 195.851C62.8106 197.032 61.7438 198.095 60.7643 199.357C59.7848 200.619 58.7871 201.802 57.8236 203.025C56.0127 205.416 54.1529 207.884 52.4427 210.298C51.2535 211.965 50.1298 213.555 49.0067 215.185C50.7336 213.653 54.1568 210.745 54.4706 210.539C59.3269 207.363 70.4623 204.642 75.2754 209.811C76.0582 210.69 76.6822 211.744 77.1064 212.903C77.5306 214.063 77.7456 215.302 77.7375 216.54C77.7293 217.778 77.4981 218.988 77.0589 220.09C76.6197 221.192 75.9825 222.161 75.1887 222.935C71.909 226.357 66.3908 226.357 62.1904 225.302C57.5863 224.117 49.278 217.152 48.2414 216.277C46.3858 218.961 44.6131 221.608 42.9549 224.121C38.5342 230.877 34.3349 237.494 31.5005 242.36L29.0005 242.36L27.0005 242.36C30.0179 237.441 35.1564 228.222 39.9249 221.282C41.7961 218.54 43.8488 215.667 45.9841 212.737C43.8451 209.808 41.8497 206.742 40.0083 203.554C35.511 205.37 26.1844 204.701 24.9789 204.623C24.7611 208.143 24.5578 211.545 24.4184 214.793C24.0425 223.225 25.5222 236.425 25.5005 242.36L22.0005 242.36L20.6475 242.36C20.7934 236.801 20.185 221.731 20.6475 214.34C20.8809 210.762 21.1773 206.971 21.5048 203.063C20.3262 202.633 10.66 199.034 7.02876 195.353C3.73847 192.015 0.294443 186.734 0.461869 181.43C0.464255 180.191 0.689763 178.98 1.12368 177.875C1.5576 176.77 2.19018 175.796 2.98017 175.017C3.77016 174.238 4.69979 173.671 5.70846 173.354C6.71713 173.036 7.78219 172.975 8.83411 173.174C15.1478 174.57 20.3295 186.863 21.3071 193.476C21.3145 193.868 21.5963 198.168 21.6976 200.875C21.8517 199.293 21.973 197.749 22.1427 196.109C22.4494 192.866 22.8401 189.646 23.2598 186.192C23.4961 184.534 23.7487 182.857 24.0009 181.161C24.2532 179.464 24.6385 177.733 24.957 176C25.7675 171.99 26.7458 168.005 27.8073 164.003C25.3742 163.553 16.744 161.691 13.0648 159.007C9.3855 156.324 5.33349 151.61 4.83312 146.363C4.67591 145.129 4.74073 143.882 5.0233 142.705C5.30587 141.527 5.7999 140.444 6.47331 139.527C7.14672 138.61 7.98441 137.879 8.93202 137.381C9.87964 136.883 10.916 136.63 11.9737 136.638C18.3485 136.841 25.035 148.241 26.8466 154.744C26.9715 155.16 27.8304 159.909 28.2644 162.528C28.9213 160.12 29.5785 157.731 30.3026 155.344C32.4297 148.438 34.7575 141.537 37.0519 134.636C37.7645 132.523 38.4436 130.409 39.1227 128.295C38.2668 128.131 27.9643 126.255 23.8429 123.185C20.196 120.443 16.1284 115.788 15.6113 110.541C15.4541 109.307 15.5188 108.06 15.8014 106.882C16.084 105.705 16.578 104.622 17.2514 103.705C17.9248 102.788 18.7626 102.057 19.7102 101.559C20.6578 101.061 21.6941 100.808 22.7518 100.816C29.1266 101.019 35.8131 112.419 37.6397 118.825C37.766 119.318 39.0155 126.156 39.2492 127.908C40.8335 123.256 42.2335 118.579 43.5334 113.919C45.2967 107.619 46.7054 101.172 47.7508 94.6183C47.3492 94.6055 36.6103 92.6373 32.3871 89.4857C28.7234 86.7437 24.6558 82.0884 24.1387 76.8411C23.984 75.6057 24.0511 74.3589 24.3357 73.1812C24.6203 72.0035 25.116 70.9213 25.7907 70.0046C26.4654 69.0879 27.3041 68.3571 28.2524 67.8596C29.2008 67.3622 30.2376 67.1091 31.2959 67.1167C37.6707 67.3198 44.3405 78.719 46.167 85.1249C46.3105 85.6388 47.6368 93.0082 47.7958 94.3455C47.7884 93.9534 47.9655 93.5869 48.0083 93.1964C48.9038 86.5785 49.2861 79.8503 49.1504 73.0928C49.0801 69.3682 48.9124 65.7972 48.6461 62.3211C46.6216 62.2566 37.3782 61.5702 33.3371 59.208C29.2961 56.8459 25.006 52.8105 24.0052 47.6261C23.734 46.4122 23.6814 45.1575 23.8507 43.9437C24.02 42.7298 24.4074 41.584 24.9877 40.5806C25.5681 39.5773 26.3285 38.7388 27.2194 38.1199C28.1103 37.501 29.1117 37.1154 30.1586 36.9881C36.4859 36.4453 44.1578 46.8968 46.5488 53.0855C46.6889 53.423 47.6936 57.0402 48.3437 59.5882C48.1973 58.0359 48.083 56.4061 47.921 54.912C47.3296 49.2704 46.4972 44.1502 45.709 39.5994C45.2589 37.0186 44.7973 34.7118 44.3551 32.5426C42.3734 31.206 34.4281 25.7611 31.7243 21.6C29.0204 17.4388 26.6536 11.6427 27.7781 6.54562C28.0105 5.35071 28.4576 4.23885 29.0901 3.28233C29.7226 2.32582 30.5265 1.54603 31.4496 0.993487C32.3726 0.440942 33.3943 0.128016 34.4481 0.0750798C35.502 0.0221437 36.5645 0.230334 37.5667 0.68617C43.5415 3.61934 46.3992 16.8171 46.1566 23.4508C46.1677 24.0389 44.9138 32.913 44.812 32.8314L44.6949 32.8277C45.152 34.8993 45.6456 37.1289 46.1269 39.5931C46.9817 44.1264 47.9814 49.2521 48.623 54.8952C49.4309 60.9689 49.9371 67.0753 50.1387 73.1831C50.4022 80.0294 50.145 86.8595 49.3702 93.5924L49.3746 93.8276C50.1742 91.894 52.5826 86.6027 52.8098 86.2377C56.0533 80.8946 64.8821 72.9084 70.9975 75.3171C72.0066 75.7496 72.937 76.4223 73.7279 77.2913C74.5188 78.1604 75.1525 79.2063 75.5877 80.3607C76.0229 81.5152 76.2498 82.7523 76.2535 83.9914C76.2573 85.2305 76.0379 86.4437 75.6096 87.5519C73.9441 92.3379 69.0627 95.0623 64.9361 96.1455C60.3102 97.3499 50.0453 94.809 49.2221 94.6064C48.2904 101.423 46.9646 108.135 45.2537 114.698C44.2736 118.585 43.1909 122.352 42.1257 126.158C42.8639 124.516 43.5389 123.068 43.6523 122.876C46.8958 117.533 55.7413 109.547 61.84 111.955C62.849 112.388 63.7794 113.061 64.5707 113.93C65.3619 114.798 65.9964 115.843 66.433 116.997C66.8695 118.151 67.0983 119.388 67.1045 120.627C67.1106 121.866 66.8941 123.08 66.4688 124.19C64.787 128.995 59.9219 131.701 55.7787 132.783C51.6354 133.866 42.8365 131.921 40.5182 131.357L39.196 135.723C37.0203 142.706 34.827 149.65 32.9004 156.544C32.2105 158.971 31.6042 161.4 30.9979 163.83C31.6561 162.382 32.2184 161.165 32.3155 160.992C35.559 155.649 44.4045 147.663 50.5032 150.071C51.5108 150.506 52.4394 151.181 53.2289 152.05C54.0183 152.92 54.651 153.965 55.0858 155.119C55.5207 156.272 55.748 157.508 55.7531 158.746C55.7582 159.985 55.5409 161.197 55.1153 162.306C53.4331 167.092 48.5684 169.817 44.4251 170.899C40.2818 171.982 32.3388 170.201 29.5845 169.564C29.0298 172.074 28.4585 174.583 28.0537 177.058C27.7848 178.754 27.4139 180.368 27.229 182.087C27.044 183.805 26.7914 185.482 26.5719 187.14C26.2485 190.382 25.9102 193.721 25.6693 196.907C25.4769 199.114 25.3328 201.226 25.1887 203.337C25.8619 200.91 27.2611 196.193 27.4043 195.806C29.6521 190.682 33.0139 186.384 37.1683 183.324C37.3925 182.739 37.6738 182.19 38.0069 181.685C38.5935 180.689 39.359 179.86 40.2534 179.251C41.1478 178.641 42.151 178.266 43.1979 178.15C44.2447 178.034 45.3116 178.179 46.3292 178.575C47.3467 178.972 48.2921 179.611 49.1036 180.452C53.8839 185.659 52.5628 198.939 50.2845 204.92C50.1406 205.268 48.3191 208.874 47.0573 211.126C47.9378 209.939 48.7853 208.771 49.699 207.566C51.4929 205.155 53.338 202.804 55.3305 200.281L58.3395 196.694C59.3369 195.491 60.5194 194.354 61.6171 193.154C64.1914 190.454 66.9182 187.857 69.7301 185.341C67.8526 183.322 61.1996 176.351 59.4405 171.75C57.6815 167.149 56.2573 160.795 58.2945 156.217C58.7409 155.118 59.3846 154.153 60.1837 153.385C60.9828 152.617 61.9195 152.063 62.9327 151.759C63.9459 151.455 65.013 151.408 66.0645 151.62C67.116 151.833 68.1284 152.301 69.0358 152.993C74.4019 157.337 74.8067 170.809 73.3549 177.169C73.2619 177.558 71.7732 181.958 70.9152 184.341C72.5591 182.845 74.2864 181.333 76.0482 179.88C81.1357 175.674 86.3932 171.609 91.634 167.545L96.3955 163.778C95.7304 163.091 87.7504 154.922 85.6456 149.722C83.7866 145.137 82.4791 138.767 84.5163 134.189C84.9623 133.09 85.6061 132.124 86.4057 131.357C87.2052 130.589 88.1426 130.036 89.1565 129.733C90.1703 129.431 91.2379 129.386 92.2893 129.602C93.3407 129.818 94.3523 130.289 95.2581 130.985C100.607 135.309 101.029 148.801 99.5768 155.142C99.4686 155.609 97.3141 161.946 96.6915 163.513C100.201 160.726 103.658 157.858 106.965 154.985C111.458 151.051 115.712 146.762 119.699 142.147C119.391 141.824 111.037 133.329 108.882 128.089C107.023 123.523 105.715 117.134 107.752 112.556C108.199 111.459 108.842 110.497 109.64 109.731C110.439 108.965 111.374 108.413 112.386 108.111C113.398 107.808 114.463 107.763 115.513 107.976C116.562 108.19 117.572 108.659 118.477 109.352C123.844 113.696 124.265 127.168 122.796 133.508C122.689 134.014 120.376 140.817 119.88 141.996L120.601 141.216C124.481 136.452 127.976 131.273 131.044 125.738C132.776 122.698 134.274 119.69 135.689 116.718C133.991 115.312 126.343 108.799 123.983 104.276C121.624 99.7541 119.822 93.7409 121.403 88.913C121.741 87.7574 122.286 86.7102 123.004 85.8396C123.721 84.9689 124.595 84.2943 125.568 83.8596C126.541 83.4249 127.591 83.2399 128.65 83.3166C129.71 83.3933 130.754 83.7299 131.716 84.3046C137.421 87.954 139.095 101.369 138.249 107.905C138.255 108.258 137.386 111.796 136.698 114.34C137.308 112.988 137.967 111.599 138.544 110.285C140.692 105.357 142.375 100.611 143.853 96.5244C144.678 94.141 145.439 91.971 146.019 89.9324C144.922 87.5856 140.661 78.0069 140.281 72.9402C139.901 67.8735 140.651 61.5694 143.983 58.2471C144.746 57.431 145.655 56.8208 146.65 56.4562C147.646 56.0916 148.707 55.9807 149.763 56.1308C150.82 56.2808 151.848 56.6885 152.782 57.3272C153.716 57.966 154.534 58.8214 155.183 59.8381C158.946 66.0705 155.186 78.5676 151.856 83.7708C151.564 84.2317 146.316 90.5884 146.264 90.4691L146.261 90.332C145.696 92.2731 145.051 94.4271 144.308 96.7153C142.916 100.922 141.3 105.671 139.237 110.679C137.073 116.109 134.632 121.369 131.926 126.433C128.935 132.129 125.493 137.469 121.643 142.386L121.496 142.557C123.148 141.513 127.662 138.835 128.11 138.654C133.352 136.391 144.777 135.717 148.935 141.629C149.6 142.631 150.083 143.776 150.355 144.989C150.626 146.202 150.678 147.455 150.508 148.668C150.339 149.881 149.951 151.026 149.37 152.027C148.789 153.029 148.029 153.866 147.138 154.482C143.446 157.323 137.925 156.285 133.894 154.492Z" fill="white"/>
</svg>
