<svg width="309" height="309" viewBox="0 0 309 309" fill="none" xmlns="http://www.w3.org/2000/svg">
<mask id="mask0_6_4118" style="mask-type:alpha" maskUnits="userSpaceOnUse" x="0" y="0" width="309" height="309">
<circle cx="154.5" cy="154.5" r="154.5" fill="#C4C4C4"/>
</mask>
<g mask="url(#mask0_6_4118)">
<path d="M-11.0045 119.265C-11.0045 119.265 -16.4915 178.869 28.0882 226.664C72.6678 274.458 140.936 288.738 196.041 301.771C251.146 314.804 297.709 290.501 310.036 244.067C322.362 197.633 281.697 176.589 265.418 118.672C249.14 60.7553 253.418 43.2913 208.839 1.89588C164.259 -39.4995 85.4884 -31.8162 38.4085 18.5163C-8.67142 68.8489 -11.0045 119.265 -11.0045 119.265Z" fill="white" fill-opacity="0.4"/>
<path d="M164.393 -22.0879C164.393 -22.0879 104.605 -24.9453 58.8202 21.6953C13.035 68.336 1.7747 137.166 -8.81995 192.792C-19.4146 248.417 6.91558 293.865 53.8472 304.136C100.779 314.406 120.012 272.853 177.156 254.041C234.3 235.228 251.935 238.734 291.328 192.375C330.72 146.016 319.577 67.6598 267.22 22.8415C214.863 -21.9767 164.393 -22.0879 164.393 -22.0879Z" fill="white" fill-opacity="0.56"/>
<g opacity="0.5">
<path d="M2.13207 248.448C5.09432 247.41 9.99849 242.699 10.3825 242.317C13.082 245.121 15.9665 247.743 19.0169 250.164C20.7833 251.574 22.6045 252.952 24.5025 254.307C23.559 253.815 22.7252 253.378 22.6045 253.334C19.1266 251.979 11.6332 251.399 8.96718 254.624C8.53208 255.17 8.21839 255.801 8.04689 256.477C7.87539 257.153 7.85001 257.857 7.97242 258.543C8.09483 259.23 8.36224 259.882 8.75693 260.458C9.15162 261.033 9.66457 261.518 10.2618 261.881C12.7194 263.51 16.3289 263.051 18.9511 262.122C21.5732 261.193 25.8849 257.258 27.004 256.198C27.7171 256.712 28.4193 257.236 29.1324 257.739C32.5664 260.187 36.0114 262.614 39.3138 265.095C40.4767 265.969 41.5848 266.877 42.7039 267.773C41.8701 267.336 41.1679 266.975 41.0582 266.931C37.5803 265.576 30.0869 264.997 27.4209 268.221C26.997 268.769 26.6937 269.4 26.5307 270.073C26.3678 270.745 26.3488 271.445 26.4751 272.125C26.6013 272.806 26.87 273.452 27.2635 274.022C27.6571 274.592 28.1668 275.074 28.7594 275.435C31.2169 277.052 34.8265 276.593 37.4486 275.675C40.0708 274.757 43.9656 271.183 45.2931 269.937C46.3902 270.888 47.4874 271.839 48.5845 272.822C49.2757 273.5 49.9888 274.112 50.6471 274.834L52.6329 276.932C53.8397 278.298 55.1014 279.708 56.2425 281.086C57.0543 282.037 57.8004 282.944 58.5574 283.873C57.4603 282.987 55.1234 281.304 54.9259 281.184C51.6345 279.326 44.3605 277.61 41.2557 280.408C40.7529 280.884 40.3566 281.461 40.0926 282.1C39.8287 282.74 39.7029 283.427 39.7236 284.118C39.7443 284.809 39.911 285.488 40.2128 286.111C40.5146 286.733 40.9447 287.285 41.4751 287.731C43.6694 289.699 47.3009 289.797 50.0327 289.283C53.0498 288.704 58.4148 284.966 59.084 284.496C60.3238 286.026 61.5306 287.534 62.6387 288.966C65.6339 292.814 68.1244 296.235 70.0443 299L72.5019 297.71C70.4612 294.912 67.8062 291.393 64.5806 287.436C63.3189 285.873 61.9366 284.233 60.5103 282.561C61.8762 280.967 63.1438 279.291 64.3063 277.544C67.2796 278.637 73.3906 278.43 74.1805 278.408C74.378 280.375 74.5425 282.277 74.6742 284.091C75.0253 288.802 75.2008 292.934 75.2996 296.246L77.9656 294.836C77.801 291.731 77.5487 288.037 77.1427 283.906C76.9562 281.905 76.7149 279.785 76.4406 277.599C77.2086 277.38 83.5171 275.544 85.843 273.555C87.9714 271.751 90.1657 268.866 89.9901 265.904C89.9717 265.212 89.8073 264.532 89.5077 263.908C89.2081 263.284 88.78 262.729 88.2512 262.281C87.7224 261.832 87.1047 261.5 86.4384 261.305C85.7721 261.11 85.0721 261.057 84.3838 261.149C80.2696 261.816 77.0111 268.582 76.4516 272.254C76.4516 272.473 76.3199 274.866 76.287 276.375C76.1773 275.489 76.0676 274.626 75.9469 273.708C75.6945 271.893 75.3983 270.09 75.0911 268.155C74.9083 267.23 74.7217 266.29 74.5316 265.335C74.367 264.384 74.0708 263.412 73.8404 262.439C73.2699 260.187 72.5677 257.947 71.8217 255.695C73.4125 255.487 79.0518 254.602 81.4325 253.17C83.8133 251.738 86.4135 249.181 86.6878 246.262C86.774 245.576 86.7145 244.879 86.5132 244.217C86.3119 243.555 85.9732 242.942 85.5192 242.419C85.0651 241.895 84.5058 241.473 83.8774 241.178C83.2491 240.884 82.5656 240.724 81.8714 240.71C77.7023 240.71 73.4564 246.951 72.3373 250.547C72.2715 250.776 71.7558 253.411 71.5035 254.864C71.0427 253.509 70.5929 252.165 70.0772 250.82C68.6071 246.929 66.9833 243.038 65.3925 239.147L63.9553 235.573C64.5258 235.496 71.2512 234.633 73.9172 232.993C76.287 231.529 78.8982 229.004 79.1615 226.085C79.2644 225.393 79.2182 224.687 79.0258 224.013C78.8334 223.34 78.4994 222.715 78.0458 222.181C77.5922 221.646 77.0295 221.214 76.3952 220.913C75.7609 220.612 75.0695 220.449 74.367 220.435C70.187 220.435 65.9411 226.676 64.833 230.217C64.7452 230.49 64.0211 234.283 63.8785 235.256C62.7813 232.633 61.8049 229.998 60.9053 227.375C59.6744 223.829 58.6739 220.207 57.9101 216.533C58.1734 216.533 65.206 215.625 67.9378 213.942C70.2967 212.477 72.9078 209.953 73.1821 207.034C73.27 206.348 73.212 205.652 73.0121 204.99C72.8121 204.328 72.4745 203.715 72.0213 203.191C71.5681 202.668 71.0094 202.245 70.3815 201.95C69.7536 201.656 69.0706 201.496 68.3767 201.482C64.1966 201.482 59.9507 207.723 58.8426 211.264C58.7549 211.548 57.9649 215.636 57.8772 216.38C57.8772 216.161 57.7675 215.953 57.7236 215.735C57.0595 212.026 56.7254 208.266 56.7252 204.499C56.7252 202.422 56.791 200.433 56.9227 198.498C58.2502 198.498 64.3064 198.279 66.9395 197.033C69.5726 195.787 72.3154 193.612 72.9188 190.738C73.0799 190.065 73.0976 189.367 72.9708 188.687C72.8439 188.008 72.5753 187.362 72.1824 186.792C71.7895 186.223 71.2809 185.742 70.6896 185.38C70.0983 185.018 69.4375 184.784 68.7497 184.693C64.5916 184.278 59.6874 189.972 58.1844 193.383C58.1076 193.568 57.4822 195.569 57.0872 196.979C57.164 196.115 57.2189 195.208 57.3067 194.377C57.6248 191.24 58.1185 188.398 58.5684 185.874C58.8317 184.442 59.106 183.163 59.3693 181.961C60.6639 181.25 65.8094 178.354 67.5319 176.08C69.2544 173.807 70.7355 170.615 69.9236 167.752C69.757 167.077 69.449 166.445 69.02 165.897C68.5909 165.349 68.0505 164.898 67.4341 164.573C66.8177 164.248 66.1392 164.056 65.4433 164.011C64.7473 163.965 64.0495 164.067 63.3957 164.309C59.5119 165.839 57.8004 173.151 58.0417 176.856C58.0417 177.184 58.9743 182.157 59.0401 182.114H59.1169C58.8426 183.261 58.5574 184.496 58.2721 185.863C57.7675 188.377 57.175 191.218 56.8239 194.355C56.3651 197.729 56.105 201.127 56.045 204.531C55.9607 208.347 56.2177 212.162 56.813 215.931C56.813 215.931 56.813 216.019 56.813 216.063C56.2644 214.97 54.6187 211.975 54.4651 211.767C52.2708 208.728 46.3793 204.116 42.3967 205.351C41.741 205.576 41.1401 205.935 40.6329 206.407C40.1257 206.878 39.7235 207.45 39.4525 208.085C39.1815 208.721 39.0476 209.407 39.0596 210.098C39.0716 210.788 39.2292 211.469 39.5222 212.095C40.6742 214.795 43.9107 216.401 46.6426 217.079C49.6926 217.833 56.3851 216.598 56.9227 216.5C57.6184 220.319 58.5714 224.088 59.7752 227.78C60.4664 229.966 61.2234 232.086 61.9695 234.228C61.4648 233.299 61.004 232.48 60.9272 232.37C58.7329 229.332 52.8414 224.719 48.8588 225.954C48.2031 226.179 47.6022 226.539 47.095 227.01C46.5878 227.481 46.1856 228.053 45.9146 228.689C45.6436 229.325 45.5097 230.01 45.5217 230.701C45.5337 231.392 45.6913 232.072 45.9843 232.698C47.1363 235.409 50.3728 237.005 53.0937 237.682C55.8146 238.36 61.5745 237.431 63.0885 237.158C63.4067 237.977 63.7029 238.797 64.0211 239.617C65.5242 243.552 67.0492 247.465 68.4096 251.345C68.8923 252.711 69.3202 254.077 69.7591 255.444C69.3093 254.624 68.9143 253.935 68.8485 253.837C66.6542 250.798 60.7516 246.186 56.78 247.421C56.1234 247.645 55.5213 248.003 55.0129 248.474C54.5045 248.945 54.1012 249.516 53.829 250.152C53.5569 250.788 53.4221 251.474 53.4334 252.166C53.4447 252.857 53.6018 253.538 53.8946 254.165C55.0575 256.865 58.2831 258.471 61.015 259.149C63.7468 259.827 68.9362 258.974 70.7355 258.668C71.1415 260.078 71.5474 261.488 71.8326 262.876C72.0301 263.827 72.2934 264.734 72.447 265.696C72.6006 266.658 72.7762 267.598 72.9407 268.527C73.1821 270.341 73.4564 272.21 73.6539 273.992C73.7965 275.227 73.9172 276.408 74.0379 277.588C73.5661 276.222 72.6006 273.566 72.4909 273.347C70.9309 270.483 68.6657 268.061 65.9081 266.308C65.7456 265.982 65.5547 265.672 65.3376 265.379C64.9394 264.813 64.4259 264.336 63.8306 263.98C63.2353 263.624 62.5714 263.397 61.8823 263.314C61.1931 263.23 60.4941 263.292 59.8305 263.495C59.1669 263.699 58.5537 264.039 58.0308 264.494C54.9588 267.314 56.0011 274.746 57.559 278.124C57.6577 278.32 58.8975 280.364 59.7533 281.643C59.1608 280.965 58.6561 280.299 57.9869 279.61C56.78 278.233 55.5293 276.888 54.2018 275.446L52.1721 273.391C51.5138 272.702 50.7239 272.046 49.9778 271.358C48.2553 269.806 46.4341 268.308 44.569 266.855C45.7758 265.762 50.0546 261.991 51.1518 259.455C52.2489 256.919 53.0937 253.4 51.7003 250.809C51.4001 250.184 50.9706 249.629 50.44 249.181C49.9094 248.733 49.2898 248.401 48.6216 248.208C47.9535 248.015 47.2519 247.965 46.563 248.061C45.874 248.157 45.2132 248.397 44.6239 248.765C41.1569 251.093 41.0472 258.602 42.0785 262.177C42.1443 262.395 43.1756 264.876 43.7681 266.221C42.671 265.357 41.5738 264.483 40.3451 263.641C36.9659 261.204 33.4551 258.843 29.9772 256.482L26.7955 254.296C27.2344 253.924 32.358 249.509 33.6745 246.645C34.8375 244.12 35.6164 240.59 34.2231 237.999C33.9154 237.386 33.4823 236.844 32.9517 236.408C32.4211 235.972 31.8047 235.652 31.1422 235.468C30.4797 235.283 29.7858 235.239 29.1052 235.338C28.4246 235.437 27.7724 235.677 27.1905 236.043C23.7236 238.36 23.6138 245.88 24.6561 249.443C24.7329 249.705 26.225 253.279 26.6419 254.165C24.316 252.547 22.012 250.886 19.7958 249.224C16.8013 246.947 13.9575 244.478 11.2821 241.836C11.4796 241.661 16.8665 237.07 18.205 234.185C19.368 231.671 20.1579 228.129 18.7645 225.539C18.457 224.919 18.022 224.37 17.4877 223.929C16.9534 223.487 16.3319 223.163 15.6634 222.976C14.995 222.789 14.2946 222.745 13.6078 222.846C12.921 222.946 12.2632 223.19 11.6771 223.561C8.21017 225.889 8.10045 233.398 9.14272 236.961C9.21952 237.245 10.8323 241.081 11.1724 241.748L10.6897 241.3C8.07784 238.576 5.71685 235.624 3.63514 232.48C2.46121 230.753 1.44088 229.047 0.47541 227.364C1.57254 226.61 6.50962 223.112 8.01268 220.631C9.51575 218.15 10.6129 214.827 9.51575 212.106C9.2797 211.455 8.90879 210.861 8.42715 210.363C7.94551 209.864 7.36393 209.472 6.72024 209.213C6.07656 208.953 5.38518 208.831 4.69108 208.855C3.99699 208.879 3.31572 209.048 2.69161 209.351C-1.00571 211.286 -1.93827 218.74 -1.30194 222.402C-1.30194 222.599 -0.698516 224.588 -0.204808 226.02C-0.621716 225.255 -1.07154 224.468 -1.45554 223.725C-2.92569 220.937 -4.09962 218.259 -5.11994 215.953C-5.67948 214.609 -6.21707 213.385 -6.61204 212.237C-5.93182 210.947 -3.24385 205.679 -3.06831 202.859C-2.89277 200.039 -3.52911 196.487 -5.72337 194.574C-6.23384 194.105 -6.83764 193.749 -7.49552 193.527C-8.1534 193.306 -8.85062 193.226 -9.54187 193.291C-10.2331 193.356 -10.9029 193.565 -11.5077 193.904C-12.1125 194.244 -12.6387 194.707 -13.0522 195.263C-15.4439 198.673 -12.8218 205.712 -10.5617 208.674C-10.3642 208.936 -6.85341 212.576 -6.82049 212.51V212.434C-6.41456 213.527 -5.96473 214.74 -5.46005 216.03C-4.48361 218.402 -3.36454 221.079 -1.96021 223.91C-0.465877 226.979 1.20831 229.957 3.05366 232.829C5.09448 236.056 7.41853 239.095 9.99849 241.912L10.0972 242.011C9.0001 241.398 6.00494 239.825 5.70871 239.715C2.23081 238.36 -5.26257 237.781 -7.91762 241.005C-8.34181 241.552 -8.64565 242.181 -8.80934 242.853C-8.97303 243.524 -8.9929 244.222 -8.86765 244.902C-8.74241 245.581 -8.47486 246.227 -8.08244 246.797C-7.69002 247.366 -7.18153 247.847 -6.5901 248.208C-4.09962 249.858 -0.501034 249.377 2.13207 248.448Z" fill="#333333"/>
<path d="M29.9389 213.457C29.9921 213.457 29.1789 210.037 29.1029 209.824C28.229 207.392 25.1055 203.212 22.21 203.311C21.7308 203.343 21.2636 203.475 20.8384 203.698C20.4132 203.921 20.0397 204.231 19.7418 204.608C19.4438 204.985 19.2282 205.42 19.1088 205.885C18.9894 206.35 18.9689 206.835 19.0486 207.309C19.3298 209.338 21.2069 211.01 22.894 211.952C24.8699 213.062 29.9313 213.457 29.9389 213.457Z" fill="#333333"/>
<path d="M338.825 254.718C335.663 253.602 330.427 248.538 330.006 248.127C327.127 251.145 324.047 253.963 320.788 256.563C318.903 258.079 316.958 259.559 314.991 261.016C315.986 260.487 316.888 260.017 317.017 259.97C320.73 258.513 328.729 257.891 331.564 261.357C332.016 261.945 332.339 262.622 332.513 263.345C332.687 264.067 332.707 264.818 332.573 265.548C332.438 266.279 332.151 266.973 331.731 267.585C331.311 268.196 330.767 268.713 330.135 269.1C327.511 270.85 323.67 270.357 320.859 269.358C318.048 268.359 313.457 264.13 312.274 262.99L309.99 264.647C306.324 267.278 302.658 269.887 299.133 272.554C297.891 273.494 296.696 274.469 295.502 275.432C296.392 274.962 297.141 274.575 297.27 274.528C300.971 273.071 308.982 272.448 311.817 275.914C312.269 276.503 312.593 277.182 312.767 277.905C312.941 278.628 312.961 279.38 312.826 280.111C312.692 280.843 312.405 281.537 311.985 282.15C311.565 282.763 311.021 283.281 310.388 283.669C307.764 285.408 303.911 284.914 301.112 283.927C298.313 282.94 294.155 279.098 292.738 277.759C291.566 278.781 290.395 279.803 289.224 280.861C288.474 281.589 287.713 282.247 287.01 283.022C286.308 283.798 285.593 284.526 284.902 285.278C283.602 286.747 282.267 288.263 281.037 289.743C280.182 290.765 279.374 291.74 278.566 292.739C279.796 291.787 282.232 289.978 282.454 289.849C285.898 287.851 293.733 286.007 297.036 289.015C297.573 289.527 297.996 290.147 298.278 290.834C298.559 291.521 298.694 292.26 298.672 293.003C298.649 293.746 298.472 294.476 298.149 295.145C297.827 295.814 297.368 296.407 296.802 296.887C294.459 299.001 290.594 299.107 287.666 298.555C284.457 297.932 278.73 293.914 278.015 293.409C276.68 295.054 275.404 296.675 274.209 298.214C271.023 302.35 268.353 306.027 266.303 309L263.668 307.614C265.847 304.606 268.693 300.823 272.124 296.569C273.471 294.889 274.947 293.127 276.481 291.329C275.022 289.613 273.665 287.813 272.417 285.936C269.243 287.111 262.719 286.888 261.876 286.864C261.677 288.979 261.49 291.024 261.349 292.974C260.974 298.038 260.787 302.479 260.693 306.039L257.835 304.524C258.011 301.187 258.292 297.216 258.714 292.774C258.925 290.624 259.182 288.345 259.463 285.995C258.644 285.76 251.921 283.786 249.426 281.648C247.166 279.709 244.823 276.607 245.011 273.423C245.029 272.68 245.203 271.95 245.521 271.279C245.84 270.608 246.296 270.012 246.859 269.529C247.423 269.047 248.081 268.69 248.792 268.48C249.503 268.27 250.25 268.213 250.984 268.312C255.388 269.029 258.854 276.302 259.452 280.25C259.452 280.485 259.592 283.058 259.627 284.679C259.756 283.727 259.862 282.799 260.002 281.812C260.26 279.862 260.576 277.923 260.916 275.844C261.103 274.845 261.302 273.835 261.501 272.812C261.7 271.79 261.993 270.744 262.239 269.699C262.86 267.278 263.598 264.87 264.394 262.45C262.696 262.226 256.676 261.275 254.134 259.735C251.593 258.196 248.817 255.447 248.536 252.31C248.442 251.573 248.504 250.824 248.717 250.112C248.931 249.4 249.291 248.742 249.775 248.179C250.259 247.616 250.855 247.161 251.526 246.845C252.196 246.528 252.925 246.357 253.666 246.341C258.128 246.341 262.661 253.05 263.844 256.916C263.926 257.162 264.464 259.994 264.734 261.557C265.226 260.1 265.718 258.654 266.256 257.209C267.838 253.027 269.559 248.844 271.258 244.661C271.785 243.38 272.288 242.1 272.792 240.819C272.195 240.737 265.003 239.809 262.157 238.046C259.639 236.472 256.852 233.758 256.559 230.621C256.465 229.884 256.527 229.135 256.74 228.423C256.954 227.711 257.314 227.053 257.798 226.49C258.282 225.927 258.878 225.472 259.548 225.156C260.219 224.839 260.948 224.668 261.689 224.652C266.151 224.652 270.684 231.361 271.878 235.168C271.96 235.462 272.745 239.538 272.886 240.584C274.057 237.764 275.099 234.933 276.071 232.113C277.39 228.301 278.462 224.408 279.28 220.458C278.999 220.458 271.504 219.483 268.587 217.673C266.057 216.099 263.27 213.385 262.977 210.248C262.885 209.51 262.949 208.761 263.163 208.049C263.378 207.337 263.74 206.679 264.225 206.116C264.709 205.553 265.306 205.099 265.977 204.783C266.648 204.466 267.378 204.295 268.119 204.279C272.581 204.279 277.102 210.988 278.297 214.795C278.39 215.1 279.222 219.494 279.316 220.293C279.316 220.058 279.444 219.835 279.479 219.6C280.194 215.614 280.551 211.572 280.545 207.522C280.545 205.289 280.475 203.151 280.334 201.071C278.917 201.071 272.452 200.836 269.653 199.497C266.854 198.158 263.902 195.82 263.27 192.73C263.096 192.007 263.076 191.255 263.21 190.524C263.345 189.793 263.631 189.098 264.051 188.485C264.471 187.873 265.015 187.355 265.647 186.967C266.279 186.579 266.985 186.328 267.72 186.232C272.159 185.786 277.395 191.907 278.988 195.573C279.081 195.773 279.737 197.923 280.159 199.438C280.077 198.51 280.018 197.535 279.925 196.642C279.585 193.27 279.07 190.215 278.578 187.501C278.297 185.962 278.004 184.587 277.723 183.295C276.352 182.531 270.859 179.418 269.021 176.974C267.182 174.53 265.601 171.099 266.456 168.021C266.634 167.3 266.962 166.624 267.418 166.039C267.873 165.453 268.447 164.97 269.101 164.621C269.754 164.272 270.474 164.065 271.213 164.013C271.952 163.961 272.693 164.066 273.389 164.32C277.535 165.965 279.362 173.825 279.105 177.808C279.105 178.16 278.109 183.506 278.039 183.459H277.957C278.25 184.693 278.566 186.021 278.87 187.489C279.409 190.192 280.042 193.246 280.416 196.619C280.902 200.246 281.176 203.898 281.236 207.557C281.33 211.658 281.06 215.759 280.428 219.812V219.952C281.014 218.778 282.771 215.558 282.935 215.335C285.277 212.069 291.566 207.111 295.818 208.438C296.519 208.678 297.162 209.064 297.704 209.57C298.247 210.076 298.677 210.691 298.966 211.375C299.256 212.059 299.398 212.797 299.385 213.54C299.371 214.283 299.201 215.015 298.887 215.688C297.657 218.59 294.202 220.317 291.297 221.045C288.041 221.856 280.885 220.528 280.311 220.422C279.568 224.528 278.551 228.579 277.266 232.548C276.528 234.898 275.72 237.177 274.923 239.48C275.462 238.481 275.954 237.6 276.036 237.482C278.379 234.216 284.68 229.258 288.92 230.586C289.62 230.826 290.263 231.212 290.806 231.718C291.349 232.223 291.779 232.838 292.07 233.522C292.36 234.205 292.504 234.943 292.492 235.686C292.48 236.429 292.312 237.161 292 237.835C290.758 240.749 287.315 242.464 284.399 243.192C281.482 243.921 275.345 242.922 273.729 242.629L272.745 245.272C271.129 249.502 269.501 253.708 268.06 257.879C267.545 259.348 267.088 260.816 266.631 262.285C267.111 261.404 267.521 260.664 267.592 260.558C269.934 257.292 276.235 252.333 280.475 253.661C281.175 253.903 281.817 254.289 282.358 254.796C282.899 255.302 283.329 255.917 283.618 256.6C283.907 257.284 284.05 258.021 284.037 258.763C284.025 259.506 283.856 260.237 283.544 260.91C282.302 263.812 278.859 265.54 275.942 266.268C273.026 266.996 267.486 266.08 265.565 265.751C265.144 267.267 264.71 268.782 264.394 270.275C264.183 271.297 263.902 272.272 263.75 273.306C263.598 274.34 263.399 275.35 263.223 276.349C262.954 278.299 262.673 280.308 262.462 282.223C262.298 283.551 262.169 284.82 262.04 286.089C262.544 284.62 263.586 281.765 263.691 281.53C265.334 278.414 267.745 275.772 270.695 273.858C270.86 273.503 271.064 273.168 271.304 272.859C271.728 272.251 272.276 271.739 272.91 271.356C273.545 270.974 274.252 270.73 274.987 270.64C275.722 270.55 276.467 270.617 277.175 270.835C277.882 271.053 278.536 271.419 279.093 271.908C282.372 274.939 281.271 282.928 279.597 286.559C279.491 286.77 278.168 288.968 277.254 290.342C277.887 289.614 278.496 288.897 279.152 288.157C280.44 286.676 281.763 285.231 283.192 283.68L285.347 281.472C286.062 280.731 286.905 280.026 287.69 279.286C289.529 277.618 291.473 276.008 293.476 274.445C292.187 273.271 287.619 269.217 286.448 266.491C285.277 263.765 284.363 259.982 285.851 257.198C286.178 256.53 286.642 255.939 287.212 255.463C287.781 254.987 288.445 254.637 289.159 254.436C289.872 254.234 290.62 254.185 291.354 254.293C292.088 254.4 292.791 254.661 293.417 255.059C297.118 257.562 297.223 265.634 296.122 269.476C296.052 269.711 294.951 272.378 294.319 273.823C295.49 272.895 296.72 271.955 297.973 271.05C301.592 268.43 305.328 265.892 309.053 263.354L312.438 261.004C311.981 260.605 306.499 255.858 305.094 252.78C303.853 250.066 303.021 246.271 304.508 243.486C304.835 242.818 305.299 242.227 305.869 241.752C306.439 241.276 307.103 240.926 307.817 240.726C308.531 240.525 309.28 240.478 310.013 240.587C310.747 240.696 311.449 240.959 312.074 241.36C315.764 243.85 315.881 251.934 314.78 255.764C314.698 256.046 313.105 259.888 312.648 260.84C315.143 259.101 317.603 257.315 319.957 255.529C323.156 253.084 326.192 250.43 329.045 247.587C328.835 247.399 323.096 242.464 321.655 239.362C320.414 236.66 319.582 232.853 321.069 230.069C321.397 229.402 321.86 228.813 322.429 228.338C322.998 227.864 323.661 227.515 324.374 227.314C325.086 227.114 325.833 227.066 326.565 227.174C327.298 227.282 327.999 227.544 328.624 227.942C332.325 230.445 332.442 238.516 331.329 242.347C331.247 242.652 329.537 246.776 329.174 247.493L329.69 247.011C332.471 244.08 334.987 240.907 337.209 237.529C338.462 235.673 339.551 233.84 340.582 232.031C339.411 231.22 334.14 227.46 332.547 224.793C330.955 222.126 329.772 218.554 330.943 215.629C331.195 214.929 331.591 214.291 332.105 213.755C332.619 213.219 333.24 212.798 333.927 212.519C334.614 212.239 335.352 212.108 336.093 212.134C336.834 212.16 337.562 212.342 338.228 212.668C342.175 214.748 343.17 222.761 342.491 226.697C342.491 226.908 341.835 229.046 341.32 230.586C341.765 229.763 342.245 228.917 342.667 228.118C344.236 225.122 345.478 222.244 346.567 219.764C347.176 218.319 347.738 217.003 348.171 215.77C347.434 214.383 344.576 208.72 344.377 205.689C344.178 202.658 344.787 198.863 347.164 196.807C347.709 196.303 348.354 195.919 349.056 195.682C349.758 195.444 350.503 195.357 351.241 195.427C351.978 195.497 352.693 195.722 353.339 196.087C353.985 196.452 354.547 196.949 354.988 197.547C357.541 201.212 354.742 208.779 352.341 211.963C352.13 212.245 348.371 216.157 348.335 216.087V216.005C347.914 217.18 347.434 218.484 346.883 219.87C345.852 222.42 344.658 225.298 343.147 228.341C341.559 231.639 339.78 234.841 337.818 237.929C335.647 241.402 333.166 244.67 330.404 247.692L330.299 247.798C331.47 247.14 334.667 245.448 334.984 245.331C338.685 243.874 346.696 243.251 349.53 246.717C349.982 247.306 350.306 247.983 350.48 248.705C350.654 249.427 350.674 250.178 350.539 250.909C350.404 251.639 350.117 252.333 349.697 252.945C349.277 253.557 348.733 254.073 348.101 254.46C345.478 256.234 341.624 255.717 338.825 254.718Z" fill="#333333"/>
<path d="M287.666 213.457C287.613 213.457 288.426 210.037 288.495 209.824C289.369 207.392 292.5 203.212 295.388 203.311C295.867 203.342 296.335 203.473 296.761 203.696C297.187 203.919 297.561 204.229 297.859 204.606C298.157 204.983 298.373 205.418 298.491 205.884C298.61 206.349 298.63 206.835 298.549 207.309C298.276 209.338 296.391 211.01 294.711 211.952C292.735 213.062 287.666 213.457 287.666 213.457Z" fill="#333333"/>
</g>
<path d="M14.9503 107.97C11.4652 101.252 10.0041 96.4372 10.0041 95.3234C10.0041 93.1197 14.7946 91.8024 14.7946 91.8024C22.2679 87.8502 57.4184 93.5629 73.2391 96.1977C82.0955 97.7416 91.0547 98.6223 100.042 98.8325C100.042 98.8325 102.234 97.0839 104.833 94.8803C107.432 92.6766 119.767 78.1852 124.606 76.9158C129.444 75.6463 133.827 78.6763 133.827 78.6763C133.827 78.6763 141.744 83.4668 140.414 84.389C139.085 85.3112 119.767 101.958 114.929 105.036C110.09 108.114 99.9942 106.797 91.2036 108.557C83.6346 110.066 52.9752 111.935 45.9451 112.509C40.6654 113.762 35.1242 113.3 30.1243 111.192" fill="white"/>
<path d="M133.911 78.6284C133.911 78.6284 129.516 75.5505 124.689 76.8679C119.863 78.1853 107.551 92.6887 104.917 94.8324C102.282 96.9762 100.126 98.7846 100.126 98.7846C91.1385 98.5745 82.1793 97.6938 73.3229 96.1498C57.5022 93.515 22.3517 87.7664 14.8784 91.7545C14.8784 91.7545 10.0879 93.0719 10.0879 95.2755C10.2543 96.5075 10.5721 97.7143 11.034 98.8684L11.6927 99.108C11.6927 99.108 20.4714 98.1858 39.4179 98.6409C58.3645 99.096 102.186 101.695 105 102.713C106.198 103.168 114.689 101.252 124.103 97.9223C131.288 92.0659 139.732 84.7483 140.582 84.2334C141.828 83.4549 133.911 78.6284 133.911 78.6284Z" fill="#FFC700"/>
<path opacity="0.5" d="M133.911 78.6284C133.911 78.6284 129.516 75.5505 124.689 76.8679C119.863 78.1853 107.551 92.6887 104.917 94.8324C102.282 96.9762 100.126 98.7846 100.126 98.7846C91.1385 98.5745 82.1793 97.6938 73.3229 96.1498C57.5022 93.515 22.3517 87.7664 14.8784 91.7545C14.8784 91.7545 10.0879 93.0719 10.0879 95.2755C10.2543 96.5075 10.5721 97.7143 11.034 98.8684L11.6927 99.108C11.6927 99.108 20.4714 98.1858 39.4179 98.6409C58.3645 99.096 102.186 101.695 105 102.713C106.198 103.168 114.689 101.252 124.103 97.9223C131.288 92.0659 139.732 84.7483 140.582 84.2334C141.828 83.4549 133.911 78.6284 133.911 78.6284Z" fill="white"/>
<path d="M14.9503 107.97C11.4652 101.252 10.0041 96.4372 10.0041 95.3234C10.0041 93.1197 14.7946 91.8024 14.7946 91.8024C22.2679 87.8502 57.4184 93.5629 73.2391 96.1977C82.0955 97.7416 91.0547 98.6223 100.042 98.8325C100.042 98.8325 102.234 97.0839 104.833 94.8803C107.432 92.6766 119.767 78.1852 124.606 76.9158C129.444 75.6463 133.827 78.6763 133.827 78.6763C133.827 78.6763 141.744 83.4668 140.414 84.389C139.085 85.3112 119.767 101.958 114.929 105.036C110.09 108.114 99.9942 106.797 91.2036 108.557C83.6346 110.066 52.9752 111.935 45.9451 112.509C40.6654 113.762 35.1242 113.3 30.1243 111.192" stroke="#263238" stroke-linecap="round" stroke-linejoin="round"/>
<path d="M188.499 147.037C189.294 145.528 190.487 144.265 191.947 143.385C193.408 142.505 195.082 142.041 196.787 142.043H276.669C276.669 142.043 282.442 142.043 280.717 153.013C278.993 163.984 255.303 230.967 249.579 251.219C243.854 271.471 242.644 314.155 242.644 314.155H146.834C146.834 314.155 154.427 212.081 188.499 147.037Z" fill="white"/>
<path opacity="0.16" d="M224.476 142.043H196.787C195.082 142.041 193.408 142.505 191.947 143.385C190.486 144.265 189.294 145.528 188.499 147.037C154.427 212.081 146.75 314.119 146.75 314.119H189.721L200.32 273.866L244.513 282.98C244.824 279.603 245.183 276.166 245.602 272.777L244.632 261.998C244.632 261.998 235.578 252.477 232.728 250.093C229.878 247.71 231.77 243.411 231.291 224.835C230.812 206.26 214.141 192.906 207.937 181.469C201.733 170.032 211.278 162.882 219.853 151.444C222.907 147.313 224.153 144.271 224.476 142.043Z" fill="black"/>
<path d="M188.499 147.037C189.294 145.528 190.487 144.265 191.947 143.385C193.408 142.505 195.082 142.041 196.787 142.043H276.669C276.669 142.043 282.442 142.043 280.717 153.013C278.993 163.984 255.303 230.967 249.579 251.219C243.854 271.471 242.644 314.155 242.644 314.155H146.834C146.834 314.155 154.427 212.081 188.499 147.037Z" stroke="#263238" stroke-linecap="round" stroke-linejoin="round"/>
<path d="M267.623 163.634C259.551 182.473 242.473 257.05 239.694 316.656H247.407C247.407 316.656 248.605 273.924 254.341 253.72C260.078 233.516 283.791 166.521 285.48 155.514C287.169 144.508 281.432 144.544 281.432 144.544C281.432 144.544 274.102 148.532 267.623 163.634Z" fill="#263238" stroke="#263238" stroke-linecap="round" stroke-linejoin="round"/>
<path d="M122.486 123.444C122.486 123.444 109.743 115.971 104.917 102.797C100.09 89.6227 142.702 68.5204 161.205 67.203C179.709 65.8856 184.93 70.7121 195.937 89.6107C206.943 108.509 214.392 134.426 208.68 147.169C202.967 159.912 193.302 162.99 200.296 173.517C207.29 184.044 227.099 213.937 225.782 227.997C224.464 242.057 210.847 254.345 191.05 255.687C171.253 257.028 144.906 245.135 122.941 225.746C100.976 206.356 106.677 177.84 114.558 168.619C122.438 159.397 134.33 155.876 135.205 146.654C136.079 137.432 122.486 123.444 122.486 123.444Z" fill="#263238" stroke="#263238" stroke-linecap="round" stroke-linejoin="round"/>
<path d="M176.798 102.593C183.565 115.192 192.032 132.067 194.679 142.259C199.302 160.103 175.517 171.337 182.116 179.924" stroke="white" stroke-linecap="round" stroke-linejoin="round"/>
<path d="M167.577 86.0896C167.577 86.0896 170.212 90.5807 173.852 97.1917" stroke="white" stroke-linecap="round" stroke-linejoin="round"/>
<path d="M203.075 117.791C203.855 120.152 204.361 122.596 204.584 125.073" stroke="white" stroke-linecap="round" stroke-linejoin="round"/>
<path d="M172.152 79.5386C172.152 79.5386 192.967 94.9162 201.278 113.324" stroke="white" stroke-linecap="round" stroke-linejoin="round"/>
<path d="M143.265 91.072C128.402 95.2398 107.024 102.006 108.761 105.911" stroke="white" stroke-linecap="round" stroke-linejoin="round"/>
<path d="M157.002 87.4072C157.002 87.4072 153.828 88.1976 149.097 89.4671" stroke="white" stroke-linecap="round" stroke-linejoin="round"/>
<path d="M138.618 79.6464C147.131 76.9633 156.048 75.7879 164.966 76.1733" stroke="white" stroke-linecap="round" stroke-linejoin="round"/>
<path d="M132.558 82.1256C133.904 81.4242 135.296 80.816 136.726 80.3052" stroke="white" stroke-linecap="round" stroke-linejoin="round"/>
<path d="M10.0041 95.3235C9.9987 95.4072 9.9987 95.4913 10.0041 95.575C9.9987 95.4913 9.9987 95.4072 10.0041 95.3235ZM14.9504 107.971C12.9333 104.277 11.3268 100.373 10.1598 96.3295C11.3212 100.375 12.9279 104.279 14.9504 107.971ZM10.0281 95.6469C10.0281 95.7187 10.0281 95.8025 10.0281 95.9103C10.0521 95.8025 10.0401 95.7187 10.0281 95.6469ZM10.088 95.9822C10.1027 96.0997 10.1268 96.2158 10.1598 96.3295C10.1268 96.2158 10.1027 96.0997 10.088 95.9822ZM14.9504 107.959C19.4295 116.442 25.0021 124.302 31.5256 131.336C47.3464 148.474 93.048 193.302 97.3954 196.38C101.743 199.458 100.473 208.236 97.3954 217.027C94.3175 225.818 82.8921 238.584 83.3352 252.621C83.7784 266.657 88.1258 288.214 87.7305 292.61C87.3353 297.005 76.3411 311.951 76.3411 311.951H189.709C189.709 311.951 175.577 293.987 175.577 287.843C175.577 281.699 194.979 202.979 195.853 197.266C196.727 191.553 193.218 187.601 186.188 187.158C179.158 186.715 152.355 181.002 151.037 176.607C149.72 172.212 158.068 155.517 158.068 155.517L131.72 156.834C131.72 156.834 130.402 168.259 128.642 170.463C126.881 172.667 124.246 168.259 118.091 165.193C111.935 162.127 100.126 159.481 95.6828 155.96C91.2396 152.439 49.1069 112.845 49.1069 112.845" fill="white"/>
<path d="M102.414 159.349C104.605 163.182 106.797 166.643 106.797 166.643C106.797 166.643 114.186 170.798 116.031 170.798C117.875 170.798 128.965 176.787 128.965 176.787C128.965 176.787 138.211 174.475 134.953 166.619C133.926 164.607 132.628 162.746 131.097 161.086C130.546 164.571 129.66 169.134 128.618 170.439C126.857 172.631 124.223 168.236 118.067 165.17C114.079 163.182 107.623 161.361 102.414 159.349Z" fill="#FFC700"/>
<path d="M79.85 141.564C66.2808 129.001 49.1068 112.893 49.1068 112.893L39.1185 111.456L37.9209 112.126C37.9209 112.126 66.1132 137.073 72.1133 139.852C74.5407 140.967 77.1785 141.551 79.85 141.564Z" fill="#FFC700"/>
<path d="M94.066 154.571L92.9881 153.613C93.539 154.523 93.8504 155.098 93.8504 155.098L94.066 154.571Z" fill="#FFC700"/>
<g opacity="0.5">
<path opacity="0.5" d="M102.414 159.349C104.605 163.182 106.797 166.643 106.797 166.643C106.797 166.643 114.186 170.798 116.031 170.798C117.875 170.798 128.965 176.787 128.965 176.787C128.965 176.787 138.211 174.475 134.953 166.619C133.926 164.607 132.628 162.746 131.097 161.086C130.546 164.571 129.66 169.134 128.618 170.439C126.857 172.631 124.223 168.236 118.067 165.17C114.079 163.182 107.623 161.361 102.414 159.349Z" fill="white"/>
<path opacity="0.5" d="M79.85 141.564C66.2808 129.001 49.1068 112.893 49.1068 112.893L39.1185 111.456L37.9209 112.126C37.9209 112.126 66.1132 137.073 72.1133 139.852C74.5407 140.967 77.1785 141.551 79.85 141.564Z" fill="white"/>
<path opacity="0.5" d="M94.066 154.571L92.9881 153.613C93.539 154.523 93.8504 155.098 93.8504 155.098L94.066 154.571Z" fill="white"/>
</g>
<path d="M14.9504 107.959C19.4295 116.442 25.0021 124.302 31.5256 131.336C47.3464 148.474 93.048 193.302 97.3954 196.38C101.743 199.458 100.473 208.236 97.3954 217.027C94.3175 225.818 82.8921 238.584 83.3352 252.621C83.7784 266.657 88.1258 288.214 87.7305 292.61C87.3353 297.005 76.3411 311.951 76.3411 311.951H189.709C189.709 311.951 175.577 293.987 175.577 287.843C175.577 281.699 194.979 202.979 195.853 197.266C196.727 191.553 193.218 187.601 186.188 187.158C179.158 186.715 152.355 181.002 151.037 176.607C149.72 172.212 158.068 155.517 158.068 155.517L131.72 156.834C131.72 156.834 130.402 168.259 128.642 170.463C126.881 172.667 124.246 168.259 118.091 165.193C111.935 162.127 100.126 159.481 95.6828 155.96C91.2396 152.439 49.1069 112.845 49.1069 112.845M10.0041 95.3235C9.9987 95.4072 9.9987 95.4913 10.0041 95.575C9.9987 95.4913 9.9987 95.4072 10.0041 95.3235V95.3235ZM14.9504 107.971C12.9333 104.277 11.3268 100.373 10.1598 96.3295C11.3212 100.375 12.9279 104.279 14.9504 107.971V107.971ZM10.0281 95.6469C10.0281 95.7187 10.0281 95.8025 10.0281 95.9103C10.0521 95.8025 10.0401 95.7187 10.0281 95.6469V95.6469ZM10.088 95.9822C10.1027 96.0997 10.1268 96.2158 10.1598 96.3295C10.1268 96.2158 10.1027 96.0997 10.088 95.9822Z" stroke="#263238" stroke-linecap="round" stroke-linejoin="round"/>
<path d="M49.1068 112.893C49.1068 112.893 35.0706 113.156 27.238 106.701" stroke="#263238" stroke-linecap="round" stroke-linejoin="round"/>
<path d="M151.049 176.607C149.732 172.223 158.079 155.516 158.079 155.516L131.732 156.834C131.732 156.834 130.414 168.259 128.654 170.463C126.893 172.666 124.258 168.259 118.102 165.193C117.635 164.954 117.12 164.726 116.593 164.499L115.001 189.541C115.001 189.541 117.312 213.793 145.025 209.182C156.247 207.314 168.223 197.302 178.559 186.044C167.924 184.092 152.055 179.972 151.049 176.607Z" fill="white"/>
<path d="M150.307 158.834C150.307 158.834 148.714 167.768 147.433 177.649C146.151 187.529 145.205 194.883 145.205 194.883L151.049 176.607L157.636 157.241C157.636 157.241 151.265 157.241 150.307 158.834Z" fill="#FFC700"/>
<path opacity="0.5" d="M150.307 158.834C150.307 158.834 148.714 167.768 147.433 177.649C146.151 187.529 145.205 194.883 145.205 194.883L151.049 176.607L157.636 157.241C157.636 157.241 151.265 157.241 150.307 158.834Z" fill="white"/>
<path d="M151.049 176.607C149.732 172.223 158.079 155.516 158.079 155.516L131.732 156.834C131.732 156.834 130.414 168.259 128.654 170.463C126.893 172.666 124.258 168.259 118.102 165.193C117.635 164.954 117.12 164.726 116.593 164.499L115.001 189.541C115.001 189.541 117.312 213.793 145.025 209.182C156.247 207.314 168.223 197.302 178.559 186.044C167.924 184.092 152.055 179.972 151.049 176.607Z" stroke="#263238" stroke-linecap="round" stroke-linejoin="round"/>
<path d="M128.642 170.463C126.881 172.655 124.246 168.259 118.091 165.193C114.21 163.241 108.03 161.469 102.917 159.552C101.467 156.115 99.5512 151.636 98.3177 148.929C96.126 144.139 92.6049 147.169 92.6049 147.169C90.768 145.08 89.2835 142.705 88.2096 140.139C86.018 135.348 82.4969 135.743 77.6705 134.869C72.844 133.995 62.724 124.761 62.724 124.761C62.724 124.761 57.9933 121.168 56.0412 119.384C53.7657 123.863 48.3165 131.743 36.5317 136.666C55.3226 156.295 93.4433 193.589 97.4434 196.392C101.839 199.458 100.521 208.248 97.4434 217.039C94.3655 225.829 82.94 238.596 83.3832 252.633C83.8263 266.669 88.1737 288.226 87.7785 292.622C87.3833 296.538 78.6166 308.814 76.7123 311.448L81.1795 311.951H104.438C104.306 300.167 104.318 252.07 112.378 232.907C121.612 210.883 128.642 170.463 128.642 170.463Z" fill="#FFC700"/>
<path opacity="0.16" d="M118.091 165.193C114.21 163.241 108.03 161.469 102.917 159.552C101.467 156.115 99.5513 151.636 98.3177 148.929C96.126 144.139 92.605 147.169 92.605 147.169C90.768 145.08 89.2835 142.705 88.2097 140.139C86.018 135.348 82.497 135.743 77.6705 134.869C72.844 133.995 62.724 124.761 62.724 124.761C62.724 124.761 57.9934 121.168 56.0412 119.384C55.0671 121.286 53.9078 123.087 52.5801 124.761C60.4366 131.408 69.1074 138.45 72.1374 139.851C78.1256 142.618 79.5268 140.306 84.1138 143.085C88.7007 145.863 93.8146 155.061 93.8146 155.061C93.8146 155.061 96.5931 147.66 98.9045 152.75C101.216 157.84 106.761 166.606 106.761 166.606C106.761 166.606 114.15 170.762 115.995 170.762C117.444 170.762 124.546 174.451 127.564 176.044C128.235 172.535 128.606 170.427 128.606 170.427C126.881 172.655 124.246 168.259 118.091 165.193Z" fill="black"/>
<path d="M128.642 170.463C126.881 172.655 124.246 168.259 118.091 165.193C114.21 163.241 108.03 161.469 102.917 159.552C101.467 156.115 99.5512 151.636 98.3177 148.929C96.126 144.139 92.6049 147.169 92.6049 147.169C90.768 145.08 89.2835 142.705 88.2096 140.139C86.018 135.348 82.4969 135.743 77.6705 134.869C72.844 133.995 62.724 124.761 62.724 124.761C62.724 124.761 57.9933 121.168 56.0412 119.384C53.7657 123.863 48.3165 131.743 36.5317 136.666C55.3226 156.295 93.4433 193.589 97.4434 196.392C101.839 199.458 100.521 208.248 97.4434 217.039C94.3655 225.829 82.94 238.596 83.3832 252.633C83.8263 266.669 88.1737 288.226 87.7785 292.622C87.3833 296.538 78.6166 308.814 76.7123 311.448L81.1795 311.951H104.438C104.306 300.167 104.318 252.07 112.378 232.907C121.612 210.883 128.642 170.463 128.642 170.463Z" stroke="#263238" stroke-linecap="round" stroke-linejoin="round"/>
<path d="M128.953 168.93C128.953 168.93 123.492 167.254 120.126 170.2C116.761 173.146 111.743 188.26 108.785 204.656C106.962 214.2 108.22 224.077 112.378 232.86C112.378 232.86 119.288 214.74 121.384 205.913C123.48 197.087 128.953 168.93 128.953 168.93Z" fill="#FFC700"/>
<path opacity="0.16" d="M118.474 171.601C118.474 171.601 122.426 170.643 124.055 171.193C125.426 171.782 126.708 172.56 127.863 173.505L128.953 168.93C127.318 168.095 125.464 167.789 123.648 168.056C120.929 168.607 118.474 171.601 118.474 171.601Z" fill="black"/>
<path d="M128.953 168.93C128.953 168.93 123.492 167.254 120.126 170.2C116.761 173.146 111.743 188.26 108.785 204.656C106.962 214.2 108.22 224.077 112.378 232.86C112.378 232.86 119.288 214.74 121.384 205.913C123.48 197.087 128.953 168.93 128.953 168.93Z" stroke="#263238" stroke-linecap="round" stroke-linejoin="round"/>
<path d="M92.1738 170.367L99.2039 198.931L83.3832 162.894" stroke="#263238" stroke-linecap="round" stroke-linejoin="round"/>
<path d="M138.486 311.951H189.721C189.721 311.951 175.589 293.987 175.589 287.843C175.589 281.699 194.991 202.979 195.865 197.266C196.739 191.553 193.23 187.601 186.2 187.158C179.17 186.715 152.367 181.002 151.049 176.607C151.049 176.607 140.941 212.201 137.432 236.369C134.414 257.1 137.54 300.119 138.486 311.951Z" fill="#FFC700"/>
<path opacity="0.16" d="M186.2 187.158C180.439 186.798 161.409 182.894 153.996 179.086L156.69 185.313C161.572 187.904 166.823 189.729 172.259 190.727C181.182 192.32 189.481 192.008 194.907 199.984L195.17 200.38C195.505 198.847 195.733 197.769 195.805 197.266C196.751 191.553 193.23 187.601 186.2 187.158Z" fill="black"/>
<path d="M138.486 311.951H189.721C189.721 311.951 175.589 293.987 175.589 287.843C175.589 281.699 194.991 202.979 195.865 197.266C196.739 191.553 193.23 187.601 186.2 187.158C179.17 186.715 152.367 181.002 151.049 176.607C151.049 176.607 140.941 212.201 137.432 236.369C134.414 257.1 137.54 300.119 138.486 311.951Z" stroke="#263238" stroke-linecap="round" stroke-linejoin="round"/>
<path d="M151.049 176.607C151.049 176.607 137.492 219.722 137.432 236.369C137.432 236.369 156.69 213.051 159.205 196.667C161.72 180.284 151.049 176.607 151.049 176.607Z" fill="#FFC700"/>
<path opacity="0.16" d="M148.714 182.116C150.751 182.048 152.774 182.477 154.608 183.366C156.443 184.254 158.033 185.577 159.241 187.218C159.241 187.218 156.583 179.397 151.049 176.607L148.714 182.116Z" fill="black"/>
<path d="M151.049 176.607C151.049 176.607 137.492 219.722 137.432 236.369C137.432 236.369 156.69 213.051 159.205 196.667C161.72 180.284 151.049 176.607 151.049 176.607Z" stroke="#263238" stroke-linecap="round" stroke-linejoin="round"/>
<path d="M295.783 303.843C295.783 303.843 305.712 304.25 312.215 305.185C316.552 305.773 320.918 306.12 325.293 306.227C325.293 306.227 321.7 298.969 317.868 296.921C314.035 294.873 307.089 291.208 301.269 292.023C295.448 292.837 287.125 298.705 287.819 300.574C288.514 302.442 291.616 303.28 295.783 303.843Z" fill="white"/>
<path d="M295.783 303.843C295.783 303.843 305.712 304.25 312.215 305.185C316.552 305.773 320.918 306.12 325.293 306.227C325.293 306.227 321.7 298.969 317.868 296.921C314.035 294.873 307.089 291.208 301.269 292.023C295.448 292.837 287.125 298.705 287.819 300.574C288.514 302.442 291.616 303.28 295.783 303.843Z" fill="#FFC700"/>
<path opacity="0.5" d="M295.783 303.843C295.783 303.843 305.712 304.25 312.215 305.185C316.552 305.773 320.918 306.12 325.293 306.227C325.293 306.227 321.7 298.969 317.868 296.921C314.035 294.873 307.089 291.208 301.269 292.023C295.448 292.837 287.125 298.705 287.819 300.574C288.514 302.442 291.616 303.28 295.783 303.843Z" fill="white"/>
<path d="M295.783 303.843C295.783 303.843 305.712 304.25 312.215 305.185C316.552 305.773 320.918 306.12 325.293 306.227C325.293 306.227 321.7 298.969 317.868 296.921C314.035 294.873 307.089 291.208 301.269 292.023C295.448 292.837 287.125 298.705 287.819 300.574C288.514 302.442 291.616 303.28 295.783 303.843Z" stroke="#263238" stroke-linecap="round" stroke-linejoin="round"/>
<path d="M306.658 294.154C306.658 294.154 317.149 293.819 319.233 294.873C321.317 295.927 330.73 312.071 329.317 313.245C327.904 314.418 324 314.071 324.12 312.766C324.239 311.46 315.449 302.813 315.449 302.813L308.61 301.316L306.658 294.154Z" fill="white"/>
<path d="M306.658 294.154C306.658 294.154 317.149 293.819 319.233 294.873C321.317 295.927 330.73 312.071 329.317 313.245C327.904 314.418 324 314.071 324.12 312.766C324.239 311.46 315.449 302.813 315.449 302.813L308.61 301.316L306.658 294.154Z" fill="#FFC700"/>
<path opacity="0.5" d="M306.658 294.154C306.658 294.154 317.149 293.819 319.233 294.873C321.317 295.927 330.73 312.071 329.317 313.245C327.904 314.418 324 314.071 324.12 312.766C324.239 311.46 315.449 302.813 315.449 302.813L308.61 301.316L306.658 294.154Z" fill="white"/>
<path d="M306.658 294.154C306.658 294.154 317.149 293.819 319.233 294.873C321.317 295.927 330.73 312.071 329.317 313.245C327.904 314.418 324 314.071 324.12 312.766C324.239 311.46 315.449 302.813 315.449 302.813L308.61 301.316L306.658 294.154Z" stroke="#263238" stroke-linecap="round" stroke-linejoin="round"/>
<path d="M300.442 291.987C300.442 291.987 311.065 291.64 313.173 292.717C315.281 293.795 324.814 310.119 323.377 311.317C321.94 312.514 318.012 312.143 318.131 310.826C318.251 309.508 309.353 300.754 309.353 300.754L302.43 299.233L300.442 291.987Z" fill="white"/>
<path d="M300.442 291.987C300.442 291.987 311.065 291.64 313.173 292.717C315.281 293.795 324.814 310.119 323.377 311.317C321.94 312.514 318.012 312.143 318.131 310.826C318.251 309.508 309.353 300.754 309.353 300.754L302.43 299.233L300.442 291.987Z" fill="#FFC700"/>
<path opacity="0.5" d="M300.442 291.987C300.442 291.987 311.065 291.64 313.173 292.717C315.281 293.795 324.814 310.119 323.377 311.317C321.94 312.514 318.012 312.143 318.131 310.826C318.251 309.508 309.353 300.754 309.353 300.754L302.43 299.233L300.442 291.987Z" fill="white"/>
<path d="M300.442 291.987C300.442 291.987 311.065 291.64 313.173 292.717C315.281 293.795 324.814 310.119 323.377 311.317C321.94 312.514 318.012 312.143 318.131 310.826C318.251 309.508 309.353 300.754 309.353 300.754L302.43 299.233L300.442 291.987Z" stroke="#263238" stroke-linecap="round" stroke-linejoin="round"/>
<path d="M179.661 231.123C187.35 242.968 202.787 272.98 207.29 276.358C214.32 281.627 261.316 294.418 265.843 297.915C270.37 301.412 270.058 304.921 274.346 306.203C278.633 307.484 294.706 311.161 300.837 311.736C306.969 312.311 304.227 308.514 304.227 308.514L293.771 301.328L302.885 299.077C302.885 299.077 312.023 310.071 313.736 310.67C315.449 311.269 318.467 310.67 318.275 309.316C317.94 307.149 308.191 289.412 304.73 288.657C301.269 287.903 280.262 290.813 280.262 290.813C280.262 290.813 236.201 261.1 235.411 260.046C235.411 260.046 232.776 252.573 230.62 249.495C228.464 246.417 227.099 247.303 227.099 247.303C227.099 247.303 227.985 243.339 226.668 242.021L219.638 234.991L219.386 235.327C218.189 232.931 216.991 230.201 215.674 227.087C211.997 218.428 198.979 194.128 196.787 190.619C195.146 187.996 181.397 186.116 174.427 185.325" fill="#FFC700"/>
<path opacity="0.16" d="M210.272 231.878C216.021 236.98 214.105 236.98 212.823 241.459C211.542 245.938 213.781 239.866 219.207 240.189C224.632 240.513 223.039 247.519 222.392 248.8C221.746 250.082 229.099 251.674 227.818 254.537C226.536 257.399 219.207 261.555 215.063 265.711C210.919 269.867 225.901 259.004 231.003 258.693C232.56 258.585 233.842 258.788 234.92 258.764C233.789 255.56 232.336 252.478 230.584 249.567C228.381 246.489 227.063 247.375 227.063 247.375C227.063 247.375 227.949 243.411 226.632 242.093L219.602 235.063L219.35 235.399C218.153 233.003 216.955 230.273 215.638 227.159C211.961 218.5 198.943 194.2 196.751 190.691C195.11 188.068 181.361 186.188 174.391 185.397L175.026 190.942L175.182 191.062C175.182 191.062 183.793 192.655 186.667 192.978C189.541 193.302 193.05 195.841 192.727 197.769C192.404 199.697 184.116 208.296 186.667 208.943C189.218 209.59 192.092 202.56 194.967 203.518C197.841 204.476 204.488 226.776 210.272 231.878Z" fill="black"/>
<path d="M179.661 231.123C187.35 242.968 202.787 272.98 207.29 276.358C214.32 281.627 261.316 294.418 265.843 297.915C270.37 301.412 270.058 304.921 274.346 306.203C278.633 307.484 294.706 311.161 300.837 311.736C306.969 312.311 304.227 308.514 304.227 308.514L293.771 301.328L302.885 299.077C302.885 299.077 312.023 310.071 313.736 310.67C315.449 311.269 318.467 310.67 318.275 309.316C317.94 307.149 308.191 289.412 304.73 288.657C301.269 287.903 280.262 290.813 280.262 290.813C280.262 290.813 236.201 261.1 235.411 260.046C235.411 260.046 232.776 252.573 230.62 249.495C228.464 246.417 227.099 247.303 227.099 247.303C227.099 247.303 227.985 243.339 226.668 242.021L219.638 234.991L219.386 235.327C218.189 232.931 216.991 230.201 215.674 227.087C211.997 218.428 198.979 194.128 196.787 190.619C195.146 187.996 181.397 186.116 174.427 185.325" stroke="#263238" stroke-linecap="round" stroke-linejoin="round"/>
<path d="M179.781 214.871C179.457 215.949 179.182 217.027 178.966 218.129" stroke="#263238" stroke-linecap="round" stroke-linejoin="round"/>
<path d="M191.422 195.051C187.658 199.34 184.484 204.113 181.984 209.242" stroke="#263238" stroke-linecap="round" stroke-linejoin="round"/>
<path d="M209.015 263.052C212.248 258.262 217.398 252.19 223.075 250.453" stroke="#263238" stroke-linecap="round" stroke-linejoin="round"/>
<path d="M205.434 268.945C205.434 268.945 206.009 267.819 207.039 266.118" stroke="#263238" stroke-linecap="round" stroke-linejoin="round"/>
<path d="M205.434 261.375C205.434 261.375 211.314 246.668 217.195 242.884C223.075 239.099 219.71 246.668 219.71 246.668" stroke="#263238" stroke-linecap="round" stroke-linejoin="round"/>
<path d="M265.842 297.927C270.381 301.436 270.058 304.933 274.346 306.215C278.633 307.496 294.705 311.173 300.837 311.748C306.969 312.323 304.227 308.526 304.227 308.526L293.771 301.34L302.885 299.089C302.885 299.089 312.023 310.083 313.736 310.682C315.448 311.281 318.706 311.496 318.275 309.328C317.436 305.137 308.191 289.424 304.73 288.669C301.268 287.915 280.262 290.825 280.262 290.825C280.262 290.825 240.129 263.279 235.734 260.297C218.692 261.938 210.584 270.861 207.17 276.214L207.29 276.31C214.32 281.627 261.315 294.418 265.842 297.927Z" fill="white"/>
<path d="M318.263 309.376C316.083 304.047 308.179 289.472 304.718 288.717C301.257 287.963 280.25 290.873 280.25 290.873C280.25 290.873 240.117 263.327 235.722 260.345C231.249 260.734 226.86 261.796 222.704 263.495C229.039 267.088 271.268 291.041 276.597 292.106C282.25 293.304 301.113 290.202 304.43 292.43C306.538 293.843 312.814 303.795 317.053 310.861C318.263 310.682 318.706 310.454 318.263 309.376Z" fill="#FFC700"/>
<path opacity="0.5" d="M318.263 309.376C314.862 301.747 308.179 289.472 304.718 288.717C301.257 287.963 280.25 290.873 280.25 290.873C280.25 290.873 240.117 263.327 235.722 260.345C231.249 260.734 226.86 261.796 222.704 263.495C229.039 267.088 271.268 291.041 276.597 292.106C282.25 293.304 301.113 290.202 304.43 292.43C306.538 293.843 312.814 303.795 317.053 310.861C318.263 310.682 318.742 310.442 318.263 309.376Z" fill="white"/>
<path d="M265.842 297.927C270.381 301.436 270.058 304.933 274.346 306.215C278.633 307.496 294.705 311.173 300.837 311.748C306.969 312.323 304.227 308.526 304.227 308.526L293.771 301.34L302.885 299.089C302.885 299.089 312.023 310.083 313.736 310.682C315.448 311.281 318.706 311.496 318.275 309.328C317.436 305.137 308.191 289.424 304.73 288.669C301.268 287.915 280.262 290.825 280.262 290.825C280.262 290.825 240.129 263.279 235.734 260.297C218.692 261.938 210.584 270.861 207.17 276.214L207.29 276.31C214.32 281.627 261.315 294.418 265.842 297.927Z" stroke="#263238" stroke-linecap="round" stroke-linejoin="round"/>
<path d="M159.996 88.7964L123.923 103.851C123.486 110.19 121.916 116.4 119.288 122.186C115.025 131.205 117.516 148.271 121.612 157.481C125.707 166.69 143.756 163.086 150.355 161.936C154.83 161.084 159.214 159.805 163.445 158.115C165.371 158.858 167.455 159.098 169.5 158.813C171.545 158.528 173.484 157.727 175.134 156.487C175.134 156.487 155.828 102.294 159.996 88.7964Z" fill="white"/>
<path d="M159.996 88.7964L123.923 103.851C123.486 110.19 121.916 116.4 119.288 122.186C115.025 131.205 117.516 148.271 121.612 157.481C122.297 158.962 123.4 160.21 124.785 161.074V160.379C124.785 160.379 118.091 143.792 119.36 134.223C120.629 124.654 126.067 119.851 126.702 113.803C127.336 107.755 127.013 104.881 139.145 100.413C151.277 95.9463 156.367 91.8025 157.636 96.2577C158.906 100.713 164.02 130.079 167.529 137.097C171.038 144.115 170.715 151.469 165.301 154.642C159.83 157.927 153.968 160.51 147.852 162.331L150.403 161.888C154.878 161.037 159.262 159.757 163.493 158.068C165.419 158.81 167.503 159.05 169.548 158.765C171.593 158.48 173.532 157.68 175.182 156.439C175.182 156.439 155.828 102.294 159.996 88.7964Z" fill="#FFC700"/>
<path opacity="0.5" d="M159.996 88.7964L123.923 103.851C123.486 110.19 121.916 116.4 119.288 122.186C115.025 131.205 117.516 148.271 121.612 157.481C122.297 158.962 123.4 160.21 124.785 161.074V160.379C124.785 160.379 118.091 143.792 119.36 134.223C120.629 124.654 126.067 119.851 126.702 113.803C127.336 107.755 127.013 104.881 139.145 100.413C151.277 95.9463 156.367 91.8025 157.636 96.2577C158.906 100.713 164.02 130.079 167.529 137.097C171.038 144.115 170.715 151.469 165.301 154.642C159.83 157.927 153.968 160.51 147.852 162.331L150.403 161.888C154.878 161.037 159.262 159.757 163.493 158.068C165.419 158.81 167.503 159.05 169.548 158.765C171.593 158.48 173.532 157.68 175.182 156.439C175.182 156.439 155.828 102.294 159.996 88.7964Z" fill="white"/>
<path d="M159.996 88.7964L123.923 103.851C123.486 110.19 121.916 116.4 119.288 122.186C115.025 131.205 117.516 148.271 121.612 157.481C125.707 166.69 143.756 163.086 150.355 161.936C154.83 161.084 159.214 159.805 163.445 158.115C165.371 158.858 167.455 159.098 169.5 158.813C171.545 158.528 173.484 157.727 175.134 156.487C175.134 156.487 155.828 102.294 159.996 88.7964Z" stroke="#263238" stroke-linecap="round" stroke-linejoin="round"/>
<path d="M175.661 166.726C175.661 169.517 174.08 171.78 172.14 171.78C170.199 171.78 168.631 169.517 168.631 166.726C168.631 163.936 170.199 156.834 172.14 156.834C174.08 156.834 175.661 163.936 175.661 166.726Z" fill="#FFC700" stroke="#263238" stroke-linecap="round" stroke-linejoin="round"/>
</g>
</svg>
