<svg width="22" height="22" viewBox="0 0 22 22" fill="none" xmlns="http://www.w3.org/2000/svg">
<g clip-path="url(#clip0_128_103)">
<path d="M20.7817 17.3798C20.7214 17.4191 20.73 17.4888 20.7103 17.5445C20.5259 18.0616 20.0483 18.4165 19.4917 18.4209C18.5006 18.4284 17.5089 18.4214 16.5173 18.4269C16.3967 18.4274 16.3719 18.3906 16.3724 18.2796C16.3765 15.8718 16.377 13.4639 16.378 11.0566C16.3927 10.974 16.4621 10.9372 16.5218 10.8934C17.8756 9.8935 19.2304 8.89513 20.5857 7.89826C20.6424 7.85645 20.6915 7.78628 20.7812 7.80917V17.3803L20.7817 17.3798Z" fill="#00A84B"/>
<path d="M20.7817 7.80868C19.314 8.89115 17.8462 9.97363 16.3785 11.0566L16.3831 11.0511C16.3147 10.98 16.3253 10.8899 16.3248 10.8043C16.3233 9.09819 16.3238 7.39161 16.3238 5.68552C16.3238 5.59743 16.3354 5.51233 16.377 5.4332C16.8308 5.07834 17.2815 4.71602 17.7713 4.41193C18.9397 3.6858 20.5052 4.38108 20.7467 5.71837C20.7523 5.74774 20.7478 5.78108 20.7822 5.798V7.80917L20.7817 7.80868Z" fill="#FEBB00"/>
<path d="M16.3765 5.43266C16.378 7.07603 16.379 8.71891 16.3805 10.3623C16.3805 10.5917 16.382 10.8212 16.3825 11.0506C14.6823 12.3038 12.9801 13.5545 11.285 14.8141C11.1249 14.9331 11.0318 14.9301 10.8737 14.8126C9.23887 13.5968 7.59692 12.3904 5.95648 11.1815C5.90127 11.1407 5.84303 11.1033 5.78631 11.0645C5.7387 11.0655 5.72097 11.0372 5.71591 10.9958C5.70629 9.85116 5.71388 8.70697 5.71186 7.56228C5.71084 6.94365 5.71034 6.32502 5.71287 5.70589C5.71287 5.60884 5.69464 5.50532 5.77415 5.42419C6.68883 6.09458 7.6035 6.76398 8.51716 7.43536C9.32548 8.02911 10.1338 8.62236 10.937 9.22257C11.0505 9.30718 11.1189 9.29872 11.2272 9.21859C12.8793 7.99576 14.5345 6.77742 16.1896 5.55857C16.2499 5.51428 16.3137 5.47446 16.3755 5.43266H16.3765Z" fill="#FE4131"/>
<path d="M5.74174 11.0118C5.75694 11.0292 5.77163 11.0467 5.78682 11.0646C5.78581 13.4401 5.78226 15.8155 5.78885 18.191C5.78935 18.3906 5.73111 18.4309 5.54017 18.4284C4.62499 18.4185 3.70981 18.4249 2.79463 18.4234C1.92807 18.4224 1.37754 17.8795 1.37754 17.0269C1.37704 14.0189 1.37754 11.0108 1.37754 8.00279C1.37754 7.94107 1.3816 7.87886 1.38362 7.81715C1.47327 7.79077 1.5229 7.86144 1.57962 7.90275C2.92631 8.89316 4.273 9.88406 5.61665 10.8784C5.66628 10.9153 5.72503 10.9446 5.74124 11.0118H5.74174Z" fill="#0084F6"/>
<path d="M5.74195 11.0121C4.81917 10.3352 3.89588 9.65884 2.97311 8.98198C2.44335 8.59378 1.91409 8.20558 1.38433 7.81738C1.38788 7.12459 1.31241 6.42633 1.41624 5.74002C1.62439 4.36888 3.25369 3.66763 4.4297 4.43607C4.89514 4.74015 5.32766 5.09352 5.77487 5.42498C5.77487 7.21617 5.77487 9.00736 5.77335 10.7985C5.77335 10.8702 5.79918 10.9484 5.74144 11.0126L5.74195 11.0121Z" fill="#E41C19"/>
</g>
<defs>
<clipPath id="clip0_128_103">
<rect width="19.4209" height="14.3101" fill="white" transform="translate(1.36082 4.11829)"/>
</clipPath>
</defs>
</svg>
