<svg width="25" height="25" viewBox="0 0 25 25" fill="none" xmlns="http://www.w3.org/2000/svg">
<g id="iconGrid_noinline.20d3115f90d4e01862afb7d21be83420.svg">
<path id="Vector" d="M10.5 13.4998L11.5 14.4998V21.4998L10.5 22.4998H3.50001L2.5 21.4998V14.4998L3.50001 13.4998H10.5ZM18.0001 13.4998C20.4811 13.4998 22.5001 15.5183 22.5001 17.9998C22.5001 20.4813 20.4811 22.4998 18.0001 22.4998C15.5191 22.4998 13.5001 20.4813 13.5001 17.9998C13.5001 15.5183 15.5191 13.4998 18.0001 13.4998ZM9.50052 15.4998H4.50002V20.5003H9.50052V15.4998ZM18.0001 15.4998C16.6216 15.4998 15.5001 16.6213 15.5001 17.9998C15.5001 19.3783 16.6216 20.4998 18.0001 20.4998C19.3786 20.4998 20.5001 19.3783 20.5001 17.9998C20.5001 16.6213 19.3786 15.4998 18.0001 15.4998ZM10.5 2.5L11.5 3.50001V10.4995L10.5 11.5H3.50001L2.5 10.4995V3.50001L3.50001 2.5H10.5ZM21.4998 2.5L22.4998 3.50001V10.4995L21.4998 11.5H14.5003L13.4998 10.4995V3.50001L14.5003 2.5H21.4998ZM9.50052 4.49999H4.50002V9.49998H9.50052V4.49999ZM20.5003 4.49999H15.5003V9.49998H20.5003V4.49999Z" fill="black"/>
</g>
</svg>
