<svg width="17" height="17" viewBox="0 0 17 17" fill="none" xmlns="http://www.w3.org/2000/svg">
<g id="Group">
<g id="Group 1">
<path id="Vector" fill-rule="evenodd" clip-rule="evenodd" d="M11.2742 6.28011C11.2742 7.07745 10.9575 7.84213 10.3937 8.40593C9.82986 8.96974 9.06518 9.28648 8.26784 9.28648C7.4705 9.28648 6.70582 8.96974 6.14202 8.40593C5.57822 7.84213 5.26147 7.07745 5.26147 6.28011C5.26147 5.48277 5.57822 4.71809 6.14202 4.15429C6.70582 3.59048 7.4705 3.27374 8.26784 3.27374C9.06518 3.27374 9.82986 3.59048 10.3937 4.15429C10.9575 4.71809 11.2742 5.48277 11.2742 6.28011ZM9.77103 6.28011C9.77103 6.67878 9.61265 7.06112 9.33075 7.34302C9.04885 7.62492 8.66651 7.78329 8.26784 7.78329C7.86917 7.78329 7.48683 7.62492 7.20493 7.34302C6.92303 7.06112 6.76466 6.67878 6.76466 6.28011C6.76466 5.88144 6.92303 5.4991 7.20493 5.2172C7.48683 4.9353 7.86917 4.77693 8.26784 4.77693C8.66651 4.77693 9.04885 4.9353 9.33075 5.2172C9.61265 5.4991 9.77103 5.88144 9.77103 6.28011Z" fill="black"/>
<path id="Vector_2" fill-rule="evenodd" clip-rule="evenodd" d="M8.26775 0.267395C3.70183 0.267395 0.000244141 3.96899 0.000244141 8.53491C0.000244141 13.1008 3.70183 16.8024 8.26775 16.8024C12.8337 16.8024 16.5353 13.1008 16.5353 8.53491C16.5353 3.96899 12.8337 0.267395 8.26775 0.267395ZM1.50343 8.53491C1.50343 10.1057 2.03931 11.5518 2.93747 12.7002C3.56822 11.8719 4.38195 11.2006 5.31508 10.7388C6.2482 10.277 7.27546 10.0372 8.31661 10.0381C9.34428 10.0371 10.3586 10.2707 11.2823 10.7211C12.2061 11.1715 13.0148 11.8268 13.6469 12.6371C14.2981 11.783 14.7366 10.7861 14.926 9.72888C15.1155 8.67167 15.0504 7.58454 14.7363 6.55746C14.4222 5.53037 13.868 4.59284 13.1196 3.82245C12.3713 3.05206 11.4502 2.47096 10.4326 2.12722C9.41507 1.78347 8.33029 1.68698 7.26803 1.84572C6.20578 2.00445 5.19659 2.41386 4.32398 3.04006C3.45136 3.66626 2.74041 4.49124 2.24993 5.44676C1.75946 6.40228 1.50356 7.46086 1.50343 8.53491ZM8.26775 15.2992C6.71493 15.3016 5.20898 14.7674 4.00473 13.787C4.48945 13.0931 5.13462 12.5265 5.88535 12.1355C6.63608 11.7445 7.47016 11.5407 8.31661 11.5413C9.1525 11.5406 9.97649 11.7394 10.7201 12.1211C11.4638 12.5028 12.1057 13.0564 12.5924 13.7359C11.3788 14.7481 9.84804 15.3014 8.26775 15.2992Z" fill="black"/>
</g>
</g>
</svg>
