<svg width="41" height="37" viewBox="0 0 41 37" fill="none" xmlns="http://www.w3.org/2000/svg">
<g id="Group">
<path id="Vector" d="M30.7594 13.9541C31.5442 13.8737 32.8227 13.8255 34.1012 13.6165C35.8607 13.3272 37.5949 12.8771 39.1645 11.7358C39.5316 11.4625 39.9873 11.1893 39.9873 10.5785C39.9873 9.96762 39.5443 9.69435 39.1772 9.40501C38.2025 8.64951 37.1392 8.23158 36.0379 7.94224C32.4176 6.96169 28.7847 6.94562 25.1518 7.76542C23.772 8.07083 22.4302 8.55307 21.215 9.50146C20.3036 10.2087 20.3036 10.8999 21.2024 11.6233C21.2024 11.6233 21.2277 11.6394 21.2403 11.6554C21.9492 12.0412 22.6328 12.5074 23.3669 12.8128C25.6075 13.729 27.9239 13.9059 30.7594 13.9862V13.9541Z" fill="#FFC700"/>
<path id="Vector_2" d="M16.0759 7.3473C17.6076 7.15441 19.1392 7.04189 20.6582 6.76862C22.1646 6.51143 23.6456 6.02919 24.9747 5.03258C25.3418 4.75931 25.7975 4.46997 25.8102 3.87521C25.8102 3.24831 25.3545 2.95897 24.9621 2.6857C23.5064 1.60871 21.8988 1.19077 20.2785 0.869285C18.2785 0.483497 16.2785 0.435273 14.2658 0.563869C12.4177 0.692465 10.5949 0.99788 8.84805 1.75338C8.12652 2.0588 7.43032 2.52496 6.78474 3.05541C6.16449 3.5698 6.20246 4.08418 6.78474 4.69501C6.86069 4.77538 6.93664 4.85576 7.02525 4.90398C7.7088 5.28977 8.36703 5.75593 9.06324 6.04527C11.3417 6.97759 13.6962 7.21871 16.0759 7.3473Z" fill="#FFC700"/>
<path id="Vector_3" d="M10.949 23.0195C8.36672 23.0195 5.99961 23.2767 3.70846 24.209C2.94896 24.5305 2.20212 24.9967 1.50592 25.5271C0.835025 26.0576 0.847683 26.6202 1.4806 27.215C1.86035 27.5686 2.27807 27.8579 2.70845 28.083C4.6072 29.1118 6.61987 29.4815 8.6452 29.6583C11.2275 29.8673 13.8224 29.7547 16.3668 29.0475C17.5566 28.7099 18.7212 28.2759 19.7719 27.4561C20.6959 26.7327 20.7212 25.9933 19.7719 25.3343C19.1263 24.8842 18.4301 24.4823 17.7339 24.193C15.4554 23.2606 13.1009 23.0356 10.9237 23.0195H10.949Z" fill="#FFC700"/>
<path id="Vector_4" d="M20.5061 13.729C20.5061 14.7899 20.5441 15.7865 20.5061 16.7831C20.4681 17.5547 20.7339 18.053 21.215 18.3584C21.8859 18.7924 22.5821 19.2264 23.2909 19.5158C25.2403 20.3195 27.2656 20.5767 29.3036 20.6571C32.0125 20.7535 34.6961 20.5285 37.3037 19.4997C38.0379 19.2104 38.7341 18.7442 39.405 18.278C39.6581 18.1012 39.9619 17.6994 39.9746 17.3779C40.0379 16.1884 39.9999 14.9828 39.9999 13.729C36.9113 15.7061 33.6328 16.1562 30.291 16.1562C26.9365 16.1562 23.6327 15.7061 20.5188 13.7129L20.5061 13.729Z" fill="#FFC700"/>
<path id="Vector_5" d="M0.999845 29.5459C0.999845 30.5747 1.05048 31.5231 0.987187 32.4554C0.923895 33.3716 1.27833 33.886 1.84795 34.3039C3.30366 35.3649 4.91126 35.7989 6.53153 36.1204C8.64546 36.5383 10.7721 36.5704 12.9113 36.4097C14.5949 36.2811 16.2784 35.9918 17.8734 35.2684C18.5949 34.9469 19.2911 34.4808 19.962 34.0146C20.2025 33.8539 20.4557 33.4359 20.4683 33.1305C20.5316 31.9571 20.4936 30.7836 20.4936 29.562C17.405 31.5391 14.1265 31.9892 10.7847 32.0053C7.43026 32.0053 4.12645 31.5713 0.987187 29.562L0.999845 29.5459Z" fill="#FFC700"/>
<path id="Vector_6" d="M20.5061 20.4961C20.5061 21.2837 20.5314 22.0071 20.5061 22.7304C20.4934 23.1162 20.6074 23.3252 20.8479 23.5342C21.4681 24.0486 21.9492 24.6915 22.1897 25.6078C22.2276 25.7524 22.3795 25.8971 22.5061 25.9614C23.2909 26.2668 24.0884 26.6205 24.8985 26.8294C28.4935 27.7296 32.1011 27.6975 35.6961 26.8294C36.9366 26.524 38.1391 26.0579 39.2277 25.222C39.7341 24.8362 40.0758 24.354 40.0126 23.5342C39.9746 23.0841 40.0126 22.6179 40.0126 22.1678V20.5282C36.8986 22.5215 33.6075 22.9716 30.2657 22.9716C26.9112 22.9716 23.6074 22.5215 20.5061 20.5282V20.4961Z" fill="#FFC700"/>
<path id="Vector_7" d="M18.7215 16.1082C14.4683 16.3976 10.2911 16.2047 6.32906 13.8096C6.32906 15.3849 6.32906 16.928 6.32906 18.4712C6.32906 18.6641 6.45564 18.9213 6.58222 19.0499C7.54425 20.0947 8.64553 20.802 9.91136 20.818C12.1899 20.818 14.443 20.9627 16.6836 21.5414C17.3544 21.7182 18.0127 21.9593 18.7089 22.1844V16.1082H18.7215Z" fill="#FFC700"/>
<path id="Vector_8" d="M18.8355 9.35627C14.6329 9.66168 10.3797 9.50094 6.32907 7.05762C6.32907 8.07031 6.36704 9.03478 6.32907 9.98317C6.27843 10.8351 6.59489 11.3334 7.12654 11.7353C8.10123 12.4747 9.16453 12.9087 10.2531 13.2141C12.6709 13.9214 15.1266 14.05 17.595 13.9375C17.9747 13.9214 18.3545 13.8571 18.8481 13.7928V9.35627H18.8355Z" fill="#FFC700"/>
</g>
</svg>
