<svg width="62" height="63" viewBox="0 0 62 63" fill="none" xmlns="http://www.w3.org/2000/svg">
<g id="Traced Image">
<path id="Vector" fill-rule="evenodd" clip-rule="evenodd" d="M22.1225 6.24221C19.6708 7.26437 17.5272 8.22961 17.359 8.38727C16.9012 8.81618 16.7109 9.39356 16.7111 10.3537C16.7111 11.0523 16.7773 11.3567 17.0582 11.9505C18.0391 14.0238 20.1833 14.572 23.7344 13.657C26.1358 13.0384 26.7508 12.7843 26.9407 12.3325C27.1255 11.8932 26.9822 11.3392 26.6359 11.1538C26.2634 10.9545 25.8102 11.0175 24.4469 11.4582C22.8297 11.9811 21.0996 12.2918 20.4222 12.1813C19.2908 11.9966 18.6412 11.3416 18.6069 10.3513L18.5879 9.80358L22.8262 8.05111L27.0645 6.29864L32.9375 6.34042L38.8105 6.38208L39.9004 6.7186C40.5004 6.90387 42.8953 7.97083 45.2285 9.0924C51.2512 11.9875 51.3084 12.0033 56.0886 12.0908L59.4408 12.1523L59.7517 11.8415C60.1261 11.467 60.1583 10.9382 59.8313 10.534C59.601 10.2493 59.5856 10.2478 56.2288 10.1757C51.541 10.0751 51.6654 10.1121 44.8945 6.80615C41.7513 5.27141 41.2593 5.06458 39.9075 4.70941C38.9846 4.46686 38.5965 4.451 32.7559 4.4183L26.5801 4.38379L22.1225 6.24221ZM29.8258 9.11686C29.4643 9.29789 29.1947 9.90942 28.9671 11.0653C28.6091 12.8819 29.1622 14.5382 30.5645 15.85C31.6133 16.8311 32.2738 17.1858 35.7217 18.6192L38.6875 19.8521L39.2126 20.6481C40.3309 22.3433 42.3815 23.7721 44.4414 24.2914C46.2475 24.7466 48.5955 24.6504 50.496 24.0434C51.3787 23.7613 51.5178 23.7531 55.4361 23.7516L59.4681 23.7501L59.7652 23.4528C60.1585 23.0596 60.1585 22.503 59.7652 22.1099L59.4681 21.8126H55.2504C51.2665 21.8126 50.9926 21.8267 50.3102 22.0683C47.5127 23.059 44.5175 22.7523 42.4279 21.2611C41.5957 20.6673 41.1204 20.119 40.5346 19.0769L40.1397 18.3746L36.7269 16.9561C32.5065 15.2018 31.7788 14.7463 31.1136 13.4424C30.8496 12.9248 30.686 11.6664 30.8515 11.4256C30.9324 11.3078 32.171 11.7762 36.0542 13.3934C38.8574 14.5606 41.2615 15.5157 41.3967 15.5157C41.532 15.5157 41.7911 15.3881 41.9724 15.2321C42.3724 14.8881 42.4178 14.2859 42.07 13.9381C41.8299 13.6981 30.9318 9.11904 30.3945 9.03246C30.228 9.00557 29.972 9.0436 29.8258 9.11686ZM17.8439 16.2871C17.439 16.6354 17.3869 17.305 17.7348 17.6893C18.294 18.3074 19.4961 17.763 19.4961 16.8918C19.4961 16.0485 18.5316 15.6955 17.8439 16.2871ZM15.032 19.0708C14.6401 19.292 13.4464 21.1091 12.7178 22.5936C11.0691 25.9529 10.3693 29.9341 10.7796 33.6192C11.0412 35.9679 11.2592 36.4649 12.0278 36.4649C12.2992 36.4649 12.5218 36.3677 12.7111 36.1662C13.0178 35.8396 13.0182 36.0192 12.7059 33.4376C12.6278 32.7918 12.5948 31.5967 12.6308 30.713C12.7692 27.3136 13.7326 24.3354 15.6695 21.3197C16.3059 20.3289 16.4641 19.9925 16.4063 19.7545C16.2513 19.1181 15.5586 18.7735 15.032 19.0708ZM27.4223 22.1099C27.125 22.407 27.125 22.4074 27.125 25.0161V27.6251H24.516C21.9073 27.6251 21.9069 27.6251 21.6098 27.9224L21.3125 28.2195V31.5001V34.7806L21.6098 35.0778C21.9069 35.3751 21.9073 35.3751 24.516 35.3751H27.125V37.984C27.125 40.5928 27.125 40.5931 27.4223 40.8903L27.7194 41.1876H31H34.2806L34.5777 40.8903C34.875 40.5931 34.875 40.5928 34.875 37.984V35.3751H37.484C40.0927 35.3751 40.0931 35.3751 40.3902 35.0778L40.6875 34.7806V31.5001V28.2195L40.3902 27.9224C40.0931 27.6251 40.0927 27.6251 37.484 27.6251H34.875V25.0161C34.875 22.4074 34.875 22.407 34.5777 22.1099L34.2806 21.8126H31H27.7194L27.4223 22.1099ZM29.0625 26.359C29.0625 29.8442 29.3442 29.5626 25.859 29.5626H23.25V31.5001V33.4376H25.859C29.3442 33.4376 29.0625 33.1559 29.0625 36.6411V39.2501H31H32.9375V36.6411C32.9375 33.1559 32.6558 33.4376 36.141 33.4376H38.75V31.5001V29.5626H36.141C32.6558 29.5626 32.9375 29.8442 32.9375 26.359V23.7501H31H29.0625V26.359ZM49.4986 26.722C49.3163 26.8225 49.1351 27.0323 49.0959 27.1883C49.0568 27.3444 49.1178 28.2012 49.2316 29.0925C49.8106 33.6259 48.7901 37.9877 46.2685 41.7577C45.4519 42.9783 45.3736 43.3417 45.8285 43.7965C46.1814 44.1495 46.7277 44.1867 47.0846 43.8819C47.4958 43.5311 48.6357 41.7223 49.2691 40.4164C50.3524 38.1821 50.9553 36.0567 51.2313 33.4981C51.4816 31.1786 51.146 27.3677 50.6486 26.8803C50.3384 26.5765 49.8777 26.5129 49.4986 26.722ZM12.957 38.5816C12.4575 38.6773 11.727 38.8668 11.3335 39.0028C10.669 39.2325 10.3318 39.2501 6.57515 39.2501H2.53195L2.23479 39.5474C2.04733 39.7347 1.9375 39.9829 1.9375 40.2188C1.9375 40.4547 2.04733 40.703 2.23479 40.8903L2.53195 41.1876L6.74553 41.1874C10.6222 41.1874 11.0084 41.1687 11.577 40.9525C13.4662 40.2344 15.908 40.1724 17.7183 40.7964C19.4727 41.4011 20.5192 42.2681 21.4344 43.875L21.8592 44.6207L25.2643 46.0362C29.4779 47.7878 30.2209 48.2531 30.8864 49.5577C31.1486 50.0717 31.3145 51.3333 31.151 51.5706C31.0734 51.6831 29.7566 51.1859 25.9397 49.6029C23.1306 48.4377 20.7254 47.4844 20.5948 47.4844C20.4641 47.4844 20.2089 47.6121 20.0276 47.768C19.6276 48.1121 19.5821 48.7146 19.93 49.061C20.0576 49.188 22.7413 50.3614 25.8936 51.6684C30.0488 53.3913 31.7048 54.0248 31.9146 53.9722C32.3563 53.8614 32.6482 53.4719 32.8625 52.7083C33.5072 50.4104 33.0272 48.6262 31.3451 47.0688C30.3226 46.1221 29.7042 45.7946 26.1785 44.3327L23.3302 43.1517L22.7989 42.3564C21.6803 40.6813 19.6461 39.2475 17.6191 38.7055C16.5921 38.4307 14.0919 38.3644 12.957 38.5816ZM43.1946 45.2558C42.3133 45.7337 42.6048 47.0001 43.5961 47.0001C44.0937 47.0001 44.6836 46.5345 44.6836 46.1416C44.6836 45.7658 44.4278 45.3374 44.1197 45.197C43.7398 45.0239 43.6067 45.0324 43.1946 45.2558ZM40.3242 48.9479C39.3832 49.0297 37.0761 49.5993 35.8938 50.0418C35.1017 50.3381 34.8131 50.7827 35.0227 51.3838C35.2699 52.0929 35.755 52.1232 37.5531 51.5419C39.1703 51.019 40.9004 50.7083 41.5778 50.8189C42.7102 51.0038 43.3589 51.6585 43.3931 52.6515L43.4121 53.2019L39.1746 54.9519L34.9371 56.702L29.0632 56.66L23.1895 56.6181L22.0996 56.2818C21.5002 56.0969 19.5385 55.2327 17.7402 54.3615C13.0968 52.1117 12.652 51.911 11.5033 51.5481C9.85195 51.0264 8.4808 50.8765 5.35295 50.8758L2.53195 50.8751L2.23479 51.1724C1.84147 51.5655 1.84147 52.1221 2.23479 52.5153L2.53195 52.8126H5.36736C8.44435 52.8126 9.63446 52.9488 11.2271 53.4834C11.7162 53.6476 13.8628 54.6283 15.9973 55.6626C20.2541 57.7255 20.6774 57.9076 22.0996 58.2879C23.0158 58.533 23.4003 58.5496 29.1838 58.5939L35.2993 58.6407L39.7795 56.7992C44.5384 54.8431 44.8955 54.6431 45.151 53.7903C45.7152 51.9069 44.7274 49.8573 42.9373 49.197C42.1659 48.9125 41.4811 48.8471 40.3242 48.9479Z" fill="black"/>
</g>
</svg>
