<svg width="62" height="63" viewBox="0 0 62 63" fill="none" xmlns="http://www.w3.org/2000/svg">
<g id="Traced Image" clip-path="url(#clip0_425_1628)">
<path id="Vector" fill-rule="evenodd" clip-rule="evenodd" d="M6.09079 1.22173C5.47115 1.59942 5.3279 2.01453 5.32851 3.43048C5.32899 4.8365 5.50518 5.2998 6.17035 5.64371L6.53896 5.83431V9.44509V13.0557L3.47299 15.4275C1.78676 16.7319 0.347072 17.8715 0.273811 17.9599C0.0760646 18.1981 -0.0330409 18.733 0.0577794 19.019C0.177783 19.3971 1.79451 21.4883 2.09712 21.6569C2.76628 22.0295 3.03693 21.9024 5.17665 20.2104L5.93349 19.612V34.3754V49.1389L5.3342 49.5272C5.0047 49.7407 4.50689 50.1723 4.22813 50.4861C3.75889 51.0143 3.0276 52.3301 3.02736 52.6465C3.02724 52.7216 2.8634 52.851 2.66299 52.934C1.65028 53.3536 0.730334 54.7917 0.726822 55.9609C0.72549 56.4203 0.65017 56.7397 0.484272 56.9902C0.271994 57.3108 0.243658 57.5604 0.243295 59.1094C0.243053 60.6381 0.273568 60.9154 0.479428 61.2529C0.98451 62.0814 -1.5788 62.0156 30.1904 62.0156H58.9399L59.2589 61.7646C59.6441 61.4616 59.6805 60.9582 59.3469 60.5457C59.1296 60.2771 59.023 60.2574 57.591 60.2196L56.0663 60.1795V51.4634C56.0663 44.5223 56.0972 42.7661 56.2177 42.8393C56.301 42.8898 56.8518 43.307 57.4419 43.7664C59.3987 45.2897 59.6394 45.2691 60.9831 43.4637C62.0265 42.0617 62.1313 41.7781 61.8074 41.2341C61.6629 40.9916 58.006 38.084 52.0702 33.4921C46.842 29.4476 42.3567 26.0003 42.103 25.8315C41.5288 25.4496 40.5582 25.3435 39.9572 25.5972C39.7262 25.6947 38.8559 26.3023 38.0233 26.9474L36.5097 28.1203L36.4491 26.6738C36.3797 25.0167 36.2383 24.7188 35.5209 24.7188C34.7703 24.7188 34.701 24.9292 34.6327 27.416L34.5722 29.6217L27.4913 35.1011C23.5968 38.1148 20.2468 40.7441 20.0468 40.9441C19.7676 41.2234 19.6831 41.4169 19.6831 41.7777C19.6831 42.176 19.821 42.4279 20.5886 43.4316C21.5247 44.6556 21.9535 44.9705 22.5336 44.8596C22.7058 44.8266 26.8899 41.6718 31.8316 37.8487L40.8165 30.8976L47.5029 36.0747L54.1894 41.2517L54.2203 50.7255L54.2513 60.1992H50.6329H47.0147L46.9597 59.1515C46.912 58.2436 46.8678 58.0739 46.6283 57.88C46.2663 57.5869 45.7133 57.5952 45.4101 57.8984C45.2059 58.1026 45.1679 58.3021 45.1679 59.1699V60.1992H40.869H36.5702V53.2348V46.2703L40.8388 46.3021L45.1073 46.334L45.1679 50.5519C45.2253 54.5496 45.2406 54.7787 45.4635 54.9416C46.0379 55.3613 46.7818 55.0052 46.9246 54.2421C46.9659 54.022 46.9825 51.9794 46.9616 49.7029C46.9253 45.7392 46.9131 45.5498 46.6729 45.2225C46.1154 44.463 46.0732 44.4574 40.8349 44.4573C35.6288 44.457 35.5025 44.4722 35.014 45.1583C34.7546 45.5225 34.7538 45.5486 34.7538 52.8614V60.1992H31.3153H27.877L27.8339 58.7709C27.8001 57.6502 27.7439 57.2709 27.5725 57.0094C27.2361 56.4962 26.6622 56.2041 25.9892 56.2036L25.3983 56.2031L25.4722 55.6279C25.6592 54.1701 24.9826 52.2739 23.8778 51.159C21.6959 48.9574 18.216 48.8598 15.9942 50.938C15.4506 51.4464 15.4113 51.4621 14.95 51.3527C14.6863 51.2902 14.1956 51.2711 13.8596 51.3101L13.2484 51.3812L12.8068 50.8142C11.7939 49.5142 10.342 48.7484 8.62783 48.6101L7.7499 48.5392V33.3841V18.229L14.3748 13.1008C18.0185 10.2801 21.0715 7.96677 21.1593 7.95987C21.247 7.95297 24.3144 10.262 27.9757 13.091L34.6327 18.2348V19.963C34.6327 21.53 34.6554 21.7141 34.8749 21.9336C35.2355 22.2942 35.8836 22.2566 36.1981 21.8567C36.4036 21.5955 36.4491 21.3654 36.4491 20.5878V19.6379L37.8516 20.7252C39.8311 22.26 39.9852 22.2385 41.4884 20.2196C42.1627 19.314 42.3167 19.0238 42.3167 18.6587C42.3167 18.4121 42.2431 18.1216 42.1531 18.0132C41.9348 17.7502 22.5472 2.76168 22.1605 2.55715C21.694 2.31012 20.5656 2.35408 20.0851 2.6378C19.861 2.77016 18.6968 3.63949 17.4979 4.56973C16.2991 5.49985 15.114 6.4152 14.8642 6.60374L14.4101 6.94668V6.38444C14.4101 5.91363 14.4544 5.80489 14.6825 5.71564C15.0849 5.55846 15.4844 5.13972 15.5893 4.76517C15.64 4.5839 15.6804 3.91788 15.6792 3.28517C15.6773 2.3657 15.6297 2.05619 15.4424 1.74316C15.0009 1.00594 14.8585 0.984386 10.4562 0.984871C6.7246 0.985234 6.45444 0.999886 6.09079 1.22173ZM7.14443 3.40626V4.01173H10.5351H13.9257V3.40626V2.80079H10.5351H7.14443V3.40626ZM20.9078 4.26978C20.6708 4.40759 2.46851 18.4669 2.20719 18.7141C2.0838 18.8307 2.13199 18.9483 2.44938 19.3047L2.8456 19.7496L11.746 12.8478C16.6412 9.05177 20.7689 5.91363 20.9188 5.87391C21.0688 5.83431 21.3139 5.83516 21.4638 5.87585C21.6137 5.91653 25.7414 9.05432 30.6366 12.8485L39.537 19.7473L39.8686 19.357C40.0509 19.1424 40.1872 18.9026 40.1713 18.8242C40.1554 18.7457 36.4643 15.8352 31.9686 12.3562C22.1545 4.76142 21.3309 4.13173 21.2183 4.13646C21.1701 4.13851 21.0305 4.19846 20.9078 4.26978ZM8.35536 8.7448V11.6615L9.1122 11.0682C9.52852 10.742 10.4821 9.99812 11.2313 9.41518L12.5936 8.35536V7.09175V5.82814H10.4745H8.35536V8.7448ZM15.8478 14.7508C15.1077 15.2101 15.1366 14.8506 15.1366 23.6009V31.5884L15.3991 31.9221C15.911 32.573 16.0573 32.5899 21.1913 32.5899C26.3687 32.5899 26.4975 32.5742 26.9858 31.8886C27.2456 31.5236 27.246 31.5125 27.246 23.5684C27.246 16.4218 27.2259 15.5795 27.0479 15.2783C26.6119 14.5402 26.6634 14.5465 21.1727 14.5502C16.7585 14.5529 16.1283 14.5767 15.8478 14.7508ZM16.8591 18.21L16.8925 20.0567L18.5575 20.0903L20.2226 20.124V18.2436V16.3633H18.5241H16.8256L16.8591 18.21ZM22.0661 18.21L22.0995 20.0567L23.7645 20.0903L25.4296 20.124V18.2436V16.3633H23.7311H22.0327L22.0661 18.21ZM16.8319 23.5684V25.2031H18.5272H20.2226V23.5684V21.9336H18.5272H16.8319V23.5684ZM22.039 23.5684V25.2031H23.7343H25.4296V23.5684V21.9336H23.7343H22.039V23.5684ZM16.8851 27.1767C16.8519 27.2632 16.84 28.0942 16.8586 29.0234L16.8925 30.7129L18.5575 30.7466L20.2226 30.7802V28.8999V27.0195H18.584C17.3524 27.0195 16.9304 27.0585 16.8851 27.1767ZM22.0661 28.8662L22.0995 30.7129L23.7645 30.7466L25.4296 30.7802V28.8999V27.0195H23.7311H22.0327L22.0661 28.8662ZM31.4031 34.363C26.3528 38.2687 22.0994 41.5585 21.9514 41.6738L21.6821 41.8833L22.012 42.3182C22.1932 42.5572 22.383 42.7549 22.4334 42.7574C22.4839 42.7598 26.498 39.6873 31.3537 35.9297C36.2095 32.1721 40.3011 29.0342 40.4462 28.9566C40.5912 28.8789 40.8339 28.8465 40.9855 28.8845C41.1371 28.9225 45.2767 32.0606 50.1848 35.8577C55.0927 39.6549 59.1458 42.7605 59.1919 42.7592C59.2377 42.7577 59.4182 42.5533 59.5927 42.3051L59.9102 41.8535L52.3957 36.041C48.2629 32.8442 44.015 29.5611 42.9562 28.7451C41.8974 27.9292 40.9308 27.2617 40.8084 27.2617C40.6859 27.2617 36.4536 30.4573 31.4031 34.363ZM7.36143 50.5533C6.23465 50.8708 5.17448 51.8838 4.85358 52.9498C4.50955 54.0927 4.46729 54.1534 3.81253 54.4429C3.10329 54.7567 2.54287 55.3916 2.54287 55.8815V56.2031H6.58316C10.4873 56.2031 10.6342 56.2116 10.9425 56.4542C11.3424 56.7686 11.38 57.4167 11.0194 57.7774C10.7862 58.0106 10.6158 58.0195 6.41787 58.0195H2.05849V59.1094V60.1992H14.0515H26.0445L26.0095 59.1397L25.9745 58.0801L20.1962 58.0195C13.7456 57.952 13.9257 57.9775 13.9257 57.1313C13.9257 56.4716 14.2571 56.274 15.4817 56.2031L16.5292 56.1426L16.5288 55.4051C16.5285 54.7975 16.4695 54.5827 16.1941 54.1852C15.5573 53.2664 14.5043 52.9045 13.4005 53.2254C12.5458 53.4738 12.2045 53.3527 11.8608 52.6791C11.4641 51.9014 10.603 51.0552 9.90125 50.7533C9.12915 50.4212 8.11403 50.3411 7.36143 50.5533ZM37.5995 50.9002C37.1231 51.1734 37.0623 51.3828 37.0585 52.7659C37.0551 53.9476 37.0852 54.1508 37.3056 54.4309C37.4876 54.6623 37.6682 54.75 37.9628 54.75C38.2574 54.75 38.438 54.6623 38.62 54.4309C38.8371 54.155 38.871 53.9432 38.871 52.8624C38.871 51.441 38.7483 51.0615 38.2308 50.8811C38.0302 50.8111 37.8606 50.7556 37.8539 50.7575C37.8471 50.7596 37.7327 50.8238 37.5995 50.9002ZM18.6963 51.4038C18.423 51.4928 17.943 51.742 17.6296 51.9576L17.0597 52.3497L17.3749 52.7325C17.9597 53.4423 18.3203 54.3693 18.3812 55.3185L18.438 56.2031H21.0143H23.5904L23.6673 55.6279C23.9648 53.4007 22.2449 51.3702 19.9804 51.2751C19.5475 51.2569 18.9696 51.3148 18.6963 51.4038Z" fill="black"/>
</g>
<defs>
<clipPath id="clip0_425_1628">
<rect width="62" height="62" fill="white" transform="translate(0 0.5)"/>
</clipPath>
</defs>
</svg>
