<svg width="18" height="15" viewBox="0 0 18 15" fill="none" xmlns="http://www.w3.org/2000/svg">
<g id="Layer 2">
<path id="email" d="M15.2488 0.333862H2.72746C2.01584 0.333862 1.33337 0.61655 0.830187 1.11974C0.326999 1.62293 0.0443115 2.30539 0.0443115 3.01701V11.9608C0.0443115 12.6724 0.326999 13.3549 0.830187 13.8581C1.33337 14.3613 2.01584 14.644 2.72746 14.644H15.2488C15.9604 14.644 16.6429 14.3613 17.1461 13.8581C17.6493 13.3549 17.932 12.6724 17.932 11.9608V3.01701C17.932 2.30539 17.6493 1.62293 17.1461 1.11974C16.6429 0.61655 15.9604 0.333862 15.2488 0.333862ZM14.6496 2.12263L8.98813 6.37094L3.32669 2.12263H14.6496ZM15.2488 12.8552H2.72746C2.49025 12.8552 2.26276 12.761 2.09503 12.5933C1.9273 12.4255 1.83308 12.198 1.83308 11.9608V3.2406L8.4515 8.20442C8.60632 8.32053 8.79461 8.3833 8.98813 8.3833C9.18165 8.3833 9.36995 8.32053 9.52476 8.20442L16.1432 3.2406V11.9608C16.1432 12.198 16.049 12.4255 15.8812 12.5933C15.7135 12.761 15.486 12.8552 15.2488 12.8552Z" fill="#A8AFB9"/>
</g>
</svg>
