<svg width="25" height="25" viewBox="0 0 25 25" fill="none" xmlns="http://www.w3.org/2000/svg">
<g id="image">
<path id="Vector" d="M8.39207 20.8008V10.0048H4.74807V20.8008H8.39207ZM6.57007 8.53078C7.84007 8.53078 8.63107 7.70178 8.63107 6.66578C8.60807 5.60678 7.84007 4.80078 6.59407 4.80078C5.34707 4.80078 4.53207 5.60678 4.53207 6.66578C4.53207 7.70178 5.32307 8.53078 6.54607 8.53078H6.57007ZM10.4081 20.8008H14.0521V14.7718C14.0521 14.4488 14.0761 14.1268 14.1721 13.8968C14.4361 13.2518 15.0351 12.5838 16.0421 12.5838C17.3611 12.5838 17.8881 13.5738 17.8881 15.0258V20.8008H21.5321V14.6108C21.5321 11.2948 19.7341 9.75178 17.3371 9.75178C15.3711 9.75178 14.5081 10.8338 14.0281 11.5698H14.0521V10.0048H10.4081C10.4561 11.0178 10.4081 20.8008 10.4081 20.8008Z" fill="black"/>
</g>
</svg>
