<svg width="22" height="22" viewBox="0 0 22 22" fill="none" xmlns="http://www.w3.org/2000/svg">
<g id="Login ICONS">
<path id="Vector" d="M17.3867 11.8944C17.19 11.8944 16.9843 11.8318 16.7875 11.7871C16.389 11.6993 15.9975 11.5827 15.6159 11.4383C15.2009 11.2873 14.7449 11.2951 14.3354 11.4603C13.9259 11.6254 13.5919 11.9361 13.3978 12.3326L13.201 12.7351C12.3299 12.2505 11.5294 11.6486 10.822 10.9463C10.1197 10.2389 9.5178 9.43841 9.0332 8.56728L9.40884 8.31686C9.80538 8.1227 10.1161 7.78875 10.2812 7.37927C10.4463 6.96979 10.4542 6.5137 10.3032 6.09879C10.1612 5.71637 10.0447 5.32497 9.95442 4.92715C9.9097 4.73039 9.87392 4.52468 9.84709 4.31897C9.73848 3.68898 9.40851 3.11848 8.9166 2.71019C8.42468 2.3019 7.80316 2.08266 7.16395 2.09196H4.4808C4.09535 2.08834 3.71364 2.16781 3.36167 2.32497C3.00969 2.48213 2.69571 2.71328 2.4411 3.00269C2.18649 3.2921 1.99722 3.63297 1.88619 4.0021C1.77515 4.37123 1.74496 4.75995 1.79765 5.1418C2.27412 8.88871 3.98534 12.3701 6.66099 15.036C9.33665 17.702 12.8242 19.4005 16.5728 19.8633H16.9127C17.5722 19.8643 18.209 19.6223 18.7015 19.1836C18.9844 18.9305 19.2105 18.6203 19.3646 18.2734C19.5188 17.9265 19.5976 17.5508 19.5959 17.1712V14.4881C19.5849 13.8668 19.3587 13.2687 18.9558 12.7956C18.5529 12.3226 17.9983 12.0041 17.3867 11.8944ZM17.8339 17.2607C17.8338 17.3877 17.8066 17.5132 17.7541 17.6288C17.7017 17.7445 17.6252 17.8477 17.5298 17.9315C17.4299 18.0177 17.313 18.0822 17.1867 18.1207C17.0605 18.1592 16.9275 18.1709 16.7964 18.1551C13.4469 17.7256 10.3356 16.1932 7.95343 13.7997C5.57123 11.4061 4.05365 8.28764 3.64008 4.93609C3.62585 4.80508 3.63832 4.67255 3.67675 4.54649C3.71518 4.42044 3.77877 4.30349 3.86368 4.2027C3.94749 4.1073 4.05066 4.03084 4.16632 3.9784C4.28197 3.92597 4.40747 3.89877 4.53446 3.89861H7.21761C7.42559 3.89398 7.62869 3.962 7.79193 4.09097C7.95517 4.21993 8.06835 4.40176 8.11199 4.60517C8.14777 4.84964 8.19248 5.09112 8.24615 5.32962C8.34947 5.80109 8.48697 6.26441 8.65756 6.71591L7.40543 7.29726C7.29837 7.34638 7.20207 7.41617 7.12205 7.50261C7.04203 7.58905 6.97988 7.69044 6.93916 7.80097C6.89844 7.9115 6.87995 8.02898 6.88476 8.14668C6.88957 8.26437 6.91758 8.37995 6.96718 8.48679C8.25438 11.2439 10.4707 13.4603 13.2279 14.7475C13.4456 14.8369 13.6898 14.8369 13.9076 14.7475C14.0191 14.7076 14.1216 14.6459 14.2091 14.5661C14.2967 14.4862 14.3674 14.3898 14.4174 14.2824L14.9719 13.0303C15.4343 13.1956 15.9062 13.333 16.385 13.4417C16.6235 13.4953 16.865 13.54 17.1095 13.5758C17.3129 13.6195 17.4947 13.7326 17.6237 13.8959C17.7526 14.0591 17.8207 14.2622 17.816 14.4702L17.8339 17.2607Z" fill="#A8AFB9"/>
</g>
</svg>
