<svg width="309" height="309" viewBox="0 0 309 309" fill="none" xmlns="http://www.w3.org/2000/svg">
<mask id="mask0_6_1645" style="mask-type:alpha" maskUnits="userSpaceOnUse" x="0" y="0" width="309" height="309">
<circle cx="154.5" cy="154.5" r="154.5" fill="#C4C4C4"/>
</mask>
<g mask="url(#mask0_6_1645)">
<path d="M-11.0044 119.265C-11.0044 119.265 -16.4914 178.869 28.0883 226.664C72.6679 274.458 140.936 288.738 196.041 301.771C251.146 314.804 297.709 290.501 310.036 244.067C322.363 197.633 281.697 176.589 265.418 118.672C249.14 60.7553 253.418 43.2913 208.839 1.89588C164.259 -39.4995 85.4885 -31.8162 38.4086 18.5163C-8.6713 68.8489 -11.0044 119.265 -11.0044 119.265Z" fill="white" fill-opacity="0.4"/>
<path d="M164.394 -22.0878C164.394 -22.0878 104.606 -24.9453 58.8203 21.6954C13.0351 68.3361 1.77482 137.166 -8.81983 192.792C-19.4145 248.417 6.91571 293.865 53.8473 304.136C100.779 314.406 120.012 272.853 177.156 254.041C234.3 235.228 251.935 238.734 291.328 192.375C330.721 146.016 319.577 67.6599 267.22 22.8416C214.864 -21.9767 164.394 -22.0878 164.394 -22.0878Z" fill="white" fill-opacity="0.56"/>
<g opacity="0.5">
<path d="M-7.63363 248.605C-5.58172 247.883 -2.18467 244.608 -1.91868 244.342C-0.0487881 246.292 1.94931 248.115 4.06225 249.798C5.2858 250.779 6.54734 251.736 7.86209 252.679C7.20852 252.337 6.63094 252.033 6.54734 252.002C4.13825 251.06 -1.05232 250.657 -2.89904 252.899C-3.20043 253.278 -3.41772 253.718 -3.53652 254.188C-3.65531 254.657 -3.67289 255.147 -3.5881 255.624C-3.50331 256.101 -3.31808 256.555 -3.04468 256.955C-2.77128 257.355 -2.41597 257.693 -2.00228 257.945C-0.299953 259.078 2.20034 258.758 4.01666 258.112C5.83298 257.466 8.81964 254.731 9.59481 253.993C10.0888 254.351 10.5752 254.715 11.0691 255.065C13.4478 256.767 15.8341 258.454 18.1216 260.179C18.9272 260.787 19.6948 261.418 20.4699 262.041C19.8924 261.737 19.406 261.487 19.33 261.456C16.9209 260.514 11.7303 260.111 9.8836 262.353C9.58996 262.734 9.37988 263.173 9.267 263.641C9.15412 264.108 9.14098 264.595 9.22844 265.068C9.3159 265.541 9.50199 265.99 9.77461 266.387C10.0472 266.783 10.4003 267.118 10.8108 267.369C12.5131 268.494 15.0134 268.174 16.8297 267.536C18.646 266.898 21.3439 264.413 22.2635 263.546C23.0234 264.207 23.7834 264.868 24.5434 265.552C25.0221 266.024 25.5161 266.449 25.9721 266.951L27.3476 268.41C28.1836 269.36 29.0576 270.34 29.8479 271.298C30.4103 271.959 30.9271 272.59 31.4514 273.236C30.6915 272.62 29.0728 271.45 28.936 271.366C26.6561 270.074 21.6175 268.881 19.4668 270.827C19.1185 271.158 18.844 271.559 18.6612 272.003C18.4783 272.448 18.3912 272.926 18.4055 273.406C18.4199 273.887 18.5353 274.359 18.7444 274.792C18.9534 275.225 19.2514 275.608 19.6188 275.918C21.1387 277.286 23.6542 277.355 25.5465 276.998C27.6364 276.595 31.3526 273.996 31.8162 273.669C32.675 274.733 33.511 275.782 34.2785 276.777C36.3532 279.452 38.0784 281.831 39.4083 283.754L41.1106 282.857C39.6971 280.911 37.858 278.464 35.6237 275.713C34.7497 274.626 33.7921 273.487 32.8042 272.324C33.7503 271.215 34.6284 270.05 35.4337 268.836C37.4932 269.595 41.7262 269.451 42.2734 269.436C42.4102 270.804 42.5242 272.126 42.6153 273.388C42.8585 276.663 42.9801 279.536 43.0485 281.839L44.8952 280.858C44.7813 278.7 44.6065 276.131 44.3253 273.259C44.1961 271.868 44.0289 270.393 43.8389 268.874C44.3709 268.722 48.7407 267.445 50.3518 266.062C51.8261 264.808 53.3461 262.801 53.2245 260.742C53.2117 260.261 53.0979 259.788 52.8903 259.354C52.6828 258.92 52.3863 258.535 52.02 258.223C51.6537 257.911 51.2258 257.68 50.7643 257.544C50.3027 257.409 49.8178 257.372 49.341 257.436C46.4912 257.9 44.2341 262.604 43.8465 265.157C43.8465 265.309 43.7553 266.974 43.7325 268.022C43.6565 267.407 43.5805 266.806 43.4969 266.168C43.3221 264.906 43.1169 263.653 42.9041 262.307C42.7775 261.664 42.6483 261.01 42.5166 260.347C42.4026 259.686 42.1974 259.009 42.0378 258.333C41.6426 256.767 41.1562 255.209 40.6394 253.644C41.7414 253.499 45.6476 252.884 47.2967 251.888C48.9459 250.893 50.747 249.114 50.937 247.085C50.9967 246.608 50.9555 246.123 50.816 245.663C50.6766 245.203 50.442 244.777 50.1275 244.413C49.813 244.049 49.4256 243.755 48.9903 243.55C48.555 243.346 48.0816 243.235 47.6007 243.225C44.7129 243.225 41.7718 247.564 40.9966 250.064C40.951 250.224 40.5938 252.055 40.419 253.066C40.0999 252.124 39.7883 251.189 39.4311 250.254C38.4127 247.549 37.288 244.843 36.186 242.138L35.1905 239.653C35.5857 239.6 40.2443 238.999 42.091 237.859C43.7325 236.841 45.5412 235.085 45.7236 233.056C45.7949 232.575 45.7629 232.084 45.6297 231.616C45.4964 231.147 45.265 230.713 44.9508 230.341C44.6366 229.97 44.2468 229.669 43.8075 229.46C43.3681 229.251 42.8892 229.137 42.4026 229.127C39.5071 229.127 36.566 233.467 35.7985 235.929C35.7377 236.119 35.2361 238.756 35.1373 239.432C34.3773 237.609 33.7009 235.777 33.0778 233.953C32.2252 231.487 31.5322 228.969 31.0031 226.414C31.1855 226.414 36.0568 225.783 37.9492 224.613C39.5831 223.595 41.3918 221.839 41.5818 219.81C41.6427 219.333 41.6025 218.849 41.464 218.389C41.3255 217.928 41.0917 217.502 40.7777 217.138C40.4638 216.774 40.0768 216.48 39.6419 216.275C39.2069 216.07 38.7338 215.959 38.2531 215.949C35.3577 215.949 32.4166 220.289 31.649 222.751C31.5882 222.949 31.0411 225.791 30.9803 226.308C30.9803 226.156 30.9043 226.011 30.8739 225.859C30.4138 223.281 30.1824 220.666 30.1823 218.047C30.1823 216.603 30.2279 215.22 30.3191 213.875C31.2387 213.875 35.4337 213.723 37.2576 212.856C39.0815 211.99 40.9814 210.478 41.3994 208.479C41.511 208.012 41.5233 207.526 41.4354 207.053C41.3475 206.581 41.1615 206.132 40.8893 205.736C40.6171 205.34 40.2649 205.005 39.8553 204.754C39.4457 204.502 38.9879 204.34 38.5115 204.276C35.6313 203.988 32.2342 207.947 31.1931 210.318C31.1399 210.447 30.7067 211.838 30.4331 212.818C30.4863 212.218 30.5243 211.587 30.5851 211.01C30.8055 208.829 31.1475 206.853 31.459 205.097C31.6414 204.102 31.8314 203.212 32.0138 202.376C32.9106 201.882 36.4748 199.869 37.668 198.288C38.8611 196.707 39.8871 194.488 39.3247 192.497C39.2093 192.028 38.9959 191.588 38.6987 191.207C38.4015 190.827 38.0272 190.513 37.6002 190.287C37.1732 190.061 36.7033 189.927 36.2212 189.896C35.7391 189.864 35.2558 189.935 34.8029 190.103C32.1126 191.167 30.9271 196.251 31.0943 198.827C31.0943 199.055 31.7402 202.513 31.7858 202.483H31.839C31.649 203.281 31.4514 204.14 31.2539 205.09C30.9043 206.837 30.4939 208.813 30.2507 210.994C29.9329 213.34 29.7527 215.703 29.7111 218.07C29.6527 220.722 29.8308 223.375 30.2431 225.996C30.2431 225.996 30.2431 226.057 30.2431 226.087C29.8631 225.327 28.7232 223.245 28.6168 223.101C27.0968 220.988 23.0158 217.781 20.2571 218.64C19.803 218.796 19.3867 219.046 19.0354 219.374C18.684 219.701 18.4055 220.099 18.2177 220.541C18.03 220.983 17.9373 221.46 17.9456 221.94C17.9539 222.42 18.0631 222.893 18.266 223.329C19.064 225.206 21.3059 226.323 23.1982 226.794C25.3109 227.319 29.9467 226.46 30.3191 226.391C30.801 229.047 31.4611 231.667 32.295 234.234C32.7738 235.754 33.2982 237.229 33.8149 238.718C33.4654 238.072 33.1462 237.502 33.093 237.426C31.573 235.313 27.492 232.106 24.7333 232.965C24.2792 233.121 23.8629 233.371 23.5116 233.699C23.1602 234.027 22.8817 234.424 22.6939 234.866C22.5062 235.308 22.4135 235.785 22.4218 236.265C22.4301 236.746 22.5393 237.219 22.7422 237.654C23.5402 239.539 25.7821 240.648 27.6668 241.12C29.5515 241.591 33.5414 240.945 34.5901 240.755C34.8105 241.325 35.0157 241.895 35.2361 242.465C36.2772 245.201 37.3336 247.921 38.2759 250.619C38.6103 251.569 38.9067 252.519 39.2107 253.469C38.8991 252.899 38.6255 252.42 38.5799 252.352C37.06 250.239 32.9714 247.032 30.2203 247.891C29.7654 248.046 29.3484 248.296 28.9962 248.623C28.6441 248.95 28.3647 249.348 28.1762 249.79C27.9877 250.232 27.8943 250.709 27.9021 251.19C27.91 251.67 28.0188 252.144 28.2216 252.58C29.0271 254.457 31.2615 255.574 33.1538 256.045C35.0461 256.516 38.6407 255.924 39.8871 255.711C40.1683 256.691 40.4494 257.672 40.647 258.637C40.7838 259.298 40.9662 259.929 41.0726 260.597C41.179 261.266 41.3006 261.92 41.4146 262.566C41.5818 263.827 41.7718 265.127 41.9086 266.366C42.0074 267.224 42.091 268.045 42.1746 268.866C41.8478 267.916 41.179 266.069 41.103 265.917C40.0224 263.926 38.4534 262.242 36.5432 261.023C36.4306 260.797 36.2984 260.58 36.148 260.377C35.8721 259.983 35.5165 259.652 35.1041 259.404C34.6917 259.157 34.2319 258.999 33.7546 258.941C33.2772 258.883 32.793 258.926 32.3333 259.067C31.8737 259.209 31.4489 259.445 31.0867 259.762C28.9588 261.722 29.6807 266.89 30.7599 269.238C30.8283 269.375 31.687 270.796 32.2798 271.685C31.8694 271.214 31.5198 270.751 31.0563 270.272C30.2203 269.314 29.3539 268.38 28.4344 267.376L27.0284 265.948C26.5725 265.469 26.0253 265.013 25.5085 264.534C24.3154 263.455 23.0538 262.414 21.7619 261.403C22.5978 260.643 25.5617 258.021 26.3217 256.258C27.0816 254.495 27.6668 252.048 26.7017 250.247C26.4937 249.812 26.1962 249.426 25.8286 249.115C25.4611 248.803 25.0319 248.572 24.5691 248.438C24.1062 248.304 23.6203 248.269 23.1431 248.336C22.6658 248.403 22.2081 248.57 21.7999 248.826C19.3984 250.444 19.3224 255.665 20.0367 258.15C20.0823 258.302 20.7967 260.028 21.2071 260.962C20.4471 260.362 19.6872 259.754 18.836 259.169C16.4953 257.474 14.0634 255.832 11.6543 254.191L9.45041 252.671C9.7544 252.413 13.3034 249.342 14.2154 247.351C15.021 245.596 15.5605 243.141 14.5954 241.34C14.3823 240.914 14.0823 240.537 13.7147 240.234C13.3472 239.931 12.9202 239.708 12.4613 239.58C12.0024 239.452 11.5218 239.421 11.0503 239.49C10.5789 239.559 10.1271 239.726 9.724 239.98C7.32251 241.591 7.24651 246.819 7.96848 249.297C8.02168 249.479 9.05523 251.964 9.34402 252.58C7.73289 251.455 6.13696 250.3 4.60183 249.145C2.52758 247.561 0.557713 245.845 -1.29551 244.007C-1.15872 243.886 2.57272 240.694 3.49988 238.688C4.30544 236.94 4.85262 234.477 3.88746 232.676C3.67445 232.245 3.37311 231.864 3.00303 231.557C2.63294 231.25 2.20239 231.024 1.73937 230.894C1.27634 230.765 0.791201 230.734 0.31547 230.804C-0.160259 230.874 -0.615927 231.043 -1.02192 231.301C-3.42342 232.919 -3.49941 238.14 -2.77744 240.618C-2.72425 240.816 -1.60709 243.483 -1.37151 243.947L-1.70589 243.635C-3.51507 241.741 -5.1505 239.689 -6.59247 237.502C-7.40564 236.301 -8.11241 235.116 -8.78118 233.945C-8.02121 233.421 -4.60136 230.989 -3.56021 229.264C-2.51905 227.539 -1.75909 225.229 -2.51906 223.336C-2.68257 222.884 -2.93949 222.471 -3.27311 222.124C-3.60674 221.778 -4.00959 221.505 -4.45547 221.325C-4.90134 221.144 -5.38025 221.059 -5.86104 221.076C-6.34183 221.092 -6.81373 221.21 -7.24605 221.421C-9.80713 222.766 -10.4531 227.949 -10.0123 230.495C-10.0123 230.632 -9.59434 232.015 -9.25236 233.011C-9.54114 232.479 -9.85273 231.932 -10.1187 231.415C-11.1371 229.477 -11.9502 227.615 -12.657 226.011C-13.0446 225.077 -13.417 224.225 -13.6906 223.428C-13.2194 222.531 -11.3575 218.868 -11.2359 216.907C-11.1143 214.946 -11.5551 212.476 -13.075 211.146C-13.4286 210.82 -13.8468 210.573 -14.3025 210.419C-14.7582 210.265 -15.2412 210.209 -15.72 210.254C-16.1988 210.299 -16.6628 210.445 -17.0817 210.681C-17.5006 210.917 -17.8651 211.239 -18.1516 211.625C-19.8083 213.996 -17.992 218.891 -16.4264 220.95C-16.2896 221.132 -13.8578 223.663 -13.835 223.618V223.564C-13.5538 224.324 -13.2422 225.168 -12.8926 226.065C-12.2162 227.714 -11.4411 229.576 -10.4683 231.544C-9.4332 233.677 -8.27351 235.748 -6.99526 237.745C-5.58161 239.988 -3.97177 242.102 -2.18467 244.061L-2.11627 244.129C-2.87624 243.703 -4.95095 242.609 -5.15614 242.533C-7.56523 241.591 -12.7558 241.188 -14.5949 243.43C-14.8888 243.81 -15.0992 244.248 -15.2126 244.714C-15.326 245.181 -15.3397 245.667 -15.253 246.139C-15.1662 246.612 -14.9809 247.061 -14.7091 247.457C-14.4373 247.853 -14.085 248.187 -13.6754 248.438C-11.9502 249.586 -9.45755 249.251 -7.63363 248.605Z" fill="#333333"/>
<path d="M29.9389 213.457C29.9921 213.457 29.1789 210.037 29.1029 209.824C28.229 207.392 25.1055 203.212 22.21 203.311C21.7308 203.343 21.2636 203.474 20.8384 203.698C20.4132 203.921 20.0397 204.231 19.7418 204.608C19.4438 204.985 19.2282 205.419 19.1088 205.885C18.9894 206.35 18.9689 206.835 19.0486 207.308C19.3298 209.338 21.2069 211.01 22.894 211.952C24.8699 213.061 29.9313 213.457 29.9389 213.457Z" fill="#333333"/>
<path d="M325.239 248.605C323.187 247.883 319.79 244.608 319.517 244.342C317.649 246.294 315.65 248.117 313.536 249.798C312.312 250.779 311.051 251.736 309.774 252.679C310.42 252.337 311.005 252.033 311.089 252.002C313.498 251.06 318.688 250.657 320.527 252.899C320.821 253.279 321.031 253.718 321.144 254.185C321.257 254.652 321.27 255.137 321.182 255.61C321.095 256.083 320.909 256.531 320.636 256.927C320.364 257.323 320.011 257.657 319.6 257.907C317.898 259.039 315.405 258.72 313.581 258.074C311.757 257.428 308.778 254.692 308.011 253.955L306.529 255.027C304.15 256.729 301.772 258.416 299.484 260.141C298.678 260.749 297.903 261.38 297.128 262.003C297.706 261.699 298.192 261.449 298.276 261.418C300.677 260.476 305.875 260.073 307.714 262.315C308.008 262.696 308.218 263.135 308.331 263.602C308.444 264.07 308.457 264.556 308.37 265.03C308.282 265.503 308.096 265.952 307.823 266.349C307.551 266.745 307.198 267.08 306.787 267.331C305.085 268.455 302.585 268.136 300.768 267.498C298.952 266.859 296.254 264.374 295.335 263.508C294.575 264.169 293.815 264.83 293.055 265.514C292.568 265.986 292.074 266.411 291.618 266.913C291.162 267.414 290.699 267.885 290.25 268.372C289.407 269.322 288.54 270.302 287.743 271.26C287.188 271.921 286.663 272.552 286.139 273.198C286.937 272.582 288.518 271.412 288.662 271.328C290.896 270.036 295.981 268.843 298.124 270.789C298.472 271.12 298.746 271.521 298.929 271.965C299.112 272.41 299.199 272.888 299.185 273.368C299.171 273.849 299.055 274.321 298.846 274.754C298.637 275.186 298.339 275.57 297.972 275.88C296.452 277.248 293.944 277.317 292.044 276.959C289.962 276.557 286.245 273.958 285.782 273.631C284.915 274.695 284.087 275.744 283.312 276.739C281.245 279.414 279.512 281.793 278.182 283.716L276.472 282.819C277.886 280.873 279.732 278.426 281.959 275.675C282.833 274.588 283.791 273.448 284.786 272.286C283.839 271.176 282.959 270.011 282.149 268.797C280.09 269.557 275.857 269.413 275.309 269.398C275.18 270.766 275.059 272.088 274.967 273.35C274.724 276.625 274.603 279.498 274.542 281.8L272.688 280.82C272.802 278.662 272.984 276.093 273.258 273.22C273.394 271.83 273.562 270.355 273.744 268.835C273.212 268.683 268.85 267.407 267.231 266.024C265.764 264.77 264.244 262.763 264.366 260.704C264.378 260.223 264.491 259.751 264.697 259.317C264.904 258.883 265.2 258.497 265.566 258.185C265.931 257.873 266.359 257.642 266.82 257.506C267.281 257.371 267.765 257.334 268.242 257.398C271.099 257.861 273.349 262.566 273.736 265.119C273.736 265.271 273.828 266.935 273.85 267.984C273.934 267.369 274.002 266.768 274.094 266.13C274.261 264.868 274.466 263.614 274.686 262.269C274.808 261.623 274.937 260.97 275.066 260.309C275.195 259.647 275.385 258.971 275.545 258.295C275.948 256.729 276.427 255.171 276.943 253.606C275.841 253.461 271.935 252.846 270.286 251.85C268.637 250.855 266.836 249.076 266.653 247.047C266.593 246.57 266.633 246.086 266.771 245.626C266.91 245.165 267.144 244.739 267.458 244.375C267.771 244.011 268.158 243.717 268.593 243.512C269.028 243.308 269.501 243.197 269.982 243.187C272.878 243.187 275.819 247.526 276.586 250.026C276.639 250.186 276.989 252.017 277.164 253.028C277.483 252.086 277.802 251.151 278.152 250.216C279.178 247.511 280.295 244.805 281.397 242.1C281.739 241.271 282.066 240.443 282.392 239.615C282.005 239.561 277.339 238.961 275.492 237.821C273.858 236.803 272.049 235.047 271.859 233.018C271.798 232.541 271.839 232.057 271.977 231.597C272.116 231.136 272.349 230.71 272.663 230.346C272.977 229.982 273.364 229.688 273.799 229.483C274.234 229.279 274.707 229.168 275.188 229.158C278.083 229.158 281.024 233.497 281.8 235.959C281.853 236.149 282.362 238.786 282.453 239.463C283.213 237.639 283.89 235.807 284.52 233.983C285.376 231.518 286.071 229 286.603 226.444C286.42 226.444 281.556 225.814 279.664 224.643C278.023 223.625 276.214 221.869 276.024 219.84C275.964 219.363 276.005 218.879 276.145 218.418C276.284 217.958 276.519 217.532 276.833 217.168C277.148 216.804 277.535 216.51 277.971 216.306C278.406 216.101 278.879 215.99 279.36 215.98C282.256 215.98 285.189 220.319 285.964 222.781C286.025 222.979 286.565 225.821 286.625 226.338C286.625 226.186 286.709 226.042 286.732 225.89C287.196 223.311 287.427 220.697 287.423 218.077C287.423 216.633 287.378 215.25 287.287 213.905C286.367 213.905 282.172 213.753 280.356 212.887C278.539 212.02 276.624 210.508 276.214 208.509C276.101 208.042 276.088 207.556 276.175 207.083C276.263 206.61 276.448 206.161 276.721 205.764C276.993 205.368 277.346 205.033 277.756 204.782C278.166 204.531 278.625 204.369 279.102 204.307C281.982 204.018 285.379 207.977 286.413 210.348C286.473 210.478 286.899 211.868 287.173 212.849C287.119 212.248 287.081 211.618 287.021 211.04C286.8 208.859 286.466 206.883 286.147 205.127C285.964 204.132 285.774 203.243 285.592 202.407C284.703 201.913 281.138 199.899 279.945 198.318C278.752 196.737 277.726 194.518 278.281 192.527C278.397 192.061 278.61 191.624 278.905 191.245C279.201 190.866 279.573 190.554 279.997 190.328C280.421 190.102 280.888 189.968 281.368 189.935C281.847 189.901 282.328 189.969 282.78 190.133C285.47 191.197 286.656 196.281 286.489 198.858C286.489 199.086 285.843 202.544 285.797 202.513H285.744C285.934 203.311 286.139 204.17 286.337 205.12C286.686 206.868 287.097 208.844 287.34 211.025C287.655 213.371 287.832 215.733 287.872 218.1C287.933 220.753 287.757 223.405 287.347 226.026V226.118C287.727 225.358 288.867 223.275 288.974 223.131C290.494 221.018 294.575 217.811 297.333 218.67C297.788 218.825 298.205 219.075 298.557 219.402C298.909 219.729 299.188 220.127 299.376 220.57C299.564 221.012 299.657 221.489 299.648 221.97C299.639 222.451 299.529 222.924 299.324 223.359C298.526 225.236 296.285 226.353 294.4 226.824C292.287 227.349 287.644 226.49 287.271 226.422C286.789 229.077 286.129 231.698 285.295 234.265C284.817 235.784 284.292 237.259 283.776 238.748C284.125 238.102 284.444 237.532 284.497 237.456C286.017 235.344 290.106 232.137 292.857 232.995C293.312 233.151 293.729 233.4 294.081 233.728C294.433 234.055 294.713 234.452 294.901 234.895C295.09 235.337 295.183 235.814 295.175 236.294C295.167 236.775 295.059 237.249 294.856 237.684C294.05 239.569 291.816 240.679 289.924 241.15C288.031 241.621 284.049 240.975 283 240.785L282.362 242.495C281.313 245.231 280.257 247.952 279.322 250.649C278.988 251.599 278.691 252.549 278.395 253.499C278.707 252.929 278.973 252.451 279.018 252.382C280.538 250.269 284.627 247.062 287.378 247.921C287.832 248.077 288.248 248.327 288.6 248.655C288.951 248.983 289.229 249.38 289.417 249.822C289.605 250.264 289.698 250.741 289.689 251.221C289.681 251.702 289.572 252.175 289.369 252.61C288.563 254.487 286.329 255.604 284.437 256.076C282.544 256.547 278.95 255.954 277.703 255.741C277.43 256.722 277.149 257.702 276.943 258.667C276.807 259.328 276.624 259.959 276.525 260.628C276.427 261.297 276.297 261.95 276.183 262.596C276.009 263.858 275.826 265.157 275.689 266.396C275.583 267.255 275.499 268.075 275.416 268.896C275.743 267.946 276.419 266.1 276.487 265.948C277.553 263.932 279.118 262.223 281.032 260.985C281.139 260.755 281.271 260.539 281.427 260.339C281.702 259.945 282.057 259.614 282.469 259.367C282.881 259.119 283.34 258.961 283.817 258.903C284.294 258.845 284.777 258.888 285.236 259.03C285.695 259.171 286.119 259.407 286.481 259.723C288.609 261.684 287.895 266.852 286.808 269.2C286.739 269.337 285.881 270.758 285.288 271.647C285.698 271.176 286.093 270.713 286.519 270.234C287.355 269.276 288.214 268.341 289.141 267.338L290.539 265.91C291.003 265.431 291.55 264.975 292.059 264.496C293.252 263.417 294.514 262.376 295.813 261.365C294.977 260.605 292.014 257.983 291.254 256.22C290.494 254.457 289.901 252.01 290.866 250.209C291.078 249.777 291.379 249.395 291.749 249.087C292.119 248.779 292.549 248.553 293.012 248.422C293.475 248.292 293.961 248.26 294.437 248.33C294.913 248.399 295.369 248.568 295.775 248.825C298.177 250.444 298.245 255.665 297.531 258.15C297.485 258.302 296.771 260.027 296.361 260.962C297.121 260.362 297.918 259.754 298.732 259.169C301.08 257.474 303.504 255.832 305.921 254.191L308.117 252.671C307.821 252.413 304.264 249.342 303.352 247.351C302.547 245.596 302.007 243.141 302.972 241.34C303.184 240.908 303.485 240.526 303.855 240.218C304.225 239.91 304.656 239.684 305.119 239.554C305.583 239.424 306.068 239.394 306.544 239.464C307.02 239.535 307.476 239.705 307.882 239.964C310.276 241.575 310.352 246.804 309.637 249.281C309.584 249.464 308.55 251.949 308.254 252.565C309.873 251.44 311.469 250.285 312.996 249.129C315.072 247.548 317.042 245.831 318.894 243.992C318.757 243.871 315.033 240.679 314.098 238.672C313.293 236.924 312.753 234.462 313.718 232.661C313.93 232.23 314.231 231.849 314.6 231.542C314.97 231.235 315.4 231.009 315.862 230.879C316.325 230.75 316.809 230.719 317.284 230.789C317.759 230.859 318.215 231.028 318.62 231.285C321.021 232.904 321.097 238.125 320.375 240.603C320.322 240.8 319.213 243.468 318.977 243.931L319.312 243.62C321.116 241.724 322.749 239.671 324.191 237.487C325.004 236.286 325.71 235.1 326.379 233.93C325.619 233.406 322.199 230.974 321.166 229.249C320.132 227.524 319.365 225.213 320.125 223.321C320.288 222.869 320.545 222.456 320.879 222.109C321.212 221.762 321.615 221.49 322.061 221.309C322.507 221.129 322.986 221.044 323.467 221.061C323.947 221.077 324.419 221.195 324.852 221.406C327.413 222.751 328.059 227.934 327.618 230.48C327.618 230.617 327.192 232 326.858 232.995C327.147 232.463 327.458 231.916 327.732 231.399C328.75 229.462 329.556 227.6 330.263 225.996C330.658 225.061 331.023 224.21 331.304 223.412C330.825 222.515 328.971 218.852 328.842 216.892C328.712 214.931 329.108 212.476 330.65 211.146C331.004 210.82 331.422 210.572 331.878 210.419C332.333 210.265 332.816 210.209 333.295 210.254C333.774 210.299 334.238 210.445 334.657 210.681C335.076 210.917 335.44 211.239 335.727 211.625C337.384 213.996 335.567 218.89 334.009 220.95C333.872 221.132 331.433 223.663 331.41 223.617V223.564C331.137 224.324 330.825 225.168 330.468 226.064C329.799 227.714 329.024 229.576 328.044 231.544C327.013 233.677 325.859 235.748 324.586 237.745C323.177 239.992 321.567 242.106 319.775 244.061L319.707 244.129C320.467 243.703 322.541 242.609 322.747 242.533C325.148 241.591 330.346 241.188 332.185 243.43C332.479 243.81 332.689 244.248 332.802 244.716C332.914 245.183 332.928 245.668 332.84 246.141C332.753 246.613 332.567 247.062 332.294 247.458C332.021 247.854 331.668 248.188 331.258 248.438C329.556 249.585 327.056 249.251 325.239 248.605Z" fill="#333333"/>
<path d="M287.667 213.457C287.613 213.457 288.427 210.037 288.495 209.824C289.369 207.392 292.5 203.212 295.388 203.311C295.867 203.341 296.335 203.472 296.761 203.695C297.187 203.918 297.561 204.229 297.859 204.606C298.157 204.982 298.373 205.418 298.492 205.884C298.611 206.349 298.63 206.835 298.549 207.308C298.276 209.338 296.391 211.01 294.711 211.952C292.736 213.061 287.667 213.457 287.667 213.457Z" fill="#333333"/>
</g>
<g clip-path="url(#clip0_6_1645)">
<path d="M206.471 178.939C206.471 178.939 221.349 210.721 221.349 212.384C221.349 214.047 208.148 221.245 205.633 222.754C203.69 223.871 201.685 224.874 199.626 225.759L201.121 240.476C201.121 240.476 223.849 235.291 233.376 230.106C242.903 224.92 242.568 219.078 240.361 210.385C238.154 201.692 223.472 168.079 223.472 168.079L206.471 178.939Z" fill="white"/>
<mask id="mask1_6_1645" style="mask-type:luminance" maskUnits="userSpaceOnUse" x="199" y="168" width="43" height="73">
<path d="M206.471 178.939C206.471 178.939 221.349 210.721 221.349 212.384C221.349 214.047 208.148 221.245 205.633 222.754C203.69 223.871 201.685 224.874 199.626 225.759L201.121 240.476C201.121 240.476 223.849 235.291 233.376 230.106C242.903 224.92 242.568 219.078 240.361 210.385C238.154 201.692 223.472 168.079 223.472 168.079L206.471 178.939Z" fill="white"/>
</mask>
<g mask="url(#mask1_6_1645)">
<g style="mix-blend-mode:multiply" opacity="0.5">
<path d="M233.376 230.05C242.903 224.879 242.568 219.023 240.361 210.329C238.154 201.636 223.472 168.024 223.472 168.024L221.111 169.533L220.343 170.931C220.343 170.931 234.047 204.571 234.871 215.78C235.43 223.313 220.273 232.705 210.257 238.072C217.717 236.115 227.802 233.083 233.376 230.05Z" fill="#FFC700"/>
</g>
</g>
<path d="M206.471 178.939C206.471 178.939 221.349 210.721 221.349 212.384C221.349 214.047 208.148 221.245 205.633 222.754C203.69 223.871 201.685 224.874 199.626 225.759L201.121 240.476C201.121 240.476 223.849 235.291 233.376 230.106C242.903 224.92 242.568 219.078 240.361 210.385C238.154 201.692 223.472 168.079 223.472 168.079L206.471 178.939Z" stroke="#263238" stroke-linecap="round" stroke-linejoin="round"/>
<path d="M99.174 171.867C99.174 171.867 88.3199 211.657 87.9986 218.687C87.6773 225.717 109.553 239.581 110.349 240.42C111.146 241.259 109.106 216.241 109.106 216.241L116.538 179.903L99.174 171.867Z" fill="white"/>
<mask id="mask2_6_1645" style="mask-type:luminance" maskUnits="userSpaceOnUse" x="87" y="171" width="30" height="70">
<path d="M99.174 171.867C99.174 171.867 88.3199 211.657 87.9986 218.687C87.6773 225.717 109.553 239.581 110.349 240.42C111.146 241.259 109.106 216.241 109.106 216.241L116.538 179.903L99.174 171.867Z" fill="white"/>
</mask>
<g mask="url(#mask2_6_1645)">
<g style="mix-blend-mode:multiply" opacity="0.5">
<path d="M104.161 175.123L103.91 174.047L99.174 171.867C99.174 171.867 88.3199 211.657 87.9986 218.687C87.6773 225.717 109.553 239.581 110.349 240.42C110.685 240.755 110.559 237.01 110.279 232.384C103.77 226.793 94.4245 219.106 93.3349 215.822" fill="#FFC700"/>
</g>
</g>
<path d="M99.174 171.867C99.174 171.867 88.3199 211.657 87.9986 218.687C87.6773 225.717 109.553 239.581 110.349 240.42C111.146 241.259 109.106 216.241 109.106 216.241L116.538 179.903L99.174 171.867Z" stroke="#263238" stroke-linecap="round" stroke-linejoin="round"/>
<path d="M150.148 131.909C150.148 131.909 145.957 134.914 137.785 135.249C129.613 135.585 129.222 129.659 119.066 129.659C106.773 129.659 91.3232 168.625 91.3232 168.625C91.3232 168.625 99.0063 176.144 106.536 179.316C110.699 181.15 115.079 182.446 119.569 183.174L120.742 208.75H203.636L204.641 183.174L230.54 166.36C230.54 166.36 217.842 143.621 211.654 135.096C205.466 126.57 195.114 129.743 191.929 131.923C188.744 134.103 179.357 134.593 175.893 134.089C172.428 133.586 162.524 130.414 162.524 130.414C162.524 130.414 157.174 125.83 150.148 131.909Z" fill="#FFC700" stroke="#263238" stroke-linecap="round" stroke-linejoin="round"/>
<path d="M120.407 140.938L120.072 183.397" stroke="#263238" stroke-width="0.5" stroke-linecap="round" stroke-linejoin="round"/>
<path d="M123.411 144.781C123.411 144.781 124.584 165.508 128.998 177.052" stroke="#263238" stroke-width="0.5" stroke-linecap="round" stroke-linejoin="round"/>
<path d="M129.767 178.729C130.723 181.546 131.895 184.284 133.273 186.919" stroke="#263238" stroke-width="0.5" stroke-linecap="round" stroke-linejoin="round"/>
<path d="M126.093 142.433C127.669 149.975 129.904 157.364 132.77 164.516" stroke="#263238" stroke-width="0.5" stroke-linecap="round" stroke-linejoin="round"/>
<path d="M198.118 146.123C198.118 146.123 194.109 162.503 190.602 169.882" stroke="#263238" stroke-width="0.5" stroke-linecap="round" stroke-linejoin="round"/>
<path d="M204.627 183.23L204.46 150.134" stroke="#263238" stroke-width="0.5" stroke-linecap="round" stroke-linejoin="round"/>
<path d="M202.798 150.805C202.798 150.805 199.794 171.699 192.432 182.74" stroke="#263238" stroke-width="0.5" stroke-linecap="round" stroke-linejoin="round"/>
<path d="M199.124 178.562C199.124 178.562 195.771 184.907 193.438 188.247" stroke="#263238" stroke-width="0.5" stroke-linecap="round" stroke-linejoin="round"/>
<path d="M145.468 134.411C145.468 134.411 147.815 148.792 151.153 156.144C154.492 163.495 160.345 165.005 165.36 162.838C170.375 160.672 174.049 149.966 173.742 136.284" stroke="#263238" stroke-width="0.5" stroke-linecap="round" stroke-linejoin="round"/>
<path d="M133.664 104.32C133.664 104.32 130.493 98.7298 127.979 101.637C125.464 104.544 129.99 111.001 132.491 113.181C134.991 115.361 136.835 114.02 136.681 111.672C136.528 109.324 133.664 104.32 133.664 104.32Z" fill="#FFC700" stroke="#263238" stroke-linecap="round" stroke-linejoin="round"/>
<path opacity="0.5" d="M133.664 104.32C133.664 104.32 130.493 98.7298 127.979 101.637C125.464 104.544 129.99 111.001 132.491 113.181C134.991 115.361 136.835 114.02 136.681 111.672C136.528 109.324 133.664 104.32 133.664 104.32Z" fill="white"/>
<path d="M133.664 104.32C133.664 104.32 130.493 98.7298 127.979 101.637C125.464 104.544 129.99 111.001 132.491 113.181C134.991 115.361 136.835 114.02 136.681 111.672C136.528 109.324 133.664 104.32 133.664 104.32Z" stroke="#263238" stroke-linecap="round" stroke-linejoin="round"/>
<path d="M184.191 104.32C184.191 104.32 187.362 98.7298 189.876 101.637C192.391 104.544 187.864 111.001 185.364 113.181C182.864 115.361 181.02 114.02 181.173 111.672C181.327 109.324 184.191 104.32 184.191 104.32Z" fill="#FFC700" stroke="#263238" stroke-linecap="round" stroke-linejoin="round"/>
<path opacity="0.5" d="M184.191 104.32C184.191 104.32 187.362 98.7298 189.876 101.637C192.391 104.544 187.864 111.001 185.364 113.181C182.864 115.361 181.02 114.02 181.173 111.672C181.327 109.324 184.191 104.32 184.191 104.32Z" fill="white"/>
<path d="M184.191 104.32C184.191 104.32 187.362 98.7298 189.876 101.637C192.391 104.544 187.864 111.001 185.364 113.181C182.864 115.361 181.02 114.02 181.173 111.672C181.327 109.324 184.191 104.32 184.191 104.32Z" stroke="#263238" stroke-linecap="round" stroke-linejoin="round"/>
<path d="M148.653 130.735C150.223 137.872 152.229 144.906 154.66 151.797C157.677 159.33 163.348 159.33 165.695 154.481C168.042 149.631 169.537 131.574 169.537 131.574C169.537 131.574 153.835 133.74 148.653 130.735Z" fill="white" stroke="#263238" stroke-linecap="round" stroke-linejoin="round"/>
<path d="M133.943 106.151C133.943 106.151 138.288 121.525 146.516 130.567C154.744 139.61 157.691 141.748 162.063 141.105C166.436 140.463 171.088 134.746 177.597 122.936C184.107 111.127 184.582 101.972 185.127 101.19C185.671 100.407 183.73 83.6355 174.426 76.4518C165.123 69.268 154.702 66.0815 145.678 73.9361C136.653 81.7907 130.94 94.6208 133.943 106.151Z" fill="white"/>
<mask id="mask3_6_1645" style="mask-type:luminance" maskUnits="userSpaceOnUse" x="133" y="69" width="53" height="73">
<path d="M133.943 106.151C133.943 106.151 138.288 121.525 146.516 130.567C154.744 139.61 157.691 141.748 162.063 141.105C166.436 140.463 171.088 134.746 177.597 122.936C184.107 111.127 184.582 101.972 185.127 101.19C185.671 100.407 183.73 83.6355 174.426 76.4518C165.123 69.268 154.702 66.0815 145.678 73.9361C136.653 81.7907 130.94 94.6208 133.943 106.151Z" fill="white"/>
</mask>
<g mask="url(#mask3_6_1645)">
<g style="mix-blend-mode:multiply" opacity="0.5">
<path d="M174.384 76.3959C165.025 69.1982 154.66 66.0256 145.636 73.8802C136.612 81.7348 130.94 94.6208 133.943 106.151C133.943 106.151 134.782 109.114 136.402 113.139C136.397 112.624 136.468 112.111 136.612 111.616C138.609 105.299 144.504 93.0275 164.354 98.6459C180.098 103.104 178.17 116.955 176.703 124.362C176.983 123.859 177.276 123.356 177.555 122.825C184.079 110.945 184.54 101.86 185.085 101.078C185.63 100.295 183.744 83.5796 174.384 76.3959Z" fill="#FFC700"/>
</g>
</g>
<path d="M133.943 106.151C133.943 106.151 138.288 121.525 146.516 130.567C154.744 139.61 157.691 141.748 162.063 141.105C166.436 140.463 171.088 134.746 177.597 122.936C184.107 111.127 184.582 101.972 185.127 101.19C185.671 100.407 183.73 83.6355 174.426 76.4518C165.123 69.268 154.702 66.0815 145.678 73.9361C136.653 81.7907 130.94 94.6208 133.943 106.151Z" stroke="#263238" stroke-linecap="round" stroke-linejoin="round"/>
<path d="M162.021 114.187C161.503 117.447 161.223 120.74 161.183 124.041C161.351 127.395 162.357 128.387 160.848 128.723C159.339 129.058 157.677 126.724 157.677 126.724" stroke="#263238" stroke-linecap="round" stroke-linejoin="round"/>
<path d="M145.3 116.857C146.269 117.557 147.426 117.947 148.62 117.977C149.814 118.007 150.989 117.675 151.992 117.025" stroke="#263238" stroke-linecap="round" stroke-linejoin="round"/>
<path d="M166.533 116.857C167.5 117.555 168.654 117.945 169.846 117.975C171.038 118.005 172.211 117.674 173.211 117.025" stroke="#263238" stroke-linecap="round" stroke-linejoin="round"/>
<path d="M156.015 111.224C156.015 111.224 152.844 103.37 142.311 107.032" stroke="#263238" stroke-linecap="round" stroke-linejoin="round"/>
<path d="M164.731 110.26C164.731 110.26 167.4 102.559 176.927 107.088" stroke="#263238" stroke-linecap="round" stroke-linejoin="round"/>
<path d="M42.5568 251.517L41.8724 420.936C41.8705 421.201 41.9213 421.463 42.0217 421.708C42.1221 421.953 42.2702 422.176 42.4574 422.363C42.6445 422.551 42.867 422.699 43.1119 422.799C43.3568 422.9 43.6193 422.95 43.8839 422.949C44.4055 422.949 44.9069 422.746 45.2822 422.384C45.6575 422.022 45.8774 421.527 45.8955 421.006L50.7148 251.741L42.5568 251.517Z" fill="white" stroke="#263238" stroke-linecap="round" stroke-linejoin="round"/>
<path d="M31.1581 291.112L30.4736 466.275C30.4699 466.539 30.5188 466.802 30.6175 467.048C30.7163 467.294 30.8628 467.517 31.0487 467.706C31.2345 467.895 31.456 468.044 31.7002 468.146C31.9444 468.249 32.2065 468.301 32.4712 468.301C32.9928 468.302 33.4941 468.099 33.8694 467.737C34.2447 467.374 34.4646 466.88 34.4827 466.359L39.3021 291.349L31.1581 291.112Z" fill="white" stroke="#263238" stroke-linecap="round" stroke-linejoin="round"/>
<path d="M276.681 251.517L277.379 420.936C277.381 421.201 277.33 421.463 277.23 421.708C277.129 421.953 276.981 422.176 276.794 422.363C276.607 422.551 276.384 422.699 276.14 422.799C275.895 422.9 275.632 422.95 275.368 422.949C274.846 422.949 274.345 422.746 273.969 422.384C273.594 422.022 273.374 421.527 273.356 421.006L268.537 251.741L276.681 251.517Z" fill="white" stroke="#263238" stroke-linecap="round" stroke-linejoin="round"/>
<path d="M288.094 291.112L288.722 466.275C288.715 466.79 288.509 467.283 288.147 467.651C287.785 468.018 287.296 468.231 286.78 468.245C286.259 468.246 285.757 468.043 285.382 467.681C285.007 467.318 284.787 466.824 284.769 466.303L279.949 291.293L288.094 291.112Z" fill="white" stroke="#263238" stroke-linecap="round" stroke-linejoin="round"/>
<path d="M110.531 298.393L110.098 453.864C110.054 454.254 110.164 454.646 110.403 454.956C110.643 455.266 110.995 455.471 111.383 455.527C111.758 455.475 112.1 455.28 112.336 454.984C112.573 454.687 112.686 454.312 112.654 453.934L115.713 298.589L110.531 298.393Z" fill="white" stroke="#263238" stroke-linecap="round" stroke-linejoin="round"/>
<path d="M208.888 293.39L209.265 429.084C209.301 429.411 209.209 429.739 209.009 430C208.808 430.26 208.515 430.433 208.19 430.482C207.863 430.436 207.567 430.265 207.366 430.003C207.165 429.742 207.074 429.412 207.114 429.084L204.516 293.515L208.888 293.39Z" fill="white" stroke="#263238" stroke-linecap="round" stroke-linejoin="round"/>
<path d="M109.008 293.39L109.386 429.084C109.422 429.411 109.33 429.739 109.129 430C108.929 430.26 108.635 430.433 108.31 430.482C107.983 430.436 107.687 430.265 107.486 430.003C107.285 429.742 107.194 429.412 107.234 429.084L104.636 293.515L109.008 293.39Z" fill="white" stroke="#263238" stroke-linecap="round" stroke-linejoin="round"/>
<path d="M206.08 298.393L206.513 453.864C206.565 454.253 206.46 454.647 206.222 454.958C205.983 455.27 205.631 455.475 205.242 455.527C204.865 455.478 204.522 455.284 204.285 454.987C204.048 454.69 203.935 454.312 203.971 453.934L200.898 298.589L206.08 298.393Z" fill="white" stroke="#263238" stroke-linecap="round" stroke-linejoin="round"/>
<path d="M157.621 309.281C191.953 309.281 219.784 302.917 219.784 295.067C219.784 287.217 191.953 280.853 157.621 280.853C123.29 280.853 95.4583 287.217 95.4583 295.067C95.4583 302.917 123.29 309.281 157.621 309.281Z" fill="white" stroke="#263238" stroke-linecap="round" stroke-linejoin="round"/>
<path d="M129.222 318.826C129.347 313.096 132.658 310.273 132.91 306.345C133.31 301.14 132.881 295.903 131.638 290.832L125.268 282.111C106.941 282.348 93.8098 282.656 93.6002 282.726C92.9018 282.963 92.4408 286.919 91.9658 290.175C91.9658 290.175 84.1989 291.167 85.5959 312.83C85.7914 315.863 93.6421 350.79 94.2009 354.759C97.6932 379.105 105.474 391.293 105.474 391.293C105.474 391.293 106.173 394.311 115.252 393.613C124.332 392.914 133.412 386.862 133.412 386.862C133.412 386.862 128.761 339.567 129.222 318.826Z" fill="#263238" stroke="#263238" stroke-linecap="round" stroke-linejoin="round"/>
<path d="M90.7088 286.625C90.7088 286.625 81.084 288.023 75.189 294.759C69.294 301.496 74.295 305.94 85.7637 304.752C97.2324 303.564 110.419 291.81 110.992 291.181C111.565 290.552 99.0344 282.642 90.7088 286.625Z" fill="white" stroke="#263238" stroke-linecap="round" stroke-linejoin="round"/>
<path d="M107.807 290.874C113.938 291.198 120.022 292.135 125.967 293.669C133.874 296.003 147.843 300.657 151.112 300.657C154.38 300.657 153.43 288.554 153.43 286.22C153.43 283.886 111.523 282.488 106.41 282.488C101.297 282.488 107.807 290.874 107.807 290.874Z" fill="white" stroke="#263238" stroke-linecap="round" stroke-linejoin="round"/>
<path d="M153.43 286.22C153.43 286.22 149.715 288.079 148.318 295.067C146.921 302.055 145.049 305.786 147.843 307.645C150.636 309.504 162.748 310.916 164.606 309.043C166.464 307.17 171.59 297.862 172.526 291.81C173.462 285.759 153.43 286.22 153.43 286.22Z" fill="#FFC700" stroke="#263238" stroke-linecap="round" stroke-linejoin="round"/>
<path d="M169.271 288.554C167.099 291.038 165.366 293.874 164.145 296.94C163.157 300.147 162.378 303.415 161.812 306.723C166.271 307.945 170.633 309.5 174.859 311.377C182.305 314.633 194.877 316.967 206.988 319.763C219.099 322.558 222.354 325.353 226.545 325.353C230.736 325.353 235.849 322.097 242.372 314.172C248.896 306.248 243.308 289.476 236.784 284.361C230.261 279.246 195.338 275.039 190.686 276.437C186.034 277.834 169.271 288.554 169.271 288.554Z" fill="#263238" stroke="#263238" stroke-linecap="round" stroke-linejoin="round"/>
<path d="M81.978 304.934C81.0034 300.762 79.0926 296.867 76.3903 293.543C75.9572 293.949 75.5382 294.382 75.1331 294.829C70.0064 300.643 73.2612 304.808 81.978 304.934Z" fill="#FFC700" stroke="#263238" stroke-linecap="round" stroke-linejoin="round"/>
<path d="M128.509 308.624C128.509 308.624 123.704 360.056 113.897 368.064" stroke="white" stroke-width="0.5" stroke-linecap="round" stroke-linejoin="round"/>
<path d="M186.956 299.26C186.956 299.26 172.065 300.196 181.844 306.723C191.622 313.25 209.307 317.429 209.307 317.429" stroke="white" stroke-width="0.5" stroke-linecap="round" stroke-linejoin="round"/>
<path d="M295.176 281.636L290.119 277.107L278.511 251.95C277.957 250.805 277.089 249.84 276.008 249.17C274.927 248.499 273.678 248.15 272.406 248.163H46.6638C45.3916 248.148 44.1417 248.497 43.0605 249.168C41.9793 249.838 41.1116 250.804 40.5592 251.95L26.1011 283.313L23.7124 282.432V289.602L23.8381 289.518C23.9745 290.479 24.4576 291.356 25.1962 291.984C25.9349 292.612 26.878 292.948 27.8473 292.928H291.264C292.283 292.948 293.27 292.575 294.019 291.885C294.769 291.194 295.223 290.242 295.288 289.225L295.176 281.636Z" fill="#263238" stroke="#263238" stroke-linecap="round" stroke-linejoin="round"/>
<path d="M291.264 286.332H27.8333C27.1816 286.359 26.5335 286.22 25.9499 285.929C25.3663 285.637 24.8661 285.202 24.4962 284.665C24.1264 284.127 23.8989 283.504 23.8351 282.855C23.7713 282.205 23.8733 281.55 24.1315 280.951L40.5732 245.396C41.127 244.25 41.9949 243.286 43.0758 242.615C44.1567 241.944 45.406 241.595 46.6778 241.608H272.42C273.691 241.597 274.94 241.947 276.021 242.617C277.101 243.288 277.969 244.251 278.525 245.396L294.966 280.965C295.221 281.564 295.321 282.217 295.256 282.865C295.19 283.512 294.962 284.133 294.593 284.668C294.223 285.204 293.724 285.637 293.142 285.928C292.56 286.219 291.914 286.358 291.264 286.332Z" fill="white" stroke="#263238" stroke-linecap="round" stroke-linejoin="round"/>
<g style="mix-blend-mode:multiply" opacity="0.5">
<path d="M41.1738 262.46C41.1738 262.46 35.209 266.569 38.9248 268.051C42.6406 269.532 85.54 268.414 90.7505 266.919C95.961 265.423 101.926 251.629 101.926 249.393C101.926 247.157 94.4104 245.563 91.6445 245.423C88.8786 245.284 52.3352 247.534 52.3352 247.534L41.1738 262.46Z" fill="#FFC700"/>
</g>
<g style="mix-blend-mode:multiply" opacity="0.5">
<path d="M254.414 269.56C262.854 269.56 269.696 266.719 269.696 263.215C269.696 259.711 262.854 256.87 254.414 256.87C245.973 256.87 239.131 259.711 239.131 263.215C239.131 266.719 245.973 269.56 254.414 269.56Z" fill="#FFC700"/>
</g>
<g style="mix-blend-mode:multiply" opacity="0.5">
<path d="M157.118 277.387C187.384 277.387 211.919 272.794 211.919 267.128C211.919 261.463 187.384 256.87 157.118 256.87C126.852 256.87 102.317 261.463 102.317 267.128C102.317 272.794 126.852 277.387 157.118 277.387Z" fill="#FFC700"/>
</g>
<path d="M243.238 238.254C243.238 238.254 242.233 234.228 238.894 235.57C235.555 236.912 235.891 245.773 236.561 250.79C237.232 255.808 241.73 253.46 241.73 253.46V250.455C241.73 250.455 240.067 251.852 239.229 249.952C238.391 248.051 238.559 238.911 239.397 239.078C240.235 239.246 241.897 242.097 241.897 242.097C241.897 242.097 242.4 241.832 243.238 238.254Z" fill="#FFC700" stroke="#263238" stroke-linecap="round" stroke-linejoin="round"/>
<path d="M240.836 238.911V260.895C240.836 263.467 246.773 265.563 254.106 265.563C261.44 265.563 267.363 263.467 267.363 260.895V238.911H240.836Z" fill="#FFC700" stroke="#263238" stroke-linecap="round" stroke-linejoin="round"/>
<path d="M267.363 238.911C267.363 241.147 261.426 242.95 254.106 242.95C246.787 242.95 240.836 241.147 240.836 238.911C240.836 236.674 246.773 234.871 254.106 234.871C261.44 234.871 267.363 236.688 267.363 238.911Z" fill="white" stroke="#263238" stroke-linecap="round" stroke-linejoin="round"/>
<path d="M265.631 238.911C265.631 240.853 260.476 242.433 254.106 242.433C247.736 242.433 242.568 240.853 242.568 238.911C242.568 236.968 247.736 235.403 254.106 235.403C260.476 235.403 265.631 236.982 265.631 238.911Z" fill="white" stroke="#263238" stroke-linecap="round" stroke-linejoin="round"/>
<path d="M245.208 241.147C248.083 242.065 251.09 242.499 254.106 242.433C257.119 242.5 260.121 242.066 262.991 241.147C260.119 240.24 257.117 239.81 254.106 239.875C251.091 239.812 248.085 240.241 245.208 241.147Z" fill="#263238" stroke="#263238" stroke-linecap="round" stroke-linejoin="round"/>
<path d="M39.5115 248.946L39.6791 256.479L90.3174 256.968V248.275L39.5115 248.946Z" fill="white" stroke="#263238" stroke-linecap="round" stroke-linejoin="round"/>
<path d="M90.3174 256.968L97.6792 241.091V236.409L89.9822 249.784L90.3174 256.968Z" fill="white" stroke="#263238" stroke-linecap="round" stroke-linejoin="round"/>
<path d="M39.5115 255.808L39.6791 263.327L90.3174 263.83V255.137L39.5115 255.808Z" fill="white" stroke="#263238" stroke-linecap="round" stroke-linejoin="round"/>
<path d="M90.3174 263.83L97.6792 247.939V243.257L89.9822 256.632L90.3174 263.83Z" fill="white" stroke="#263238" stroke-linecap="round" stroke-linejoin="round"/>
<path d="M59.0685 229.882C59.0685 229.882 60.2419 227.548 58.5656 226.542C56.8893 225.535 55.0593 227.939 54.0535 228.722C53.0477 229.505 31.9961 243.425 31.3256 245.605C30.6551 247.785 31.3256 252.593 35.8377 253.124C40.3497 253.655 44.3589 250.623 46.3704 250.119C48.382 249.616 49.1643 249.449 49.1643 249.449L63.0357 230.721L59.0685 229.882Z" fill="white" stroke="#263238" stroke-linecap="round" stroke-linejoin="round"/>
<path d="M35.8794 253.124C40.3915 253.627 44.4006 250.623 46.4122 250.119C48.4238 249.616 49.2061 249.449 49.2061 249.449L49.7089 248.778L36.6757 246.108C35.9671 245.441 35.0561 245.028 34.087 244.937C33.1178 244.846 32.146 245.081 31.3255 245.605C30.655 247.785 31.3255 252.621 35.8794 253.124Z" fill="white" stroke="#263238" stroke-linecap="round" stroke-linejoin="round"/>
<path d="M36.6758 246.108H75.7895C87.9846 246.108 91.6585 245.437 91.6585 245.437L99.174 229.882C99.174 229.882 75.4263 231.391 68.0925 230.888C65.062 230.801 62.0438 230.464 59.0684 229.882L36.6758 246.108Z" fill="white" stroke="#263238" stroke-linecap="round" stroke-linejoin="round"/>
<path d="M36.6758 246.108L37.3463 249.113C37.3463 249.113 69.0983 249.281 77.4519 249.281C85.8054 249.281 92.1614 249.616 92.1614 249.616L91.6585 245.423L36.6758 246.108Z" fill="white" stroke="#263238" stroke-linecap="round" stroke-linejoin="round"/>
<path d="M92.1613 249.616L99.1739 233.558V229.882L91.6584 245.437L92.1613 249.616Z" fill="white" stroke="#263238" stroke-linecap="round" stroke-linejoin="round"/>
<path d="M204.977 268.386H109.218C109.006 268.388 108.797 268.348 108.601 268.268C108.405 268.188 108.227 268.069 108.078 267.92C107.928 267.77 107.81 267.592 107.73 267.396C107.65 267.2 107.61 266.991 107.611 266.779C107.611 266.353 107.781 265.944 108.082 265.643C108.383 265.341 108.792 265.172 109.218 265.172H204.977C205.403 265.172 205.811 265.341 206.113 265.643C206.414 265.944 206.583 266.353 206.583 266.779C206.585 266.991 206.545 267.2 206.465 267.396C206.385 267.592 206.266 267.77 206.117 267.92C205.967 268.069 205.789 268.188 205.594 268.268C205.398 268.348 205.188 268.388 204.977 268.386Z" fill="white" stroke="#263238" stroke-linecap="round" stroke-linejoin="round"/>
<path d="M205.787 265.172H108.394C108.035 265.172 107.69 265.035 107.43 264.787C107.17 264.54 107.015 264.202 106.997 263.844L101.688 200.183C101.665 199.986 101.683 199.786 101.742 199.596C101.802 199.407 101.901 199.232 102.033 199.084C102.165 198.936 102.327 198.818 102.509 198.737C102.69 198.657 102.887 198.616 103.085 198.617H211.081C211.28 198.616 211.476 198.657 211.657 198.737C211.839 198.818 212.001 198.936 212.133 199.084C212.265 199.232 212.364 199.407 212.424 199.596C212.483 199.786 212.502 199.986 212.478 200.183L207.184 263.844C207.166 264.202 207.011 264.54 206.751 264.787C206.491 265.035 206.145 265.172 205.787 265.172Z" fill="white" stroke="#263238" stroke-linecap="round" stroke-linejoin="round"/>
<path d="M166.282 232.999C166.282 236.786 162.161 239.861 157.09 239.861C152.019 239.861 147.898 236.786 147.898 232.999C147.898 229.211 152.005 226.122 157.09 226.122C162.175 226.122 166.282 229.253 166.282 232.999Z" fill="white" stroke="#263238" stroke-linecap="round" stroke-linejoin="round"/>
<path d="M261.454 183.23C262.946 182.055 263.995 180.41 264.43 178.561C264.746 177.177 264.712 175.736 264.332 174.369" stroke="#263238" stroke-linecap="round" stroke-linejoin="round"/>
<path d="M250.307 233.097C250.307 233.097 259.61 227.506 256.565 221.119C253.52 214.732 243.294 210.511 243.294 200.546C243.294 191.965 252.416 188.792 258.353 185.354" stroke="#263238" stroke-linecap="round" stroke-linejoin="round"/>
<path d="M258.898 232.929C258.898 232.929 264.08 229.477 264.08 223.984C264.08 220.308 260.141 217.904 254.958 212.006" stroke="#263238" stroke-linecap="round" stroke-linejoin="round"/>
<path d="M252.095 208.429C252.095 208.429 248.7 205.745 251.201 200.742" stroke="#263238" stroke-linecap="round" stroke-linejoin="round"/>
<path d="M173.448 62.0144C175.111 61.679 178.673 60.2954 181.076 54.7329C181.114 54.6488 181.136 54.5576 181.139 54.465C181.141 54.3723 181.125 54.2801 181.091 54.1938C181.057 54.1076 181.006 54.0291 180.941 53.9632C180.876 53.8973 180.798 53.8453 180.712 53.8104C180.629 53.7737 180.539 53.7539 180.448 53.7523C180.357 53.7508 180.267 53.7674 180.182 53.8012C180.097 53.8351 180.02 53.8855 179.956 53.9494C179.891 54.0134 179.839 54.0897 179.804 54.1738C177.583 59.2751 174.426 60.4072 173.113 60.6587C175.467 57.8158 176.765 54.2456 176.787 50.554C176.787 40.8685 167.819 32.9999 156.741 32.9999C145.664 32.9999 136.681 40.8685 136.681 50.554C136.685 54.099 137.869 57.5417 140.048 60.3373C137.939 60.2255 134.377 61.12 129.85 66.389C129.732 66.5326 129.675 66.7168 129.69 66.9022C129.706 67.0876 129.794 67.2595 129.934 67.3813C130.058 67.489 130.217 67.5486 130.381 67.549C130.483 67.5491 130.583 67.5266 130.675 67.4831C130.767 67.4396 130.848 67.3761 130.912 67.2974C136.681 60.5749 140.495 61.7069 141.277 62.0144C139.969 62.7323 138.741 63.5898 137.617 64.5721C131.178 70.3722 127.252 81.3434 127.755 90.4978C128.313 96.5619 130.51 102.36 134.111 107.269C138.786 103.923 142.664 99.5849 145.468 94.5649C147.556 90.8686 149.422 87.0509 151.056 83.1324C151.056 87.2414 151.601 92.1889 153.738 95.7109C155.292 98.5026 157.566 100.827 160.322 102.441C163.079 104.056 166.217 104.903 169.411 104.893C170.514 104.902 171.614 104.794 172.694 104.572C172.789 104.545 172.878 104.499 172.955 104.436C173.032 104.374 173.095 104.296 173.141 104.208C178.533 105.354 183.897 105.257 184.721 104.125C186.118 102.28 187.948 96.5774 188.563 89.5754C189.639 77.7236 182.165 67.4232 173.448 62.0144ZM154.953 94.8444C152.257 90.414 152.327 83.1883 152.662 79.0374C152.76 78.7439 152.83 78.5622 152.83 78.5622C152.962 82.8308 154.051 87.0151 156.017 90.8059C157.982 94.5967 160.775 97.897 164.187 100.463C166.068 101.776 168.162 102.754 170.375 103.356C166.967 103.593 159.912 102.951 154.953 94.8444Z" fill="#263238"/>
<path d="M155.191 72.8879C155.191 72.8879 154.045 81.3574 164.801 89.6593C175.558 97.9611 185.755 94.6767 185.755 94.6767" stroke="white" stroke-width="0.5" stroke-linecap="round" stroke-linejoin="round"/>
<path d="M156.769 70.0228C156.769 70.0228 168.098 86.5286 183.744 82.2239" stroke="white" stroke-width="0.5" stroke-linecap="round" stroke-linejoin="round"/>
<path d="M151.181 64.572C149.393 63.6643 147.391 63.2638 145.391 63.4141C143.391 63.5644 141.471 64.2597 139.838 65.4246C133.818 69.4497 130.8 78.9255 130.8 78.9255" stroke="white" stroke-width="0.5" stroke-linecap="round" stroke-linejoin="round"/>
<path d="M151.461 69.1563C151.461 69.1563 146.585 67.8704 143.568 70.8753C142.098 72.2086 140.84 73.7593 139.838 75.4735" stroke="white" stroke-width="0.5" stroke-linecap="round" stroke-linejoin="round"/>
</g>
</g>
<defs>
<clipPath id="clip0_6_1645">
<rect width="273" height="436" fill="white" transform="translate(23 32.9999)"/>
</clipPath>
</defs>
</svg>
