<svg width="62" height="63" viewBox="0 0 62 63" fill="none" xmlns="http://www.w3.org/2000/svg">
<g id="Traced Image">
<path id="Vector" fill-rule="evenodd" clip-rule="evenodd" d="M45.1525 2.52467C44.7816 2.61293 36.6911 4.96787 27.1734 7.75795C15.1626 11.279 9.62105 12.9528 9.05954 13.2293C7.65808 13.9194 6.48461 15.3416 5.9213 17.0328C5.7668 17.4969 5.71578 17.9668 5.72398 18.8525C5.73466 20.0081 5.76837 20.1618 6.76238 23.5996L7.78977 27.1525L7.79168 41.0007C7.79393 56.3701 7.76314 55.7056 8.54208 57.2096C9.3998 58.8655 11.1639 60.1705 12.9587 60.4769C13.4505 60.5607 16.0295 60.5907 20.8502 60.5684L28.0111 60.5355L28.3099 60.2331C28.7288 59.8091 28.7288 59.101 28.3099 58.677L28.0112 58.3745L20.5693 58.3167C12.6383 58.2549 12.8618 58.2713 11.9474 57.6873C11.074 57.1294 10.5142 56.3766 10.2151 55.3575C10.0601 54.8288 10.0372 53.7201 10.0372 46.7529V38.7551L32.0334 38.7838L54.0296 38.8126V46.9444V55.0763L53.7707 55.7248C53.408 56.6335 52.6601 57.4338 51.7494 57.8877L51.0008 58.2608L43.5819 58.3177C39.5014 58.349 36.0726 58.4191 35.9621 58.4736C35.7199 58.5931 35.4325 59.1256 35.4325 59.455C35.4325 59.8705 35.7484 60.3352 36.1201 60.4663C36.367 60.5534 38.6711 60.5923 43.5781 60.5923C50.2848 60.5923 50.727 60.5798 51.5479 60.3674C52.7478 60.0568 53.4455 59.6502 54.3792 58.7177C55.223 57.8749 55.7073 57.0584 56.0708 55.8665C56.2662 55.2254 56.277 54.4408 56.277 40.8789V26.5677L55.91 26.2358L55.543 25.904L36.2454 25.8962C24.5626 25.8916 17.0365 25.8478 17.1726 25.7851C17.2962 25.7282 25.5296 23.3001 35.469 20.3891C45.4083 17.4782 53.687 15.0199 53.866 14.9262C54.2476 14.7264 54.4229 14.4383 54.4229 14.0104C54.4229 13.4449 52.4162 6.6618 51.9999 5.81995C51.2931 4.39068 49.8709 3.16851 48.3631 2.69447C47.3983 2.39115 46.0201 2.31836 45.1525 2.52467ZM45.7143 4.69469C45.6525 4.71698 44.2367 5.1296 42.568 5.6116C40.8993 6.09348 39.4951 6.52248 39.4476 6.5649C39.4001 6.60732 40.5125 7.76 41.9197 9.12638C43.3269 10.4929 45.1408 12.269 45.9506 13.0735L47.423 14.5362L49.6026 13.8981C50.8014 13.5473 51.8153 13.2261 51.8555 13.1846C51.9505 13.0869 50.3513 7.50228 50.0491 6.87596C49.5995 5.94404 48.6962 5.17464 47.6742 4.85266C47.0681 4.6617 46.0352 4.57845 45.7143 4.69469ZM33.6633 8.20378C32.165 8.64973 30.9387 9.04575 30.9384 9.08385C30.938 9.12183 32.7501 10.9204 34.9652 13.0806L38.9925 17.0083L41.9321 16.1484C43.5487 15.6755 44.8715 15.2546 44.8715 15.213C44.8715 15.1715 43.069 13.3888 40.866 11.2516C38.0428 8.51257 36.7908 7.36956 36.6241 7.37922C36.4941 7.38673 35.1617 7.75773 33.6633 8.20378ZM25.4879 10.6199C23.9428 11.0755 22.608 11.4637 22.5215 11.4826C22.3421 11.5217 30.3964 19.4212 30.6156 19.4212C30.827 19.4212 36.2613 17.8187 36.358 17.7278C36.4273 17.6627 30.7253 12.0196 28.87 10.3173L28.2971 9.7916L25.4879 10.6199ZM16.8668 13.1362C15.2771 13.6082 14.0009 14.0342 14.0305 14.0828C14.0602 14.1314 15.8826 15.9234 18.0802 18.0648L22.0758 21.9585L24.737 21.1874C26.2006 20.7631 27.5392 20.3586 27.7117 20.2883C28.0244 20.1608 28.0156 20.1513 23.9801 16.2383C21.7553 14.0811 19.8949 12.3076 19.8461 12.2971C19.7971 12.2867 18.4564 12.6643 16.8668 13.1362ZM10.5869 15.0244C9.44969 15.5006 8.75727 16.1618 8.25071 17.2551C8.01114 17.7723 7.959 18.0496 7.96125 18.7957C7.96361 19.586 8.07193 20.0792 8.78536 22.5489C9.23697 24.1127 9.64476 25.4325 9.69139 25.4819C9.75859 25.553 19.4243 22.8098 19.5482 22.6844C19.6053 22.6266 11.5035 14.8163 11.3569 14.7879C11.28 14.7729 10.9335 14.8794 10.5869 15.0244ZM10.0372 32.3298V36.4811H12.6032H15.1694L17.5369 32.3298L19.9043 28.1786H14.9707H10.0372V32.3298ZM22.3527 28.4345C22.103 28.8274 17.7906 36.3992 17.7906 36.4447C17.7906 36.4666 19.1877 36.4711 20.8951 36.4545L23.9997 36.4242L26.0156 32.8985C27.1243 30.9594 28.1834 29.104 28.3691 28.7757L28.7069 28.1786H25.611C22.5237 28.1786 22.5148 28.1793 22.3527 28.4345ZM29.0732 32.0739C27.8516 34.2163 26.7795 36.0844 26.6908 36.2252L26.5296 36.4811L29.6607 36.4788L32.7919 36.4765L35.0954 32.4316C36.3624 30.2069 37.4159 28.3399 37.4364 28.2827C37.4586 28.2214 36.2046 28.1786 34.3841 28.1786H31.2943L29.0732 32.0739ZM37.7632 32.2664C36.4814 34.5146 35.4325 36.3827 35.4325 36.4176C35.4325 36.4525 36.8172 36.4811 38.5094 36.4811H41.5862L42.767 34.4055C43.4164 33.2638 44.4821 31.3958 45.1353 30.2542L46.3229 28.1786H43.2084H40.0938L37.7632 32.2664ZM48.7615 28.4345C48.5747 28.7326 44.5227 35.8456 44.3236 36.2252L44.1895 36.4811H49.1376H54.0858V32.3298V28.1786H51.5039C48.9489 28.1786 48.9203 28.1812 48.7615 28.4345ZM28.0506 41.8735L27.7353 42.148V48.4106V54.6731L28.0443 54.9859C28.6524 55.6014 28.7047 55.5793 34.1403 52.4132C37.0619 50.7114 39.2392 49.3709 39.4624 49.1363C39.7901 48.7921 39.8317 48.6852 39.7749 48.3314C39.739 48.107 39.5942 47.8103 39.4532 47.672C39.2413 47.4642 30.695 42.4055 29.5107 41.7869C28.9873 41.5135 28.4258 41.5468 28.0506 41.8735ZM29.9265 48.4135C29.9265 50.483 29.9521 52.1761 29.9833 52.1761C30.0996 52.1761 36.3315 48.505 36.3308 48.4368C36.3304 48.3799 30.3401 44.8238 30.0171 44.6888C29.9673 44.6679 29.9265 46.3441 29.9265 48.4135ZM31.5531 58.472C30.7066 58.8563 30.774 60.1799 31.6549 60.4742C32.436 60.7351 33.1035 60.2628 33.1035 59.4492C33.1035 58.627 32.3114 58.1278 31.5531 58.472Z" fill="black" stroke="white" stroke-width="0.4"/>
</g>
</svg>
