<svg width="1440" height="718" viewBox="0 0 1440 718" fill="none" xmlns="http://www.w3.org/2000/svg">
<g clip-path="url(#clip0_735_19034)">
<rect width="1440" height="718" fill="#E9E9E9"/>
<path opacity="0.5" d="M1415.32 142.87C1412.22 146.24 1403.21 150.107 1402.49 150.416C1404.52 155.634 1406.21 160.997 1407.54 166.469C1408.32 169.641 1409.02 172.867 1409.68 176.111C1409.6 174.581 1409.53 173.2 1409.55 173.013C1409.85 167.581 1413.54 157.219 1419.29 155.512C1420.25 155.258 1421.24 155.213 1422.21 155.38C1423.17 155.547 1424.09 155.921 1424.89 156.48C1425.7 157.038 1426.38 157.767 1426.88 158.62C1427.38 159.473 1427.71 160.43 1427.82 161.429C1428.47 165.651 1425.75 170.205 1422.99 173.198C1420.23 176.19 1412.58 179.694 1410.56 180.57L1411.28 184.316C1412.42 190.315 1413.53 196.301 1414.79 202.143C1415.23 204.2 1415.74 206.218 1416.24 208.229C1416.17 206.863 1416.12 205.716 1416.13 205.53C1416.43 200.113 1420.12 189.736 1425.87 188.028C1426.83 187.775 1427.83 187.73 1428.8 187.897C1429.76 188.064 1430.68 188.44 1431.49 188.998C1432.29 189.557 1432.97 190.287 1433.48 191.14C1433.98 191.994 1434.3 192.951 1434.42 193.951C1435.06 198.168 1432.33 202.736 1429.59 205.72C1426.85 208.705 1419.91 211.871 1417.51 212.934C1418.09 214.948 1418.68 216.961 1419.3 218.993C1419.76 220.321 1420.13 221.626 1420.68 222.92C1421.22 224.215 1421.7 225.499 1422.22 226.766C1423.27 229.178 1424.36 231.66 1425.46 233.991C1426.22 235.607 1426.94 237.14 1427.7 238.686C1427.23 236.637 1426.41 232.618 1426.37 232.27C1425.88 226.888 1428 216.081 1433.45 213.542C1434.37 213.142 1435.35 212.941 1436.34 212.954C1437.32 212.967 1438.28 213.192 1439.17 213.616C1440.05 214.039 1440.83 214.651 1441.46 215.412C1442.08 216.172 1442.54 217.064 1442.81 218.029C1444.06 222.093 1442.04 226.996 1439.75 230.373C1437.22 234.066 1429.2 239.106 1428.2 239.733C1429.44 242.283 1430.69 244.748 1431.88 247.066C1435.09 253.264 1438.04 258.572 1440.49 262.726L1437.35 265.291C1434.94 260.957 1431.96 255.373 1428.74 248.804C1427.46 246.22 1426.16 243.43 1424.84 240.549C1421.97 241.465 1419.05 242.207 1416.09 242.771C1415.75 247.377 1411.86 255.438 1411.37 256.483C1413.8 257.86 1416.16 259.184 1418.43 260.399C1424.33 263.567 1429.57 266.169 1433.81 268.183L1430.4 270.959C1426.48 268.961 1421.85 266.492 1416.73 263.597C1414.26 262.187 1411.66 260.65 1408.98 259.045C1408.24 259.948 1402.14 267.326 1398.18 269.315C1394.59 271.117 1389.55 272.401 1385.82 270.47C1384.94 270.051 1384.15 269.444 1383.52 268.687C1382.89 267.93 1382.42 267.041 1382.16 266.077C1381.89 265.114 1381.82 264.097 1381.96 263.094C1382.1 262.091 1382.45 261.125 1382.98 260.257C1386.28 255.117 1396.97 254.645 1402.05 255.999C1402.34 256.124 1405.51 257.319 1407.49 258.139C1406.41 257.47 1405.35 256.843 1404.24 256.141C1402.03 254.779 1399.87 253.35 1397.56 251.816C1396.46 251.049 1395.35 250.261 1394.23 249.467C1393.11 248.672 1392.01 247.748 1390.89 246.882C1388.32 244.815 1385.83 242.606 1383.35 240.318C1382.14 242.328 1377.66 249.37 1374.39 251.737C1371.13 254.104 1366.28 256.119 1362.34 254.8C1361.4 254.525 1360.53 254.049 1359.8 253.402C1359.06 252.755 1358.46 251.952 1358.05 251.046C1357.64 250.139 1357.43 249.149 1357.42 248.14C1357.41 247.131 1357.6 246.125 1358 245.188C1360.47 239.593 1371.07 237.484 1376.38 238.06C1376.72 238.088 1380.43 238.921 1382.46 239.416C1380.98 238.023 1379.51 236.636 1378.07 235.191C1373.91 230.98 1369.83 226.592 1365.73 222.234C1364.48 220.891 1363.22 219.577 1361.95 218.264C1361.52 218.969 1356.42 227.491 1352.71 230.121C1349.42 232.44 1344.61 234.489 1340.66 233.185C1339.72 232.91 1338.86 232.433 1338.12 231.786C1337.38 231.139 1336.78 230.337 1336.37 229.43C1335.96 228.524 1335.75 227.534 1335.74 226.524C1335.73 225.515 1335.93 224.509 1336.32 223.572C1338.79 217.977 1349.39 215.868 1354.64 216.398C1355.04 216.452 1360.38 217.64 1361.72 218.021C1358.97 215.05 1356.14 212.234 1353.28 209.513C1349.42 205.829 1345.33 202.411 1341.02 199.279C1340.87 199.632 1335.53 208.511 1331.74 211.204C1328.44 213.537 1323.62 215.587 1319.68 214.282C1318.74 214.005 1317.87 213.526 1317.14 212.877C1316.4 212.229 1315.81 211.424 1315.4 210.517C1314.99 209.609 1314.77 208.619 1314.76 207.609C1314.75 206.599 1314.95 205.593 1315.34 204.655C1317.82 199.06 1328.41 196.965 1333.65 197.496C1334.07 197.541 1339.83 198.839 1340.84 199.148C1340.56 199.022 1340.36 198.742 1340.1 198.573C1335.69 195.553 1331.02 192.952 1326.14 190.801C1323.45 189.612 1320.84 188.561 1318.25 187.629C1317.47 189.406 1313.6 197.387 1310.43 200.184C1307.27 202.98 1302.81 205.435 1298.74 204.582C1297.77 204.415 1296.86 204.04 1296.05 203.481C1295.24 202.923 1294.57 202.194 1294.06 201.341C1293.56 200.488 1293.23 199.531 1293.12 198.531C1293 197.532 1293.09 196.512 1293.38 195.539C1295.31 189.736 1305.58 186.432 1310.88 186.388C1311.18 186.377 1314.13 186.7 1316.19 186.979C1315.02 186.587 1313.82 186.141 1312.69 185.783C1308.44 184.412 1304.47 183.431 1300.93 182.602C1298.92 182.134 1297.1 181.769 1295.39 181.433C1293.71 182.744 1286.91 187.973 1282.95 188.976C1278.99 189.98 1273.98 190.135 1270.74 187.423C1269.97 186.814 1269.34 186.044 1268.89 185.16C1268.44 184.277 1268.17 183.3 1268.11 182.295C1268.06 181.289 1268.21 180.276 1268.55 179.322C1268.9 178.368 1269.44 177.494 1270.13 176.757C1274.41 172.434 1284.89 174.331 1289.55 176.776C1289.97 176.964 1295.86 181.061 1295.76 181.124L1295.72 181.226C1297.37 181.517 1299.14 181.827 1301.08 182.228C1304.63 182.992 1308.66 183.827 1312.93 185.153C1317.57 186.477 1322.12 188.08 1326.57 189.953C1331.56 192.02 1336.35 194.544 1340.88 197.496L1341.05 197.571C1339.96 196.211 1337.06 192.292 1336.88 191.968C1334.24 187.291 1331.76 176.762 1335.71 172.139C1336.39 171.388 1337.21 170.787 1338.12 170.377C1339.03 169.966 1340.01 169.755 1341 169.756C1341.98 169.757 1342.95 169.972 1343.84 170.385C1344.73 170.798 1345.51 171.4 1346.15 172.153C1348.96 175.242 1349.13 180.494 1348.39 184.524C1347.56 189.039 1342 197.305 1341.55 197.968C1346.09 201.087 1350.4 204.521 1354.47 208.247C1356.89 210.424 1359.19 212.652 1361.52 214.877C1360.62 213.67 1359.83 212.583 1359.73 212.418C1357.1 207.74 1354.62 197.198 1358.57 192.589C1359.25 191.838 1360.07 191.237 1360.98 190.826C1361.89 190.415 1362.87 190.203 1363.85 190.203C1364.84 190.203 1365.8 190.415 1366.69 190.826C1367.58 191.237 1368.37 191.838 1369.01 192.589C1371.83 195.698 1371.99 200.929 1371.25 204.974C1370.51 209.019 1365.9 216.183 1364.65 218.053L1367.29 220.695C1371.49 224.975 1375.65 229.257 1379.88 233.286C1381.36 234.715 1382.88 236.07 1384.39 237.425C1383.6 236.354 1382.93 235.445 1382.85 235.301C1380.21 230.623 1377.73 220.081 1381.68 215.472C1382.36 214.723 1383.18 214.124 1384.09 213.715C1385 213.306 1385.98 213.095 1386.97 213.097C1387.95 213.098 1388.92 213.311 1389.8 213.723C1390.69 214.135 1391.48 214.736 1392.12 215.486C1394.92 218.589 1395.1 223.827 1394.36 227.872C1393.62 231.917 1389.44 238.375 1387.98 240.608C1389.57 241.945 1391.16 243.295 1392.78 244.487C1393.89 245.296 1394.91 246.168 1396.07 246.91C1397.23 247.651 1398.34 248.44 1399.45 249.192C1401.65 250.569 1403.91 251.992 1406.1 253.276C1407.61 254.189 1409.07 255.027 1410.52 255.865C1409.03 254.451 1406.17 251.622 1405.95 251.365C1403.1 247.646 1401.26 243.215 1400.59 238.495C1400.25 238.099 1399.96 237.665 1399.72 237.199C1399.23 236.343 1398.91 235.385 1398.8 234.385C1398.69 233.386 1398.79 232.368 1399.09 231.399C1399.39 230.43 1399.89 229.531 1400.54 228.76C1401.2 227.99 1402 227.365 1402.9 226.926C1408.37 224.429 1417.38 230.066 1420.83 234.101C1421.02 234.346 1422.93 237.176 1424.08 239.054C1423.56 237.872 1423.03 236.727 1422.5 235.51C1421.43 233.106 1420.43 230.676 1419.35 228.058L1417.89 224.179C1417.39 222.889 1417.01 221.456 1416.55 220.078C1415.56 216.883 1414.7 213.588 1413.93 210.244C1411.8 211.233 1404.38 214.801 1400.45 214.818C1396.52 214.834 1391.45 213.964 1388.92 210.615C1388.3 209.849 1387.85 208.953 1387.59 207.985C1387.33 207.017 1387.28 205.998 1387.43 204.996C1387.58 203.994 1387.94 203.03 1388.48 202.167C1389.01 201.304 1389.72 200.562 1390.54 199.989C1395.61 196.681 1405.39 200.85 1409.41 204.277C1409.66 204.49 1412.26 207.292 1413.65 208.855C1413.18 206.892 1412.73 204.849 1412.33 202.795C1411.18 196.862 1410.2 190.825 1409.21 184.802L1408.25 179.306C1407.52 179.666 1398.76 184.01 1394.27 184.132C1390.32 184.243 1385.28 183.264 1382.75 179.915C1382.13 179.149 1381.68 178.253 1381.42 177.285C1381.16 176.316 1381.11 175.297 1381.26 174.295C1381.42 173.293 1381.78 172.329 1382.31 171.468C1382.85 170.606 1383.56 169.866 1384.39 169.295C1389.43 165.996 1399.24 170.156 1403.24 173.577C1403.54 173.83 1407.28 177.874 1408.17 178.954C1407.46 174.9 1406.67 170.864 1405.83 166.961C1404.66 161.646 1403.14 156.426 1401.3 151.333C1400.96 151.497 1391.83 156.064 1387.3 156.218C1383.35 156.335 1378.3 155.349 1375.78 152C1375.15 151.235 1374.7 150.34 1374.44 149.374C1374.19 148.407 1374.14 147.39 1374.29 146.39C1374.44 145.389 1374.8 144.427 1375.34 143.567C1375.87 142.706 1376.58 141.966 1377.4 141.395C1382.47 138.087 1392.26 142.241 1396.26 145.677C1396.58 145.943 1400.6 150.284 1401.26 151.121L1400.97 150.218C1398.98 145.169 1396.55 140.324 1393.71 135.738C1392.17 133.178 1390.57 130.835 1388.96 128.579C1387.33 129.616 1379.88 134.221 1375.79 134.797C1371.69 135.374 1366.73 134.954 1363.86 131.927C1363.15 131.238 1362.6 130.401 1362.24 129.471C1361.88 128.541 1361.72 127.538 1361.76 126.528C1361.81 125.517 1362.06 124.522 1362.5 123.606C1362.94 122.691 1363.57 121.876 1364.33 121.215C1369.02 117.373 1379.23 120.394 1383.59 123.343C1383.85 123.456 1386.06 125.418 1387.63 126.884C1386.88 125.887 1386.13 124.835 1385.4 123.88C1382.66 120.316 1379.89 117.226 1377.5 114.539C1376.1 113.005 1374.83 111.599 1373.58 110.399C1371.5 110.585 1363.09 111.151 1359.33 109.786C1355.57 108.421 1351.34 105.635 1350.18 101.558C1349.87 100.606 1349.77 99.594 1349.87 98.5868C1349.98 97.5795 1350.28 96.6 1350.78 95.7119C1351.27 94.8238 1351.94 94.047 1352.74 93.4321C1353.53 92.8171 1354.44 92.3777 1355.41 92.1425C1361.24 90.894 1368.8 98.4353 1371.31 103.142C1371.53 103.557 1374.16 110.356 1374.05 110.362L1373.95 110.318C1375.14 111.473 1376.44 112.77 1377.81 114.199C1380.31 116.85 1383.11 119.881 1385.94 123.397C1389.03 127.145 1391.9 131.082 1394.53 135.187C1397.51 139.76 1400.07 144.613 1402.18 149.685L1402.25 149.874C1402.11 148.055 1401.84 143.144 1401.88 142.685C1402.17 137.268 1405.87 126.891 1411.61 125.184C1412.57 124.93 1413.57 124.885 1414.54 125.052C1415.5 125.219 1416.42 125.593 1417.22 126.152C1418.03 126.71 1418.71 127.439 1419.21 128.292C1419.71 129.145 1420.03 130.102 1420.15 131.101C1420.83 135.335 1418.07 139.892 1415.32 142.87Z" fill="white"/>
<path opacity="0.5" d="M22.9143 596.87C26.0127 600.24 35.0162 604.107 35.7454 604.416C33.7069 609.634 32.0196 614.997 30.6951 620.469C29.915 623.641 29.2099 626.867 28.5461 630.111C28.6309 628.581 28.6969 627.2 28.6821 627.013C28.3781 621.581 24.6919 611.219 18.9447 609.512C17.9852 609.258 16.9898 609.213 16.0234 609.38C15.057 609.547 14.1412 609.921 13.336 610.48C12.5307 611.038 11.8539 611.767 11.3497 612.62C10.8456 613.473 10.5253 614.43 10.4099 615.429C9.75602 619.651 12.4809 624.205 15.2429 627.198C18.0048 630.19 25.6463 633.694 27.6752 634.57L26.9462 638.316C25.8088 644.315 24.6997 650.301 23.442 656.143C22.9982 658.2 22.486 660.218 21.988 662.229C22.0605 660.863 22.1118 659.716 22.097 659.53C21.7995 654.113 18.1068 643.736 12.3596 642.028C11.3988 641.775 10.4022 641.73 9.43464 641.897C8.46709 642.064 7.5503 642.44 6.74389 642.998C5.93748 643.557 5.25951 644.287 4.75416 645.14C4.2488 645.994 3.92735 646.951 3.81072 647.951C3.17096 652.168 5.90238 656.736 8.64366 659.72C11.3849 662.705 18.319 665.871 20.7184 666.934C20.1366 668.948 19.5548 670.961 18.9305 672.993C18.4687 674.321 18.0983 675.626 17.5539 676.92C17.0095 678.215 16.5282 679.499 16.0056 680.766C14.9574 683.178 13.8721 685.66 12.7707 687.991C12.0135 689.607 11.2869 691.14 10.5321 692.686C10.9965 690.637 11.8251 686.618 11.8574 686.27C12.3539 680.888 10.2306 670.081 4.77559 667.542C3.86095 667.142 2.87951 666.941 1.89536 666.954C0.911204 666.967 -0.0535856 667.192 -0.936107 667.616C-1.81863 668.039 -2.59906 668.651 -3.22647 669.412C-3.85389 670.172 -4.31419 671.064 -4.57739 672.029C-5.82596 676.093 -3.80984 680.996 -1.52079 684.373C1.00908 688.066 9.02577 693.106 10.0306 693.733C8.78956 696.283 7.54437 698.748 6.35278 701.066C3.13748 707.264 0.188376 712.572 -2.25578 716.726L0.875779 719.291C3.29095 714.957 6.27004 709.373 9.49048 702.804C10.7675 700.22 12.0721 697.43 13.3867 694.549C16.2629 695.465 19.1848 696.207 22.137 696.771C22.4819 701.377 26.3687 709.438 26.8647 710.483C24.4275 711.86 22.0687 713.184 19.7972 714.399C13.9049 717.567 8.65873 720.169 4.42217 722.183L7.83284 724.959C11.755 722.961 16.383 720.492 21.4992 717.597C23.9724 716.187 26.5753 714.65 29.2501 713.045C29.9879 713.948 36.094 721.326 40.0534 723.315C43.6424 725.117 48.678 726.401 52.4096 724.47C53.2946 724.051 54.0784 723.444 54.71 722.687C55.3415 721.93 55.8067 721.041 56.0751 720.077C56.3434 719.114 56.409 718.097 56.2675 717.094C56.126 716.091 55.7806 715.125 55.2538 714.257C51.9482 709.117 41.2645 708.645 36.1777 709.999C35.8946 710.124 32.7171 711.319 30.7444 712.139C31.8194 711.47 32.879 710.843 33.99 710.141C36.1966 708.779 38.3565 707.35 40.6733 705.816C41.7725 705.049 42.8793 704.261 44.0002 703.467C45.1211 702.672 46.2184 701.748 47.3417 700.882C49.913 698.815 52.4053 696.606 54.8792 694.318C56.09 696.328 60.575 703.37 63.8386 705.737C67.1022 708.104 71.9536 710.119 75.8885 708.8C76.8286 708.525 77.6963 708.049 78.4352 707.402C79.1742 706.755 79.7678 705.952 80.1776 705.046C80.5874 704.139 80.8041 703.149 80.8137 702.14C80.8234 701.131 80.6257 700.125 80.2335 699.188C77.7588 693.593 67.1634 691.484 61.8509 692.06C61.5082 692.088 57.7984 692.921 55.7666 693.416C57.2488 692.023 58.7169 690.636 60.159 689.191C64.3208 684.98 68.4046 680.592 72.5014 676.234C73.7519 674.891 75.0153 673.577 76.2787 672.264C76.7091 672.969 81.8154 681.491 85.5168 684.121C88.8098 686.44 93.6252 688.489 97.5665 687.185C98.5067 686.91 99.3744 686.433 100.113 685.786C100.852 685.139 101.446 684.337 101.856 683.43C102.266 682.524 102.482 681.534 102.492 680.524C102.501 679.515 102.304 678.509 101.912 677.572C99.4369 671.977 88.8415 669.868 83.5932 670.398C83.1939 670.452 77.8475 671.64 76.5099 672.021C79.2572 669.05 82.0901 666.234 84.9478 663.513C88.8086 659.829 92.9039 656.411 97.2084 653.279C97.3643 653.632 102.696 662.511 106.493 665.204C109.793 667.537 114.608 669.587 118.549 668.282C119.489 668.005 120.356 667.526 121.095 666.877C121.833 666.229 122.425 665.424 122.834 664.517C123.243 663.609 123.46 662.619 123.469 661.609C123.478 660.599 123.28 659.593 122.888 658.655C120.413 653.06 109.824 650.965 104.576 651.496C104.156 651.541 98.4014 652.839 97.387 653.148C97.6701 653.022 97.8676 652.742 98.1312 652.573C102.536 649.553 107.208 646.952 112.09 644.801C114.779 643.612 117.394 642.561 119.977 641.629C120.763 643.406 124.632 651.387 127.797 654.184C130.963 656.98 135.417 659.435 139.49 658.582C140.457 658.415 141.373 658.04 142.18 657.481C142.986 656.923 143.664 656.194 144.169 655.341C144.674 654.488 144.996 653.531 145.113 652.531C145.23 651.532 145.14 650.512 144.849 649.539C142.925 643.736 132.647 640.432 127.348 640.388C127.055 640.377 124.102 640.7 122.042 640.979C123.205 640.587 124.413 640.141 125.54 639.783C129.791 638.412 133.756 637.431 137.299 636.602C139.309 636.134 141.127 635.769 142.84 635.433C144.52 636.744 151.317 641.973 155.28 642.976C159.244 643.98 164.254 644.135 167.488 641.423C168.257 640.814 168.889 640.044 169.342 639.16C169.795 638.277 170.059 637.3 170.117 636.295C170.174 635.289 170.025 634.276 169.678 633.322C169.33 632.368 168.793 631.494 168.101 630.757C163.82 626.434 153.338 628.331 148.683 630.776C148.259 630.964 142.371 635.061 142.466 635.124L142.512 635.226C140.863 635.517 139.089 635.827 137.151 636.228C133.596 636.992 129.566 637.827 125.296 639.153C120.657 640.477 116.106 642.08 111.664 643.953C106.672 646.02 101.882 648.544 97.3503 651.496L97.1804 651.571C98.271 650.211 101.175 646.292 101.353 645.968C103.988 641.291 106.473 630.762 102.516 626.139C101.838 625.388 101.017 624.787 100.106 624.377C99.196 623.966 98.2165 623.755 97.2319 623.756C96.2473 623.757 95.2797 623.972 94.3923 624.385C93.5048 624.798 92.7175 625.4 92.0815 626.153C89.2676 629.242 89.1032 634.494 89.8365 638.524C90.6656 643.039 96.2336 651.305 96.6793 651.968C92.1453 655.087 87.8296 658.521 83.7616 662.247C81.3401 664.424 79.0425 666.652 76.7101 668.877C77.6144 667.67 78.403 666.583 78.4991 666.418C81.1347 661.74 83.613 651.198 79.6623 646.589C78.984 645.838 78.1629 645.237 77.2526 644.826C76.3422 644.415 75.363 644.203 74.3783 644.203C73.3936 644.203 72.4256 644.415 71.5372 644.826C70.6488 645.237 69.8597 645.838 69.2214 646.589C66.3998 649.698 66.243 654.929 66.9828 658.974C67.7227 663.019 72.3292 670.183 73.5794 672.053L70.9405 674.695C66.7416 678.975 62.5775 683.257 58.3519 687.286C56.8685 688.715 55.3527 690.07 53.8368 691.425C54.632 690.354 55.2963 689.445 55.3847 689.301C58.0204 684.623 60.4986 674.081 56.548 669.472C55.8687 668.723 55.0473 668.124 54.137 667.715C53.2267 667.306 52.2479 667.095 51.2641 667.097C50.2802 667.098 49.3133 667.311 48.426 667.723C47.5387 668.135 46.7508 668.736 46.1134 669.486C43.306 672.589 43.1351 677.827 43.8749 681.872C44.6147 685.917 48.791 692.375 50.2526 694.608C48.6606 695.945 47.0751 697.295 45.453 698.487C44.3385 699.296 43.3197 700.168 42.1586 700.91C40.9976 701.651 39.8908 702.44 38.7852 703.192C36.5851 704.569 34.3207 705.992 32.1306 707.276C30.6222 708.189 29.165 709.027 27.7079 709.865C29.1978 708.451 32.059 705.622 32.2836 705.365C35.1268 701.646 36.9716 697.215 37.6417 692.495C37.9778 692.099 38.2681 691.665 38.507 691.199C39.005 690.343 39.3185 689.385 39.4273 688.385C39.5361 687.386 39.4376 686.368 39.1382 685.399C38.8389 684.43 38.3454 683.531 37.69 682.76C37.0345 681.99 36.2318 681.365 35.334 680.926C29.8637 678.429 20.8498 684.066 17.4052 688.101C17.2089 688.346 15.2962 691.176 14.1469 693.054C14.6736 691.872 15.1992 690.727 15.7272 689.51C16.796 687.106 17.803 684.676 18.8788 682.058L20.3445 678.179C20.8399 676.889 21.2215 675.456 21.678 674.078C22.668 670.883 23.5288 667.588 24.3005 664.244C26.4304 665.233 33.8465 668.801 37.7797 668.818C41.7128 668.834 46.7769 667.964 49.3064 664.615C49.929 663.849 50.3837 662.953 50.6409 661.985C50.8981 661.017 50.952 659.998 50.7992 658.996C50.6464 657.994 50.2903 657.03 49.7539 656.167C49.2176 655.304 48.5131 654.562 47.6863 653.989C42.6191 650.681 32.8372 654.85 28.8196 658.277C28.5755 658.49 25.9731 661.292 24.583 662.855C25.0516 660.892 25.5019 658.849 25.8967 656.795C27.0459 650.862 28.031 644.825 29.0227 638.802L29.9762 633.306C30.7108 633.666 39.4686 638.01 43.9563 638.132C47.9143 638.243 52.947 637.264 55.4765 633.915C56.0997 633.149 56.5545 632.253 56.8114 631.285C57.0682 630.316 57.1213 629.297 56.967 628.295C56.8128 627.293 56.4547 626.329 55.9163 625.468C55.3778 624.606 54.6711 623.866 53.8423 623.295C48.7957 619.996 38.9931 624.156 34.9896 627.577C34.6954 627.83 30.9505 631.874 30.0574 632.954C30.7686 628.9 31.556 624.864 32.4018 620.961C33.5736 615.646 35.086 610.426 36.9291 605.333C37.2725 605.497 46.3997 610.064 50.9351 610.218C54.879 610.335 59.9259 609.349 62.4554 606C63.0764 605.235 63.5297 604.34 63.7857 603.374C64.0417 602.407 64.0946 601.39 63.9411 600.39C63.7875 599.389 63.4309 598.427 62.8945 597.567C62.3581 596.706 61.6538 595.966 60.8277 595.395C55.7604 592.087 45.972 596.241 41.975 599.677C41.6525 599.943 37.6329 604.284 36.9709 605.121L37.2654 604.218C39.2541 599.169 41.6809 594.324 44.5173 589.738C46.0586 587.178 47.6624 584.835 49.2705 582.579C50.8966 583.616 58.3487 588.221 62.4449 588.797C66.5411 589.374 71.4998 588.954 74.3745 585.927C75.0774 585.238 75.6268 584.401 75.9872 583.471C76.3476 582.541 76.5107 581.538 76.4661 580.528C76.4214 579.517 76.1699 578.522 75.728 577.606C75.2861 576.691 74.6636 575.876 73.9011 575.215C69.207 571.373 59.0022 574.394 54.6375 577.343C54.3827 577.456 52.1705 579.418 50.6022 580.884C51.3461 579.887 52.0988 578.835 52.8274 577.88C55.5662 574.316 58.3453 571.226 60.7277 568.539C62.1308 567.005 63.4042 565.599 64.65 564.399C66.7293 564.585 75.1362 565.151 78.8982 563.786C82.6602 562.421 86.8941 559.635 88.0524 555.558C88.3573 554.606 88.4615 553.594 88.3584 552.587C88.2552 551.58 87.947 550.6 87.4536 549.712C86.9603 548.824 86.2929 548.047 85.4949 547.432C84.6969 546.817 83.7862 546.378 82.8218 546.142C76.99 544.894 69.4275 552.435 66.9234 557.142C66.7006 557.557 64.0725 564.356 64.1769 564.362L64.276 564.318C63.0945 565.473 61.7898 566.77 60.4249 568.199C57.9252 570.85 55.1201 573.881 52.2922 577.397C49.2002 581.145 46.3306 585.082 43.6983 589.187C40.7179 593.76 38.1573 598.613 36.0483 603.685L35.9794 603.874C36.1224 602.055 36.3873 597.144 36.3535 596.685C36.056 591.268 32.3633 580.891 26.6162 579.184C25.6566 578.93 24.6612 578.885 23.6948 579.052C22.7284 579.219 21.8127 579.593 21.0074 580.152C20.2021 580.71 19.5253 581.439 19.0212 582.292C18.517 583.145 18.1968 584.102 18.0814 585.101C17.3992 589.335 20.1589 593.892 22.9143 596.87Z" fill="white"/>
</g>
<defs>
<clipPath id="clip0_735_19034">
<rect width="1440" height="718" fill="white"/>
</clipPath>
</defs>
</svg>
