<svg width="72" height="72" fill="none" xmlns="http://www.w3.org/2000/svg"><g filter="url(#a)"><rect x="12" y="8" width="48" height="48" rx="24" fill="#fff" shape-rendering="crispEdges"/><g clip-path="url(#b)"><path d="M41.707 31.293a1 1 0 0 1 .22.33l-.22-.33Zm0 0-8-8a1 1 0 0 0-1.414 1.414L39.586 32l-7.293 7.293a1 1 0 1 0 1.414 1.414l8-8a1 1 0 0 0 .22-1.084" fill="#191919"/></g></g><defs><clipPath id="b"><path fill="#fff" transform="translate(24 20)" d="M0 0h24v24H0z"/></clipPath><filter id="a" x="0" y="0" width="72" height="72" filterUnits="userSpaceOnUse" color-interpolation-filters="sRGB"><feFlood flood-opacity="0" result="BackgroundImageFix"/><feColorMatrix in="SourceAlpha" values="0 0 0 0 0 0 0 0 0 0 0 0 0 0 0 0 0 0 127 0" result="hardAlpha"/><feOffset dy="4"/><feGaussianBlur stdDeviation="6"/><feComposite in2="hardAlpha" operator="out"/><feColorMatrix values="0 0 0 0 0 0 0 0 0 0 0 0 0 0 0 0 0 0 0.07 0"/><feBlend in2="BackgroundImageFix" result="effect1_dropShadow_692_8113"/><feBlend in="SourceGraphic" in2="effect1_dropShadow_692_8113" result="shape"/></filter></defs></svg>