<svg width="62" height="63" viewBox="0 0 62 63" fill="none" xmlns="http://www.w3.org/2000/svg">
<g id="Traced Image">
<path id="Vector" fill-rule="evenodd" clip-rule="evenodd" d="M8.67032 6.53115C7.5708 6.87792 6.68664 7.6583 6.18739 8.72242L5.90479 9.32485V17.2036V25.0824L6.19007 25.6908C6.58957 26.5425 7.24862 27.2153 8.08796 27.6283L8.79602 27.9767H16.6834H24.5707L25.2788 27.6283C26.1181 27.2153 26.7772 26.5425 27.1767 25.6908L27.462 25.0824V17.2014V9.32035L27.1134 8.61265C26.7002 7.77375 26.0271 7.11504 25.1749 6.71574L24.5662 6.4306L16.8442 6.40959C10.6707 6.39276 9.03165 6.4171 8.67032 6.53115ZM36.1262 6.53115C35.0267 6.87792 34.1425 7.6583 33.6433 8.72242L33.3607 9.32485V17.2036V25.0824L33.646 25.6908C34.0455 26.5425 34.7045 27.2153 35.5439 27.6283L36.2519 27.9767H44.1393H52.0266L52.7347 27.6283C53.574 27.2153 54.2331 26.5425 54.6326 25.6908L54.9179 25.0824V17.2014V9.32035L54.5693 8.61265C54.1561 7.77375 53.483 7.11504 52.6308 6.71574L52.0221 6.4306L44.3002 6.40959C38.1267 6.39276 36.4876 6.4171 36.1262 6.53115ZM9.41185 9.93586C9.22577 10.1218 9.22577 24.2854 9.41185 24.4714C9.59793 24.6574 23.7688 24.6574 23.9549 24.4714C24.141 24.2854 24.141 10.1218 23.9549 9.93586C23.7688 9.74988 9.59793 9.74988 9.41185 9.93586ZM36.8678 9.93586C36.6817 10.1218 36.6817 24.2854 36.8678 24.4714C37.0538 24.6574 51.2247 24.6574 51.4108 24.4714C51.5969 24.2854 51.5969 10.1218 51.4108 9.93586C51.2247 9.74988 37.0538 9.74988 36.8678 9.93586ZM43.254 32.7493C42.1546 33.0266 41.8558 33.2815 37.3075 37.8223C33.1987 41.9241 32.864 42.2862 32.5361 42.9839C32.2237 43.6482 32.1833 43.8388 32.1833 44.6454C32.1833 45.4521 32.2237 45.6427 32.5361 46.3069C32.8638 47.0041 33.2015 47.37 37.3075 51.4737C41.4133 55.5776 41.7794 55.9151 42.4769 56.2427C43.1415 56.5548 43.3322 56.5953 44.1393 56.5953C44.9463 56.5953 45.137 56.5548 45.8017 56.2427C46.4992 55.9151 46.8652 55.5776 50.9711 51.4737C55.077 47.37 55.4148 47.0041 55.7425 46.3069C56.0548 45.6427 56.0953 45.4521 56.0953 44.6454C56.0953 43.8388 56.0548 43.6482 55.7425 42.9839C55.4148 42.2867 55.077 41.9209 50.9711 37.8171C46.9324 33.7805 46.4911 33.3721 45.8385 33.0683C45.0509 32.7017 43.9711 32.5684 43.254 32.7493ZM8.67032 33.9729C7.5708 34.3197 6.68664 35.1001 6.18739 36.1642L5.90479 36.7666V44.6454V52.5242L6.19007 53.1326C6.58957 53.9843 7.24862 54.6571 8.08796 55.0701L8.79602 55.4185H16.6834H24.5707L25.2788 55.0701C26.1181 54.6571 26.7772 53.9843 27.1767 53.1326L27.462 52.5242V44.6432V36.7621L27.1134 36.0544C26.7002 35.2155 26.0271 34.5568 25.1749 34.1575L24.5662 33.8724L16.8442 33.8514C10.6707 33.8345 9.03165 33.8589 8.67032 33.9729ZM39.7167 40.2252C36.488 43.4523 35.5593 44.4397 35.5593 44.6454C35.5593 44.8511 36.488 45.8386 39.7167 49.0657C42.9455 52.2928 43.9335 53.221 44.1393 53.221C44.3451 53.221 45.3331 52.2928 48.5618 49.0657C51.7906 45.8386 52.7193 44.8511 52.7193 44.6454C52.7193 44.4397 51.7906 43.4523 48.5618 40.2252C45.3331 36.9981 44.3451 36.0699 44.1393 36.0699C43.9335 36.0699 42.9455 36.9981 39.7167 40.2252ZM9.41185 37.3776C9.22577 37.5636 9.22577 51.7272 9.41185 51.9132C9.59793 52.0992 23.7688 52.0992 23.9549 51.9132C24.141 51.7272 24.141 37.5636 23.9549 37.3776C23.7688 37.1917 9.59793 37.1917 9.41185 37.3776Z" fill="black" stroke="#FFC700" stroke-width="0.767195"/>
</g>
</svg>
