<svg width="22" height="22" viewBox="0 0 22 22" fill="none" xmlns="http://www.w3.org/2000/svg">
<g id="Login ICONS">
<path id="Vector" d="M15.5 7.93412H17.1667C17.3877 7.93412 17.5996 8.01941 17.7559 8.17123C17.9122 8.32304 18 8.52895 18 8.74365V18.4579C18 18.6726 17.9122 18.8785 17.7559 19.0304C17.5996 19.1822 17.3877 19.2675 17.1667 19.2675H3.83333C3.61232 19.2675 3.40036 19.1822 3.24408 19.0304C3.0878 18.8785 3 18.6726 3 18.4579V8.74365C3 8.52895 3.0878 8.32304 3.24408 8.17123C3.40036 8.01941 3.61232 7.93412 3.83333 7.93412H5.5V7.1246C5.5 5.8364 6.02678 4.60097 6.96447 3.69008C7.90215 2.77919 9.17392 2.26746 10.5 2.26746C11.8261 2.26746 13.0979 2.77919 14.0355 3.69008C14.9732 4.60097 15.5 5.8364 15.5 7.1246V7.93412ZM4.66667 9.55317V17.6484H16.3333V9.55317H4.66667ZM9.66667 12.7913H11.3333V14.4103H9.66667V12.7913ZM6.33333 12.7913H8V14.4103H6.33333V12.7913ZM13 12.7913H14.6667V14.4103H13V12.7913ZM13.8333 7.93412V7.1246C13.8333 6.2658 13.4821 5.44218 12.857 4.83492C12.2319 4.22766 11.3841 3.8865 10.5 3.8865C9.61594 3.8865 8.7681 4.22766 8.14298 4.83492C7.51786 5.44218 7.16667 6.2658 7.16667 7.1246V7.93412H13.8333Z" fill="#A8AFB9"/>
</g>
</svg>
