<svg width="62" height="63" viewBox="0 0 62 63" fill="none" xmlns="http://www.w3.org/2000/svg">
<g id="Traced Image" clip-path="url(#clip0_425_1010)">
<path id="Vector" fill-rule="evenodd" clip-rule="evenodd" d="M29.6478 0.681526C28.1973 0.957015 26.5173 1.65173 25.3244 2.4696C24.5106 3.0276 23.2058 4.30623 22.6982 5.04332C22.4468 5.40842 22.2261 5.70716 22.2081 5.70716C22.1899 5.70716 21.804 5.61634 21.3503 5.5053C20.2554 5.23732 17.9274 5.23901 16.7297 5.50857C12.8512 6.38141 9.72925 9.18727 8.4924 12.9122C7.80556 14.9809 7.70578 17.15 8.20735 19.1114L8.43016 19.9823L7.90643 20.3514C7.61847 20.5545 7.21825 20.9799 7.01724 21.2969C6.37265 22.3131 6.29685 22.7891 6.29685 25.824C6.29685 28.558 6.29915 28.5831 6.58711 28.9178C6.85461 29.2288 6.96274 29.2603 7.96262 29.3181L9.04786 29.381L6.90171 38.2208C5.72129 43.0827 4.44448 48.3462 4.06424 49.9173L3.37304 52.774L2.72035 52.9797C1.86094 53.2506 0.851869 54.168 0.398857 55.0904L0.0605215 55.7794L0.0210449 58.8334L-0.0183105 61.8874L0.288057 62.1938L0.594424 62.5001H31.0064H61.4185L61.7698 62.124L62.1211 61.7479V58.9079C62.1211 57.0453 62.0794 56.0937 62 56.1427C61.9323 56.1845 61.8789 56.0914 61.8789 55.9314C61.8789 55.4203 61.2712 54.4093 60.5897 53.7863C60.0838 53.3239 59.7291 53.1182 59.115 52.9307L58.3066 52.6839L55.531 41.214C54.0045 34.9056 52.7327 29.6545 52.7048 29.5448C52.661 29.3728 52.8047 29.3395 53.7516 29.3026C55.444 29.2368 55.3916 29.3376 55.4372 26.0461C55.4774 23.1422 55.3598 22.2833 54.8077 21.4493C54.4084 20.8461 53.78 20.2556 53.2431 19.979C52.9868 19.847 52.8079 19.6765 52.8414 19.5961C52.8747 19.5164 53.064 18.9609 53.2622 18.3615C55.3077 12.1748 51.6415 5.62227 45.2285 4.00313C43.9682 3.68489 41.711 3.62544 40.5337 3.87925L39.8351 4.03001L39.2017 3.46026C37.7956 2.19532 36.1744 1.31981 34.3905 0.862077C33.0564 0.519745 30.9266 0.438733 29.6478 0.681526ZM29.3652 2.67546C28.899 2.79897 28.2492 3.01597 27.9212 3.15789C26.375 3.82682 24.5473 5.44063 23.707 6.87862C23.164 7.80777 22.9225 7.88939 21.7736 7.53277C20.4217 7.11294 18.2937 7.049 16.9537 7.38782C13.6546 8.22216 11.1818 10.5354 10.1419 13.7599C9.79041 14.8497 9.72078 17.4731 10.0131 18.6036L10.2324 19.4513L30.4831 19.4819L50.7338 19.5126L51.025 18.937C52.1432 16.7267 52.2397 13.7759 51.2717 11.3937C49.5917 7.25934 45.0579 4.83831 40.748 5.77437C40.2818 5.8756 39.7559 5.98943 39.5792 6.02721C39.3031 6.0863 39.1041 5.95189 38.1586 5.0673C36.8878 3.8784 35.443 3.05739 33.9503 2.67558C32.7098 2.35831 30.5628 2.35831 29.3652 2.67546ZM27.1276 8.71319C26.7306 9.11026 26.6899 9.29202 26.8961 9.74479C27.0906 10.1716 27.497 10.3087 28.5674 10.3087C29.7539 10.3087 30.1523 10.0677 30.1523 9.3499C30.1523 8.62213 29.8519 8.44 28.5682 8.38951C27.5098 8.34797 27.488 8.35282 27.1276 8.71319ZM36.573 8.71319C36.1759 9.11026 36.1352 9.29202 36.3414 9.74479C36.5363 10.1724 36.9427 10.3087 38.0223 10.3087C38.8506 10.3087 39.0228 10.2707 39.3083 10.0251C39.7255 9.66632 39.7538 9.07914 39.3724 8.69745C39.1467 8.47161 38.9442 8.42547 38.0228 8.38951C36.9542 8.34797 36.9337 8.35245 36.573 8.71319ZM16.5014 11.5979C16.1512 11.6745 15.7422 12.1986 15.7422 12.5708C15.7422 12.7313 15.876 12.9964 16.0394 13.1599C16.3105 13.431 16.4314 13.4572 17.4157 13.4572C18.7453 13.4572 19.1328 13.2408 19.1328 12.4983C19.1328 11.7988 18.8384 11.6068 17.7085 11.5697C17.1931 11.5527 16.6499 11.5654 16.5014 11.5979ZM44.8156 11.6184C44.3794 11.7509 44.0299 12.28 44.1259 12.6625C44.29 13.3162 44.5811 13.4572 45.7666 13.4572C46.7279 13.4572 46.8869 13.4252 47.1794 13.1736C47.5914 12.8192 47.6249 12.2275 47.254 11.8567C47.0464 11.6489 46.8234 11.5949 46.0531 11.5657C45.533 11.5458 44.9761 11.5696 44.8156 11.6184ZM22.2901 15.1083C21.9571 15.5315 21.973 15.9452 22.3363 16.3083C22.6095 16.5816 22.725 16.6056 23.7666 16.6056C25.0958 16.6056 25.4297 16.4224 25.4297 15.6927C25.4297 14.9477 25.1337 14.7892 23.7432 14.7892C22.5887 14.7892 22.531 14.8019 22.2901 15.1083ZM34.8838 15.1083C34.5508 15.5315 34.5668 15.9452 34.9301 16.3083C35.2033 16.5816 35.3188 16.6056 36.3603 16.6056C37.3332 16.6056 37.5308 16.5707 37.7583 16.3587C38.1548 15.9894 38.1559 15.3385 37.7605 15.0011C37.5607 14.8305 37.2803 14.7892 36.3235 14.7892C35.1835 14.7892 35.1244 14.8023 34.8838 15.1083ZM9.95642 21.4564C9.28605 21.5891 8.77067 21.9627 8.48501 22.5227C8.29853 22.8881 8.24041 23.3747 8.16823 25.1765L8.07983 27.3829H30.809H53.5381L53.5005 25.1031C53.4636 22.8666 53.4567 22.8141 53.1406 22.3368C52.9635 22.0693 52.6093 21.7466 52.3535 21.6196C51.9022 21.3955 51.2871 21.3883 31.1816 21.3712C19.7927 21.3617 10.2414 21.3999 9.95642 21.4564ZM10.9586 29.4718C10.8266 29.8464 5.33803 52.6207 5.37157 52.6544C5.3924 52.6751 16.8775 52.6783 30.8943 52.6615L56.379 52.631L54.5283 45.0021C53.5102 40.8062 52.2361 35.5614 51.6968 33.3468L50.7162 29.3204H30.8641C15.0915 29.3204 11.001 29.3516 10.9586 29.4718ZM20.6289 33.8022C19.4009 34.0538 18.1579 35.0529 17.6531 36.1941C17.0046 37.6603 17.3176 39.2556 18.5735 40.8844C18.6419 40.9732 18.5271 41.2234 18.2534 41.5819C17.6224 42.4086 17.3769 43.1493 17.3769 44.2273C17.3769 45.0407 17.4262 45.2444 17.8008 45.977C19.3548 49.0171 23.6134 48.9427 25.0839 45.8497C25.2741 45.4501 25.4295 44.9733 25.4295 44.7902L25.4297 44.4572H30.8221C35.0334 44.4572 36.2236 44.4903 36.2558 44.6085C36.6147 45.9259 36.7399 46.186 37.3207 46.8216C37.6617 47.1946 38.2181 47.646 38.5572 47.8247C39.1005 48.1108 39.3106 48.1494 40.3242 48.1496C41.3051 48.1498 41.5549 48.1072 42.0195 47.8603C42.8637 47.4116 43.3064 47.0313 43.7021 46.4144C44.6636 44.9161 44.6001 43.1255 43.534 41.6731C43.0316 40.9888 43.0144 40.8346 43.3999 40.4726C43.5597 40.3224 43.8412 39.8636 44.0255 39.4528C44.9042 37.4949 44.0282 35.1114 42.0801 34.1597C41.2157 33.7375 39.7948 33.6833 38.8533 34.0367C37.6161 34.5011 36.6692 35.6023 36.3229 36.9796L36.1783 37.5548H30.8039C25.5446 37.5548 25.4297 37.5497 25.4297 37.3172C25.4297 36.7833 24.9034 35.7121 24.3363 35.0917C23.3935 34.0599 21.9022 33.5413 20.6289 33.8022ZM20.5231 35.7861C20.0761 35.9808 19.406 36.723 19.3016 37.1389C19.2595 37.3072 19.2492 37.7384 19.2789 38.0972C19.3239 38.6399 19.4229 38.8661 19.8687 39.4438C20.3877 40.1166 20.4043 40.165 20.4043 41.006C20.4043 41.8367 20.3828 41.902 19.9037 42.5298C19.3286 43.2833 19.22 43.5697 19.2345 44.2942C19.2471 44.9226 19.4838 45.4132 19.9731 45.8249C21.503 47.1123 23.6133 46.0259 23.6133 43.9509C23.6133 43.4544 23.6788 43.1956 23.8643 42.9598L24.1152 42.6408H30.8137C38.6475 42.6408 37.985 42.5186 38.1255 43.9889C38.2359 45.1441 38.6024 45.7587 39.4162 46.1526C41.4157 47.1205 43.3649 44.7122 42.0678 42.8764C41.3308 41.8332 41.153 41.4038 41.2065 40.7963C41.2546 40.2501 41.4175 39.9423 42.1665 38.9826C42.5486 38.4933 42.6002 37.4916 42.2761 36.8563C41.6183 35.5672 39.9684 35.2077 38.9229 36.1257C38.3492 36.6293 38.1445 37.0625 38.1445 37.7729C38.1445 38.5037 37.9488 39.0956 37.6554 39.2527C37.5187 39.3258 34.9028 39.3712 30.8208 39.3712H24.2077L23.9105 39.0739C23.6673 38.8308 23.6133 38.6563 23.6133 38.1132C23.6133 37.2883 23.4641 36.8818 22.9701 36.3597C22.2982 35.6498 21.3475 35.4268 20.5231 35.7861ZM2.96423 54.9233C2.68838 55.0886 2.34847 55.4424 2.18003 55.7395C1.90139 56.2307 1.87971 56.3993 1.836 58.4132L1.78938 60.5626H31H60.2106L60.1659 58.4132C60.1229 56.3474 60.1087 56.2426 59.8009 55.7176C59.611 55.3935 59.2845 55.0611 58.9983 54.9002L58.5159 54.629L30.9835 54.6301L3.45115 54.6313L2.96423 54.9233ZM0.052166 59.049C0.0522871 60.6474 0.0694824 61.2846 0.0904316 60.4649C0.111502 59.6452 0.111381 58.3374 0.0903106 57.5587C0.0692402 56.7799 0.052166 57.4505 0.052166 59.049Z" fill="black"/>
</g>
<defs>
<clipPath id="clip0_425_1010">
<rect width="62" height="62" fill="white" transform="translate(0 0.5)"/>
</clipPath>
</defs>
</svg>
