<svg width="309" height="309" viewBox="0 0 309 309" fill="none" xmlns="http://www.w3.org/2000/svg">
<mask id="mask0_36_428" style="mask-type:alpha" maskUnits="userSpaceOnUse" x="0" y="0" width="309" height="309">
<circle cx="154.5" cy="154.5" r="154.5" fill="#C4C4C4"/>
</mask>
<g mask="url(#mask0_36_428)">
<path d="M-11.0044 119.265C-11.0044 119.265 -16.4914 178.869 28.0883 226.664C72.6679 274.458 140.936 288.738 196.041 301.771C251.146 314.804 297.709 290.501 310.036 244.067C322.363 197.633 281.697 176.589 265.418 118.672C249.14 60.7553 253.418 43.2913 208.839 1.89588C164.259 -39.4995 85.4885 -31.8162 38.4086 18.5163C-8.6713 68.8489 -11.0044 119.265 -11.0044 119.265Z" fill="white" fill-opacity="0.4"/>
<path d="M164.394 -22.0879C164.394 -22.0879 104.606 -24.9453 58.8203 21.6953C13.0351 68.336 1.77483 137.166 -8.81983 192.792C-19.4145 248.417 6.91572 293.865 53.8473 304.136C100.779 314.406 120.012 272.853 177.156 254.041C234.3 235.228 251.936 238.734 291.328 192.375C330.721 146.016 319.577 67.6598 267.22 22.8415C214.864 -21.9767 164.394 -22.0879 164.394 -22.0879Z" fill="white" fill-opacity="0.56"/>
<g opacity="0.5">
<path d="M-7.63363 248.605C-5.58172 247.883 -2.18467 244.608 -1.91868 244.342C-0.0487884 246.292 1.94931 248.115 4.06225 249.798C5.2858 250.779 6.54734 251.736 7.86209 252.679C7.20851 252.337 6.63094 252.033 6.54734 252.002C4.13825 251.06 -1.05232 250.657 -2.89904 252.899C-3.20043 253.278 -3.41772 253.718 -3.53652 254.188C-3.65531 254.657 -3.67289 255.147 -3.5881 255.624C-3.50331 256.101 -3.31807 256.555 -3.04468 256.955C-2.77128 257.355 -2.41597 257.693 -2.00228 257.945C-0.299954 259.078 2.20034 258.758 4.01666 258.112C5.83298 257.466 8.81965 254.731 9.59481 253.993C10.0888 254.351 10.5752 254.715 11.0691 255.065C13.4478 256.767 15.8341 258.454 18.1216 260.179C18.9272 260.787 19.6948 261.418 20.4699 262.041C19.8924 261.737 19.406 261.487 19.33 261.456C16.9209 260.514 11.7303 260.111 9.8836 262.353C9.58996 262.734 9.37987 263.173 9.267 263.641C9.15412 264.108 9.14098 264.595 9.22844 265.068C9.3159 265.541 9.50199 265.99 9.77461 266.387C10.0472 266.783 10.4003 267.118 10.8108 267.369C12.5131 268.494 15.0134 268.174 16.8297 267.536C18.646 266.898 21.3439 264.413 22.2634 263.546C23.0234 264.207 23.7834 264.868 24.5433 265.552C25.0221 266.024 25.5161 266.449 25.9721 266.951L27.3476 268.41C28.1836 269.36 29.0576 270.34 29.8479 271.298C30.4103 271.959 30.9271 272.59 31.4514 273.236C30.6915 272.62 29.0727 271.45 28.936 271.366C26.6561 270.074 21.6175 268.881 19.4668 270.827C19.1185 271.158 18.844 271.559 18.6612 272.003C18.4783 272.448 18.3912 272.926 18.4055 273.406C18.4199 273.887 18.5353 274.359 18.7444 274.792C18.9534 275.225 19.2514 275.608 19.6188 275.918C21.1387 277.286 23.6542 277.355 25.5465 276.998C27.6364 276.595 31.3526 273.996 31.8162 273.669C32.675 274.733 33.511 275.782 34.2785 276.777C36.3532 279.452 38.0783 281.831 39.4083 283.754L41.1106 282.857C39.6971 280.911 37.858 278.464 35.6237 275.713C34.7497 274.626 33.7921 273.487 32.8042 272.324C33.7503 271.215 34.6284 270.05 35.4337 268.836C37.4932 269.595 41.7262 269.451 42.2734 269.436C42.4102 270.804 42.5242 272.126 42.6154 273.388C42.8585 276.663 42.9801 279.536 43.0485 281.839L44.8952 280.858C44.7813 278.7 44.6065 276.131 44.3253 273.259C44.1961 271.868 44.0289 270.393 43.8389 268.874C44.3709 268.722 48.7407 267.445 50.3518 266.062C51.8261 264.808 53.3461 262.801 53.2245 260.742C53.2117 260.261 53.0979 259.788 52.8903 259.354C52.6828 258.92 52.3863 258.535 52.02 258.223C51.6537 257.911 51.2258 257.68 50.7643 257.544C50.3027 257.409 49.8178 257.372 49.3411 257.436C46.4912 257.9 44.2341 262.604 43.8465 265.157C43.8465 265.309 43.7553 266.974 43.7325 268.022C43.6565 267.407 43.5805 266.806 43.4969 266.168C43.3221 264.906 43.1169 263.653 42.9041 262.307C42.7775 261.664 42.6483 261.01 42.5166 260.347C42.4026 259.686 42.1974 259.009 42.0378 258.333C41.6426 256.767 41.1562 255.209 40.6394 253.644C41.7414 253.499 45.6476 252.884 47.2967 251.888C48.9459 250.893 50.747 249.114 50.937 247.085C50.9967 246.608 50.9555 246.123 50.816 245.663C50.6766 245.203 50.442 244.777 50.1275 244.413C49.813 244.049 49.4256 243.755 48.9903 243.55C48.555 243.346 48.0816 243.235 47.6007 243.225C44.7129 243.225 41.7718 247.564 40.9966 250.064C40.951 250.224 40.5938 252.055 40.419 253.066C40.0999 252.124 39.7883 251.189 39.4311 250.254C38.4127 247.549 37.288 244.843 36.186 242.138L35.1905 239.653C35.5857 239.6 40.2443 238.999 42.091 237.859C43.7325 236.841 45.5412 235.085 45.7236 233.056C45.7949 232.575 45.7629 232.084 45.6297 231.616C45.4964 231.147 45.265 230.713 44.9508 230.341C44.6366 229.97 44.2468 229.669 43.8075 229.46C43.3681 229.251 42.8892 229.137 42.4026 229.127C39.5071 229.127 36.566 233.467 35.7985 235.929C35.7377 236.119 35.2361 238.756 35.1373 239.432C34.3773 237.609 33.7009 235.777 33.0778 233.953C32.2252 231.487 31.5322 228.969 31.0031 226.414C31.1855 226.414 36.0568 225.783 37.9492 224.613C39.5831 223.595 41.3918 221.839 41.5818 219.81C41.6427 219.333 41.6025 218.849 41.464 218.389C41.3255 217.928 41.0917 217.502 40.7777 217.138C40.4638 216.774 40.0768 216.48 39.6419 216.275C39.2069 216.07 38.7338 215.959 38.2531 215.949C35.3577 215.949 32.4166 220.289 31.649 222.751C31.5882 222.949 31.0411 225.791 30.9803 226.308C30.9803 226.156 30.9043 226.011 30.8739 225.859C30.4138 223.281 30.1824 220.666 30.1823 218.047C30.1823 216.603 30.2279 215.22 30.3191 213.875C31.2387 213.875 35.4337 213.723 37.2576 212.856C39.0815 211.99 40.9814 210.478 41.3994 208.479C41.511 208.012 41.5233 207.526 41.4354 207.053C41.3475 206.581 41.1615 206.132 40.8893 205.736C40.6171 205.34 40.2649 205.005 39.8553 204.754C39.4457 204.502 38.9879 204.34 38.5115 204.276C35.6313 203.988 32.2342 207.947 31.1931 210.318C31.1399 210.447 30.7067 211.838 30.4331 212.818C30.4863 212.218 30.5243 211.587 30.5851 211.01C30.8055 208.829 31.1475 206.853 31.459 205.097C31.6414 204.102 31.8314 203.212 32.0138 202.376C32.9106 201.882 36.4748 199.869 37.668 198.288C38.8611 196.707 39.8871 194.488 39.3247 192.497C39.2093 192.028 38.9959 191.588 38.6987 191.207C38.4015 190.827 38.0272 190.513 37.6002 190.287C37.1732 190.061 36.7033 189.927 36.2212 189.896C35.7391 189.864 35.2558 189.935 34.8029 190.103C32.1126 191.167 30.9271 196.251 31.0943 198.827C31.0943 199.055 31.7402 202.513 31.7858 202.483H31.839C31.649 203.281 31.4514 204.14 31.2539 205.09C30.9043 206.837 30.4939 208.813 30.2507 210.994C29.9329 213.34 29.7527 215.703 29.7111 218.07C29.6527 220.722 29.8308 223.375 30.2431 225.996C30.2431 225.996 30.2431 226.057 30.2431 226.087C29.8631 225.327 28.7232 223.245 28.6168 223.101C27.0968 220.988 23.0158 217.781 20.2571 218.64C19.803 218.796 19.3867 219.046 19.0354 219.374C18.684 219.701 18.4055 220.099 18.2177 220.541C18.03 220.983 17.9373 221.46 17.9456 221.94C17.9539 222.42 18.0631 222.893 18.266 223.329C19.064 225.206 21.3059 226.323 23.1982 226.794C25.3109 227.319 29.9467 226.46 30.3191 226.391C30.801 229.047 31.4611 231.667 32.295 234.234C32.7738 235.754 33.2982 237.229 33.8149 238.718C33.4654 238.072 33.1462 237.502 33.093 237.426C31.573 235.313 27.492 232.106 24.7333 232.965C24.2792 233.121 23.8629 233.371 23.5116 233.699C23.1602 234.027 22.8817 234.424 22.6939 234.866C22.5062 235.308 22.4135 235.785 22.4218 236.265C22.4301 236.746 22.5393 237.219 22.7422 237.654C23.5402 239.539 25.7821 240.648 27.6668 241.12C29.5515 241.591 33.5414 240.945 34.5901 240.755C34.8105 241.325 35.0157 241.895 35.2361 242.465C36.2772 245.201 37.3336 247.921 38.2759 250.619C38.6103 251.569 38.9067 252.519 39.2107 253.469C38.8991 252.899 38.6255 252.42 38.5799 252.352C37.06 250.239 32.9714 247.032 30.2203 247.891C29.7655 248.046 29.3484 248.296 28.9962 248.623C28.6441 248.95 28.3647 249.348 28.1762 249.79C27.9877 250.232 27.8943 250.709 27.9021 251.19C27.91 251.67 28.0188 252.144 28.2216 252.58C29.0271 254.457 31.2615 255.574 33.1538 256.045C35.0461 256.516 38.6407 255.924 39.8871 255.711C40.1683 256.691 40.4494 257.672 40.647 258.637C40.7838 259.298 40.9662 259.929 41.0726 260.597C41.179 261.266 41.3006 261.92 41.4146 262.566C41.5818 263.827 41.7718 265.127 41.9086 266.366C42.0074 267.224 42.091 268.045 42.1746 268.866C41.8478 267.916 41.179 266.069 41.103 265.917C40.0224 263.926 38.4534 262.242 36.5432 261.023C36.4306 260.797 36.2984 260.58 36.148 260.377C35.8721 259.983 35.5165 259.652 35.1041 259.404C34.6917 259.157 34.2319 258.999 33.7546 258.941C33.2772 258.883 32.793 258.926 32.3333 259.067C31.8737 259.209 31.4489 259.445 31.0867 259.762C28.9588 261.722 29.6807 266.89 30.7599 269.238C30.8283 269.375 31.687 270.796 32.2798 271.685C31.8694 271.214 31.5198 270.751 31.0563 270.272C30.2203 269.314 29.3539 268.38 28.4344 267.376L27.0284 265.948C26.5725 265.469 26.0253 265.013 25.5085 264.534C24.3154 263.455 23.0538 262.414 21.7619 261.403C22.5978 260.643 25.5617 258.021 26.3217 256.258C27.0816 254.495 27.6668 252.048 26.7017 250.247C26.4937 249.812 26.1962 249.426 25.8286 249.115C25.4611 248.803 25.0319 248.572 24.5691 248.438C24.1062 248.304 23.6203 248.269 23.1431 248.336C22.6658 248.403 22.2081 248.57 21.7999 248.826C19.3984 250.444 19.3224 255.665 20.0367 258.15C20.0823 258.302 20.7967 260.028 21.2071 260.962C20.4471 260.362 19.6872 259.754 18.836 259.169C16.4953 257.474 14.0634 255.832 11.6543 254.191L9.45042 252.671C9.7544 252.413 13.3034 249.342 14.2154 247.351C15.021 245.596 15.5605 243.141 14.5954 241.34C14.3823 240.914 14.0823 240.537 13.7147 240.234C13.3472 239.931 12.9202 239.708 12.4613 239.58C12.0024 239.452 11.5218 239.421 11.0503 239.49C10.5789 239.559 10.1271 239.726 9.724 239.98C7.32251 241.591 7.24651 246.819 7.96848 249.297C8.02168 249.479 9.05523 251.964 9.34402 252.58C7.73289 251.455 6.13696 250.3 4.60183 249.145C2.52758 247.561 0.557712 245.845 -1.29551 244.007C-1.15872 243.886 2.57272 240.694 3.49988 238.688C4.30544 236.94 4.85262 234.477 3.88746 232.676C3.67445 232.245 3.37311 231.864 3.00302 231.557C2.63294 231.25 2.20239 231.024 1.73937 230.894C1.27634 230.765 0.7912 230.734 0.315471 230.804C-0.160258 230.874 -0.615926 231.043 -1.02192 231.301C-3.42342 232.919 -3.49941 238.14 -2.77744 240.618C-2.72425 240.816 -1.60709 243.483 -1.37151 243.947L-1.70589 243.635C-3.51507 241.741 -5.1505 239.689 -6.59248 237.502C-7.40564 236.301 -8.11241 235.116 -8.78118 233.945C-8.02121 233.421 -4.60136 230.989 -3.56021 229.264C-2.51906 227.539 -1.75909 225.229 -2.51906 223.336C-2.68257 222.884 -2.93949 222.471 -3.27311 222.124C-3.60674 221.778 -4.00959 221.505 -4.45547 221.325C-4.90134 221.144 -5.38025 221.059 -5.86104 221.076C-6.34183 221.092 -6.81373 221.21 -7.24605 221.421C-9.80713 222.766 -10.4531 227.949 -10.0123 230.495C-10.0123 230.632 -9.59434 232.015 -9.25236 233.011C-9.54114 232.479 -9.85273 231.932 -10.1187 231.415C-11.1371 229.477 -11.9502 227.615 -12.657 226.011C-13.0446 225.077 -13.417 224.225 -13.6906 223.428C-13.2194 222.531 -11.3575 218.868 -11.2359 216.907C-11.1143 214.946 -11.5551 212.476 -13.075 211.146C-13.4286 210.82 -13.8468 210.573 -14.3025 210.419C-14.7582 210.265 -15.2412 210.209 -15.72 210.254C-16.1988 210.299 -16.6628 210.445 -17.0817 210.681C-17.5006 210.917 -17.8651 211.239 -18.1516 211.625C-19.8083 213.996 -17.992 218.891 -16.4264 220.95C-16.2896 221.132 -13.8578 223.663 -13.835 223.617V223.564C-13.5538 224.324 -13.2422 225.168 -12.8926 226.065C-12.2162 227.714 -11.4411 229.576 -10.4683 231.544C-9.4332 233.677 -8.27351 235.748 -6.99526 237.745C-5.58161 239.988 -3.97177 242.102 -2.18467 244.061L-2.11627 244.129C-2.87624 243.703 -4.95095 242.609 -5.15614 242.533C-7.56523 241.591 -12.7558 241.188 -14.5949 243.43C-14.8888 243.81 -15.0992 244.248 -15.2126 244.714C-15.326 245.181 -15.3397 245.667 -15.253 246.139C-15.1662 246.612 -14.9809 247.061 -14.7091 247.457C-14.4373 247.853 -14.085 248.187 -13.6754 248.438C-11.9502 249.586 -9.45755 249.251 -7.63363 248.605Z" fill="#333333"/>
<path d="M29.9389 213.457C29.9921 213.457 29.1789 210.037 29.1029 209.824C28.229 207.392 25.1055 203.212 22.21 203.311C21.7308 203.343 21.2636 203.475 20.8384 203.698C20.4132 203.921 20.0397 204.231 19.7418 204.608C19.4438 204.985 19.2282 205.42 19.1088 205.885C18.9894 206.35 18.9689 206.835 19.0486 207.309C19.3298 209.338 21.2069 211.01 22.894 211.952C24.8699 213.062 29.9313 213.457 29.9389 213.457Z" fill="#333333"/>
<path d="M325.239 248.605C323.187 247.883 319.79 244.608 319.517 244.342C317.649 246.294 315.65 248.117 313.536 249.798C312.312 250.779 311.051 251.736 309.774 252.679C310.42 252.337 311.005 252.033 311.089 252.002C313.498 251.06 318.688 250.657 320.527 252.899C320.821 253.28 321.031 253.718 321.144 254.185C321.257 254.652 321.27 255.138 321.182 255.61C321.095 256.083 320.909 256.531 320.636 256.927C320.364 257.323 320.011 257.657 319.6 257.907C317.898 259.04 315.405 258.72 313.581 258.074C311.757 257.428 308.778 254.693 308.011 253.955L306.529 255.027C304.15 256.729 301.772 258.416 299.484 260.142C298.678 260.749 297.903 261.38 297.128 262.003C297.706 261.699 298.192 261.449 298.276 261.418C300.677 260.476 305.875 260.073 307.714 262.315C308.008 262.696 308.218 263.135 308.331 263.603C308.444 264.07 308.457 264.557 308.37 265.03C308.282 265.503 308.096 265.952 307.823 266.349C307.551 266.745 307.198 267.08 306.787 267.331C305.085 268.456 302.585 268.136 300.768 267.498C298.952 266.86 296.254 264.375 295.335 263.508C294.575 264.169 293.815 264.83 293.055 265.514C292.568 265.986 292.074 266.411 291.618 266.913C291.162 267.414 290.699 267.886 290.25 268.372C289.407 269.322 288.54 270.302 287.743 271.26C287.188 271.921 286.663 272.552 286.139 273.198C286.937 272.582 288.518 271.412 288.662 271.328C290.896 270.036 295.981 268.843 298.124 270.789C298.472 271.12 298.746 271.521 298.929 271.965C299.112 272.41 299.199 272.888 299.185 273.368C299.171 273.849 299.055 274.321 298.846 274.754C298.637 275.187 298.339 275.57 297.972 275.88C296.452 277.248 293.944 277.317 292.044 276.96C289.962 276.557 286.245 273.958 285.782 273.631C284.915 274.695 284.087 275.744 283.312 276.739C281.245 279.414 279.512 281.793 278.182 283.716L276.472 282.819C277.886 280.873 279.732 278.426 281.959 275.675C282.833 274.588 283.791 273.449 284.786 272.286C283.839 271.176 282.959 270.011 282.149 268.798C280.09 269.557 275.857 269.413 275.309 269.398C275.18 270.766 275.059 272.088 274.967 273.35C274.724 276.625 274.603 279.498 274.542 281.801L272.688 280.82C272.802 278.662 272.984 276.093 273.258 273.221C273.394 271.83 273.562 270.355 273.744 268.836C273.212 268.684 268.85 267.407 267.231 266.024C265.764 264.77 264.244 262.763 264.366 260.704C264.378 260.223 264.491 259.751 264.697 259.317C264.904 258.883 265.2 258.497 265.566 258.185C265.931 257.873 266.359 257.642 266.82 257.506C267.281 257.371 267.765 257.334 268.242 257.398C271.099 257.862 273.349 262.566 273.736 265.119C273.736 265.271 273.828 266.936 273.85 267.984C273.934 267.369 274.002 266.768 274.094 266.13C274.261 264.868 274.466 263.615 274.686 262.269C274.808 261.623 274.937 260.97 275.066 260.309C275.195 259.648 275.385 258.971 275.545 258.295C275.948 256.729 276.427 255.171 276.943 253.606C275.841 253.461 271.935 252.846 270.286 251.85C268.637 250.855 266.836 249.076 266.653 247.047C266.593 246.57 266.633 246.086 266.771 245.626C266.91 245.165 267.144 244.739 267.458 244.375C267.771 244.011 268.158 243.717 268.593 243.512C269.028 243.308 269.501 243.197 269.982 243.187C272.878 243.187 275.819 247.526 276.586 250.026C276.639 250.186 276.989 252.017 277.164 253.028C277.483 252.086 277.802 251.151 278.152 250.216C279.178 247.511 280.295 244.805 281.397 242.1C281.739 241.272 282.066 240.443 282.392 239.615C282.005 239.562 277.339 238.961 275.492 237.821C273.858 236.803 272.049 235.047 271.859 233.018C271.798 232.541 271.839 232.057 271.977 231.597C272.116 231.136 272.349 230.71 272.663 230.346C272.977 229.982 273.364 229.688 273.799 229.483C274.234 229.279 274.707 229.168 275.188 229.158C278.083 229.158 281.024 233.497 281.8 235.959C281.853 236.149 282.362 238.786 282.453 239.463C283.213 237.639 283.89 235.807 284.52 233.983C285.376 231.518 286.071 229 286.603 226.445C286.42 226.445 281.556 225.814 279.664 224.643C278.023 223.625 276.214 221.87 276.024 219.84C275.964 219.363 276.005 218.879 276.145 218.418C276.284 217.958 276.519 217.532 276.833 217.168C277.148 216.804 277.535 216.51 277.971 216.306C278.406 216.101 278.879 215.99 279.36 215.98C282.256 215.98 285.189 220.319 285.964 222.782C286.025 222.979 286.565 225.821 286.625 226.338C286.625 226.186 286.709 226.042 286.732 225.89C287.196 223.312 287.427 220.697 287.423 218.077C287.423 216.633 287.378 215.25 287.287 213.905C286.367 213.905 282.172 213.753 280.356 212.887C278.539 212.02 276.624 210.508 276.214 208.509C276.101 208.042 276.088 207.556 276.175 207.083C276.263 206.61 276.448 206.161 276.721 205.764C276.993 205.368 277.346 205.033 277.756 204.782C278.166 204.531 278.625 204.369 279.102 204.307C281.982 204.018 285.379 207.977 286.413 210.348C286.473 210.478 286.899 211.868 287.173 212.849C287.119 212.248 287.081 211.618 287.021 211.04C286.8 208.859 286.466 206.883 286.147 205.128C285.964 204.132 285.774 203.243 285.592 202.407C284.703 201.913 281.138 199.899 279.945 198.318C278.752 196.738 277.726 194.518 278.281 192.527C278.397 192.061 278.61 191.624 278.905 191.245C279.201 190.866 279.573 190.554 279.997 190.328C280.421 190.102 280.888 189.968 281.368 189.935C281.847 189.901 282.328 189.969 282.78 190.133C285.47 191.197 286.656 196.282 286.489 198.858C286.489 199.086 285.843 202.544 285.797 202.513H285.744C285.934 203.311 286.139 204.17 286.337 205.12C286.686 206.868 287.097 208.844 287.34 211.025C287.655 213.371 287.832 215.733 287.872 218.1C287.933 220.753 287.757 223.405 287.347 226.027V226.118C287.727 225.358 288.867 223.276 288.974 223.131C290.494 221.018 294.575 217.811 297.333 218.67C297.788 218.825 298.205 219.075 298.557 219.402C298.909 219.73 299.188 220.127 299.376 220.57C299.564 221.012 299.657 221.489 299.648 221.97C299.639 222.451 299.529 222.924 299.324 223.359C298.526 225.236 296.285 226.353 294.4 226.825C292.287 227.349 287.644 226.49 287.271 226.422C286.789 229.077 286.129 231.698 285.295 234.265C284.817 235.785 284.292 237.259 283.776 238.748C284.125 238.102 284.444 237.533 284.497 237.457C286.017 235.344 290.106 232.137 292.857 232.996C293.312 233.151 293.729 233.4 294.081 233.728C294.433 234.055 294.713 234.452 294.901 234.895C295.09 235.337 295.183 235.814 295.175 236.294C295.167 236.775 295.059 237.249 294.856 237.684C294.05 239.569 291.816 240.679 289.924 241.15C288.031 241.621 284.049 240.975 283 240.785L282.362 242.495C281.313 245.231 280.257 247.952 279.322 250.65C278.988 251.599 278.691 252.549 278.395 253.499C278.707 252.929 278.973 252.451 279.018 252.382C280.538 250.27 284.627 247.062 287.378 247.921C287.832 248.078 288.248 248.328 288.6 248.655C288.951 248.983 289.229 249.38 289.417 249.822C289.605 250.265 289.698 250.741 289.689 251.221C289.681 251.702 289.572 252.175 289.369 252.61C288.563 254.487 286.329 255.605 284.437 256.076C282.544 256.547 278.95 255.954 277.703 255.741C277.43 256.722 277.149 257.702 276.943 258.667C276.807 259.328 276.624 259.959 276.525 260.628C276.427 261.297 276.297 261.95 276.183 262.596C276.009 263.858 275.826 265.157 275.689 266.396C275.583 267.255 275.499 268.076 275.416 268.896C275.743 267.946 276.419 266.1 276.487 265.948C277.553 263.932 279.118 262.223 281.032 260.985C281.139 260.756 281.271 260.539 281.427 260.339C281.702 259.945 282.057 259.614 282.469 259.367C282.881 259.119 283.34 258.962 283.817 258.904C284.294 258.845 284.777 258.888 285.236 259.03C285.695 259.171 286.119 259.407 286.481 259.724C288.609 261.684 287.895 266.852 286.808 269.2C286.739 269.337 285.881 270.758 285.288 271.647C285.698 271.176 286.093 270.713 286.519 270.234C287.355 269.276 288.214 268.342 289.141 267.338L290.539 265.91C291.003 265.431 291.55 264.975 292.059 264.496C293.252 263.417 294.514 262.376 295.813 261.365C294.977 260.605 292.014 257.983 291.254 256.22C290.494 254.457 289.901 252.01 290.866 250.209C291.078 249.777 291.379 249.395 291.749 249.087C292.119 248.779 292.549 248.553 293.012 248.422C293.475 248.292 293.961 248.26 294.437 248.33C294.913 248.399 295.369 248.568 295.775 248.826C298.177 250.444 298.245 255.665 297.531 258.15C297.485 258.302 296.771 260.028 296.361 260.962C297.121 260.362 297.918 259.754 298.732 259.169C301.08 257.474 303.504 255.832 305.921 254.191L308.117 252.671C307.821 252.413 304.264 249.342 303.352 247.351C302.547 245.596 302.007 243.141 302.972 241.34C303.184 240.908 303.485 240.526 303.855 240.218C304.225 239.91 304.656 239.684 305.119 239.554C305.583 239.424 306.068 239.394 306.544 239.465C307.02 239.535 307.476 239.706 307.882 239.964C310.276 241.576 310.352 246.804 309.637 249.282C309.584 249.464 308.55 251.949 308.254 252.565C309.873 251.44 311.469 250.285 312.996 249.13C315.072 247.548 317.042 245.832 318.894 243.992C318.757 243.871 315.033 240.679 314.098 238.672C313.293 236.925 312.753 234.462 313.718 232.661C313.93 232.23 314.231 231.849 314.6 231.542C314.97 231.235 315.4 231.009 315.862 230.879C316.325 230.75 316.809 230.719 317.284 230.789C317.759 230.859 318.215 231.028 318.62 231.286C321.021 232.904 321.097 238.125 320.375 240.603C320.322 240.8 319.213 243.468 318.977 243.931L319.312 243.62C321.116 241.724 322.749 239.672 324.191 237.487C325.004 236.286 325.71 235.101 326.379 233.93C325.619 233.406 322.199 230.974 321.166 229.249C320.132 227.524 319.365 225.213 320.125 223.321C320.288 222.869 320.545 222.456 320.879 222.109C321.212 221.763 321.615 221.49 322.061 221.309C322.507 221.129 322.986 221.044 323.467 221.061C323.947 221.077 324.419 221.195 324.852 221.406C327.413 222.751 328.059 227.934 327.618 230.48C327.618 230.617 327.192 232 326.858 232.996C327.147 232.464 327.458 231.916 327.732 231.4C328.75 229.462 329.556 227.6 330.263 225.996C330.658 225.061 331.023 224.21 331.304 223.412C330.825 222.516 328.971 218.853 328.842 216.892C328.712 214.931 329.108 212.476 330.65 211.146C331.004 210.82 331.422 210.573 331.878 210.419C332.333 210.265 332.816 210.209 333.295 210.254C333.774 210.299 334.238 210.445 334.657 210.681C335.076 210.917 335.44 211.239 335.727 211.625C337.384 213.996 335.567 218.891 334.009 220.95C333.872 221.132 331.433 223.663 331.41 223.618V223.564C331.137 224.324 330.825 225.168 330.468 226.065C329.799 227.714 329.024 229.576 328.044 231.544C327.013 233.677 325.859 235.748 324.586 237.745C323.177 239.992 321.567 242.106 319.775 244.061L319.707 244.129C320.467 243.703 322.541 242.609 322.747 242.533C325.148 241.591 330.346 241.188 332.185 243.43C332.479 243.81 332.689 244.248 332.802 244.716C332.914 245.183 332.928 245.668 332.84 246.141C332.753 246.613 332.567 247.062 332.294 247.458C332.021 247.854 331.668 248.188 331.258 248.438C329.556 249.586 327.056 249.251 325.239 248.605Z" fill="#333333"/>
<path d="M287.667 213.457C287.613 213.457 288.427 210.037 288.495 209.824C289.369 207.392 292.5 203.212 295.388 203.311C295.867 203.342 296.335 203.473 296.761 203.696C297.187 203.919 297.561 204.229 297.859 204.606C298.157 204.983 298.373 205.418 298.492 205.884C298.611 206.349 298.63 206.835 298.549 207.309C298.276 209.338 296.391 211.01 294.711 211.952C292.736 213.062 287.667 213.457 287.667 213.457Z" fill="#333333"/>
</g>
<path d="M230.339 47H74.7998C71.0444 47 68 50.0444 68 53.7998V345.023C68 348.778 71.0444 351.822 74.7998 351.822H230.339C234.094 351.822 237.139 348.778 237.139 345.023V53.7998C237.139 50.0444 234.094 47 230.339 47Z" fill="#333333" stroke="#333333" stroke-miterlimit="10"/>
<path d="M164.265 65.2135H143.211C142.927 65.2135 142.645 65.1575 142.382 65.0487C142.119 64.9398 141.881 64.7803 141.68 64.5792C141.478 64.378 141.319 64.1393 141.21 63.8765C141.101 63.6137 141.045 63.3321 141.045 63.0477V63.0477C141.045 62.7637 141.101 62.4826 141.21 62.2203C141.319 61.9581 141.479 61.72 141.68 61.5197C141.881 61.3194 142.12 61.1608 142.383 61.0531C142.646 60.9453 142.927 60.8905 143.211 60.8919H164.265C164.837 60.8919 165.385 61.119 165.79 61.5233C166.194 61.9276 166.421 62.4759 166.421 63.0477C166.422 63.3316 166.368 63.613 166.26 63.8757C166.152 64.1385 165.994 64.3773 165.793 64.5786C165.593 64.7798 165.355 64.9395 165.093 65.0485C164.83 65.1574 164.549 65.2135 164.265 65.2135Z" fill="#FFC700"/>
<path d="M226.45 324.583H78.688V65.4651H113.715L117.653 68.729C119.026 69.8769 120.76 70.5046 122.549 70.502H184.342C186.197 70.4917 187.985 69.812 189.379 68.5879L192.935 65.4651H226.42L226.45 324.583Z" fill="white" stroke="#333333" stroke-width="0.938618" stroke-linecap="round" stroke-linejoin="round"/>
<path d="M137.701 84.5652L135.686 77.7957H85.3977V84.5652V310.822V317.602H220.195V84.5652H137.701Z" fill="#FFC700"/>
<path d="M215.45 96.7642H90.1323V310.147H215.45V96.7642Z" fill="white"/>
<path d="M143.382 300.829C166.171 300.829 184.644 274.544 184.644 242.119C184.644 209.694 166.171 183.409 143.382 183.409C120.594 183.409 102.12 209.694 102.12 242.119C102.12 274.544 120.594 300.829 143.382 300.829Z" fill="#FFC700"/>
<path opacity="0.5" d="M143.382 300.829C166.171 300.829 184.644 274.544 184.644 242.119C184.644 209.694 166.171 183.409 143.382 183.409C120.594 183.409 102.12 209.694 102.12 242.119C102.12 274.544 120.594 300.829 143.382 300.829Z" fill="white"/>
<path d="M149.236 176.589C149.236 176.589 146.657 172.278 144.289 172.066C141.922 171.855 113.736 189.544 109.424 198.752C105.112 207.959 101.033 226.434 112.446 244.214C123.578 261.511 141.025 260.937 150.072 260.071C159.118 259.204 165.182 256.263 174.349 248.909C183.517 241.555 191.928 230.726 193.147 223.372C194.366 216.018 189.883 211.928 187.022 210.911C184.161 209.893 167.61 210.095 155.552 197.815C143.493 185.535 149.236 176.589 149.236 176.589Z" fill="#333333" stroke="#333333" stroke-linecap="round" stroke-linejoin="round"/>
<path d="M152.892 170.988C152.892 170.988 145.578 173.789 141.055 178.735C136.532 183.681 133.742 191.438 133.53 202.842C133.318 214.245 136.975 227.15 151.169 232.751C165.363 238.352 178.066 234.04 182.156 230.162C186.246 226.283 191.223 215.323 191.223 215.323C191.223 215.323 168.637 221.367 157.878 208.644C147.12 195.921 152.892 170.988 152.892 170.988Z" fill="white" stroke="#333333" stroke-linecap="round" stroke-linejoin="round"/>
<path d="M279.298 178.936C273.777 170.656 260.601 168.208 250.185 164.833C239.768 161.458 233.633 154.759 236.394 138.178C239.154 121.596 253.519 94.6592 253.247 89.7532C252.975 84.8473 203.603 85.1596 199 86.7311C194.396 88.3026 193.489 87.95 189.198 93.4705C186.82 96.4518 184.668 99.6069 182.761 102.91L188.08 91.7277H188.473C189.051 90.2581 189.871 88.896 190.9 87.6982C195.581 82.2681 198.234 75.3825 198.405 68.2155C198.607 57.6683 191.102 58.6857 189.682 61.9295C188.261 65.1732 179.95 76.335 177.512 79.3773C175.075 82.4195 170.007 90.7405 170.007 90.7405L164.376 110.263C164.376 110.263 163.147 116.086 156.096 138.158C149.044 160.229 152.116 170.404 152.116 170.404C152.116 170.404 150.273 169.487 145.981 182.664C141.69 195.84 143.534 212.694 151.19 220.662C158.846 228.63 168.97 228.328 180.313 223.734C187.291 220.745 193.102 215.56 196.864 208.966C196.864 208.966 208.822 205.944 217.707 199.165C226.592 192.385 233.331 185.374 246.226 185.988C259.12 186.603 273.808 193.956 278.714 193.644C283.619 193.332 284.818 187.207 279.298 178.936Z" fill="white"/>
<path d="M200.249 150.256C166.149 155.344 155.43 163.483 158.835 174.685C159.542 176.907 160.69 178.962 162.21 180.729C162.21 180.941 162.21 181.173 162.27 181.414C162.27 181.414 162.875 181.777 163.781 182.422C164.975 183.575 166.266 184.623 167.64 185.555C169.876 187.68 171.881 190.34 171.468 192.808C170.591 198.066 158.372 207.254 152.197 207.697C146.021 208.14 143.876 202.005 142.999 208.573C142.123 215.142 155.702 231.34 168.838 229.587C181.975 227.834 192.925 209.44 192.925 209.44C192.925 209.44 191.172 206.418 199.977 197.18C205.759 191.136 214.029 188.466 220.366 185.988C226.348 184.229 232.179 181.992 237.804 179.299C253.388 171.663 271.903 176.76 271.903 176.76C271.903 176.76 234.348 145.109 200.249 150.256Z" fill="#FFC700"/>
<path opacity="0.5" d="M200.249 150.256C166.149 155.344 155.43 163.483 158.835 174.685C159.542 176.907 160.69 178.962 162.21 180.729C162.21 180.941 162.21 181.173 162.27 181.414C162.27 181.414 162.875 181.777 163.781 182.422C164.975 183.575 166.266 184.623 167.64 185.555C169.876 187.68 171.881 190.34 171.468 192.808C170.591 198.066 158.372 207.254 152.197 207.697C146.021 208.14 143.876 202.005 142.999 208.573C142.123 215.142 155.702 231.34 168.838 229.587C181.975 227.834 192.925 209.44 192.925 209.44C192.925 209.44 191.172 206.418 199.977 197.18C205.759 191.136 214.029 188.466 220.366 185.988C226.348 184.229 232.179 181.992 237.804 179.299C253.388 171.663 271.903 176.76 271.903 176.76C271.903 176.76 234.348 145.109 200.249 150.256Z" fill="white"/>
<path d="M279.298 178.936C273.777 170.656 260.601 168.208 250.185 164.833C239.768 161.458 233.633 154.759 236.394 138.178C239.154 121.596 253.519 94.6592 253.247 89.7532C252.975 84.8473 203.603 85.1596 199 86.7311C194.396 88.3026 193.489 87.95 189.198 93.4705C186.82 96.4518 184.668 99.6069 182.761 102.91L188.08 91.7277H188.473C189.051 90.2581 189.871 88.896 190.9 87.6982C195.581 82.2681 198.234 75.3825 198.405 68.2155C198.607 57.6683 191.102 58.6857 189.682 61.9295C188.261 65.1732 179.95 76.335 177.512 79.3773C175.075 82.4195 170.007 90.7405 170.007 90.7405L164.376 110.263C164.376 110.263 163.147 116.086 156.096 138.158C149.044 160.229 152.116 170.404 152.116 170.404C152.116 170.404 150.273 169.487 145.981 182.664C141.69 195.84 143.534 212.694 151.19 220.662C158.846 228.63 168.97 228.328 180.313 223.734C187.291 220.745 193.102 215.56 196.864 208.966C196.864 208.966 208.822 205.944 217.707 199.165C226.592 192.385 233.331 185.374 246.226 185.988C259.12 186.603 273.808 193.956 278.714 193.644C283.619 193.332 284.818 187.207 279.298 178.936Z" stroke="#333333" stroke-linecap="round" stroke-linejoin="round"/>
<path d="M279.469 193.574C279.469 193.574 280.114 190.995 272.8 187.529C265.486 184.064 262.474 186.452 262.474 188.174C262.474 189.897 278.341 193.574 279.469 193.574Z" fill="white" stroke="#333333" stroke-linecap="round" stroke-linejoin="round"/>
<path d="M210.171 75.5393L191.716 89.7433H216.467C216.467 89.7433 216.467 72.2955 210.171 75.5393Z" fill="white" stroke="#333333" stroke-linecap="round" stroke-linejoin="round"/>
<path d="M187.022 177.989C189.643 175.027 192.911 172.707 196.572 171.21" stroke="#333333" stroke-linecap="round" stroke-linejoin="round"/>
<path d="M183.667 183.5C183.95 182.681 184.318 181.894 184.766 181.152" stroke="#333333" stroke-linecap="round" stroke-linejoin="round"/>
<path d="M176.314 202.64C175.327 201.772 174.404 200.832 173.553 199.83" stroke="#333333" stroke-linecap="round" stroke-linejoin="round"/>
<path d="M196.864 208.966C191.172 209.614 185.422 208.436 180.444 205.602" stroke="#333333" stroke-linecap="round" stroke-linejoin="round"/>
<path d="M265.869 88.5244H172.868C160.024 88.5244 149.618 98.4672 149.618 110.687V154.508C149.618 165.166 157.485 174.071 167.982 176.217L163.076 190.733L185.783 176.751H265.869C278.703 176.751 289.119 166.808 289.119 154.588V110.767C289.119 98.4672 278.703 88.5244 265.869 88.5244Z" fill="#FFC700" stroke="#333333" stroke-width="2" stroke-miterlimit="10"/>
<path d="M164.759 118.03H269.304" stroke="#333333" stroke-width="2.06409" stroke-miterlimit="10" stroke-linecap="round"/>
<path d="M164.759 128.799H269.304" stroke="#333333" stroke-width="2.06409" stroke-miterlimit="10" stroke-linecap="round"/>
<path d="M164.759 139.558H269.304" stroke="#333333" stroke-width="2.06409" stroke-miterlimit="10" stroke-linecap="round"/>
<path d="M164.759 150.317H269.304" stroke="#333333" stroke-width="2.06409" stroke-miterlimit="10" stroke-linecap="round"/>
<path d="M288.274 126.935C295.434 126.935 301.238 121.392 301.238 114.554C301.238 107.717 295.434 102.174 288.274 102.174C281.113 102.174 275.309 107.717 275.309 114.554C275.309 121.392 281.113 126.935 288.274 126.935Z" fill="#333333"/>
<path d="M287.266 123.299C286.84 122.448 286.649 121.498 286.712 120.549V110.475L284.436 111.744C284.191 111.886 283.913 111.962 283.63 111.966C283.418 111.968 283.207 111.925 283.013 111.84C282.818 111.755 282.644 111.63 282.502 111.472C282.205 111.164 282.042 110.751 282.048 110.324C282.042 110.033 282.126 109.748 282.29 109.508C282.525 109.227 282.804 108.985 283.116 108.793L287.528 106.536C288.021 106.183 288.597 105.964 289.201 105.901C290.702 105.901 291.447 107.03 291.447 109.286V120.901C291.447 123.107 290.661 124.205 289.08 124.205C288.723 124.237 288.365 124.169 288.045 124.009C287.725 123.849 287.455 123.603 287.266 123.299Z" fill="white"/>
<path d="M238.529 82.0369C238.529 82.0369 238.942 90.1463 246.246 94.0046C253.549 97.8629 262.878 97.0267 263.079 92.1812C263.281 87.3358 257.599 82.2384 253.751 75.7408C249.903 69.2432 241.37 72.9101 237.723 77.3728" fill="white"/>
<path d="M238.529 82.0369C238.529 82.0369 238.942 90.1463 246.246 94.0046C253.549 97.8629 262.878 97.0267 263.079 92.1812C263.281 87.3358 257.599 82.2384 253.751 75.7408C249.903 69.2432 241.37 72.9101 237.723 77.3728" stroke="#333333" stroke-linecap="round" stroke-linejoin="round"/>
<path d="M251.111 88.5246C250.496 91.7683 252.733 93.5614 254.758 94.5688C256.782 95.5762 260.802 94.9818 263.079 92.141C263.179 89.7636 261.88 87.3459 260.056 84.7368C257.518 85.0592 251.584 85.986 251.111 88.5246Z" fill="white" stroke="#333333" stroke-linecap="round" stroke-linejoin="round"/>
<path d="M223.317 82.0369C223.317 82.0369 223.72 90.1463 231.024 94.0046C238.327 97.8629 247.666 97.0267 247.867 92.1812C248.069 87.3358 242.387 82.2384 238.529 75.7408C234.671 69.2432 226.158 72.9101 222.501 77.3728" fill="white"/>
<path d="M223.317 82.0369C223.317 82.0369 223.72 90.1463 231.024 94.0046C238.327 97.8629 247.666 97.0267 247.867 92.1812C248.069 87.3358 242.387 82.2384 238.529 75.7408C234.671 69.2432 226.158 72.9101 222.501 77.3728" stroke="#333333" stroke-linecap="round" stroke-linejoin="round"/>
<path d="M235.9 88.5246C235.285 91.7683 237.522 93.5614 239.547 94.5688C241.571 95.5762 245.591 94.9818 247.868 92.141C247.958 89.7636 246.659 87.3459 244.845 84.7368C242.307 85.0592 236.373 85.986 235.9 88.5246Z" fill="white" stroke="#333333" stroke-linecap="round" stroke-linejoin="round"/>
<path d="M209.164 82.0369C209.164 82.0369 209.567 90.1463 216.87 94.0046C224.174 97.8629 233.502 97.0267 233.704 92.1812C233.905 87.3358 228.234 82.2384 224.375 75.7408C220.517 69.2432 211.995 72.9101 208.348 77.3728" fill="white"/>
<path d="M209.164 82.0369C209.164 82.0369 209.567 90.1463 216.87 94.0046C224.174 97.8629 233.502 97.0267 233.704 92.1812C233.905 87.3358 228.234 82.2384 224.375 75.7408C220.517 69.2432 211.995 72.9101 208.348 77.3728" stroke="#333333" stroke-linecap="round" stroke-linejoin="round"/>
<path d="M221.736 88.5246C221.132 91.7683 223.358 93.5614 225.393 94.5688C227.428 95.5762 231.437 94.9818 233.704 92.141C233.805 89.7636 232.505 87.3459 230.682 84.7368C228.143 85.0592 222.21 85.986 221.736 88.5246Z" fill="white" stroke="#333333" stroke-linecap="round" stroke-linejoin="round"/>
<path d="M152.116 170.404C152.116 170.404 152.681 182.875 159.561 191.267" stroke="#333333" stroke-linecap="round" stroke-linejoin="round"/>
<path d="M132.09 222.455C132.09 224.993 130.397 227.048 128.312 227.048C126.227 227.048 124.534 225.034 124.534 222.455C124.534 219.876 126.227 217.861 128.312 217.861C130.397 217.861 132.09 219.916 132.09 222.455Z" fill="white"/>
<path d="M122.691 228.177C122.691 230.716 120.998 232.771 118.913 232.771C116.828 232.771 115.135 230.756 115.135 228.177C115.135 225.598 116.828 223.573 118.913 223.573C120.998 223.573 122.691 225.638 122.691 228.177Z" stroke="#333333" stroke-linecap="round" stroke-linejoin="round"/>
</g>
</svg>
