<svg width="25" height="25" viewBox="0 0 25 25" fill="none" xmlns="http://www.w3.org/2000/svg">
<g id="image">
<path id="Vector" d="M4.98108 9.43751C4.98108 6.85951 7.07008 4.77051 9.64808 4.77051H16.3141C18.8921 4.77051 20.9811 6.85951 20.9811 9.43751V16.1035C20.9811 18.6815 18.8921 20.7705 16.3141 20.7705H9.64808C7.07008 20.7705 4.98108 18.6815 4.98108 16.1035V9.43751ZM16.3141 8.10351C16.3031 8.58751 16.5551 9.03851 16.9721 9.28351C17.3891 9.52851 17.9051 9.52851 18.3221 9.28351C18.7391 9.03951 18.9911 8.58751 18.9801 8.10451C18.9641 7.37951 18.3721 6.80051 17.6481 6.80051C16.9231 6.80051 16.3311 7.37951 16.3141 8.10351ZM9.64808 12.7705C9.64808 14.6115 11.1411 16.1045 12.9821 16.1035C14.8231 16.1035 16.3151 14.6105 16.3151 12.7695C16.3151 10.9285 14.8221 9.43651 12.9811 9.43651C11.1401 9.43651 9.64708 10.9295 9.64808 12.7705Z" fill="black"/>
</g>
</svg>
