<svg width="30" height="31" viewBox="0 0 30 31" fill="none" xmlns="http://www.w3.org/2000/svg">
<g id="SVG">
<path id="Vector" d="M3.19554 4.5789V27.0544C3.19569 27.1032 3.21023 27.1508 3.23734 27.1914C3.26446 27.2318 3.30293 27.2635 3.34795 27.2822C3.39296 27.301 3.44251 27.3061 3.49038 27.2968C3.53825 27.2875 3.5823 27.2642 3.61703 27.2299L15.3197 15.8172L3.61703 4.40332C3.5823 4.36909 3.53825 4.34587 3.49038 4.33657C3.44251 4.32728 3.39296 4.33232 3.34795 4.35107C3.30293 4.36982 3.26446 4.40145 3.23734 4.44197C3.21023 4.4825 3.19569 4.53014 3.19554 4.5789Z" fill="black"/>
<path id="Vector_2" d="M20.2259 11.127L5.55223 3.04263L5.54308 3.03749C5.2903 2.90023 5.0501 3.24222 5.25713 3.44124L16.7597 14.4399L20.2259 11.127Z" fill="black"/>
<path id="Vector_3" d="M5.25947 28.1922C5.05131 28.3913 5.2915 28.7333 5.54543 28.596L5.55458 28.5909L20.2272 20.5066L16.7609 17.1924L5.25947 28.1922Z" fill="black"/>
<path id="Vector_4" d="M26.1499 14.3876L22.0523 12.1309L18.1994 15.8173L22.0523 19.502L26.1499 17.247C27.2646 16.6312 27.2646 15.0035 26.1499 14.3876Z" fill="black"/>
</g>
</svg>
