<svg width="310" height="309" viewBox="0 0 310 309" fill="none" xmlns="http://www.w3.org/2000/svg">
<mask id="mask0_36_777" style="mask-type:alpha" maskUnits="userSpaceOnUse" x="0" y="0" width="310" height="309">
<circle cx="155" cy="154.5" r="154.5" fill="#C4C4C4"/>
</mask>
<g mask="url(#mask0_36_777)">
<path d="M-10.5046 119.265C-10.5046 119.265 -15.9916 178.869 28.588 226.664C73.1677 274.458 141.435 288.738 196.541 301.771C251.646 314.804 298.209 290.501 310.536 244.067C322.862 197.633 282.196 176.589 265.918 118.672C249.64 60.7553 253.918 43.2913 209.338 1.89588C164.759 -39.4995 85.9883 -31.8162 38.9084 18.5163C-8.17154 68.8489 -10.5046 119.265 -10.5046 119.265Z" fill="white" fill-opacity="0.4"/>
<path d="M164.894 -22.0879C164.894 -22.0879 105.106 -24.9453 59.3203 21.6953C13.5351 68.336 2.27483 137.166 -8.31983 192.792C-18.9145 248.417 7.41572 293.865 54.3473 304.136C101.279 314.406 120.512 272.853 177.656 254.041C234.8 235.228 252.436 238.734 291.828 192.375C331.221 146.016 320.077 67.6598 267.72 22.8415C215.364 -21.9767 164.894 -22.0879 164.894 -22.0879Z" fill="white" fill-opacity="0.56"/>
<g opacity="0.5">
<path d="M-7.13412 248.605C-5.08221 247.883 -1.68516 244.608 -1.41917 244.342C0.450723 246.292 2.44882 248.115 4.56176 249.798C5.78531 250.779 7.04686 251.736 8.3616 252.679C7.70803 252.337 7.13045 252.033 7.04686 252.002C4.63776 251.06 -0.552809 250.657 -2.39953 252.899C-2.70092 253.278 -2.91821 253.718 -3.037 254.188C-3.1558 254.657 -3.17338 255.147 -3.08859 255.624C-3.0038 256.101 -2.81856 256.555 -2.54517 256.955C-2.27177 257.355 -1.91645 257.693 -1.50277 257.945C0.199558 259.078 2.69985 258.758 4.51617 258.112C6.33249 257.466 9.31916 254.731 10.0943 253.993C10.5883 254.351 11.0747 254.715 11.5687 255.065C13.9474 256.767 16.3336 258.454 18.6211 260.179C19.4267 260.787 20.1943 261.418 20.9694 262.041C20.3919 261.737 19.9055 261.487 19.8295 261.456C17.4204 260.514 12.2298 260.111 10.3831 262.353C10.0895 262.734 9.87939 263.173 9.76651 263.641C9.65363 264.108 9.64049 264.595 9.72795 265.068C9.81541 265.541 10.0015 265.99 10.2741 266.387C10.5467 266.783 10.8998 267.118 11.3103 267.369C13.0126 268.494 15.5129 268.174 17.3292 267.536C19.1455 266.898 21.8434 264.413 22.763 263.546C23.5229 264.207 24.2829 264.868 25.0429 265.552C25.5216 266.024 26.0156 266.449 26.4716 266.951L27.8471 268.41C28.6831 269.36 29.5571 270.34 30.3474 271.298C30.9098 271.959 31.4266 272.59 31.951 273.236C31.191 272.62 29.5723 271.45 29.4355 271.366C27.1556 270.074 22.117 268.881 19.9663 270.827C19.618 271.158 19.3435 271.559 19.1607 272.003C18.9778 272.448 18.8907 272.926 18.9051 273.406C18.9194 273.887 19.0349 274.359 19.2439 274.792C19.4529 275.225 19.7509 275.608 20.1183 275.918C21.6382 277.286 24.1537 277.355 26.046 276.998C28.1359 276.595 31.8522 273.996 32.3157 273.669C33.1745 274.733 34.0105 275.782 34.778 276.777C36.8527 279.452 38.5779 281.831 39.9078 283.754L41.6101 282.857C40.1966 280.911 38.3575 278.464 36.1232 275.713C35.2492 274.626 34.2917 273.487 33.3037 272.324C34.2498 271.215 35.1279 270.05 35.9332 268.836C37.9927 269.595 42.2257 269.451 42.7729 269.436C42.9097 270.804 43.0237 272.126 43.1149 273.388C43.3581 276.663 43.4796 279.536 43.548 281.839L45.3948 280.858C45.2808 278.7 45.106 276.131 44.8248 273.259C44.6956 271.868 44.5284 270.393 44.3384 268.874C44.8704 268.722 49.2402 267.445 50.8513 266.062C52.3257 264.808 53.8456 262.801 53.724 260.742C53.7112 260.261 53.5974 259.788 53.3898 259.354C53.1823 258.92 52.8858 258.535 52.5195 258.223C52.1532 257.911 51.7253 257.68 51.2638 257.544C50.8022 257.409 50.3173 257.372 49.8406 257.436C46.9907 257.9 44.7336 262.604 44.346 265.157C44.346 265.309 44.2548 266.974 44.232 268.022C44.156 267.407 44.08 266.806 43.9964 266.168C43.8216 264.906 43.6164 263.653 43.4037 262.307C43.277 261.664 43.1478 261.01 43.0161 260.347C42.9021 259.686 42.6969 259.009 42.5373 258.333C42.1421 256.767 41.6557 255.209 41.139 253.644C42.2409 253.499 46.1471 252.884 47.7963 251.888C49.4454 250.893 51.2465 249.114 51.4365 247.085C51.4962 246.608 51.455 246.123 51.3155 245.663C51.1761 245.203 50.9415 244.777 50.627 244.413C50.3125 244.049 49.9251 243.755 49.4898 243.55C49.0546 243.346 48.5811 243.235 48.1002 243.225C45.2124 243.225 42.2713 247.564 41.4961 250.064C41.4505 250.224 41.0934 252.055 40.9186 253.066C40.5994 252.124 40.2878 251.189 39.9306 250.254C38.9122 247.549 37.7875 244.843 36.6855 242.138L35.69 239.653C36.0852 239.6 40.7438 238.999 42.5905 237.859C44.232 236.841 46.0407 235.085 46.2231 233.056C46.2945 232.575 46.2624 232.084 46.1292 231.616C45.9959 231.147 45.7645 230.713 45.4503 230.341C45.1361 229.97 44.7464 229.669 44.307 229.46C43.8676 229.251 43.3887 229.137 42.9021 229.127C40.0066 229.127 37.0655 233.467 36.298 235.929C36.2372 236.119 35.7356 238.756 35.6368 239.432C34.8768 237.609 34.2005 235.777 33.5773 233.953C32.7247 231.487 32.0317 228.969 31.5026 226.414C31.685 226.414 36.5564 225.783 38.4487 224.613C40.0826 223.595 41.8913 221.839 42.0813 219.81C42.1422 219.333 42.102 218.849 41.9635 218.389C41.825 217.928 41.5912 217.502 41.2772 217.138C40.9633 216.774 40.5763 216.48 40.1414 216.275C39.7064 216.07 39.2333 215.959 38.7527 215.949C35.8572 215.949 32.9161 220.289 32.1485 222.751C32.0877 222.949 31.5406 225.791 31.4798 226.308C31.4798 226.156 31.4038 226.011 31.3734 225.859C30.9134 223.281 30.6819 220.666 30.6818 218.047C30.6818 216.603 30.7274 215.22 30.8186 213.875C31.7382 213.875 35.9332 213.723 37.7571 212.856C39.581 211.99 41.4809 210.478 41.8989 208.479C42.0105 208.012 42.0228 207.526 41.9349 207.053C41.847 206.581 41.661 206.132 41.3888 205.736C41.1166 205.34 40.7644 205.005 40.3548 204.754C39.9452 204.502 39.4874 204.34 39.011 204.276C36.1308 203.988 32.7337 207.947 31.6926 210.318C31.6394 210.447 31.2062 211.838 30.9326 212.818C30.9858 212.218 31.0238 211.587 31.0846 211.01C31.305 208.829 31.647 206.853 31.9586 205.097C32.1409 204.102 32.3309 203.212 32.5133 202.376C33.4101 201.882 36.9743 199.869 38.1675 198.288C39.3606 196.707 40.3866 194.488 39.8242 192.497C39.7088 192.028 39.4954 191.588 39.1983 191.207C38.9011 190.827 38.5267 190.513 38.0997 190.287C37.6727 190.061 37.2028 189.927 36.7207 189.896C36.2386 189.864 35.7553 189.935 35.3024 190.103C32.6121 191.167 31.4266 196.251 31.5938 198.827C31.5938 199.055 32.2397 202.513 32.2853 202.483H32.3385C32.1485 203.281 31.951 204.14 31.7534 205.09C31.4038 206.837 30.9934 208.813 30.7502 210.994C30.4324 213.34 30.2522 215.703 30.2106 218.07C30.1522 220.722 30.3303 223.375 30.7426 225.996C30.7426 225.996 30.7426 226.057 30.7426 226.087C30.3626 225.327 29.2227 223.245 29.1163 223.101C27.5963 220.988 23.5153 217.781 20.7567 218.64C20.3025 218.796 19.8862 219.046 19.5349 219.374C19.1836 219.701 18.905 220.099 18.7172 220.541C18.5295 220.983 18.4368 221.46 18.4451 221.94C18.4534 222.42 18.5626 222.893 18.7655 223.329C19.5635 225.206 21.8054 226.323 23.6977 226.794C25.8104 227.319 30.4462 226.46 30.8186 226.391C31.3005 229.047 31.9606 231.667 32.7945 234.234C33.2733 235.754 33.7977 237.229 34.3144 238.718C33.9649 238.072 33.6457 237.502 33.5925 237.426C32.0726 235.313 27.9915 232.106 25.2329 232.965C24.7787 233.121 24.3624 233.371 24.0111 233.699C23.6598 234.027 23.3812 234.424 23.1934 234.866C23.0057 235.308 22.913 235.785 22.9213 236.265C22.9296 236.746 23.0388 237.219 23.2417 237.654C24.0397 239.539 26.2816 240.648 28.1663 241.12C30.051 241.591 34.0409 240.945 35.0896 240.755C35.31 241.325 35.5152 241.895 35.7356 242.465C36.7767 245.201 37.8331 247.921 38.7755 250.619C39.1098 251.569 39.4062 252.519 39.7102 253.469C39.3986 252.899 39.125 252.42 39.0794 252.352C37.5595 250.239 33.4709 247.032 30.7198 247.891C30.265 248.046 29.8479 248.296 29.4957 248.623C29.1436 248.95 28.8642 249.348 28.6757 249.79C28.4872 250.232 28.3938 250.709 28.4017 251.19C28.4095 251.67 28.5183 252.144 28.7211 252.58C29.5267 254.457 31.761 255.574 33.6533 256.045C35.5456 256.516 39.1402 255.924 40.3866 255.711C40.6678 256.691 40.949 257.672 41.1466 258.637C41.2833 259.298 41.4657 259.929 41.5721 260.597C41.6785 261.266 41.8001 261.92 41.9141 262.566C42.0813 263.827 42.2713 265.127 42.4081 266.366C42.5069 267.224 42.5905 268.045 42.6741 268.866C42.3473 267.916 41.6785 266.069 41.6025 265.917C40.5219 263.926 38.9529 262.242 37.0427 261.023C36.9301 260.797 36.7979 260.58 36.6475 260.377C36.3717 259.983 36.016 259.652 35.6036 259.404C35.1913 259.157 34.7314 258.999 34.2541 258.941C33.7767 258.883 33.2925 258.926 32.8328 259.067C32.3732 259.209 31.9484 259.445 31.5862 259.762C29.4583 261.722 30.1802 266.89 31.2594 269.238C31.3278 269.375 32.1865 270.796 32.7793 271.685C32.3689 271.214 32.0194 270.751 31.5558 270.272C30.7198 269.314 29.8535 268.38 28.9339 267.376L27.5279 265.948C27.072 265.469 26.5248 265.013 26.008 264.534C24.8149 263.455 23.5533 262.414 22.2614 261.403C23.0973 260.643 26.0612 258.021 26.8212 256.258C27.5811 254.495 28.1663 252.048 27.2012 250.247C26.9932 249.812 26.6957 249.426 26.3281 249.115C25.9606 248.803 25.5314 248.572 25.0686 248.438C24.6058 248.304 24.1198 248.269 23.6426 248.336C23.1654 248.403 22.7076 248.57 22.2994 248.826C19.8979 250.444 19.8219 255.665 20.5363 258.15C20.5819 258.302 21.2962 260.028 21.7066 260.962C20.9466 260.362 20.1867 259.754 19.3355 259.169C16.9948 257.474 14.5629 255.832 12.1538 254.191L9.94993 252.671C10.2539 252.413 13.803 249.342 14.7149 247.351C15.5205 245.596 16.0601 243.141 15.0949 241.34C14.8818 240.914 14.5818 240.537 14.2142 240.234C13.8467 239.931 13.4197 239.708 12.9608 239.58C12.5019 239.452 12.0213 239.421 11.5498 239.49C11.0784 239.559 10.6266 239.726 10.2235 239.98C7.82202 241.591 7.74602 246.819 8.46799 249.297C8.52119 249.479 9.55475 251.964 9.84353 252.58C8.2324 251.455 6.63647 250.3 5.10134 249.145C3.0271 247.561 1.05722 245.845 -0.795998 244.007C-0.659204 243.886 3.07223 240.694 3.99939 238.688C4.80496 236.94 5.35213 234.477 4.38697 232.676C4.17396 232.245 3.87262 231.864 3.50254 231.557C3.13245 231.25 2.7019 231.024 2.23888 230.894C1.77585 230.765 1.29071 230.734 0.814982 230.804C0.339253 230.874 -0.116414 231.043 -0.522409 231.301C-2.9239 232.919 -2.9999 238.14 -2.27793 240.618C-2.22474 240.816 -1.10758 243.483 -0.871993 243.947L-1.20638 243.635C-3.01556 241.741 -4.65099 239.689 -6.09296 237.502C-6.90613 236.301 -7.6129 235.116 -8.28167 233.945C-7.5217 233.421 -4.10185 230.989 -3.0607 229.264C-2.01954 227.539 -1.25958 225.229 -2.01954 223.336C-2.18305 222.884 -2.43998 222.471 -2.7736 222.124C-3.10723 221.778 -3.51008 221.505 -3.95595 221.325C-4.40183 221.144 -4.88074 221.059 -5.36153 221.076C-5.84232 221.092 -6.31422 221.21 -6.74653 221.421C-9.30762 222.766 -9.95359 227.949 -9.51281 230.495C-9.51281 230.632 -9.09483 232.015 -8.75285 233.011C-9.04163 232.479 -9.35322 231.932 -9.61921 231.415C-10.6376 229.477 -11.4507 227.615 -12.1575 226.011C-12.5451 225.077 -12.9175 224.225 -13.1911 223.428C-12.7199 222.531 -10.858 218.868 -10.7364 216.907C-10.6148 214.946 -11.0555 212.476 -12.5755 211.146C-12.9291 210.82 -13.3473 210.573 -13.803 210.419C-14.2587 210.265 -14.7417 210.209 -15.2205 210.254C-15.6993 210.299 -16.1633 210.445 -16.5822 210.681C-17.0011 210.917 -17.3656 211.239 -17.6521 211.625C-19.3088 213.996 -17.4925 218.891 -15.9269 220.95C-15.7901 221.132 -13.3582 223.663 -13.3354 223.617V223.564C-13.0543 224.324 -12.7427 225.168 -12.3931 226.065C-11.7167 227.714 -10.9415 229.576 -9.96879 231.544C-8.93368 233.677 -7.774 235.748 -6.49575 237.745C-5.0821 239.988 -3.47226 242.102 -1.68516 244.061L-1.61676 244.129C-2.37673 243.703 -4.45144 242.609 -4.65663 242.533C-7.06572 241.591 -12.2563 241.188 -14.0954 243.43C-14.3892 243.81 -14.5997 244.248 -14.7131 244.714C-14.8265 245.181 -14.8402 245.667 -14.7535 246.139C-14.6667 246.612 -14.4814 247.061 -14.2096 247.457C-13.9378 247.853 -13.5855 248.187 -13.1759 248.438C-11.4507 249.586 -8.95804 249.251 -7.13412 248.605Z" fill="#333333"/>
<path d="M30.4389 213.457C30.4921 213.457 29.6789 210.037 29.6029 209.824C28.729 207.392 25.6055 203.212 22.71 203.311C22.2308 203.343 21.7636 203.475 21.3384 203.698C20.9132 203.921 20.5397 204.231 20.2418 204.608C19.9438 204.985 19.7282 205.42 19.6088 205.885C19.4894 206.35 19.4689 206.835 19.5486 207.309C19.8298 209.338 21.7069 211.01 23.394 211.952C25.3699 213.062 30.4313 213.457 30.4389 213.457Z" fill="#333333"/>
<path d="M325.739 248.605C323.687 247.883 320.29 244.608 320.016 244.342C318.148 246.294 316.15 248.117 314.036 249.798C312.812 250.779 311.55 251.736 310.274 252.679C310.92 252.337 311.505 252.033 311.588 252.002C313.998 251.06 319.188 250.657 321.027 252.899C321.321 253.28 321.531 253.718 321.644 254.185C321.756 254.652 321.769 255.138 321.682 255.61C321.594 256.083 321.408 256.531 321.136 256.927C320.863 257.323 320.51 257.657 320.1 257.907C318.398 259.04 315.905 258.72 314.081 258.074C312.257 257.428 309.278 254.693 308.511 253.955L307.029 255.027C304.65 256.729 302.271 258.416 299.984 260.142C299.178 260.749 298.403 261.38 297.628 262.003C298.205 261.699 298.692 261.449 298.775 261.418C301.177 260.476 306.375 260.073 308.214 262.315C308.508 262.696 308.718 263.135 308.831 263.603C308.944 264.07 308.957 264.557 308.869 265.03C308.782 265.503 308.596 265.952 308.323 266.349C308.051 266.745 307.698 267.08 307.287 267.331C305.585 268.456 303.084 268.136 301.268 267.498C299.452 266.86 296.754 264.375 295.834 263.508C295.074 264.169 294.314 264.83 293.554 265.514C293.068 265.986 292.574 266.411 292.118 266.913C291.662 267.414 291.199 267.886 290.75 268.372C289.907 269.322 289.04 270.302 288.242 271.26C287.688 271.921 287.163 272.552 286.639 273.198C287.437 272.582 289.017 271.412 289.162 271.328C291.396 270.036 296.48 268.843 298.623 270.789C298.972 271.12 299.246 271.521 299.429 271.965C299.612 272.41 299.699 272.888 299.685 273.368C299.67 273.849 299.555 274.321 299.346 274.754C299.137 275.187 298.839 275.57 298.471 275.88C296.952 277.248 294.444 277.317 292.544 276.96C290.461 276.557 286.745 273.958 286.282 273.631C285.415 274.695 284.587 275.744 283.812 276.739C281.745 279.414 280.012 281.793 278.682 283.716L276.972 282.819C278.386 280.873 280.232 278.426 282.459 275.675C283.333 274.588 284.29 273.449 285.286 272.286C284.339 271.176 283.458 270.011 282.649 268.798C280.589 269.557 276.356 269.413 275.809 269.398C275.68 270.766 275.558 272.088 275.467 273.35C275.224 276.625 275.102 279.498 275.042 281.801L273.187 280.82C273.301 278.662 273.484 276.093 273.757 273.221C273.894 271.83 274.061 270.355 274.244 268.836C273.712 268.684 269.35 267.407 267.731 266.024C266.264 264.77 264.744 262.763 264.866 260.704C264.877 260.223 264.99 259.751 265.197 259.317C265.404 258.883 265.7 258.497 266.065 258.185C266.431 257.873 266.858 257.642 267.319 257.506C267.781 257.371 268.265 257.334 268.742 257.398C271.599 257.862 273.849 262.566 274.236 265.119C274.236 265.271 274.327 266.936 274.35 267.984C274.434 267.369 274.502 266.768 274.593 266.13C274.76 264.868 274.966 263.615 275.186 262.269C275.308 261.623 275.437 260.97 275.566 260.309C275.695 259.648 275.885 258.971 276.045 258.295C276.448 256.729 276.926 255.171 277.443 253.606C276.341 253.461 272.435 252.846 270.786 251.85C269.137 250.855 267.336 249.076 267.153 247.047C267.092 246.57 267.133 246.086 267.271 245.626C267.41 245.165 267.643 244.739 267.957 244.375C268.271 244.011 268.658 243.717 269.093 243.512C269.528 243.308 270.001 243.197 270.482 243.187C273.377 243.187 276.318 247.526 277.086 250.026C277.139 250.186 277.489 252.017 277.664 253.028C277.983 252.086 278.302 251.151 278.652 250.216C279.677 247.511 280.795 244.805 281.897 242.1C282.239 241.272 282.565 240.443 282.892 239.615C282.505 239.562 277.838 238.961 275.992 237.821C274.358 236.803 272.549 235.047 272.359 233.018C272.298 232.541 272.338 232.057 272.477 231.597C272.615 231.136 272.849 230.71 273.163 230.346C273.477 229.982 273.864 229.688 274.299 229.483C274.734 229.279 275.207 229.168 275.688 229.158C278.583 229.158 281.524 233.497 282.299 235.959C282.353 236.149 282.862 238.786 282.953 239.463C283.713 237.639 284.389 235.807 285.02 233.983C285.875 231.518 286.571 229 287.102 226.445C286.92 226.445 282.056 225.814 280.164 224.643C278.522 223.625 276.714 221.87 276.524 219.84C276.464 219.363 276.505 218.879 276.645 218.418C276.784 217.958 277.019 217.532 277.333 217.168C277.648 216.804 278.035 216.51 278.47 216.306C278.906 216.101 279.379 215.99 279.86 215.98C282.755 215.98 285.689 220.319 286.464 222.782C286.525 222.979 287.064 225.821 287.125 226.338C287.125 226.186 287.209 226.042 287.232 225.89C287.695 223.312 287.927 220.697 287.923 218.077C287.923 216.633 287.878 215.25 287.786 213.905C286.867 213.905 282.672 213.753 280.855 212.887C279.039 212.02 277.124 210.508 276.714 208.509C276.601 208.042 276.588 207.556 276.675 207.083C276.762 206.61 276.948 206.161 277.221 205.764C277.493 205.368 277.846 205.033 278.256 204.782C278.666 204.531 279.125 204.369 279.601 204.307C282.482 204.018 285.879 207.977 286.912 210.348C286.973 210.478 287.399 211.868 287.672 212.849C287.619 212.248 287.581 211.618 287.52 211.04C287.3 208.859 286.966 206.883 286.646 205.128C286.464 204.132 286.274 203.243 286.092 202.407C285.202 201.913 281.638 199.899 280.445 198.318C279.252 196.738 278.226 194.518 278.781 192.527C278.897 192.061 279.109 191.624 279.405 191.245C279.701 190.866 280.073 190.554 280.497 190.328C280.921 190.102 281.388 189.968 281.868 189.935C282.347 189.901 282.828 189.969 283.28 190.133C285.97 191.197 287.156 196.282 286.988 198.858C286.988 199.086 286.342 202.544 286.297 202.513H286.244C286.434 203.311 286.639 204.17 286.836 205.12C287.186 206.868 287.596 208.844 287.84 211.025C288.155 213.371 288.332 215.733 288.371 218.1C288.433 220.753 288.257 223.405 287.847 226.027V226.118C288.227 225.358 289.367 223.276 289.473 223.131C290.993 221.018 295.074 217.811 297.833 218.67C298.288 218.825 298.705 219.075 299.057 219.402C299.409 219.73 299.688 220.127 299.876 220.57C300.064 221.012 300.156 221.489 300.147 221.97C300.138 222.451 300.028 222.924 299.824 223.359C299.026 225.236 296.784 226.353 294.9 226.825C292.787 227.349 288.143 226.49 287.771 226.422C287.289 229.077 286.629 231.698 285.795 234.265C285.316 235.785 284.792 237.259 284.275 238.748C284.625 238.102 284.944 237.533 284.997 237.457C286.517 235.344 290.606 232.137 293.357 232.996C293.812 233.151 294.229 233.4 294.581 233.728C294.933 234.055 295.212 234.452 295.401 234.895C295.589 235.337 295.683 235.814 295.675 236.294C295.667 236.775 295.558 237.249 295.356 237.684C294.55 239.569 292.316 240.679 290.423 241.15C288.531 241.621 284.549 240.975 283.5 240.785L282.862 242.495C281.813 245.231 280.757 247.952 279.822 250.65C279.487 251.599 279.191 252.549 278.895 253.499C279.206 252.929 279.472 252.451 279.518 252.382C281.038 250.27 285.126 247.062 287.878 247.921C288.332 248.078 288.748 248.328 289.099 248.655C289.451 248.983 289.729 249.38 289.917 249.822C290.105 250.265 290.197 250.741 290.189 251.221C290.181 251.702 290.072 252.175 289.869 252.61C289.063 254.487 286.829 255.605 284.936 256.076C283.044 256.547 279.449 255.954 278.203 255.741C277.93 256.722 277.648 257.702 277.443 258.667C277.306 259.328 277.124 259.959 277.025 260.628C276.926 261.297 276.797 261.95 276.683 262.596C276.508 263.858 276.326 265.157 276.189 266.396C276.083 267.255 275.999 268.076 275.916 268.896C276.242 267.946 276.919 266.1 276.987 265.948C278.053 263.932 279.617 262.223 281.532 260.985C281.639 260.756 281.771 260.539 281.927 260.339C282.202 259.945 282.557 259.614 282.969 259.367C283.381 259.119 283.84 258.962 284.316 258.904C284.793 258.845 285.277 258.888 285.736 259.03C286.195 259.171 286.619 259.407 286.981 259.724C289.109 261.684 288.394 266.852 287.308 269.2C287.239 269.337 286.38 270.758 285.788 271.647C286.198 271.176 286.593 270.713 287.019 270.234C287.855 269.276 288.713 268.342 289.641 267.338L291.039 265.91C291.503 265.431 292.05 264.975 292.559 264.496C293.752 263.417 295.014 262.376 296.313 261.365C295.477 260.605 292.513 257.983 291.753 256.22C290.993 254.457 290.401 252.01 291.366 250.209C291.578 249.777 291.879 249.395 292.249 249.087C292.618 248.779 293.049 248.553 293.512 248.422C293.975 248.292 294.46 248.26 294.936 248.33C295.413 248.399 295.869 248.568 296.275 248.826C298.677 250.444 298.745 255.665 298.031 258.15C297.985 258.302 297.271 260.028 296.86 260.962C297.62 260.362 298.418 259.754 299.231 259.169C301.58 257.474 304.004 255.832 306.421 254.191L308.617 252.671C308.321 252.413 304.764 249.342 303.852 247.351C303.046 245.596 302.507 243.141 303.472 241.34C303.684 240.908 303.985 240.526 304.355 240.218C304.725 239.91 305.156 239.684 305.619 239.554C306.082 239.424 306.568 239.394 307.044 239.465C307.52 239.535 307.976 239.706 308.381 239.964C310.775 241.576 310.851 246.804 310.137 249.282C310.084 249.464 309.05 251.949 308.754 252.565C310.373 251.44 311.968 250.285 313.496 249.13C315.572 247.548 317.542 245.832 319.393 243.992C319.257 243.871 315.533 240.679 314.598 238.672C313.792 236.925 313.253 234.462 314.218 232.661C314.43 232.23 314.731 231.849 315.1 231.542C315.47 231.235 315.899 231.009 316.362 230.879C316.824 230.75 317.309 230.719 317.784 230.789C318.259 230.859 318.714 231.028 319.12 231.286C321.521 232.904 321.597 238.125 320.875 240.603C320.822 240.8 319.712 243.468 319.477 243.931L319.811 243.62C321.616 241.724 323.249 239.672 324.69 237.487C325.503 236.286 326.21 235.101 326.879 233.93C326.119 233.406 322.699 230.974 321.666 229.249C320.632 227.524 319.864 225.213 320.624 223.321C320.788 222.869 321.045 222.456 321.379 222.109C321.712 221.763 322.115 221.49 322.561 221.309C323.007 221.129 323.486 221.044 323.966 221.061C324.447 221.077 324.919 221.195 325.351 221.406C327.913 222.751 328.559 227.934 328.118 230.48C328.118 230.617 327.692 232 327.358 232.996C327.647 232.464 327.958 231.916 328.232 231.4C329.25 229.462 330.056 227.6 330.762 225.996C331.158 225.061 331.522 224.21 331.804 223.412C331.325 222.516 329.47 218.853 329.341 216.892C329.212 214.931 329.607 212.476 331.15 211.146C331.504 210.82 331.922 210.573 332.378 210.419C332.833 210.265 333.316 210.209 333.795 210.254C334.274 210.299 334.738 210.445 335.157 210.681C335.576 210.917 335.94 211.239 336.227 211.625C337.883 213.996 336.067 218.891 334.509 220.95C334.372 221.132 331.933 223.663 331.91 223.618V223.564C331.636 224.324 331.325 225.168 330.968 226.065C330.299 227.714 329.524 229.576 328.543 231.544C327.513 233.677 326.359 235.748 325.085 237.745C323.677 239.992 322.067 242.106 320.275 244.061L320.206 244.129C320.966 243.703 323.041 242.609 323.246 242.533C325.648 241.591 330.846 241.188 332.685 243.43C332.979 243.81 333.189 244.248 333.301 244.716C333.414 245.183 333.427 245.668 333.34 246.141C333.252 246.613 333.066 247.062 332.794 247.458C332.521 247.854 332.168 248.188 331.758 248.438C330.056 249.586 327.555 249.251 325.739 248.605Z" fill="#333333"/>
<path d="M288.166 213.457C288.113 213.457 288.926 210.037 288.994 209.824C289.868 207.392 292.999 203.212 295.887 203.311C296.367 203.342 296.835 203.473 297.261 203.696C297.686 203.919 298.06 204.229 298.359 204.606C298.657 204.983 298.872 205.418 298.991 205.884C299.11 206.349 299.13 206.835 299.049 207.309C298.775 209.338 296.89 211.01 295.211 211.952C293.235 213.062 288.166 213.457 288.166 213.457Z" fill="#333333"/>
</g>
<path d="M163.917 147.003V2.12199H219.048V-58.8347" stroke="#333333" stroke-miterlimit="10"/>
<path d="M185.459 1.44135V-58.8347" stroke="#333333" stroke-miterlimit="10"/>
<path d="M168.032 170.097H421.863V134.007H470.378" stroke="#333333" stroke-miterlimit="10"/>
<path d="M155.59 168.847H-85.7828V130.288H-138.034" stroke="#333333" stroke-miterlimit="10"/>
<path d="M114.531 -97.4094V-42.6576H83.4272V-7.83424H122.002V109.125" stroke="#333333" stroke-miterlimit="10"/>
<path d="M284.991 64.3291V-14.0551H306.138V-47.6438H323.566" stroke="#333333" stroke-miterlimit="10"/>
<path d="M28.6912 56.8738V-2.84826L11.2637 -20.2758V-63.8208" stroke="#333333" stroke-miterlimit="10"/>
<path d="M121.945 259.195V291.549H100.798V327.639H39.8252" stroke="#333333" stroke-miterlimit="10"/>
<path d="M184.504 283.082V316.671H233.02V302.994H246.712V331.597H289.022" stroke="#333333" stroke-miterlimit="10"/>
<path d="M164.423 40.1426C147.55 55.9714 104.274 71.8002 53.9224 105.5C53.9224 105.5 57.0881 219.467 164.423 281.69V40.1426Z" fill="#FFC700" stroke="#333333" stroke-linecap="round" stroke-linejoin="round"/>
<path d="M164.423 40.1426C181.313 55.9714 224.573 71.8002 274.94 105.5C274.94 105.5 271.774 219.467 164.423 281.69V40.1426Z" fill="#333333" stroke="#333333" stroke-linecap="round" stroke-linejoin="round"/>
<path d="M164.423 49.8457C144.004 63.9966 108.721 77.467 62.0264 108.713C62.0264 108.713 64.9547 214.291 164.423 272.003C263.907 214.291 266.835 108.713 266.835 108.713C220.14 77.467 184.969 63.9966 164.423 49.8457Z" fill="#333333" stroke="#333333" stroke-linecap="round" stroke-linejoin="round"/>
<path d="M266.836 108.713C220.141 77.4828 184.969 63.9966 164.423 49.8457V272.003C263.907 214.291 266.836 108.713 266.836 108.713Z" fill="#FFC700" stroke="#333333" stroke-linecap="round" stroke-linejoin="round"/>
<path d="M351.71 164.604H-23.876V188.918H351.71V164.604Z" fill="#333333" stroke="#333333" stroke-linecap="round" stroke-linejoin="round"/>
<path d="M3.25447 168.467C3.20414 169.102 2.91634 169.695 2.44842 170.127C1.98049 170.559 1.36683 170.799 0.729773 170.799C0.0927164 170.799 -0.520948 170.559 -0.98887 170.127C-1.45679 169.695 -1.7446 169.102 -1.79492 168.467C-1.7446 167.832 -1.45679 167.239 -0.98887 166.807C-0.520948 166.374 0.0927164 166.134 0.729773 166.134C1.36683 166.134 1.98049 166.374 2.44842 166.807C2.91634 167.239 3.20414 167.832 3.25447 168.467Z" fill="white"/>
<path d="M-0.71875 169.828C-0.529816 170.023 -0.303539 170.179 -0.0533636 170.285C0.196812 170.391 0.465771 170.445 0.737497 170.445C0.999411 170.447 1.25916 170.398 1.50193 170.3C1.74471 170.201 1.96575 170.056 2.15242 169.872C2.33909 169.689 2.48775 169.47 2.5899 169.229C2.69205 168.988 2.74567 168.729 2.74774 168.467C2.74856 167.99 2.56738 167.532 2.24123 167.185C1.19891 168.001 0.210217 168.884 -0.71875 169.828V169.828Z" fill="#333333"/>
<path d="M13.1156 168.467C13.1251 168.967 12.9855 169.458 12.7148 169.878C12.444 170.298 12.0543 170.628 11.5954 170.826C11.1364 171.023 10.6289 171.08 10.1376 170.988C9.64632 170.897 9.19343 170.661 8.83669 170.311C8.47995 169.961 8.23549 169.513 8.13447 169.023C8.03345 168.534 8.08045 168.025 8.26946 167.562C8.45847 167.1 8.78095 166.704 9.19579 166.425C9.61064 166.147 10.0991 165.998 10.5989 165.998C10.9265 165.993 11.2518 166.054 11.5559 166.176C11.8601 166.298 12.1371 166.479 12.371 166.709C12.6049 166.938 12.7911 167.212 12.9189 167.513C13.0467 167.815 13.1136 168.139 13.1156 168.467V168.467Z" fill="white"/>
<path d="M9.14307 169.828C9.42083 170.115 9.77737 170.314 10.1678 170.399C10.5583 170.485 10.9653 170.452 11.3375 170.307C11.7098 170.161 12.0306 169.909 12.2598 169.582C12.489 169.254 12.6162 168.866 12.6254 168.467C12.62 167.992 12.4397 167.535 12.1189 167.185C11.0682 167.997 10.074 168.88 9.14307 169.828V169.828Z" fill="#333333"/>
<path d="M22.977 168.467C22.9864 168.967 22.8468 169.458 22.5761 169.878C22.3053 170.298 21.9157 170.628 21.4567 170.826C20.9977 171.023 20.4902 171.08 19.9989 170.988C19.5076 170.897 19.0548 170.661 18.698 170.311C18.3413 169.961 18.0968 169.513 17.9958 169.023C17.8948 168.534 17.9418 168.025 18.1308 167.562C18.3198 167.1 18.6423 166.704 19.0571 166.425C19.472 166.147 19.9604 165.998 20.4602 165.998C20.7879 165.993 21.1131 166.054 21.4173 166.176C21.7214 166.298 21.9984 166.479 22.2323 166.709C22.4662 166.938 22.6525 167.212 22.7803 167.513C22.9081 167.815 22.9749 168.139 22.977 168.467V168.467Z" fill="white"/>
<path d="M18.9565 169.828C19.146 170.023 19.3724 170.177 19.6225 170.283C19.8725 170.389 20.1412 170.444 20.4128 170.445C20.676 170.45 20.9375 170.402 21.1821 170.304C21.4267 170.207 21.6496 170.062 21.838 169.878C22.0263 169.694 22.1764 169.475 22.2795 169.232C22.3827 168.99 22.4368 168.73 22.4389 168.467C22.4335 167.992 22.2532 167.535 21.9324 167.185C20.8851 168.001 19.8911 168.884 18.9565 169.828Z" fill="#333333"/>
<path d="M32.8383 168.467C32.8477 168.967 32.7082 169.458 32.4374 169.878C32.1667 170.298 31.777 170.628 31.318 170.826C30.859 171.023 30.3516 171.08 29.8603 170.988C29.369 170.897 28.9161 170.661 28.5594 170.311C28.2026 169.961 27.9582 169.513 27.8571 169.023C27.7561 168.534 27.8031 168.025 27.9921 167.562C28.1811 167.1 28.5036 166.704 28.9185 166.425C29.3333 166.147 29.8217 165.998 30.3215 165.998C30.6492 165.993 30.9745 166.054 31.2786 166.176C31.5827 166.298 31.8597 166.479 32.0936 166.709C32.3276 166.938 32.5138 167.212 32.6416 167.513C32.7694 167.815 32.8362 168.139 32.8383 168.467V168.467Z" fill="white"/>
<path d="M28.8813 169.828C29.1569 170.118 29.5126 170.319 29.9029 170.405C30.2932 170.491 30.7004 170.46 31.0725 170.313C31.4447 170.167 31.7647 169.914 31.9919 169.585C32.2191 169.256 32.343 168.866 32.3479 168.467C32.3425 167.992 32.1622 167.535 31.8413 167.185C30.7956 167.997 29.8067 168.88 28.8813 169.828V169.828Z" fill="#333333"/>
<path d="M42.6997 168.467C42.7123 168.97 42.5745 169.466 42.304 169.891C42.0335 170.315 41.6424 170.65 41.1809 170.851C40.7194 171.053 40.2083 171.112 39.7129 171.022C39.2176 170.931 38.7604 170.695 38.3998 170.343C38.0393 169.992 37.7917 169.541 37.6888 169.048C37.5858 168.555 37.6321 168.043 37.8218 167.576C38.0115 167.11 38.3359 166.71 38.7537 166.429C39.1714 166.148 39.6635 165.998 40.1671 165.998C40.4955 165.993 40.8215 166.054 41.1266 166.176C41.4316 166.298 41.7097 166.478 41.9448 166.708C42.18 166.937 42.3677 167.21 42.4973 167.512C42.6268 167.814 42.6955 168.138 42.6997 168.467V168.467Z" fill="white"/>
<path d="M38.7422 169.828C39.0178 170.118 39.3734 170.319 39.7637 170.405C40.154 170.491 40.5613 170.46 40.9334 170.313C41.3055 170.167 41.6256 169.914 41.8528 169.585C42.0799 169.256 42.2039 168.866 42.2087 168.467C42.2033 167.992 42.023 167.535 41.7022 167.185C40.6598 168.001 39.6712 168.884 38.7422 169.828Z" fill="#333333"/>
<path d="M52.5766 168.467C52.586 168.967 52.4464 169.458 52.1757 169.878C51.9049 170.298 51.5152 170.628 51.0563 170.826C50.5973 171.023 50.0898 171.08 49.5986 170.988C49.1073 170.897 48.6544 170.661 48.2976 170.311C47.9409 169.961 47.6964 169.513 47.5954 169.023C47.4944 168.534 47.5414 168.025 47.7304 167.562C47.9194 167.1 48.2419 166.704 48.6567 166.425C49.0716 166.147 49.56 165.998 50.0598 165.998C50.3875 165.993 50.7127 166.054 51.0169 166.176C51.321 166.298 51.598 166.479 51.8319 166.709C52.0658 166.938 52.2521 167.212 52.3798 167.513C52.5076 167.815 52.5745 168.139 52.5766 168.467V168.467Z" fill="white"/>
<path d="M48.604 169.828C48.7929 170.023 49.0192 170.179 49.2694 170.285C49.5196 170.391 49.7885 170.445 50.0603 170.445C50.3222 170.447 50.5819 170.398 50.8247 170.3C51.0675 170.201 51.2885 170.056 51.4752 169.872C51.6619 169.689 51.8105 169.47 51.9127 169.229C52.0148 168.988 52.0684 168.729 52.0705 168.467C52.0713 167.99 51.8902 167.532 51.564 167.185C50.5217 168.001 49.533 168.884 48.604 169.828V169.828Z" fill="#333333"/>
<path d="M62.4384 168.467C62.4478 168.967 62.3082 169.458 62.0375 169.878C61.7667 170.298 61.3771 170.628 60.9181 170.826C60.4591 171.023 59.9517 171.08 59.4604 170.988C58.9691 170.897 58.5162 170.661 58.1594 170.311C57.8027 169.961 57.5582 169.513 57.4572 169.023C57.3562 168.534 57.4032 168.025 57.5922 167.562C57.7812 167.1 58.1037 166.704 58.5185 166.425C58.9334 166.147 59.4218 165.998 59.9216 165.998C60.2493 165.993 60.5746 166.054 60.8787 166.176C61.1828 166.298 61.4598 166.479 61.6938 166.709C61.9277 166.938 62.1139 167.212 62.2417 167.513C62.3695 167.815 62.4363 168.139 62.4384 168.467V168.467Z" fill="white"/>
<path d="M58.5283 169.828C58.8061 170.115 59.1626 170.314 59.5531 170.399C59.9436 170.485 60.3505 170.452 60.7228 170.307C61.095 170.161 61.4159 169.909 61.6451 169.582C61.8742 169.254 62.0014 168.866 62.0107 168.467C62.0053 167.992 61.825 167.535 61.5041 167.185C60.4569 168.001 59.4629 168.884 58.5283 169.828V169.828Z" fill="#333333"/>
<path d="M72.2992 168.467C72.3087 168.967 72.1691 169.458 71.8984 169.878C71.6276 170.298 71.2379 170.628 70.7789 170.826C70.32 171.023 69.8125 171.08 69.3212 170.988C68.8299 170.897 68.377 170.661 68.0203 170.311C67.6635 169.961 67.4191 169.513 67.3181 169.023C67.217 168.534 67.264 168.025 67.4531 167.562C67.6421 167.1 67.9645 166.704 68.3794 166.425C68.7942 166.147 69.2827 165.998 69.7824 165.998C70.1101 165.993 70.4354 166.054 70.7395 166.176C71.0437 166.298 71.3207 166.479 71.5546 166.709C71.7885 166.938 71.9747 167.212 72.1025 167.513C72.2303 167.815 72.2972 168.139 72.2992 168.467V168.467Z" fill="white"/>
<path d="M68.3262 169.828C68.5157 170.023 68.742 170.177 68.9921 170.283C69.2421 170.389 69.5108 170.444 69.7824 170.445C70.0457 170.45 70.3071 170.402 70.5517 170.304C70.7963 170.207 71.0192 170.062 71.2076 169.878C71.3959 169.694 71.546 169.475 71.6491 169.232C71.7523 168.99 71.8064 168.73 71.8085 168.467C71.8032 167.992 71.6228 167.535 71.302 167.185C70.2547 168.001 69.2607 168.884 68.3262 169.828Z" fill="#333333"/>
<path d="M82.161 168.467C82.1705 168.967 82.0309 169.458 81.7602 169.878C81.4894 170.298 81.0997 170.628 80.6407 170.826C80.1818 171.023 79.6743 171.08 79.183 170.988C78.6917 170.897 78.2389 170.661 77.8821 170.311C77.5254 169.961 77.2809 169.513 77.1799 169.023C77.0789 168.534 77.1258 168.025 77.3149 167.562C77.5039 167.1 77.8263 166.704 78.2412 166.425C78.656 166.147 79.1445 165.998 79.6442 165.998C79.9719 165.993 80.2972 166.054 80.6013 166.176C80.9055 166.298 81.1825 166.479 81.4164 166.709C81.6503 166.938 81.8365 167.212 81.9643 167.513C82.0921 167.815 82.159 168.139 82.161 168.467V168.467Z" fill="white"/>
<path d="M78.2036 169.828C78.4792 170.118 78.8348 170.319 79.2252 170.405C79.6155 170.491 80.0227 170.46 80.3948 170.313C80.7669 170.167 81.087 169.914 81.3142 169.585C81.5414 169.256 81.6653 168.866 81.6701 168.467C81.6648 167.992 81.4844 167.535 81.1636 167.185C80.1213 168.001 79.1326 168.884 78.2036 169.828V169.828Z" fill="#333333"/>
<path d="M92.0381 168.467C92.0506 168.971 91.9125 169.467 91.6413 169.892C91.37 170.317 90.9781 170.652 90.5157 170.853C90.0532 171.054 89.5413 171.112 89.0454 171.02C88.5496 170.929 88.0925 170.691 87.7325 170.338C87.3726 169.985 87.1263 169.532 87.0251 169.038C86.924 168.544 86.9726 168.031 87.1647 167.565C87.3568 167.099 87.6837 166.701 88.1036 166.421C88.5234 166.142 89.017 165.995 89.5213 165.998C89.849 165.993 90.1742 166.054 90.4784 166.176C90.7825 166.298 91.0595 166.479 91.2934 166.709C91.5273 166.938 91.7136 167.212 91.8414 167.513C91.9691 167.815 92.036 168.139 92.0381 168.467V168.467Z" fill="white"/>
<path d="M88.0649 169.828C88.3405 170.118 88.6962 170.319 89.0865 170.405C89.4768 170.491 89.884 170.46 90.2561 170.313C90.6282 170.167 90.9483 169.914 91.1755 169.585C91.4027 169.256 91.5266 168.866 91.5315 168.467C91.5323 167.99 91.3511 167.532 91.0249 167.185C89.9826 168.001 88.9939 168.884 88.0649 169.828Z" fill="#333333"/>
<path d="M101.899 168.467C101.909 168.967 101.769 169.458 101.498 169.878C101.228 170.298 100.838 170.628 100.379 170.826C99.9201 171.023 99.4126 171.08 98.9213 170.988C98.43 170.897 97.9771 170.661 97.6204 170.311C97.2637 169.961 97.0192 169.513 96.9182 169.023C96.8171 168.534 96.8641 168.025 97.0532 167.562C97.2422 167.1 97.5646 166.704 97.9795 166.425C98.3943 166.147 98.8828 165.998 99.3825 165.998C99.7102 165.993 100.035 166.054 100.34 166.176C100.644 166.298 100.921 166.479 101.155 166.709C101.389 166.938 101.575 167.212 101.703 167.513C101.83 167.815 101.897 168.139 101.899 168.467V168.467Z" fill="white"/>
<path d="M97.9263 169.828C98.204 170.115 98.5606 170.314 98.9511 170.399C99.3415 170.485 99.7485 170.452 100.121 170.307C100.493 170.161 100.814 169.909 101.043 169.582C101.272 169.254 101.399 168.866 101.409 168.467C101.403 167.992 101.223 167.535 100.902 167.185C99.8514 167.997 98.8572 168.88 97.9263 169.828Z" fill="#333333"/>
<path d="M111.761 168.467C111.77 168.967 111.631 169.458 111.36 169.878C111.089 170.298 110.699 170.628 110.24 170.826C109.781 171.023 109.274 171.08 108.783 170.988C108.291 170.897 107.838 170.661 107.482 170.311C107.125 169.961 106.881 169.513 106.779 169.023C106.678 168.534 106.725 168.025 106.914 167.562C107.103 167.1 107.426 166.704 107.841 166.425C108.256 166.147 108.744 165.998 109.244 165.998C109.572 165.993 109.897 166.054 110.201 166.176C110.505 166.298 110.782 166.479 111.016 166.709C111.25 166.938 111.436 167.212 111.564 167.513C111.692 167.815 111.759 168.139 111.761 168.467V168.467Z" fill="white"/>
<path d="M107.788 169.828C107.978 170.023 108.204 170.177 108.454 170.283C108.704 170.389 108.973 170.444 109.244 170.445C109.508 170.45 109.769 170.402 110.014 170.304C110.258 170.207 110.481 170.062 110.67 169.878C110.858 169.694 111.008 169.475 111.111 169.232C111.214 168.99 111.268 168.73 111.27 168.467C111.265 167.992 111.085 167.535 110.764 167.185C109.717 168.001 108.723 168.884 107.788 169.828Z" fill="#333333"/>
<path d="M3.25442 184.153C3.27019 184.658 3.13476 185.156 2.86553 185.583C2.5963 186.01 2.20554 186.347 1.74344 186.55C1.28134 186.754 0.768973 186.814 0.272145 186.724C-0.224683 186.634 -0.683304 186.398 -1.04484 186.046C-1.40637 185.693 -1.6543 185.241 -1.75681 184.746C-1.85933 184.252 -1.81174 183.738 -1.62016 183.271C-1.42857 182.804 -1.10172 182.405 -0.681602 182.125C-0.26148 181.845 0.232757 181.697 0.737642 181.7C1.064 181.695 1.38799 181.756 1.6911 181.877C1.99421 181.998 2.27049 182.177 2.5042 182.405C2.73791 182.633 2.92445 182.905 3.05317 183.204C3.18189 183.504 3.25028 183.827 3.25442 184.153V184.153Z" fill="white"/>
<path d="M-0.71875 185.53C-0.44225 185.821 -0.0851643 186.022 0.30661 186.108C0.698385 186.194 1.10693 186.161 1.47969 186.013C1.85245 185.864 2.17239 185.608 2.39837 185.277C2.62434 184.946 2.746 184.554 2.74774 184.153C2.74613 183.682 2.565 183.229 2.24123 182.887C1.19891 183.703 0.210217 184.586 -0.71875 185.53Z" fill="#333333"/>
<path d="M13.1158 184.153C13.1284 184.653 12.9915 185.146 12.7227 185.568C12.454 185.99 12.0654 186.323 11.6068 186.523C11.1482 186.723 10.6403 186.782 10.148 186.692C9.65567 186.602 9.20131 186.368 8.84297 186.019C8.48463 185.669 8.23856 185.221 8.13621 184.731C8.03386 184.241 8.07987 183.732 8.26835 183.269C8.45684 182.805 8.77925 182.408 9.1944 182.129C9.60954 181.849 10.0986 181.7 10.599 181.7C10.9254 181.695 11.2493 181.756 11.5525 181.877C11.8556 181.998 12.1319 182.177 12.3656 182.405C12.5993 182.633 12.7858 182.905 12.9146 183.204C13.0433 183.504 13.1116 183.827 13.1158 184.153V184.153Z" fill="white"/>
<path d="M9.14307 185.53C9.42178 185.818 9.77976 186.017 10.1717 186.102C10.5636 186.187 10.9718 186.153 11.3446 186.006C11.7175 185.858 12.0382 185.604 12.2662 185.274C12.4942 184.944 12.6192 184.554 12.6254 184.153C12.6162 183.683 12.4361 183.233 12.1189 182.887C11.0682 183.699 10.074 184.583 9.14307 185.53V185.53Z" fill="#333333"/>
<path d="M22.9771 184.153C22.9897 184.653 22.8528 185.146 22.5841 185.568C22.3153 185.99 21.9268 186.323 21.4681 186.523C21.0095 186.723 20.5016 186.782 20.0093 186.692C19.517 186.602 19.0626 186.368 18.7043 186.019C18.346 185.669 18.0999 185.221 17.9975 184.731C17.8952 184.241 17.9412 183.732 18.1297 183.269C18.3182 182.805 18.6406 182.408 19.0557 182.129C19.4708 181.849 19.9599 181.7 20.4603 181.7C20.7867 181.695 21.1107 181.756 21.4138 181.877C21.7169 181.998 21.9932 182.177 22.2269 182.405C22.4606 182.633 22.6471 182.905 22.7759 183.204C22.9046 183.504 22.9729 183.827 22.9771 184.153V184.153Z" fill="white"/>
<path d="M18.9565 185.53C19.146 185.725 19.3724 185.88 19.6225 185.986C19.8725 186.092 20.1412 186.147 20.4128 186.147C20.6768 186.15 20.9386 186.1 21.1833 186.001C21.428 185.901 21.6508 185.755 21.8389 185.57C22.0271 185.385 22.1769 185.164 22.2798 184.921C22.3828 184.678 22.4368 184.417 22.4389 184.153C22.4297 183.683 22.2496 183.233 21.9324 182.887C20.8851 183.704 19.8911 184.586 18.9565 185.53Z" fill="#333333"/>
<path d="M32.8384 184.153C32.851 184.653 32.7142 185.146 32.4454 185.568C32.1766 185.99 31.7881 186.323 31.3295 186.523C30.8708 186.723 30.3629 186.782 29.8706 186.692C29.3783 186.602 28.924 186.368 28.5656 186.019C28.2073 185.669 27.9612 185.221 27.8589 184.731C27.7565 184.241 27.8025 183.732 27.991 183.269C28.1795 182.805 28.5019 182.408 28.9171 182.129C29.3322 181.849 29.8212 181.7 30.3216 181.7C30.648 181.695 30.972 181.756 31.2751 181.877C31.5782 181.998 31.8545 182.177 32.0882 182.405C32.3219 182.633 32.5085 182.905 32.6372 183.204C32.7659 183.504 32.8343 183.827 32.8384 184.153V184.153Z" fill="white"/>
<path d="M28.8813 185.53C29.0667 185.726 29.2901 185.881 29.5378 185.987C29.7855 186.094 30.0523 186.148 30.3218 186.147C30.5857 186.15 30.8476 186.1 31.0923 186.001C31.337 185.901 31.5597 185.755 31.7479 185.57C31.936 185.385 32.0858 185.164 32.1888 184.921C32.2917 184.678 32.3458 184.417 32.3479 184.153C32.3387 183.683 32.1586 183.233 31.8413 182.887C30.7956 183.699 29.8067 184.583 28.8813 185.53V185.53Z" fill="#333333"/>
<path d="M42.6992 184.153C42.715 184.657 42.58 185.154 42.3114 185.581C42.0429 186.008 41.6531 186.345 41.1919 186.549C40.7307 186.752 40.2192 186.814 39.7229 186.725C39.2265 186.637 38.7678 186.402 38.4057 186.051C38.0435 185.7 37.7943 185.25 37.69 184.756C37.5857 184.263 37.6311 183.75 37.8202 183.282C38.0093 182.815 38.3337 182.415 38.7517 182.133C39.1697 181.851 39.6624 181.7 40.1666 181.7C40.8272 181.691 41.4644 181.944 41.9389 182.404C42.4134 182.864 42.6867 183.493 42.6992 184.153V184.153Z" fill="white"/>
<path d="M38.7422 185.53C38.9276 185.726 39.151 185.881 39.3987 185.987C39.6464 186.094 39.9131 186.148 40.1826 186.147C40.4466 186.15 40.7084 186.1 40.9531 186.001C41.1978 185.901 41.4206 185.755 41.6087 185.57C41.7969 185.385 41.9467 185.164 42.0496 184.921C42.1526 184.678 42.2066 184.417 42.2087 184.153C42.1995 183.683 42.0194 183.233 41.7022 182.887C40.6598 183.703 39.6712 184.586 38.7422 185.53Z" fill="#333333"/>
<path d="M52.5767 184.153C52.5893 184.653 52.4525 185.146 52.1837 185.568C51.9149 185.99 51.5264 186.323 51.0677 186.523C50.6091 186.723 50.1012 186.782 49.6089 186.692C49.1166 186.602 48.6622 186.368 48.3039 186.019C47.9456 185.669 47.6995 185.221 47.5971 184.731C47.4948 184.241 47.5408 183.732 47.7293 183.269C47.9178 182.805 48.2402 182.408 48.6553 182.129C49.0705 181.849 49.5595 181.7 50.0599 181.7C50.3863 181.695 50.7103 181.756 51.0134 181.877C51.3165 181.998 51.5928 182.177 51.8265 182.405C52.0602 182.633 52.2468 182.905 52.3755 183.204C52.5042 183.504 52.5726 183.827 52.5767 184.153V184.153Z" fill="white"/>
<path d="M48.604 185.53C48.8805 185.821 49.2376 186.022 49.6294 186.108C50.0212 186.194 50.4297 186.161 50.8025 186.013C51.1752 185.864 51.4951 185.608 51.7211 185.277C51.9471 184.946 52.0688 184.554 52.0705 184.153C52.0689 183.682 51.8878 183.229 51.564 182.887C50.5217 183.703 49.533 184.586 48.604 185.53V185.53Z" fill="#333333"/>
<path d="M62.438 184.153C62.4506 184.653 62.3138 185.146 62.045 185.568C61.7762 185.99 61.3877 186.323 60.9291 186.523C60.4704 186.723 59.9625 186.782 59.4702 186.692C58.9779 186.602 58.5236 186.368 58.1652 186.019C57.8069 185.669 57.5608 185.221 57.4585 184.731C57.3561 184.241 57.4021 183.732 57.5906 183.269C57.7791 182.805 58.1015 182.408 58.5167 182.129C58.9318 181.849 59.4208 181.7 59.9213 181.7C60.2476 181.695 60.5716 181.756 60.8747 181.877C61.1778 181.998 61.4541 182.177 61.6878 182.405C61.9215 182.633 62.1081 182.905 62.2368 183.204C62.3655 183.504 62.4339 183.827 62.438 184.153V184.153Z" fill="white"/>
<path d="M58.5283 185.53C58.807 185.818 59.165 186.017 59.5569 186.102C59.9488 186.187 60.357 186.153 60.7299 186.006C61.1028 185.858 61.4235 185.604 61.6515 185.274C61.8794 184.944 62.0045 184.554 62.0107 184.153C62.0014 183.683 61.8214 183.233 61.5041 182.887C60.4569 183.704 59.4629 184.586 58.5283 185.53Z" fill="#333333"/>
<path d="M72.2994 184.153C72.312 184.653 72.1751 185.146 71.9064 185.568C71.6376 185.99 71.249 186.323 70.7904 186.523C70.3318 186.723 69.8239 186.782 69.3316 186.692C68.8393 186.602 68.3849 186.368 68.0266 186.019C67.6682 185.669 67.4222 185.221 67.3198 184.731C67.2175 184.241 67.2635 183.732 67.4519 183.269C67.6404 182.805 67.9628 182.408 68.378 182.129C68.7931 181.849 69.2822 181.7 69.7826 181.7C70.109 181.695 70.4329 181.756 70.7361 181.877C71.0392 181.998 71.3155 182.177 71.5492 182.405C71.7829 182.633 71.9694 182.905 72.0982 183.204C72.2269 183.504 72.2952 183.827 72.2994 184.153V184.153Z" fill="white"/>
<path d="M68.3262 185.53C68.5157 185.725 68.742 185.88 68.9921 185.986C69.2421 186.092 69.5108 186.147 69.7824 186.147C70.0464 186.15 70.3082 186.1 70.5529 186.001C70.7976 185.901 71.0204 185.755 71.2085 185.57C71.3967 185.385 71.5465 185.164 71.6494 184.921C71.7524 184.678 71.8064 184.417 71.8085 184.153C71.7993 183.683 71.6192 183.233 71.302 182.887C70.2547 183.704 69.2607 184.586 68.3262 185.53V185.53Z" fill="#333333"/>
<path d="M82.1607 184.153C82.1733 184.653 82.0364 185.146 81.7677 185.568C81.4989 185.99 81.1104 186.323 80.6517 186.523C80.1931 186.723 79.6852 186.782 79.1929 186.692C78.7006 186.602 78.2462 186.368 77.8879 186.019C77.5296 185.669 77.2835 185.221 77.1811 184.731C77.0788 184.241 77.1248 183.732 77.3133 183.269C77.5018 182.805 77.8242 182.408 78.2393 182.129C78.6544 181.849 79.1435 181.7 79.6439 181.7C79.9703 181.695 80.2942 181.756 80.5974 181.877C80.9005 181.998 81.1768 182.177 81.4105 182.405C81.6442 182.633 81.8307 182.905 81.9595 183.204C82.0882 183.504 82.1565 183.827 82.1607 184.153V184.153Z" fill="white"/>
<path d="M78.2036 185.53C78.389 185.726 78.6124 185.881 78.8601 185.987C79.1078 186.094 79.3746 186.148 79.644 186.147C79.908 186.15 80.1699 186.1 80.4146 186.001C80.6593 185.901 80.882 185.755 81.0702 185.57C81.2583 185.385 81.4081 185.164 81.5111 184.921C81.614 184.678 81.6681 184.417 81.6701 184.153C81.6609 183.683 81.4809 183.233 81.1636 182.887C80.1213 183.703 79.1326 184.586 78.2036 185.53V185.53Z" fill="#333333"/>
<path d="M92.0381 184.153C92.0539 184.658 91.9184 185.156 91.6492 185.583C91.38 186.01 90.9892 186.347 90.5271 186.55C90.065 186.754 89.5527 186.814 89.0559 186.724C88.559 186.634 88.1004 186.398 87.7389 186.046C87.3773 185.693 87.1294 185.241 87.0269 184.746C86.9244 184.252 86.972 183.738 87.1636 183.271C87.3551 182.804 87.682 182.405 88.1021 182.125C88.5222 181.845 89.0164 181.697 89.5213 181.7C89.8477 181.695 90.1717 181.756 90.4748 181.877C90.7779 181.998 91.0542 182.177 91.2879 182.405C91.5216 182.633 91.7082 182.905 91.8369 183.204C91.9656 183.504 92.034 183.827 92.0381 184.153V184.153Z" fill="white"/>
<path d="M88.0649 185.53C88.3414 185.821 88.6985 186.022 89.0903 186.108C89.4821 186.194 89.8906 186.161 90.2634 186.013C90.6361 185.864 90.9561 185.608 91.1821 185.277C91.408 184.946 91.5297 184.554 91.5315 184.153C91.5298 183.682 91.3487 183.229 91.0249 182.887C89.9826 183.703 88.9939 184.586 88.0649 185.53V185.53Z" fill="#333333"/>
<path d="M101.899 184.153C101.912 184.653 101.775 185.146 101.506 185.568C101.238 185.99 100.849 186.323 100.39 186.523C99.9319 186.723 99.4239 186.782 98.9316 186.692C98.4393 186.602 97.985 186.368 97.6267 186.019C97.2683 185.669 97.0223 185.221 96.9199 184.731C96.8175 184.241 96.8636 183.732 97.052 183.269C97.2405 182.805 97.5629 182.408 97.9781 182.129C98.3932 181.849 98.8822 181.7 99.3827 181.7C99.709 181.695 100.033 181.756 100.336 181.877C100.639 181.998 100.916 182.177 101.149 182.405C101.383 182.633 101.57 182.905 101.698 183.204C101.827 183.504 101.895 183.827 101.899 184.153V184.153Z" fill="white"/>
<path d="M97.9263 185.53C98.205 185.818 98.563 186.017 98.9549 186.102C99.3468 186.187 99.755 186.153 100.128 186.006C100.501 185.858 100.821 185.604 101.049 185.274C101.277 184.944 101.402 184.554 101.409 184.153C101.399 183.683 101.219 183.233 100.902 182.887C99.8514 183.699 98.8572 184.583 97.9263 185.53Z" fill="#333333"/>
<path d="M111.761 184.153C111.773 184.653 111.637 185.146 111.368 185.568C111.099 185.99 110.71 186.323 110.252 186.523C109.793 186.723 109.285 186.782 108.793 186.692C108.301 186.602 107.846 186.368 107.488 186.019C107.13 185.669 106.884 185.221 106.781 184.731C106.679 184.241 106.725 183.732 106.913 183.269C107.102 182.805 107.424 182.408 107.839 182.129C108.255 181.849 108.744 181.7 109.244 181.7C109.57 181.695 109.894 181.756 110.197 181.877C110.501 181.998 110.777 182.177 111.011 182.405C111.244 182.633 111.431 182.905 111.56 183.204C111.688 183.504 111.757 183.827 111.761 184.153V184.153Z" fill="white"/>
<path d="M107.788 185.53C107.978 185.725 108.204 185.88 108.454 185.986C108.704 186.092 108.973 186.147 109.244 186.147C109.508 186.15 109.77 186.1 110.015 186.001C110.26 185.901 110.482 185.755 110.67 185.57C110.859 185.385 111.008 185.164 111.111 184.921C111.214 184.678 111.268 184.417 111.27 184.153C111.261 183.683 111.081 183.233 110.764 182.887C109.717 183.704 108.723 184.586 107.788 185.53V185.53Z" fill="#333333"/>
<path d="M221.058 168.467C221.068 168.967 220.928 169.458 220.658 169.878C220.387 170.298 219.997 170.628 219.538 170.826C219.079 171.023 218.572 171.08 218.08 170.988C217.589 170.897 217.136 170.661 216.78 170.311C216.423 169.961 216.178 169.513 216.077 169.023C215.976 168.534 216.023 168.025 216.212 167.562C216.401 167.1 216.724 166.704 217.139 166.425C217.554 166.147 218.042 165.998 218.542 165.998C218.869 165.993 219.195 166.054 219.499 166.176C219.803 166.298 220.08 166.479 220.314 166.709C220.548 166.938 220.734 167.212 220.862 167.513C220.99 167.815 221.056 168.139 221.058 168.467V168.467Z" fill="white"/>
<path d="M217.102 169.828C217.377 170.118 217.733 170.319 218.123 170.405C218.513 170.491 218.921 170.46 219.293 170.313C219.665 170.167 219.985 169.914 220.212 169.585C220.439 169.256 220.563 168.866 220.568 168.467C220.563 167.992 220.382 167.535 220.062 167.185C219.019 168.001 218.031 168.884 217.102 169.828V169.828Z" fill="#333333"/>
<path d="M230.936 168.467C230.949 168.971 230.81 169.467 230.539 169.892C230.268 170.317 229.876 170.652 229.414 170.853C228.951 171.054 228.439 171.112 227.943 171.02C227.448 170.929 226.99 170.691 226.631 170.338C226.271 169.985 226.024 169.532 225.923 169.038C225.822 168.544 225.871 168.031 226.063 167.565C226.255 167.099 226.582 166.701 227.002 166.421C227.421 166.142 227.915 165.995 228.419 165.998C228.747 165.993 229.072 166.054 229.376 166.176C229.68 166.298 229.957 166.479 230.191 166.709C230.425 166.938 230.612 167.212 230.739 167.513C230.867 167.815 230.934 168.139 230.936 168.467V168.467Z" fill="white"/>
<path d="M226.963 169.828C227.238 170.118 227.594 170.319 227.984 170.405C228.375 170.491 228.782 170.46 229.154 170.313C229.526 170.167 229.846 169.914 230.073 169.585C230.301 169.256 230.425 168.866 230.429 168.467C230.43 167.99 230.249 167.532 229.923 167.185C228.881 168.001 227.892 168.884 226.963 169.828Z" fill="#333333"/>
<path d="M240.797 168.467C240.807 168.967 240.667 169.458 240.396 169.878C240.126 170.298 239.736 170.628 239.277 170.826C238.818 171.023 238.311 171.08 237.819 170.988C237.328 170.897 236.875 170.661 236.518 170.311C236.162 169.961 235.917 169.513 235.816 169.023C235.715 168.534 235.762 168.025 235.951 167.562C236.14 167.1 236.463 166.704 236.877 166.425C237.292 166.147 237.781 165.998 238.28 165.998C238.608 165.993 238.933 166.054 239.238 166.176C239.542 166.298 239.819 166.479 240.053 166.709C240.287 166.938 240.473 167.212 240.601 167.513C240.728 167.815 240.795 168.139 240.797 168.467V168.467Z" fill="white"/>
<path d="M236.824 169.828C237.102 170.115 237.459 170.314 237.849 170.399C238.239 170.485 238.646 170.452 239.019 170.307C239.391 170.161 239.712 169.909 239.941 169.582C240.17 169.254 240.297 168.866 240.307 168.467C240.301 167.992 240.121 167.535 239.8 167.185C238.749 167.997 237.755 168.88 236.824 169.828Z" fill="#333333"/>
<path d="M250.658 168.467C250.668 168.967 250.528 169.458 250.257 169.878C249.986 170.298 249.597 170.628 249.138 170.826C248.679 171.023 248.171 171.08 247.68 170.988C247.189 170.897 246.736 170.661 246.379 170.311C246.022 169.961 245.778 169.513 245.677 169.023C245.576 168.534 245.623 168.025 245.812 167.562C246.001 167.1 246.323 166.704 246.738 166.425C247.153 166.147 247.642 165.998 248.141 165.998C248.469 165.993 248.794 166.054 249.098 166.176C249.403 166.298 249.68 166.479 249.913 166.709C250.147 166.938 250.334 167.212 250.461 167.513C250.589 167.815 250.656 168.139 250.658 168.467V168.467Z" fill="white"/>
<path d="M246.686 169.828C246.875 170.023 247.101 170.177 247.351 170.283C247.602 170.389 247.87 170.444 248.142 170.445C248.405 170.45 248.666 170.402 248.911 170.304C249.156 170.207 249.379 170.062 249.567 169.878C249.755 169.694 249.905 169.475 250.009 169.232C250.112 168.99 250.166 168.73 250.168 168.467C250.163 167.992 249.982 167.535 249.661 167.185C248.614 168.001 247.62 168.884 246.686 169.828V169.828Z" fill="#333333"/>
<path d="M260.52 168.467C260.529 168.967 260.39 169.458 260.119 169.878C259.848 170.298 259.459 170.628 259 170.826C258.541 171.023 258.033 171.08 257.542 170.988C257.051 170.897 256.598 170.661 256.241 170.311C255.884 169.961 255.64 169.513 255.539 169.023C255.438 168.534 255.485 168.025 255.674 167.562C255.863 167.1 256.185 166.704 256.6 166.425C257.015 166.147 257.503 165.998 258.003 165.998C258.331 165.993 258.656 166.054 258.96 166.176C259.264 166.298 259.541 166.479 259.775 166.709C260.009 166.938 260.195 167.212 260.323 167.513C260.451 167.815 260.518 168.139 260.52 168.467V168.467Z" fill="white"/>
<path d="M256.563 169.828C256.839 170.118 257.194 170.319 257.585 170.405C257.975 170.491 258.382 170.46 258.754 170.313C259.126 170.167 259.446 169.914 259.674 169.585C259.901 169.256 260.025 168.866 260.029 168.467C260.024 167.992 259.844 167.535 259.523 167.185C258.477 167.997 257.488 168.88 256.563 169.828Z" fill="#333333"/>
<path d="M270.396 168.467C270.409 168.97 270.271 169.466 270.001 169.891C269.73 170.315 269.339 170.65 268.878 170.851C268.416 171.053 267.905 171.112 267.41 171.022C266.914 170.931 266.457 170.695 266.097 170.343C265.736 169.992 265.489 169.541 265.386 169.048C265.283 168.555 265.329 168.043 265.519 167.576C265.708 167.11 266.033 166.71 266.45 166.429C266.868 166.148 267.36 165.998 267.864 165.998C268.192 165.993 268.518 166.054 268.823 166.176C269.128 166.298 269.406 166.478 269.642 166.708C269.877 166.937 270.065 167.21 270.194 167.512C270.324 167.814 270.392 168.138 270.396 168.467V168.467Z" fill="white"/>
<path d="M266.424 169.828C266.7 170.118 267.056 170.319 267.446 170.405C267.836 170.491 268.243 170.46 268.616 170.313C268.988 170.167 269.308 169.914 269.535 169.585C269.762 169.256 269.886 168.866 269.891 168.467C269.885 167.992 269.705 167.535 269.384 167.185C268.342 168.001 267.353 168.884 266.424 169.828V169.828Z" fill="#333333"/>
<path d="M280.258 168.467C280.271 168.971 280.133 169.467 279.861 169.892C279.59 170.317 279.198 170.652 278.736 170.853C278.273 171.054 277.762 171.112 277.266 171.02C276.77 170.929 276.313 170.691 275.953 170.338C275.593 169.985 275.347 169.532 275.245 169.038C275.144 168.544 275.193 168.031 275.385 167.565C275.577 167.099 275.904 166.701 276.324 166.421C276.744 166.142 277.237 165.995 277.741 165.998C278.069 165.993 278.394 166.054 278.699 166.176C279.003 166.298 279.28 166.479 279.514 166.709C279.748 166.938 279.934 167.212 280.062 167.513C280.189 167.815 280.256 168.139 280.258 168.467V168.467Z" fill="white"/>
<path d="M276.285 169.828C276.561 170.118 276.916 170.319 277.307 170.405C277.697 170.491 278.104 170.46 278.476 170.313C278.848 170.167 279.169 169.914 279.396 169.585C279.623 169.256 279.747 168.866 279.752 168.467C279.752 167.99 279.571 167.532 279.245 167.185C278.203 168.001 277.214 168.884 276.285 169.828V169.828Z" fill="#333333"/>
<path d="M290.12 168.467C290.129 168.967 289.99 169.458 289.719 169.878C289.448 170.298 289.059 170.628 288.6 170.826C288.141 171.023 287.633 171.08 287.142 170.988C286.651 170.897 286.198 170.661 285.841 170.311C285.484 169.961 285.24 169.513 285.139 169.023C285.038 168.534 285.085 168.025 285.274 167.562C285.463 167.1 285.785 166.704 286.2 166.425C286.615 166.147 287.103 165.998 287.603 165.998C287.931 165.993 288.256 166.054 288.56 166.176C288.864 166.298 289.141 166.479 289.375 166.709C289.609 166.938 289.796 167.212 289.923 167.513C290.051 167.815 290.118 168.139 290.12 168.467V168.467Z" fill="white"/>
<path d="M286.146 169.828C286.424 170.115 286.781 170.314 287.171 170.399C287.562 170.485 287.969 170.452 288.341 170.307C288.713 170.161 289.034 169.909 289.263 169.582C289.492 169.254 289.62 168.866 289.629 168.467C289.623 167.992 289.443 167.535 289.122 167.185C288.072 167.997 287.077 168.88 286.146 169.828Z" fill="#333333"/>
<path d="M299.981 168.467C299.99 168.967 299.851 169.458 299.58 169.878C299.309 170.298 298.92 170.628 298.461 170.826C298.002 171.023 297.494 171.08 297.003 170.988C296.512 170.897 296.059 170.661 295.702 170.311C295.345 169.961 295.101 169.513 295 169.023C294.899 168.534 294.946 168.025 295.135 167.562C295.324 167.1 295.646 166.704 296.061 166.425C296.476 166.147 296.964 165.998 297.464 165.998C297.792 165.993 298.117 166.054 298.421 166.176C298.725 166.298 299.002 166.479 299.236 166.709C299.47 166.938 299.656 167.212 299.784 167.513C299.912 167.815 299.979 168.139 299.981 168.467V168.467Z" fill="white"/>
<path d="M295.961 169.828C296.15 170.023 296.377 170.177 296.627 170.283C296.877 170.389 297.146 170.444 297.417 170.445C297.68 170.45 297.942 170.402 298.186 170.304C298.431 170.207 298.654 170.062 298.842 169.878C299.031 169.694 299.181 169.475 299.284 169.232C299.387 168.99 299.441 168.73 299.443 168.467C299.438 167.992 299.258 167.535 298.937 167.185C297.889 168.001 296.896 168.884 295.961 169.828Z" fill="#333333"/>
<path d="M309.842 168.467C309.852 168.967 309.712 169.458 309.441 169.878C309.171 170.298 308.781 170.628 308.322 170.826C307.863 171.023 307.355 171.08 306.864 170.988C306.373 170.897 305.92 170.661 305.563 170.311C305.207 169.961 304.962 169.513 304.861 169.023C304.76 168.534 304.807 168.025 304.996 167.562C305.185 167.1 305.508 166.704 305.922 166.425C306.337 166.147 306.826 165.998 307.325 165.998C307.653 165.993 307.978 166.054 308.282 166.176C308.587 166.298 308.864 166.479 309.098 166.709C309.331 166.938 309.518 167.212 309.645 167.513C309.773 167.815 309.84 168.139 309.842 168.467V168.467Z" fill="white"/>
<path d="M305.885 169.828C306.161 170.118 306.517 170.319 306.907 170.405C307.297 170.491 307.704 170.46 308.076 170.313C308.449 170.167 308.769 169.914 308.996 169.585C309.223 169.256 309.347 168.866 309.352 168.467C309.346 167.992 309.166 167.535 308.845 167.185C307.8 167.997 306.811 168.88 305.885 169.828Z" fill="#333333"/>
<path d="M221.059 184.153C221.071 184.653 220.934 185.146 220.666 185.568C220.397 185.99 220.008 186.323 219.55 186.523C219.091 186.723 218.583 186.782 218.091 186.692C217.599 186.602 217.144 186.368 216.786 186.019C216.428 185.669 216.181 185.221 216.079 184.731C215.977 184.241 216.023 183.732 216.211 183.269C216.4 182.805 216.722 182.408 217.137 182.129C217.552 181.849 218.041 181.7 218.542 181.7C218.868 181.695 219.192 181.756 219.495 181.877C219.798 181.998 220.075 182.177 220.308 182.405C220.542 182.633 220.729 182.905 220.857 183.204C220.986 183.504 221.054 183.827 221.059 184.153V184.153Z" fill="white"/>
<path d="M217.102 185.53C217.287 185.726 217.51 185.881 217.758 185.987C218.006 186.094 218.273 186.148 218.542 186.147C218.806 186.15 219.068 186.1 219.313 186.001C219.557 185.901 219.78 185.755 219.968 185.57C220.156 185.385 220.306 185.164 220.409 184.921C220.512 184.678 220.566 184.417 220.568 184.153C220.559 183.683 220.379 183.233 220.062 182.887C219.019 183.703 218.031 184.586 217.102 185.53V185.53Z" fill="#333333"/>
<path d="M230.936 184.153C230.952 184.658 230.816 185.156 230.547 185.583C230.278 186.01 229.887 186.347 229.425 186.55C228.963 186.754 228.451 186.814 227.954 186.724C227.457 186.634 226.998 186.398 226.637 186.046C226.275 185.693 226.027 185.241 225.925 184.746C225.822 184.252 225.87 183.738 226.061 183.271C226.253 182.804 226.58 182.405 227 182.125C227.42 181.845 227.914 181.697 228.419 181.7C228.746 181.695 229.07 181.756 229.373 181.877C229.676 181.998 229.952 182.177 230.186 182.405C230.42 182.633 230.606 182.905 230.735 183.204C230.864 183.504 230.932 183.827 230.936 184.153V184.153Z" fill="white"/>
<path d="M226.963 185.53C227.239 185.821 227.597 186.022 227.988 186.108C228.38 186.194 228.789 186.161 229.161 186.013C229.534 185.864 229.854 185.608 230.08 185.277C230.306 184.946 230.428 184.554 230.429 184.153C230.428 183.682 230.247 183.229 229.923 182.887C228.881 183.703 227.892 184.586 226.963 185.53V185.53Z" fill="#333333"/>
<path d="M240.797 184.153C240.81 184.653 240.673 185.146 240.404 185.568C240.136 185.99 239.747 186.323 239.288 186.523C238.83 186.723 238.322 186.782 237.83 186.692C237.337 186.602 236.883 186.368 236.525 186.019C236.166 185.669 235.92 185.221 235.818 184.731C235.716 184.241 235.761 183.732 235.95 183.269C236.138 182.805 236.461 182.408 236.876 182.129C237.291 181.849 237.78 181.7 238.281 181.7C238.607 181.695 238.931 181.756 239.234 181.877C239.537 181.998 239.814 182.177 240.047 182.405C240.281 182.633 240.467 182.905 240.596 183.204C240.725 183.504 240.793 183.827 240.797 184.153V184.153Z" fill="white"/>
<path d="M236.824 185.53C237.103 185.818 237.461 186.017 237.853 186.102C238.245 186.187 238.653 186.153 239.026 186.006C239.399 185.858 239.719 185.604 239.947 185.274C240.175 184.944 240.3 184.554 240.307 184.153C240.297 183.683 240.117 183.233 239.8 182.887C238.749 183.699 237.755 184.583 236.824 185.53Z" fill="#333333"/>
<path d="M250.658 184.153C250.671 184.653 250.534 185.146 250.265 185.568C249.996 185.99 249.608 186.323 249.149 186.523C248.691 186.723 248.183 186.782 247.69 186.692C247.198 186.602 246.744 186.368 246.385 186.019C246.027 185.669 245.781 185.221 245.679 184.731C245.576 184.241 245.622 183.732 245.811 183.269C245.999 182.805 246.322 182.408 246.737 182.129C247.152 181.849 247.641 181.7 248.142 181.7C248.468 181.695 248.792 181.756 249.095 181.877C249.398 181.998 249.674 182.177 249.908 182.405C250.142 182.633 250.328 182.905 250.457 183.204C250.586 183.504 250.654 183.827 250.658 184.153Z" fill="white"/>
<path d="M246.686 185.53C246.875 185.725 247.101 185.88 247.351 185.986C247.602 186.092 247.87 186.147 248.142 186.147C248.406 186.15 248.668 186.1 248.912 186.001C249.157 185.901 249.38 185.755 249.568 185.57C249.756 185.385 249.906 185.164 250.009 184.921C250.112 184.678 250.166 184.417 250.168 184.153C250.159 183.683 249.979 183.233 249.661 182.887C248.614 183.704 247.62 184.586 246.686 185.53Z" fill="#333333"/>
<path d="M260.52 184.153C260.533 184.653 260.396 185.146 260.127 185.568C259.858 185.99 259.47 186.323 259.011 186.523C258.552 186.723 258.045 186.782 257.552 186.692C257.06 186.602 256.606 186.368 256.247 186.019C255.889 185.669 255.643 185.221 255.541 184.731C255.438 184.241 255.484 183.732 255.673 183.269C255.861 182.805 256.184 182.408 256.599 182.129C257.014 181.849 257.503 181.7 258.003 181.7C258.33 181.695 258.654 181.756 258.957 181.877C259.26 181.998 259.536 182.177 259.77 182.405C260.004 182.633 260.19 182.905 260.319 183.204C260.448 183.504 260.516 183.827 260.52 184.153V184.153Z" fill="white"/>
<path d="M256.563 185.53C256.748 185.726 256.972 185.881 257.22 185.987C257.467 186.094 257.734 186.148 258.003 186.147C258.267 186.15 258.529 186.1 258.774 186.001C259.019 185.901 259.241 185.755 259.43 185.57C259.618 185.385 259.768 185.164 259.87 184.921C259.973 184.678 260.027 184.417 260.029 184.153C260.02 183.683 259.84 183.233 259.523 182.887C258.477 183.699 257.488 184.583 256.563 185.53V185.53Z" fill="#333333"/>
<path d="M270.397 184.153C270.413 184.657 270.278 185.154 270.009 185.581C269.741 186.008 269.351 186.345 268.89 186.549C268.429 186.752 267.917 186.814 267.421 186.725C266.924 186.637 266.466 186.402 266.103 186.051C265.741 185.7 265.492 185.25 265.388 184.756C265.283 184.263 265.329 183.75 265.518 183.282C265.707 182.815 266.031 182.415 266.449 182.133C266.867 181.851 267.36 181.7 267.864 181.7C268.525 181.691 269.162 181.944 269.637 182.404C270.111 182.864 270.385 183.493 270.397 184.153V184.153Z" fill="white"/>
<path d="M266.424 185.53C266.61 185.726 266.833 185.881 267.081 185.987C267.328 186.094 267.595 186.148 267.865 186.147C268.129 186.15 268.391 186.1 268.635 186.001C268.88 185.901 269.103 185.755 269.291 185.57C269.479 185.385 269.629 185.164 269.732 184.921C269.835 184.678 269.889 184.417 269.891 184.153C269.882 183.683 269.702 183.233 269.384 182.887C268.342 183.703 267.353 184.586 266.424 185.53V185.53Z" fill="#333333"/>
<path d="M280.259 184.153C280.275 184.658 280.139 185.156 279.87 185.583C279.601 186.01 279.21 186.347 278.748 186.55C278.286 186.754 277.773 186.814 277.277 186.724C276.78 186.634 276.321 186.398 275.96 186.046C275.598 185.693 275.35 185.241 275.248 184.746C275.145 184.252 275.193 183.738 275.384 183.271C275.576 182.804 275.903 182.405 276.323 182.125C276.743 181.845 277.237 181.697 277.742 181.7C278.068 181.695 278.392 181.756 278.695 181.877C278.999 181.998 279.275 182.177 279.509 182.405C279.742 182.633 279.929 182.905 280.058 183.204C280.186 183.504 280.255 183.827 280.259 184.153V184.153Z" fill="white"/>
<path d="M276.285 185.53C276.562 185.821 276.919 186.022 277.311 186.108C277.702 186.194 278.111 186.161 278.484 186.013C278.856 185.864 279.176 185.608 279.402 185.277C279.628 184.946 279.75 184.554 279.752 184.153C279.75 183.682 279.569 183.229 279.245 182.887C278.203 183.703 277.214 184.586 276.285 185.53Z" fill="#333333"/>
<path d="M290.12 184.153C290.132 184.653 289.995 185.146 289.727 185.568C289.458 185.99 289.069 186.323 288.611 186.523C288.152 186.723 287.644 186.782 287.152 186.692C286.66 186.602 286.205 186.368 285.847 186.019C285.489 185.669 285.242 185.221 285.14 184.731C285.038 184.241 285.084 183.732 285.272 183.269C285.461 182.805 285.783 182.408 286.198 182.129C286.613 181.849 287.102 181.7 287.603 181.7C287.929 181.695 288.253 181.756 288.556 181.877C288.859 181.998 289.136 182.177 289.369 182.405C289.603 182.633 289.79 182.905 289.918 183.204C290.047 183.504 290.116 183.827 290.12 184.153Z" fill="white"/>
<path d="M286.146 185.53C286.425 185.818 286.783 186.017 287.175 186.102C287.567 186.187 287.975 186.153 288.348 186.006C288.721 185.858 289.042 185.604 289.27 185.274C289.498 184.944 289.623 184.554 289.629 184.153C289.62 183.683 289.44 183.233 289.122 182.887C288.072 183.699 287.077 184.583 286.146 185.53Z" fill="#333333"/>
<path d="M299.981 184.153C299.994 184.653 299.857 185.146 299.588 185.568C299.319 185.99 298.931 186.323 298.472 186.523C298.013 186.723 297.506 186.782 297.013 186.692C296.521 186.602 296.067 186.368 295.708 186.019C295.35 185.669 295.104 185.221 295.001 184.731C294.899 184.241 294.945 183.732 295.134 183.269C295.322 182.805 295.644 182.408 296.06 182.129C296.475 181.849 296.964 181.7 297.464 181.7C297.791 181.695 298.115 181.756 298.418 181.877C298.721 181.998 298.997 182.177 299.231 182.405C299.465 182.633 299.651 182.905 299.78 183.204C299.909 183.504 299.977 183.827 299.981 184.153V184.153Z" fill="white"/>
<path d="M295.961 185.53C296.15 185.725 296.377 185.88 296.627 185.986C296.877 186.092 297.146 186.147 297.417 186.147C297.681 186.15 297.943 186.1 298.188 186.001C298.432 185.901 298.655 185.755 298.843 185.57C299.031 185.385 299.181 185.164 299.284 184.921C299.387 184.678 299.441 184.417 299.443 184.153C299.434 183.683 299.254 183.233 298.937 182.887C297.889 183.704 296.896 184.586 295.961 185.53V185.53Z" fill="#333333"/>
<path d="M309.842 184.153C309.855 184.653 309.718 185.146 309.449 185.568C309.181 185.99 308.792 186.323 308.333 186.523C307.875 186.723 307.367 186.782 306.875 186.692C306.382 186.602 305.928 186.368 305.57 186.019C305.211 185.669 304.965 185.221 304.863 184.731C304.76 184.241 304.806 183.732 304.995 183.269C305.183 182.805 305.506 182.408 305.921 182.129C306.336 181.849 306.825 181.7 307.326 181.7C307.652 181.695 307.976 181.756 308.279 181.877C308.582 181.998 308.858 182.177 309.092 182.405C309.326 182.633 309.512 182.905 309.641 183.204C309.77 183.504 309.838 183.827 309.842 184.153V184.153Z" fill="white"/>
<path d="M305.885 185.53C306.071 185.726 306.294 185.881 306.542 185.987C306.789 186.094 307.056 186.148 307.326 186.147C307.59 186.15 307.852 186.1 308.096 186.001C308.341 185.901 308.564 185.755 308.752 185.57C308.94 185.385 309.09 185.164 309.193 184.921C309.296 184.678 309.35 184.417 309.352 184.153C309.343 183.683 309.163 183.233 308.845 182.887C307.8 183.699 306.811 184.583 305.885 185.53V185.53Z" fill="#333333"/>
<path d="M203.219 156.294H126.909C125.251 156.295 123.66 155.645 122.476 154.485C121.292 153.325 120.61 151.746 120.577 150.089V114.886C120.577 90.8738 140.537 71.3252 165.072 71.3252C189.607 71.3252 209.582 90.8738 209.582 114.886V150.089C209.549 151.752 208.863 153.335 207.673 154.496C206.482 155.657 204.882 156.303 203.219 156.294ZM133.24 143.948H196.872V114.886C196.872 106.448 193.52 98.3555 187.553 92.3888C181.587 86.4222 173.494 83.0702 165.056 83.0702C156.618 83.0702 148.525 86.4222 142.559 92.3888C136.592 98.3555 133.24 106.448 133.24 114.886V143.948Z" fill="white" stroke="#333333" stroke-linecap="round" stroke-linejoin="round"/>
<path d="M213.002 139.326H115.845V219.705H213.002V139.326Z" fill="#FFC700" stroke="#333333" stroke-linecap="round" stroke-linejoin="round"/>
<path d="M174.538 172.709C174.432 169.973 173.271 167.385 171.298 165.487C169.325 163.589 166.694 162.529 163.957 162.529C161.219 162.529 158.588 163.589 156.615 165.487C154.642 167.385 153.481 169.973 153.375 172.709C153.384 174.59 153.906 176.434 154.885 178.04C155.864 179.647 157.263 180.956 158.931 181.826L157.158 200.077H170.755L168.982 181.826C170.65 180.956 172.049 179.647 173.029 178.04C174.008 176.434 174.53 174.59 174.538 172.709V172.709Z" fill="#333333" stroke="#333333" stroke-linecap="round" stroke-linejoin="round"/>
</g>
</svg>
