<svg width="310" height="309" viewBox="0 0 310 309" fill="none" xmlns="http://www.w3.org/2000/svg">
<mask id="mask0_4_1172" style="mask-type:alpha" maskUnits="userSpaceOnUse" x="0" y="0" width="310" height="309">
<circle cx="155" cy="154.5" r="154.5" fill="#D9D9D9"/>
</mask>
<g mask="url(#mask0_4_1172)">
<path d="M-2.30716 231.896C-0.034431 231.729 4.37467 229.267 4.38224 229.267C4.38982 229.267 1.87466 226.843 1.69284 226.707C-0.37534 225.191 -5.26929 223.411 -7.61778 225.085C-8.00069 225.374 -8.31852 225.739 -8.55054 226.159C-8.78255 226.578 -8.92353 227.042 -8.96428 227.519C-9.00503 227.997 -8.94463 228.477 -8.78702 228.93C-8.62941 229.383 -8.37814 229.797 -8.04959 230.146C-6.70868 231.684 -4.22383 232.032 -2.30716 231.896Z" fill="#333333"/>
<path d="M-33.7624 140.473C-33.7624 140.473 -39.8507 210.179 9.61408 266.073C59.0788 321.967 134.828 338.667 195.971 353.91C257.115 369.152 308.78 340.729 322.458 286.426C336.135 232.122 291.013 207.513 272.951 139.78C254.889 72.0474 259.636 51.6237 210.171 3.21282C160.707 -45.1981 73.3044 -36.2127 21.0653 22.65C-31.1737 81.5128 -33.7624 140.473 -33.7624 140.473Z" fill="white" fill-opacity="0.4"/>
<path d="M177.565 -25.7868C177.565 -25.7868 117.966 -28.6353 72.3243 17.8587C26.683 64.3527 15.4581 132.967 4.8968 188.417C-5.66454 243.868 20.5829 289.173 67.3669 299.411C114.151 309.649 133.323 268.227 190.288 249.473C247.252 230.72 264.832 234.214 304.101 188.001C343.369 141.788 332.261 63.6786 280.069 19.0013C227.877 -25.676 177.565 -25.7868 177.565 -25.7868Z" fill="white" fill-opacity="0.5"/>
<path d="M6.07934 244.055C8.1248 243.335 11.5112 240.07 11.7763 239.805C13.6403 241.749 15.6321 243.566 17.7384 245.244C18.9581 246.222 20.2157 247.176 21.5263 248.116C20.8748 247.775 20.2991 247.472 20.2157 247.441C17.8142 246.502 12.64 246.1 10.799 248.335C10.4986 248.714 10.282 249.151 10.1636 249.62C10.0452 250.088 10.0276 250.576 10.1121 251.052C10.1967 251.528 10.3813 251.98 10.6539 252.379C10.9264 252.778 11.2806 253.114 11.693 253.366C13.39 254.494 15.8824 254.176 17.693 253.532C19.5036 252.888 22.4809 250.161 23.2536 249.426C23.746 249.782 24.2309 250.146 24.7233 250.494C27.0945 252.191 29.4733 253.873 31.7536 255.593C32.5567 256.199 33.3218 256.828 34.0945 257.449C33.5188 257.146 33.0339 256.896 32.9582 256.866C30.5566 255.926 25.3824 255.525 23.5415 257.76C23.2488 258.139 23.0393 258.577 22.9268 259.043C22.8143 259.509 22.8012 259.994 22.8884 260.466C22.9756 260.937 23.1611 261.385 23.4328 261.781C23.7046 262.176 24.0565 262.509 24.4657 262.76C26.1627 263.881 28.6551 263.563 30.4657 262.926C32.2763 262.29 34.9657 259.813 35.8824 258.949C36.64 259.608 37.3976 260.267 38.1551 260.949C38.6324 261.419 39.1248 261.843 39.5794 262.343L40.9506 263.797C41.7839 264.744 42.6551 265.722 43.443 266.676C44.0036 267.335 44.5188 267.964 45.0415 268.608C44.2839 267.994 42.6703 266.828 42.5339 266.744C40.2612 265.457 35.2385 264.267 33.0945 266.207C32.7474 266.537 32.4737 266.936 32.2914 267.38C32.1092 267.823 32.0223 268.299 32.0366 268.778C32.0509 269.257 32.166 269.728 32.3744 270.159C32.5828 270.591 32.8798 270.973 33.246 271.282C34.7612 272.646 37.2688 272.714 39.1551 272.358C41.2385 271.957 44.943 269.366 45.4052 269.04C46.2612 270.1 47.0945 271.146 47.8597 272.138C49.9279 274.805 51.6476 277.176 52.9733 279.093L54.6703 278.199C53.2612 276.26 51.4279 273.82 49.2006 271.078C48.3294 269.994 47.3749 268.858 46.39 267.699C47.3332 266.594 48.2085 265.433 49.0112 264.222C51.0643 264.979 55.284 264.835 55.8294 264.82C55.9658 266.184 56.0794 267.502 56.1703 268.76C56.4127 272.025 56.534 274.888 56.6021 277.184L58.443 276.207C58.3294 274.055 58.1552 271.494 57.8749 268.631C57.7461 267.244 57.5794 265.775 57.39 264.26C57.9203 264.108 62.2764 262.835 63.8824 261.456C65.3521 260.206 66.8673 258.206 66.7461 256.153C66.7334 255.674 66.6199 255.203 66.413 254.77C66.2061 254.338 65.9105 253.953 65.5453 253.642C65.1802 253.332 64.7537 253.101 64.2936 252.966C63.8335 252.831 63.3501 252.794 62.8749 252.858C60.034 253.32 57.784 258.01 57.3976 260.555C57.3976 260.706 57.3067 262.366 57.284 263.411C57.2082 262.797 57.1324 262.199 57.0491 261.563C56.8749 260.305 56.6703 259.055 56.4582 257.714C56.3319 257.073 56.2031 256.421 56.0718 255.76C55.9582 255.1 55.7536 254.426 55.5946 253.752C55.2006 252.191 54.7158 250.638 54.2006 249.078C55.2991 248.934 59.193 248.32 60.837 247.328C62.4809 246.335 64.2764 244.563 64.4658 242.54C64.5253 242.064 64.4842 241.581 64.3452 241.122C64.2062 240.663 63.9724 240.239 63.6589 239.876C63.3454 239.513 62.9591 239.22 62.5252 239.016C62.0913 238.812 61.6194 238.701 61.14 238.691C58.2612 238.691 55.3294 243.017 54.5567 245.51C54.5112 245.669 54.1552 247.494 53.9809 248.502C53.6627 247.563 53.3521 246.631 52.9961 245.699C51.9809 243.002 50.8597 240.305 49.7612 237.608L48.7688 235.131C49.1627 235.078 53.8067 234.479 55.6476 233.343C57.284 232.328 59.087 230.578 59.2688 228.555C59.3399 228.075 59.308 227.585 59.1751 227.119C59.0423 226.652 58.8116 226.219 58.4984 225.849C58.1852 225.478 57.7967 225.179 57.3587 224.97C56.9207 224.761 56.4433 224.648 55.9582 224.638C53.0718 224.638 50.14 228.964 49.3749 231.419C49.3142 231.608 48.8142 234.237 48.7158 234.911C47.9582 233.093 47.2839 231.267 46.6627 229.449C45.8128 226.991 45.122 224.481 44.5945 221.934C44.7764 221.934 49.6324 221.305 51.5188 220.138C53.1476 219.123 54.9506 217.373 55.14 215.35C55.2007 214.875 55.1607 214.392 55.0226 213.933C54.8845 213.474 54.6514 213.05 54.3385 212.687C54.0255 212.324 53.6398 212.031 53.2062 211.827C52.7726 211.622 52.3009 211.512 51.8218 211.502C48.9355 211.502 46.0036 215.828 45.2385 218.282C45.1779 218.479 44.6324 221.313 44.5718 221.828C44.5718 221.676 44.4961 221.532 44.4658 221.381C44.0072 218.81 43.7765 216.204 43.7764 213.593C43.7764 212.153 43.8218 210.775 43.9127 209.434C44.8294 209.434 49.0112 209.282 50.8294 208.419C52.6476 207.555 54.5415 206.047 54.9582 204.055C55.0694 203.589 55.0817 203.105 54.9941 202.634C54.9065 202.163 54.721 201.715 54.4497 201.321C54.1784 200.926 53.8272 200.592 53.4189 200.342C53.0106 200.091 52.5543 199.929 52.0794 199.866C49.2082 199.578 45.8218 203.525 44.7839 205.888C44.7309 206.017 44.2991 207.403 44.0264 208.381C44.0794 207.782 44.1173 207.153 44.1779 206.578C44.3976 204.403 44.7385 202.434 45.0491 200.684C45.2309 199.691 45.4203 198.805 45.6021 197.972C46.4961 197.479 50.0491 195.472 51.2385 193.896C52.4279 192.32 53.4506 190.108 52.89 188.123C52.7749 187.655 52.5623 187.217 52.266 186.838C51.9698 186.458 51.5966 186.145 51.1709 185.92C50.7453 185.695 50.2768 185.562 49.7963 185.53C49.3157 185.499 48.8339 185.569 48.3824 185.737C45.7006 186.797 44.5188 191.866 44.6855 194.434C44.6855 194.661 45.3294 198.108 45.3748 198.078H45.4279C45.2385 198.873 45.0415 199.729 44.8445 200.676C44.4961 202.419 44.087 204.388 43.8445 206.562C43.5277 208.901 43.3481 211.256 43.3067 213.616C43.2485 216.26 43.4259 218.904 43.837 221.517C43.837 221.517 43.837 221.578 43.837 221.608C43.4582 220.85 42.3218 218.775 42.2158 218.631C40.7006 216.525 36.6324 213.328 33.8824 214.184C33.4297 214.34 33.0147 214.589 32.6645 214.915C32.3143 215.242 32.0366 215.638 31.8494 216.079C31.6623 216.52 31.5698 216.995 31.5781 217.474C31.5864 217.952 31.6953 218.424 31.8976 218.858C32.693 220.729 34.9279 221.843 36.8142 222.313C38.9203 222.835 43.5415 221.979 43.9127 221.911C44.3931 224.558 45.0512 227.17 45.8824 229.729C46.3597 231.244 46.8824 232.714 47.3976 234.199C47.0491 233.555 46.7309 232.987 46.6779 232.911C45.1627 230.805 41.0945 227.608 38.3445 228.464C37.8918 228.62 37.4768 228.869 37.1266 229.196C36.7764 229.522 36.4987 229.919 36.3115 230.359C36.1244 230.8 36.032 231.275 36.0403 231.754C36.0486 232.233 36.1574 232.704 36.3597 233.138C37.1551 235.017 39.39 236.123 41.2688 236.593C43.1476 237.063 47.1249 236.419 48.1703 236.229C48.39 236.797 48.5945 237.366 48.8142 237.934C49.8521 240.661 50.9052 243.373 51.8446 246.063C52.1779 247.01 52.4733 247.956 52.7764 248.903C52.4658 248.335 52.193 247.858 52.1476 247.79C50.6324 245.684 46.5567 242.487 43.8142 243.343C43.3608 243.498 42.9451 243.747 42.594 244.073C42.243 244.399 41.9644 244.795 41.7765 245.236C41.5886 245.677 41.4956 246.152 41.5034 246.631C41.5112 247.111 41.6197 247.583 41.8218 248.017C42.6248 249.888 44.8521 251.002 46.7385 251.472C48.6249 251.941 52.2082 251.35 53.4506 251.138C53.7309 252.116 54.0112 253.093 54.2082 254.055C54.3446 254.714 54.5264 255.343 54.6324 256.01C54.7385 256.676 54.8597 257.328 54.9733 257.972C55.14 259.229 55.3294 260.525 55.4658 261.76C55.5643 262.616 55.6476 263.434 55.7309 264.252C55.4052 263.305 54.7385 261.464 54.6627 261.313C53.5855 259.327 52.0214 257.649 50.1173 256.434C50.005 256.208 49.8732 255.993 49.7233 255.79C49.4483 255.397 49.0937 255.067 48.6827 254.82C48.2716 254.574 47.8133 254.416 47.3374 254.358C46.8615 254.3 46.3788 254.343 45.9206 254.484C45.4624 254.625 45.039 254.861 44.6779 255.176C42.5567 257.131 43.2764 262.282 44.3521 264.623C44.4203 264.76 45.2764 266.176 45.8673 267.063C45.4582 266.593 45.1097 266.131 44.6476 265.653C43.8142 264.699 42.9506 263.767 42.0339 262.767L40.6324 261.343C40.1779 260.866 39.6324 260.411 39.1173 259.934C37.9279 258.858 36.6703 257.82 35.3824 256.813C36.2157 256.055 39.1703 253.441 39.9279 251.684C40.6854 249.926 41.2688 247.487 40.3067 245.691C40.0993 245.258 39.8027 244.873 39.4364 244.563C39.07 244.252 38.6421 244.022 38.1808 243.889C37.7194 243.755 37.235 243.72 36.7593 243.787C36.2835 243.853 35.8272 244.019 35.4203 244.275C33.0263 245.888 32.9506 251.093 33.6627 253.57C33.7082 253.722 34.4203 255.441 34.8294 256.373C34.0718 255.775 33.3142 255.169 32.4657 254.585C30.1324 252.896 27.7082 251.26 25.3066 249.623L23.1097 248.108C23.4127 247.85 26.9506 244.79 27.8597 242.805C28.6627 241.055 29.2006 238.608 28.2385 236.813C28.026 236.388 27.727 236.012 27.3606 235.71C26.9942 235.408 26.5685 235.186 26.1111 235.058C25.6536 234.93 25.1745 234.9 24.7045 234.968C24.2346 235.037 23.7842 235.203 23.3824 235.456C20.9885 237.063 20.9127 242.275 21.6324 244.744C21.6854 244.926 22.7157 247.403 23.0036 248.017C21.3975 246.896 19.8066 245.744 18.2763 244.593C16.2086 243.014 14.2449 241.303 12.3975 239.472C12.5339 239.35 16.2536 236.169 17.1778 234.169C17.9809 232.426 18.5263 229.972 17.5642 228.176C17.3519 227.746 17.0515 227.366 16.6825 227.06C16.3136 226.754 15.8844 226.529 15.4229 226.4C14.9613 226.27 14.4777 226.24 14.0034 226.309C13.5292 226.379 13.075 226.548 12.6703 226.805C10.2763 228.419 10.2006 233.623 10.9203 236.093C10.9733 236.29 12.0869 238.949 12.3218 239.411L11.9884 239.1C10.1849 237.212 8.55466 235.166 7.11722 232.987C6.30661 231.79 5.60207 230.608 4.9354 229.441C5.69298 228.919 9.10207 226.494 10.14 224.775C11.1778 223.055 11.9354 220.752 11.1778 218.866C11.0148 218.415 10.7587 218.003 10.4261 217.657C10.0936 217.312 9.69198 217.04 9.24751 216.86C8.80304 216.68 8.32564 216.596 7.84636 216.612C7.36708 216.629 6.89666 216.746 6.46571 216.956C3.91267 218.297 3.26873 223.464 3.70813 226.002C3.70813 226.138 4.12479 227.517 4.4657 228.509C4.17782 227.979 3.86722 227.434 3.60206 226.919C2.58691 224.987 1.7763 223.131 1.07176 221.532C0.685394 220.6 0.314182 219.752 0.0414541 218.956C0.511152 218.063 2.36721 214.411 2.48843 212.456C2.60964 210.502 2.17024 208.04 0.655091 206.714C0.302604 206.389 -0.114327 206.142 -0.568598 205.989C-1.02287 205.835 -1.50431 205.779 -1.98162 205.824C-2.45893 205.869 -2.92142 206.014 -3.33903 206.25C-3.75663 206.485 -4.12001 206.806 -4.40552 207.191C-6.05704 209.555 -4.24643 214.434 -2.68582 216.487C-2.54946 216.669 -0.125213 219.191 -0.102486 219.146V219.093C0.177817 219.85 0.488424 220.691 0.836909 221.585C1.51115 223.229 2.28388 225.085 3.25358 227.047C4.28543 229.174 5.44147 231.238 6.71571 233.229C8.12491 235.465 9.72968 237.572 11.5112 239.525L11.5793 239.593C10.8218 239.169 8.75359 238.078 8.54904 238.002C6.14752 237.063 0.973273 236.661 -0.860063 238.896C-1.15297 239.275 -1.36277 239.711 -1.4758 240.176C-1.58883 240.642 -1.60255 241.126 -1.51607 241.597C-1.42958 242.068 -1.24484 242.515 -0.973869 242.91C-0.702899 243.305 -0.351783 243.638 0.0566045 243.888C1.7763 245.032 4.26116 244.699 6.07934 244.055Z" fill="#333333"/>
<path d="M43.534 209.017C43.587 209.017 42.7764 205.608 42.7007 205.396C41.8295 202.972 38.7158 198.805 35.8295 198.903C35.3517 198.935 34.886 199.066 34.4621 199.289C34.0383 199.511 33.6659 199.821 33.3689 200.196C33.072 200.572 32.857 201.005 32.738 201.469C32.619 201.933 32.5985 202.416 32.6779 202.888C32.9582 204.911 34.8295 206.578 36.5113 207.517C38.481 208.623 43.5264 209.017 43.534 209.017Z" fill="#333333"/>
<path d="M309.896 234.634C307.851 233.915 304.464 230.649 304.191 230.384C302.329 232.33 300.337 234.147 298.229 235.824C297.01 236.801 295.752 237.755 294.479 238.695C295.123 238.354 295.707 238.051 295.79 238.021C298.191 237.081 303.366 236.68 305.199 238.915C305.492 239.294 305.701 239.731 305.813 240.196C305.926 240.662 305.939 241.146 305.852 241.617C305.764 242.088 305.579 242.536 305.307 242.93C305.036 243.325 304.684 243.657 304.275 243.907C302.578 245.036 300.093 244.718 298.275 244.074C296.457 243.43 293.487 240.702 292.722 239.968L291.244 241.036C288.873 242.733 286.502 244.415 284.222 246.134C283.419 246.74 282.646 247.369 281.873 247.99C282.449 247.687 282.934 247.437 283.017 247.407C285.411 246.468 290.593 246.066 292.426 248.301C292.719 248.681 292.928 249.118 293.041 249.584C293.153 250.051 293.167 250.535 293.079 251.007C292.992 251.479 292.807 251.927 292.535 252.322C292.263 252.717 291.911 253.051 291.502 253.301C289.805 254.422 287.313 254.104 285.502 253.468C283.691 252.831 281.002 250.354 280.085 249.49C279.328 250.149 278.57 250.808 277.813 251.49C277.328 251.96 276.835 252.384 276.381 252.884C275.926 253.384 275.464 253.854 275.017 254.339C274.176 255.286 273.313 256.263 272.517 257.218C271.964 257.877 271.441 258.505 270.919 259.149C271.714 258.536 273.29 257.369 273.434 257.286C275.661 255.998 280.729 254.808 282.866 256.748C283.213 257.078 283.486 257.478 283.669 257.921C283.851 258.364 283.938 258.841 283.924 259.32C283.909 259.799 283.794 260.269 283.586 260.701C283.377 261.132 283.08 261.515 282.714 261.824C281.199 263.187 278.699 263.255 276.805 262.899C274.729 262.498 271.025 259.907 270.563 259.581C269.699 260.642 268.873 261.687 268.101 262.68C266.04 265.346 264.313 267.718 262.987 269.634L261.282 268.74C262.691 266.801 264.532 264.362 266.752 261.619C267.623 260.536 268.578 259.399 269.57 258.24C268.626 257.134 267.748 255.973 266.941 254.763C264.888 255.521 260.669 255.377 260.123 255.362C259.994 256.725 259.873 258.043 259.782 259.301C259.54 262.566 259.419 265.43 259.358 267.725L257.51 266.748C257.623 264.596 257.805 262.036 258.078 259.172C258.214 257.786 258.381 256.316 258.563 254.801C258.032 254.649 253.684 253.377 252.07 251.998C250.608 250.748 249.093 248.748 249.214 246.695C249.226 246.216 249.338 245.745 249.544 245.312C249.75 244.879 250.045 244.495 250.41 244.184C250.774 243.873 251.2 243.643 251.66 243.507C252.12 243.372 252.603 243.335 253.078 243.399C255.926 243.861 258.169 248.551 258.555 251.096C258.555 251.248 258.646 252.907 258.669 253.952C258.752 253.339 258.82 252.74 258.911 252.104C259.078 250.846 259.282 249.596 259.502 248.255C259.623 247.612 259.752 246.96 259.881 246.301C260.01 245.642 260.199 244.968 260.358 244.293C260.76 242.733 261.237 241.18 261.752 239.619C260.654 239.475 256.76 238.861 255.116 237.869C253.472 236.877 251.676 235.104 251.494 233.081C251.434 232.606 251.474 232.123 251.612 231.664C251.75 231.205 251.983 230.78 252.296 230.418C252.609 230.055 252.995 229.762 253.428 229.557C253.862 229.353 254.333 229.243 254.813 229.233C257.699 229.233 260.631 233.558 261.396 236.051C261.449 236.21 261.797 238.036 261.972 239.043C262.29 238.104 262.608 237.172 262.957 236.24C263.979 233.543 265.093 230.846 266.191 228.149C266.532 227.324 266.858 226.498 267.184 225.672C266.797 225.619 262.146 225.021 260.305 223.884C258.676 222.869 256.873 221.119 256.684 219.096C256.623 218.621 256.663 218.138 256.801 217.679C256.939 217.22 257.172 216.796 257.485 216.433C257.798 216.07 258.184 215.777 258.618 215.573C259.051 215.368 259.523 215.258 260.002 215.248C262.888 215.248 265.82 219.574 266.593 222.028C266.646 222.218 267.154 224.846 267.244 225.521C268.002 223.702 268.676 221.877 269.305 220.058C270.158 217.601 270.851 215.09 271.381 212.543C271.199 212.543 266.351 211.914 264.464 210.748C262.828 209.733 261.025 207.983 260.835 205.96C260.776 205.484 260.817 205.001 260.956 204.542C261.095 204.083 261.329 203.659 261.642 203.296C261.956 202.933 262.342 202.64 262.776 202.436C263.21 202.232 263.682 202.122 264.161 202.111C267.047 202.111 269.972 206.437 270.744 208.892C270.805 209.089 271.343 211.922 271.404 212.437C271.404 212.286 271.487 212.142 271.51 211.99C271.972 209.42 272.203 206.814 272.199 204.202C272.199 202.763 272.154 201.384 272.063 200.043C271.146 200.043 266.964 199.892 265.154 199.028C263.343 198.164 261.434 196.657 261.025 194.664C260.912 194.198 260.899 193.714 260.986 193.242C261.073 192.771 261.259 192.323 261.53 191.928C261.802 191.533 262.153 191.199 262.562 190.949C262.971 190.699 263.428 190.537 263.904 190.475C266.775 190.187 270.161 194.134 271.191 196.498C271.252 196.627 271.676 198.013 271.949 198.99C271.896 198.392 271.858 197.763 271.797 197.187C271.578 195.013 271.244 193.043 270.926 191.293C270.744 190.301 270.555 189.414 270.373 188.581C269.487 188.089 265.934 186.081 264.744 184.505C263.555 182.93 262.532 180.717 263.085 178.733C263.201 178.268 263.413 177.832 263.708 177.455C264.002 177.077 264.373 176.765 264.796 176.54C265.219 176.315 265.685 176.182 266.163 176.148C266.64 176.115 267.12 176.182 267.57 176.346C270.252 177.407 271.434 182.475 271.267 185.043C271.267 185.27 270.623 188.717 270.578 188.687H270.525C270.714 189.483 270.919 190.339 271.116 191.286C271.464 193.028 271.873 194.998 272.116 197.172C272.43 199.511 272.607 201.866 272.646 204.225C272.707 206.869 272.532 209.514 272.123 212.127V212.218C272.502 211.46 273.638 209.384 273.744 209.24C275.26 207.134 279.328 203.937 282.078 204.793C282.531 204.948 282.947 205.197 283.298 205.523C283.649 205.849 283.927 206.246 284.114 206.687C284.302 207.128 284.394 207.604 284.385 208.083C284.376 208.562 284.266 209.034 284.063 209.467C283.267 211.339 281.032 212.452 279.154 212.922C277.047 213.445 272.419 212.589 272.047 212.521C271.567 215.168 270.909 217.78 270.078 220.339C269.601 221.854 269.078 223.324 268.563 224.808C268.911 224.164 269.229 223.596 269.282 223.521C270.797 221.414 274.873 218.218 277.616 219.074C278.069 219.229 278.485 219.477 278.836 219.803C279.187 220.13 279.465 220.526 279.653 220.967C279.841 221.408 279.934 221.883 279.927 222.362C279.919 222.841 279.81 223.313 279.608 223.748C278.805 225.627 276.578 226.733 274.691 227.202C272.805 227.672 268.835 227.028 267.79 226.839L267.154 228.543C266.108 231.271 265.055 233.983 264.123 236.672C263.79 237.619 263.494 238.566 263.199 239.513C263.51 238.945 263.775 238.468 263.82 238.399C265.335 236.293 269.411 233.096 272.154 233.952C272.606 234.108 273.021 234.357 273.371 234.684C273.722 235.01 273.999 235.407 274.187 235.848C274.374 236.288 274.466 236.764 274.458 237.242C274.45 237.721 274.341 238.193 274.138 238.627C273.335 240.498 271.108 241.611 269.222 242.081C267.335 242.551 263.752 241.96 262.51 241.748C262.237 242.725 261.957 243.702 261.752 244.665C261.616 245.324 261.434 245.952 261.335 246.619C261.237 247.286 261.108 247.937 260.994 248.581C260.82 249.839 260.638 251.134 260.502 252.369C260.396 253.225 260.313 254.043 260.229 254.862C260.555 253.915 261.229 252.074 261.297 251.922C262.36 249.913 263.919 248.21 265.828 246.975C265.934 246.746 266.066 246.53 266.222 246.331C266.496 245.939 266.85 245.609 267.26 245.362C267.671 245.115 268.128 244.958 268.604 244.9C269.079 244.842 269.561 244.885 270.019 245.026C270.476 245.167 270.899 245.402 271.26 245.718C273.381 247.672 272.669 252.824 271.585 255.165C271.517 255.301 270.661 256.718 270.07 257.604C270.479 257.134 270.873 256.672 271.297 256.195C272.131 255.24 272.987 254.308 273.911 253.308L275.305 251.884C275.767 251.407 276.313 250.952 276.82 250.475C278.01 249.399 279.267 248.362 280.563 247.354C279.729 246.596 276.775 243.983 276.017 242.225C275.26 240.468 274.669 238.028 275.631 236.233C275.842 235.802 276.142 235.421 276.511 235.114C276.88 234.808 277.309 234.582 277.77 234.452C278.232 234.322 278.716 234.29 279.19 234.36C279.665 234.429 280.12 234.597 280.525 234.854C282.919 236.468 282.987 241.672 282.275 244.149C282.229 244.301 281.517 246.021 281.108 246.952C281.866 246.354 282.661 245.748 283.472 245.165C285.813 243.475 288.229 241.839 290.638 240.202L292.828 238.687C292.532 238.43 288.987 235.369 288.078 233.384C287.275 231.634 286.737 229.187 287.699 227.392C287.91 226.961 288.21 226.58 288.579 226.273C288.948 225.967 289.377 225.741 289.839 225.612C290.301 225.482 290.785 225.452 291.26 225.522C291.734 225.593 292.189 225.763 292.593 226.021C294.979 227.627 295.055 232.839 294.343 235.308C294.29 235.49 293.26 237.968 292.964 238.581C294.578 237.46 296.169 236.308 297.691 235.157C299.761 233.58 301.725 231.869 303.57 230.036C303.434 229.915 299.722 226.733 298.79 224.733C297.987 222.99 297.449 220.536 298.411 218.74C298.623 218.311 298.922 217.931 299.291 217.625C299.659 217.319 300.087 217.094 300.548 216.964C301.009 216.835 301.492 216.804 301.966 216.874C302.44 216.944 302.893 217.112 303.298 217.369C305.691 218.983 305.767 224.187 305.048 226.657C304.994 226.854 303.888 229.513 303.654 229.975L303.987 229.664C305.786 227.775 307.413 225.729 308.851 223.551C309.661 222.354 310.366 221.172 311.032 220.005C310.275 219.483 306.866 217.058 305.835 215.339C304.805 213.619 304.04 211.316 304.798 209.43C304.961 208.979 305.217 208.567 305.549 208.221C305.882 207.876 306.283 207.604 306.728 207.424C307.172 207.244 307.65 207.16 308.129 207.176C308.608 207.193 309.079 207.31 309.51 207.521C312.063 208.861 312.707 214.028 312.267 216.566C312.267 216.702 311.843 218.081 311.51 219.074C311.798 218.543 312.108 217.998 312.381 217.483C313.396 215.551 314.199 213.695 314.904 212.096C315.298 211.164 315.661 210.316 315.941 209.521C315.464 208.627 313.616 204.975 313.487 203.021C313.358 201.066 313.752 198.619 315.29 197.293C315.642 196.968 316.059 196.721 316.514 196.568C316.968 196.415 317.449 196.359 317.927 196.404C318.404 196.449 318.866 196.594 319.284 196.829C319.702 197.065 320.065 197.385 320.351 197.771C322.002 200.134 320.191 205.013 318.638 207.066C318.502 207.248 316.07 209.771 316.048 209.725V209.672C315.775 210.43 315.464 211.271 315.108 212.164C314.441 213.808 313.669 215.664 312.691 217.627C311.665 219.753 310.514 221.817 309.244 223.808C307.84 226.048 306.235 228.155 304.449 230.104L304.381 230.172C305.138 229.748 307.207 228.657 307.411 228.581C309.805 227.642 314.987 227.24 316.82 229.475C317.113 229.854 317.322 230.291 317.435 230.757C317.547 231.223 317.56 231.707 317.473 232.178C317.386 232.649 317.2 233.096 316.929 233.491C316.657 233.885 316.305 234.218 315.896 234.468C314.199 235.611 311.707 235.278 309.896 234.634Z" fill="#333333"/>
<path d="M300.451 209.017C300.398 209.017 301.209 205.608 301.277 205.396C302.148 202.972 305.269 198.805 308.148 198.903C308.626 198.934 309.093 199.064 309.517 199.287C309.941 199.509 310.314 199.818 310.612 200.194C310.909 200.569 311.124 201.004 311.242 201.468C311.361 201.932 311.38 202.416 311.3 202.888C311.027 204.911 309.148 206.578 307.474 207.517C305.504 208.623 300.451 209.017 300.451 209.017Z" fill="#333333"/>
<path d="M83.4024 278.074L162.569 211.024" stroke="#333333" stroke-miterlimit="10"/>
<path d="M231.453 292.42H231.477C220.281 292.42 209.711 293.552 200.369 295.574L199.502 295.045C197.576 297.019 194.831 298.319 191.243 298.319C189.847 298.319 188.595 298.103 187.463 297.766C187.222 297.862 186.982 297.958 186.741 298.054L188.21 298.945C172.992 304.194 163.289 312.188 163.289 321.097C163.289 336.94 193.82 349.774 231.453 349.774C269.087 349.774 299.617 336.94 299.617 321.097C299.617 305.254 269.087 292.42 231.453 292.42ZM231.477 337.807C204.799 337.807 183.177 329.524 183.177 319.291C183.177 309.058 204.799 300.775 231.477 300.775C258.156 300.775 279.777 309.058 279.777 319.291C279.777 329.524 258.156 337.807 231.477 337.807Z" fill="#FFC700"/>
<path d="M107.466 102.451C107.466 102.451 109.924 103.284 114.02 99.3979C118.078 95.5519 116.375 78.192 102.433 75.3658C96.1903 63.3521 85.3355 68.9711 73.9819 72.5395C62.6284 76.1079 64.6392 76.2937 64.5612 89.4968C59.8508 101.744 59.2884 116.758 63.6191 118.701C67.9108 120.684 69.9328 115.02 72.937 114.901C75.9412 114.782 88.8944 113.315 94.2395 110.619C99.5456 107.922 102.433 103.799 102.433 103.799L107.505 102.332L107.466 102.451Z" fill="#333333" stroke="#333333" stroke-width="0.5" stroke-linecap="round" stroke-linejoin="round"/>
<path d="M214.57 303.11C214.57 303.11 204.952 307.657 203.153 310.58C201.354 313.503 203.328 313.678 206.426 313.503C209.524 313.328 214.52 311.604 217.293 310.88C220.092 310.13 222.665 310.855 223.064 307.982C223.464 305.134 222.815 303.46 222.815 303.46C222.815 303.46 219.192 299.712 214.595 303.085L214.57 303.11Z" fill="white" stroke="#263238" stroke-width="0.5" stroke-miterlimit="10"/>
<path d="M241.952 306.857C241.952 306.857 234.657 317.2 232.558 320.148C230.459 323.096 234.557 325.395 237.954 325.195C241.327 324.995 248.147 320.623 249.372 317.725C250.621 314.827 249.921 308.082 249.921 308.082C249.921 308.082 245.049 307.232 241.927 306.857H241.952Z" fill="white" stroke="#263238" stroke-width="0.5" stroke-miterlimit="10"/>
<path d="M210.848 178.594C210.848 178.594 211.347 201.179 210.773 210.847C210.223 220.491 212.646 270.707 213.196 280C213.746 289.294 214.57 303.11 214.57 303.11C214.57 303.11 217.268 305.783 222.79 303.485C222.79 303.485 223.364 279.975 223.789 272.605C224.214 265.21 229.585 222.764 229.76 220.766C229.935 218.767 231.134 200.879 231.134 200.879C231.134 200.879 236.655 246.073 237.18 254.843C237.704 263.587 241.202 308.056 241.202 308.056C241.202 308.056 242.651 308.531 244.65 308.981C246.648 309.43 249.971 308.106 249.971 308.106C249.971 308.106 251.57 292.167 251.945 284.223C252.32 276.278 252.644 243.45 252.045 233.582C251.445 223.714 251.47 214.67 251.67 213.246C251.87 211.822 254.318 177.17 252.944 172.723C251.545 168.276 231.933 175.946 224.813 175.246C217.693 174.547 210.698 170.999 210.873 178.619L210.848 178.594Z" fill="#263238" stroke="#263238" stroke-width="0.5" stroke-miterlimit="10"/>
<path d="M190.586 146.991C190.586 146.991 201.479 159.082 204.752 161.706C208.024 164.329 213.321 162.905 214.87 160.531C216.419 158.183 216.319 137.247 216.319 137.247L212.272 111.765L206.501 148.04L194.134 144.542C194.134 144.542 190.087 143.093 190.611 147.016L190.586 146.991Z" fill="white" stroke="#263238" stroke-width="0.5" stroke-linecap="round" stroke-linejoin="round"/>
<path d="M231.284 103.845C231.284 103.845 214.945 109.916 213.021 110.59C211.073 111.265 210.248 120.933 210.373 128.004C210.523 135.074 209.399 178.12 211.247 180.568C213.096 183.016 216.794 183.616 224.139 183.191C231.459 182.741 245.074 178.544 249.197 176.321C253.319 174.097 254.368 172.898 254.368 172.898C254.368 172.898 257.916 132.8 259.09 123.682C260.264 114.563 257.416 109.641 253.844 106.743C250.271 103.845 231.334 103.845 231.334 103.845H231.284Z" fill="white" stroke="#263238" stroke-width="0.5" stroke-miterlimit="10"/>
<path d="M231.284 103.845C231.284 103.845 228.86 104.744 225.787 105.894C224.488 110.44 223.139 116.486 223.139 121.683C223.139 131.526 226.212 130.902 231.733 125.355C236.205 120.883 242.276 111.615 245.749 104.644C239.203 103.87 231.309 103.87 231.309 103.87L231.284 103.845Z" fill="#FFC700" stroke="#263238" stroke-width="0.5" stroke-miterlimit="10"/>
<path d="M226.962 102.671C226.962 102.671 228.811 109.916 228.211 114.188C227.611 118.46 226.662 121.358 228.636 121.233C230.609 121.108 237.43 111.939 238.054 108.217C238.679 104.52 238.429 90.9287 238.429 90.9287L226.962 102.646V102.671Z" fill="white" stroke="#263238" stroke-width="0.5" stroke-miterlimit="10"/>
<path d="M214.87 75.3893C214.87 75.3893 216.794 88.5804 217.893 93.0274C219.017 97.4993 222.04 105.519 224.289 105.669C226.562 105.819 235.256 99.9227 237.08 97.2745C238.904 94.6263 238.704 86.7067 239.004 82.1847C239.303 77.6378 237.58 72.3664 234.657 71.1422C231.734 69.918 216.344 72.2415 214.82 75.4393L214.87 75.3893Z" fill="white" stroke="#263238" stroke-width="0.5" stroke-miterlimit="10"/>
<path d="M231.808 74.9647C231.808 74.9647 225.687 76.4637 216.943 76.9883C208.199 77.513 207.1 73.3408 209.399 68.9438C211.672 64.5717 219.741 57.3017 231.983 58.5508C244.225 59.8 245.449 70.7675 244.824 74.49C244.2 78.2125 242.576 84.2334 242.576 84.2334C242.576 84.2334 240.402 80.9856 239.053 82.1848C237.704 83.384 237.754 88.7553 237.754 88.7553L234.706 89.7796C234.706 89.7796 233.982 87.0065 233.357 86.1821C232.733 85.3576 228.685 83.6338 228.585 82.2098C228.486 80.8107 231.833 74.9397 231.833 74.9397L231.808 74.9647Z" fill="#263238" stroke="#263238" stroke-width="0.5" stroke-miterlimit="10"/>
<path d="M236.955 89.9295C236.955 89.9295 237.804 80.5359 241.252 81.4602C244.7 82.3846 243.501 86.1321 241.727 89.3549C239.928 92.5777 237.73 93.552 237.73 93.552" fill="white"/>
<path d="M236.955 89.9295C236.955 89.9295 237.804 80.5359 241.252 81.4602C244.7 82.3846 243.501 86.1321 241.727 89.3549C239.928 92.5777 237.73 93.552 237.73 93.552" stroke="#263238" stroke-width="0.5" stroke-miterlimit="10"/>
<path d="M251.12 113.963C251.12 113.963 249.022 121.433 249.222 124.831C249.421 128.204 264.087 165.528 264.486 167.477C264.886 169.426 270.307 170.25 273.005 168.102C275.704 165.953 276.953 163.055 275.079 155.535C273.93 150.863 261.863 118.71 261.014 113.938C260.164 109.166 256.866 105.969 253.794 106.743" fill="white"/>
<path d="M251.12 113.963C251.12 113.963 249.022 121.433 249.222 124.831C249.421 128.204 264.087 165.528 264.486 167.477C264.886 169.426 270.307 170.25 273.005 168.102C275.704 165.953 276.953 163.055 275.079 155.535C273.93 150.863 261.863 118.71 261.014 113.938C260.164 109.166 256.866 105.969 253.794 106.743" stroke="#263238" stroke-width="0.5" stroke-miterlimit="10"/>
<path d="M239.878 176.871C239.878 176.871 239.603 176.871 237.455 178.994C235.306 181.118 235.231 184.216 235.231 184.216L240.553 188.138L242.976 181.492L239.878 176.871Z" fill="white" stroke="#263238" stroke-width="0.5" stroke-miterlimit="10"/>
<path d="M267.134 154.885C267.134 154.885 256.292 162.605 252.544 166.503C250.046 169.126 239.878 176.871 239.878 176.871L242.976 181.492C242.976 181.492 248.922 178.594 254.268 176.296C261.163 173.348 274.479 173.673 276.103 162.83" fill="white"/>
<path d="M267.134 154.885C267.134 154.885 256.292 162.605 252.544 166.503C250.046 169.126 239.878 176.871 239.878 176.871L242.976 181.492C242.976 181.492 248.922 178.594 254.268 176.296C261.163 173.348 274.479 173.673 276.103 162.83" stroke="#263238" stroke-width="0.5" stroke-miterlimit="10"/>
<path d="M186.789 130.827L195.633 151.238L204.977 151.538L196.657 130.527L186.789 130.852V130.827Z" fill="#263238" stroke="#263238" stroke-width="0.5" stroke-miterlimit="10"/>
<path d="M194.059 138.871C194.059 138.871 188.038 137.522 187.289 138.996C186.514 140.445 190.037 147.316 191.561 148.914C193.06 150.513 196.707 149.739 198.631 148.765C200.555 147.79 198.881 143.368 197.707 142.869C196.532 142.369 190.836 141.569 190.836 141.569C190.836 141.569 195.983 142.394 196.757 141.22C197.532 140.045 196.357 139.271 194.084 138.846L194.059 138.871Z" fill="white" stroke="#263238" stroke-width="0.5" stroke-miterlimit="10"/>
<path d="M106.492 204.131C106.492 204.131 105.963 228.061 106.572 238.305C107.154 248.523 104.586 301.731 104.004 311.578C103.422 321.426 102.548 336.064 102.548 336.064C102.548 336.064 99.6891 338.897 93.839 336.461C93.839 336.461 93.2302 311.552 92.7801 303.743C92.3301 295.907 86.6388 250.932 86.4535 248.815C86.2682 246.697 84.9975 227.743 84.9975 227.743C84.9975 227.743 79.1474 275.63 78.5915 284.922C78.0356 294.186 74.3296 341.306 74.3296 341.306C74.3296 341.306 72.7942 341.808 70.6765 342.285C68.5588 342.761 65.0381 341.358 65.0381 341.358C65.0381 341.358 63.344 324.47 62.9469 316.052C62.5498 307.634 62.2057 272.851 62.841 262.394C63.4763 251.938 63.4499 242.356 63.2381 240.847C63.0263 239.338 60.4321 202.622 61.8881 197.91C63.3705 193.198 84.1505 201.325 91.6948 200.584C99.2391 199.843 106.651 196.084 106.466 204.157L106.492 204.131Z" fill="#263238" stroke="#263238" stroke-width="0.5" stroke-miterlimit="10"/>
<path d="M127.961 170.645C127.961 170.645 116.419 183.457 112.951 186.236C109.484 189.016 103.872 187.507 102.23 184.992C100.589 182.504 100.695 160.321 100.695 160.321L104.983 133.32L111.098 171.756L124.202 168.05C124.202 168.05 128.49 166.515 127.934 170.671L127.961 170.645Z" fill="#FFC700" stroke="#263238" stroke-width="0.5" stroke-linecap="round" stroke-linejoin="round"/>
<path d="M84.8387 124.928C84.8387 124.928 102.151 131.361 104.189 132.076C106.254 132.79 107.128 143.035 106.995 150.526C106.836 158.018 108.028 203.628 106.069 206.222C104.11 208.816 100.192 209.452 92.4095 209.002C84.6534 208.525 70.2265 204.078 65.8587 201.722C61.4909 199.366 60.3791 198.095 60.3791 198.095C60.3791 198.095 56.6202 155.609 55.376 145.947C54.1319 136.285 57.1496 131.07 60.935 127.999C64.7205 124.928 84.7857 124.928 84.7857 124.928H84.8387Z" fill="#FFC700" stroke="#263238" stroke-width="0.5" stroke-miterlimit="10"/>
<path d="M84.8388 124.928C84.8388 124.928 87.4065 125.881 90.6625 127.099C92.039 131.917 93.4685 138.323 93.4685 143.829C93.4685 154.259 90.2125 153.597 84.3623 147.72C79.6239 142.982 73.1914 133.161 69.5119 125.776C76.4474 124.955 84.8123 124.955 84.8123 124.955L84.8388 124.928Z" fill="white" stroke="#263238" stroke-width="0.5" stroke-miterlimit="10"/>
<path d="M89.4182 123.684C89.4182 123.684 87.4593 131.361 88.0946 135.888C88.73 140.414 89.7359 143.485 87.6446 143.353C85.5534 143.22 78.3267 133.505 77.6649 129.561C77.0031 125.643 77.2679 111.243 77.2679 111.243L89.4182 123.658V123.684Z" fill="white" stroke="#263238" stroke-width="0.5" stroke-miterlimit="10"/>
<path d="M102.23 94.7777C102.23 94.7777 100.192 108.755 99.0272 113.466C97.836 118.205 94.633 126.702 92.2505 126.861C89.8416 127.02 80.6296 120.773 78.6972 117.967C76.7648 115.161 76.9765 106.769 76.6589 101.978C76.3412 97.1601 78.1678 91.5746 81.2649 90.2775C84.3621 88.9804 100.668 91.4423 102.283 94.8306L102.23 94.7777Z" fill="white" stroke="#263238" stroke-width="0.5" stroke-miterlimit="10"/>
<path d="M84.2829 94.3278C84.2829 94.3278 90.7684 95.9161 100.033 96.472C109.298 97.0279 110.463 92.6072 108.028 87.9482C105.619 83.3157 97.0686 75.6125 84.0977 76.9361C71.1267 78.2597 69.8296 89.8806 70.4914 93.8248C71.1532 97.7691 72.8738 104.149 72.8738 104.149C72.8738 104.149 75.1768 100.707 76.6063 101.978C78.0357 103.249 77.9827 108.94 77.9827 108.94L81.2122 110.025C81.2122 110.025 81.9799 107.087 82.6417 106.213C83.3035 105.34 87.5919 103.513 87.6978 102.004C87.8036 100.522 84.2565 94.3013 84.2565 94.3013L84.2829 94.3278Z" fill="#333333" stroke="#333333" stroke-width="0.5" stroke-miterlimit="10"/>
<path d="M78.8296 110.184C78.8296 110.184 77.9295 100.231 74.2765 101.21C70.6234 102.19 71.8941 106.16 73.7735 109.575C75.6795 112.99 78.009 114.022 78.009 114.022" fill="white"/>
<path d="M78.8296 110.184C78.8296 110.184 77.9295 100.231 74.2765 101.21C70.6234 102.19 71.8941 106.16 73.7735 109.575C75.6795 112.99 78.009 114.022 78.009 114.022" stroke="#263238" stroke-width="0.5" stroke-miterlimit="10"/>
<path d="M63.8203 135.65C63.8203 135.65 66.0439 143.565 65.8322 147.165C65.6204 150.738 50.0817 190.287 49.6581 192.351C49.2346 194.416 43.4904 195.29 40.6314 193.013C37.7725 190.737 36.449 187.666 38.4343 179.698C39.652 174.748 52.4376 140.679 53.3377 135.623C54.2377 130.567 57.7319 127.179 60.9879 127.999" fill="#FFC700"/>
<path d="M63.8203 135.65C63.8203 135.65 66.0439 143.565 65.8322 147.165C65.6204 150.738 50.0817 190.287 49.6581 192.351C49.2346 194.416 43.4904 195.29 40.6314 193.013C37.7725 190.737 36.449 187.666 38.4343 179.698C39.652 174.748 52.4376 140.679 53.3377 135.623C54.2377 130.567 57.7319 127.179 60.9879 127.999" stroke="#263238" stroke-width="0.5" stroke-miterlimit="10"/>
<path d="M75.7325 202.304C75.7325 202.304 76.0237 202.304 78.3003 204.555C80.5768 206.805 80.6562 210.087 80.6562 210.087L75.0178 214.243L72.4501 207.202L75.7325 202.304Z" fill="white" stroke="#263238" stroke-width="0.5" stroke-miterlimit="10"/>
<path d="M46.8523 179.01C46.8523 179.01 58.3409 187.189 62.3116 191.319C64.9587 194.098 75.7326 202.304 75.7326 202.304L72.4501 207.202C72.4501 207.202 66.15 204.131 60.4851 201.695C53.179 198.572 39.0698 198.916 37.3491 187.427" fill="#FFC700"/>
<path d="M46.8523 179.01C46.8523 179.01 58.3409 187.189 62.3116 191.319C64.9587 194.098 75.7326 202.304 75.7326 202.304L72.4501 207.202C72.4501 207.202 66.15 204.131 60.4851 201.695C53.179 198.572 39.0698 198.916 37.3491 187.427" stroke="#263238" stroke-width="0.5" stroke-miterlimit="10"/>
<path d="M131.984 153.518L122.613 175.145L112.713 175.462L121.528 153.2L131.984 153.544V153.518Z" fill="#263238" stroke="#263238" stroke-opacity="0.54" stroke-width="0.5" stroke-miterlimit="10"/>
<path d="M124.281 162.041C124.281 162.041 130.661 160.612 131.455 162.174C132.275 163.709 128.543 170.989 126.928 172.683C125.34 174.377 121.475 173.556 119.437 172.524C117.398 171.492 119.172 166.806 120.416 166.277C121.66 165.747 127.696 164.9 127.696 164.9C127.696 164.9 122.243 165.774 121.422 164.53C120.601 163.286 121.846 162.465 124.255 162.015L124.281 162.041Z" fill="white" stroke="#263238" stroke-width="0.5" stroke-miterlimit="10"/>
<path d="M89.0993 126.238L94.7075 132.832L93.8572 138.485L88.113 131.89L89.0993 128.122L89.0993 126.238Z" fill="white" stroke="#263238" stroke-width="0.5" stroke-linecap="round" stroke-linejoin="round"/>
<path d="M76.8079 123.411L83.5104 137.319L79.2968 143.652L70.2134 126.238L76.8079 123.411Z" fill="white" stroke="#263238" stroke-width="0.5" stroke-linecap="round" stroke-linejoin="round"/>
</g>
</svg>
