<svg width="62" height="63" viewBox="0 0 62 63" fill="none" xmlns="http://www.w3.org/2000/svg">
<g id="Traced Image">
<path id="Vector" fill-rule="evenodd" clip-rule="evenodd" d="M48.5955 2.97241C42.0258 4.22633 36.5631 10.3303 35.1481 17.9981C34.8682 19.5147 34.8737 22.601 35.1587 24.0351C35.4261 25.3804 36.0502 27.1399 36.6241 28.166C37.1562 29.1176 38.3628 30.659 38.8676 31.0323C39.0692 31.1814 39.2354 31.3613 39.2367 31.432C39.238 31.5027 38.6069 32.9308 37.8342 34.6054L36.4293 37.6501L35.9245 37.585C35.1122 37.4803 34.9586 37.3768 34.5121 36.6345C34.1017 35.9525 34.0863 35.8821 34.0143 34.3512C33.9625 33.2491 33.8761 32.6263 33.7289 32.2911C33.6127 32.0269 29.777 26.3905 25.2051 19.7658C17.6677 8.84412 16.8283 7.67351 16.2041 7.21384C13.8663 5.49261 10.5378 6.33954 9.27664 8.9766C8.93722 9.68657 8.90029 9.87645 8.90029 10.9141C8.90029 11.9019 8.94509 12.1599 9.21707 12.74C9.39132 13.1115 11.6035 16.4135 14.133 20.0779C16.6626 23.7422 18.7658 26.7947 18.8068 26.8611C18.8558 26.9403 18.1653 26.9628 16.7972 26.9264C14.4156 26.8631 13.1447 27.0283 11.3269 27.6371C8.90743 28.4475 7.1414 29.5527 5.26105 31.4331C3.38882 33.3052 2.27028 35.096 1.45726 37.5226C0.747527 39.6413 0.51757 42.7429 0.905313 44.9668C2.0218 51.3687 7.13111 56.4814 13.5273 57.5968C14.856 57.8285 17.4758 57.8285 18.8045 57.5968C21.6829 57.0949 24.4722 55.7265 26.6255 53.7603C26.9835 53.4334 27.2954 53.1849 27.3188 53.2081C27.342 53.2314 27.2991 53.5834 27.2235 53.9904C26.9293 55.5715 27.6351 57.5867 28.8822 58.7264C31.0561 60.7132 34.1753 60.6914 36.3262 58.6742C38.7327 56.4174 38.5341 52.5594 35.9042 50.474C35.5712 50.2099 35.4077 50.026 35.5409 50.0654C35.6741 50.1048 35.9466 50.1752 36.1464 50.2219C36.3462 50.2686 36.7905 50.4642 37.1335 50.6563C37.6871 50.9665 37.9365 51.2652 39.3435 53.3026C40.2159 54.5659 40.9296 55.6507 40.9296 55.7136C40.9296 55.7764 40.8517 55.8715 40.7564 55.9248C40.4894 56.0742 40.2046 56.7042 40.2038 57.1477C40.2008 58.7412 42.7496 60.0341 44.4712 59.3122C45.1878 59.0118 47.4493 57.4233 47.7828 56.9862L48.0851 56.5897L48.8227 56.9701C49.9697 57.5616 50.8235 57.5567 53.0798 56.9458C54.0679 56.6783 55.003 56.3764 55.1579 56.2751C55.5248 56.0346 55.7479 55.3683 55.5957 54.9679C55.5326 54.8021 54.9337 53.896 54.2645 52.9542C53.2132 51.4746 53.0761 51.2273 53.2554 51.1337C53.3694 51.0741 54.4587 50.6046 55.6759 50.0903C57.5278 49.308 57.9182 49.0991 58.0675 48.8103C58.4878 47.9976 58.2771 47.6341 56.3127 45.7839C55.4446 44.9661 54.7343 44.257 54.7343 44.2081C54.7343 44.1592 55.5037 43.6367 56.4442 43.0469C58.6364 41.6723 58.8909 41.3758 58.6504 40.4774C58.5332 40.0398 55.3981 37.7447 54.5538 37.4787C53.9013 37.2729 53.7147 37.2779 47.8724 37.6552C44.5669 37.8687 41.8434 38.0244 41.8201 38.0012C41.7969 37.9779 42.2322 36.9826 42.7875 35.7891L43.7972 33.6192L44.9971 33.6606C51.5916 33.8879 57.866 28.8822 60.3713 21.3951C63.1429 13.1126 60.0161 5.07266 53.2811 3.16398C52.1073 2.83133 49.8238 2.73797 48.5955 2.97241ZM48.8806 4.3731C43.7769 5.29716 39.0783 9.87681 37.2004 15.7578C35.0895 22.3681 37.0566 28.9687 41.835 31.3094C43.1936 31.975 44.0481 32.159 45.7733 32.1575C47.6292 32.1558 48.7889 31.8806 50.5565 31.0229C53.7644 29.4663 56.3309 26.7926 58.0608 23.2051C59.1914 20.8604 59.769 18.6875 59.8978 16.2937C60.2023 10.6379 57.58 6.06974 53.2206 4.6613C52.1504 4.31558 49.9904 4.17208 48.8806 4.3731ZM49.1409 6.07434C43.8485 6.69931 39.0248 11.9554 37.9485 18.2702C37.6564 19.9838 37.7663 22.462 38.1994 23.9317C39.0099 26.6811 40.5186 28.609 42.687 29.6664C43.7591 30.1891 44.7706 30.4064 46.1366 30.4075C51.4007 30.4119 56.3626 25.8514 58.0941 19.4174C58.3828 18.3449 58.4112 18.0357 58.4133 15.9395C58.4162 13.2459 58.257 12.467 57.3119 10.5508C56.2642 8.42623 54.2629 6.77027 52.1308 6.26337C51.1322 6.02603 50.1022 5.96088 49.1409 6.07434ZM49.1839 7.51112C48.7254 7.59141 48.4454 7.78237 48.4392 8.01911C48.4373 8.09443 51.3618 9.49028 51.4021 9.43324C51.4148 9.4152 51.5942 9.03375 51.8008 8.58571L52.1762 7.77087L51.7296 7.6522C51.0718 7.47734 49.7842 7.40601 49.1839 7.51112ZM12.412 7.91303C10.7875 8.48629 9.89192 10.3526 10.4636 11.9731C10.5576 12.2392 12.9942 15.8768 15.8784 20.0564C19.9979 26.0261 21.1954 27.6812 21.4622 27.7743C22.0376 27.9749 22.2271 28.6281 21.8175 28.9988C21.5255 29.2631 21.3043 29.2508 20.2225 28.9102C19.723 28.7529 19.1148 28.5886 18.8709 28.545L18.4275 28.4657L18.3374 29.4077C18.1139 31.7444 18.9822 34.6316 20.423 36.344L20.7453 36.7271L23.1448 34.3299C25.5188 31.9579 25.5418 31.93 25.3191 31.686C24.9222 31.2511 24.8975 30.9313 25.2349 30.5939C25.4026 30.4262 25.6195 30.2891 25.7169 30.2891C25.9624 30.2891 27.0545 31.241 27.8424 32.1416C29.1851 33.6765 30.3058 35.6664 30.9466 37.6533L31.2577 38.6176L31.9272 38.2143C32.2954 37.9926 32.7551 37.7764 32.9487 37.7339C33.1423 37.6913 33.3007 37.6254 33.3007 37.5874C33.3007 37.5494 33.1529 37.2164 32.9724 36.8473C32.6833 36.2565 32.6358 35.9872 32.5744 34.595C32.531 33.6092 32.4425 32.9012 32.3396 32.7151C32.2486 32.5508 28.4933 27.0823 23.9943 20.563C19.1985 13.6133 15.6492 8.58353 15.4151 8.40504C15.1956 8.23756 14.8116 8.02759 14.5617 7.93846C14.0227 7.74604 12.9219 7.73309 12.412 7.91303ZM53.165 9.088C52.9624 9.48907 52.7983 9.88698 52.8002 9.97211C52.802 10.0574 53.4409 10.416 54.2199 10.7691C55.5191 11.3583 55.6488 11.3944 55.7869 11.2053C55.9098 11.0374 55.8992 10.9325 55.7295 10.6384C55.4447 10.1444 54.577 9.18524 54.0054 8.73259L53.5331 8.35854L53.165 9.088ZM45.2787 9.06778C44.9067 9.31736 44.3694 9.72266 44.0847 9.96836L43.567 10.4152L44.3841 10.7857C44.8336 10.9895 45.2479 11.1563 45.3048 11.1563C45.3616 11.1563 45.6547 10.6288 45.9561 9.98398C46.3707 9.0966 46.4666 8.78806 46.3505 8.71431C46.0999 8.55531 45.9872 8.59249 45.2787 9.06778ZM47.2567 10.5977C46.9737 11.2225 46.7421 11.7687 46.7421 11.8113C46.7421 11.8539 46.8646 11.9371 47.0145 11.9961C47.1645 12.055 47.8204 12.3526 48.4724 12.6574L49.6579 13.2114L50.198 12.0477C50.4951 11.4076 50.7368 10.8498 50.7351 10.8081C50.7324 10.7379 47.9665 9.45238 47.8319 9.45892C47.7986 9.46049 47.5397 9.97296 47.2567 10.5977ZM11.8134 10.5778C11.5363 10.9734 11.5811 11.2522 11.9873 11.6585C12.2617 11.9329 12.4161 12.0012 12.6231 11.9396C13.2214 11.7619 13.3696 11.1636 12.9481 10.6277C12.6277 10.2202 12.0807 10.1961 11.8134 10.5778ZM51.615 12.4544C51.3434 13.0392 51.1032 13.5917 51.0811 13.6823C51.0548 13.7897 51.5408 14.0746 52.4808 14.5027C53.2728 14.8635 53.9383 15.141 53.9599 15.1196C53.9813 15.098 54.2414 14.5579 54.5379 13.9193L55.0768 12.7581L53.6785 12.1086C52.9094 11.7513 52.2416 11.4438 52.1945 11.4251C52.1473 11.4065 51.8865 11.8696 51.615 12.4544ZM42.1009 12.1028C41.5254 12.8954 41.0244 13.7133 41.0801 13.769C41.1689 13.8579 43.4687 14.9102 43.574 14.9102C43.6882 14.9102 44.7519 12.6346 44.6716 12.5617C44.5882 12.4859 43.4344 11.9198 42.9624 11.723L42.5126 11.5357L42.1009 12.1028ZM13.3686 12.4599C13.0711 12.6585 12.9425 13.0826 13.0936 13.3662C13.4149 13.9688 18.325 21.2782 18.5031 21.419C18.9443 21.7677 19.6171 21.4321 19.6171 20.8632C19.6171 20.6192 14.8137 13.2556 14.2528 12.6397C14.0056 12.3684 13.6223 12.2905 13.3686 12.4599ZM45.504 14.3955L44.9567 15.5762L45.6375 15.8954C46.0119 16.071 46.6797 16.3792 47.1215 16.5802L47.9246 16.9459L48.0482 16.6848C48.1163 16.5413 48.3679 15.9983 48.6075 15.4784L49.0432 14.5329L47.6407 13.8739C46.8694 13.5114 46.1962 13.2149 46.1448 13.2149C46.0935 13.2149 45.8051 13.7462 45.504 14.3955ZM55.844 14.5463C55.5667 15.1518 55.3397 15.6911 55.3397 15.745C55.3397 15.7988 55.7212 16.0114 56.1874 16.2173L57.0351 16.5917L57.0208 15.4179C57.0022 13.8998 56.9213 13.5275 56.6001 13.4815C56.3897 13.4514 56.2654 13.6264 55.844 14.5463ZM40.169 15.6065C39.9432 16.172 39.5976 17.3279 39.5976 17.5181C39.5976 17.6465 41.6182 18.6681 41.8585 18.6612C41.9607 18.6583 43.0338 16.3685 42.9652 16.3C42.8898 16.2247 40.5334 15.1524 40.4433 15.1524C40.3922 15.1524 40.2688 15.3568 40.169 15.6065ZM49.8179 16.3223C49.5194 16.9654 49.3182 17.5314 49.3709 17.5799C49.5165 17.7141 52.2009 18.9383 52.2412 18.8888C52.32 18.7923 53.2811 16.6374 53.2811 16.5571C53.2811 16.5094 52.7499 16.2227 52.1005 15.9201C50.1786 15.0244 50.4417 14.978 49.8179 16.3223ZM43.7754 18.1386C43.4747 18.7819 43.2462 19.3259 43.2677 19.3472C43.2891 19.3686 43.9569 19.682 44.7519 20.0436L46.1972 20.701L46.7118 19.6045C46.9948 19.0013 47.2265 18.4421 47.2265 18.3616C47.2265 18.2408 44.6438 16.9688 44.3982 16.9688C44.3563 16.9688 44.0761 17.4952 43.7754 18.1386ZM54.0932 18.3236L53.5353 19.5291L54.8135 20.1259C55.5163 20.4541 56.1086 20.7227 56.1295 20.7227C56.1882 20.7227 56.6501 19.2728 56.777 18.6901L56.8901 18.1711L56.2058 17.8261C55.8293 17.6363 55.3256 17.3993 55.0862 17.2995L54.651 17.118L54.0932 18.3236ZM48.1014 20.0264C47.8192 20.6425 47.5888 21.1894 47.5891 21.2419C47.5896 21.3207 50.2961 22.6602 50.4546 22.6602C50.5729 22.6602 51.5823 20.3079 51.4979 20.2289C51.4134 20.1496 48.7365 18.9063 48.6504 18.9063C48.6305 18.9063 48.3836 19.4103 48.1014 20.0264ZM39.2343 20.5985V22.0485L39.5915 22.2332C39.788 22.3348 40.0056 22.418 40.075 22.418C40.188 22.418 41.339 20.1224 41.2634 20.0478C41.2179 20.0029 39.3332 19.1485 39.2797 19.1485C39.2547 19.1485 39.2343 19.8009 39.2343 20.5985ZM42.0424 21.8888C41.7553 22.5271 41.5378 23.0666 41.5589 23.0877C41.58 23.1087 42.241 23.4285 43.0278 23.7982L44.4583 24.4703L44.9947 23.3146C45.2897 22.6788 45.5311 22.1198 45.5311 22.072C45.5311 21.9857 42.8277 20.7201 42.655 20.7256C42.6052 20.7272 42.3294 21.2507 42.0424 21.8888ZM52.7477 21.2438C52.6553 21.4566 52.4073 22.0046 52.1968 22.4614C51.986 22.9181 51.8306 23.3027 51.8512 23.316C51.8717 23.3295 52.4039 23.5729 53.0339 23.8571C54.1225 24.3482 54.1874 24.3629 54.3447 24.1528C54.604 23.8067 55.4418 22.3744 55.4837 22.2057C55.5061 22.1155 54.9933 21.8113 54.2185 21.4553L52.9158 20.8566L52.7477 21.2438ZM46.3448 23.8409L45.7915 25.0215L47.2518 25.7218C48.0549 26.107 48.7309 26.4032 48.7541 26.3801C48.9122 26.2218 49.8536 24.0378 49.7893 23.9781C49.7122 23.9064 47.0139 22.6602 46.936 22.6602C46.915 22.6602 46.649 23.1914 46.3448 23.8409ZM40.6493 24.9045C40.537 25.1399 40.4452 25.426 40.4453 25.5403C40.4454 25.9785 42.3052 27.9883 42.7106 27.9883C42.8264 27.9883 43.8976 25.8218 43.815 25.755C43.714 25.6731 41.0292 24.4766 40.9468 24.4766C40.8954 24.4766 40.7615 24.6691 40.6493 24.9045ZM50.6684 25.7612C50.3738 26.3961 50.1327 26.9619 50.1327 27.0187C50.1327 27.2239 50.9512 27.4069 51.2215 27.2624C51.5719 27.0748 53.1601 25.6977 53.1601 25.5813C53.1601 25.5291 52.72 25.2885 52.1821 25.0467L51.2043 24.6069L50.6684 25.7612ZM44.636 27.5342C44.3484 28.1503 44.1282 28.6727 44.1466 28.6951C44.3211 28.9088 47.0247 29.0733 47.4812 28.8982C47.6649 28.8277 48.0741 28.1084 48.0741 27.856C48.0741 27.7561 45.4125 26.4141 45.2142 26.4141C45.1838 26.4141 44.9236 26.9181 44.636 27.5342ZM14.8321 28.3509C12.1978 28.5778 9.15434 29.838 7.08388 31.5591L6.7206 31.861L11.4422 36.5844L16.1639 41.3077L17.8904 39.5841C18.8401 38.6362 19.6171 37.8202 19.6171 37.7706C19.6171 37.7212 19.3968 37.3935 19.1276 37.0425C18.446 36.1539 17.4839 34.1685 17.1753 33.0137C16.9676 32.2363 16.9146 31.6803 16.9071 30.1983C16.9005 28.8957 16.8569 28.3516 16.7589 28.3516C16.6825 28.3516 16.4633 28.3303 16.2719 28.3041C16.0804 28.2781 15.4324 28.299 14.8321 28.3509ZM39.1829 35.1467C38.4716 36.6861 37.906 37.9604 37.9262 37.9783C38.0554 38.0932 39.1413 38.2131 39.5863 38.1615L40.1201 38.0996L41.2465 35.6778C41.866 34.3457 42.3751 33.2287 42.3777 33.1953C42.3826 33.1335 40.6879 32.3462 40.5515 32.3472C40.5102 32.3475 39.8944 33.6072 39.1829 35.1467ZM5.25924 33.4094C3.25707 35.8452 2.06055 39.131 2.05897 42.1978L2.05849 43.1477L3.17861 43.0662C5.83177 42.873 8.63666 43.6754 10.7473 45.231C11.1638 45.5379 11.5459 45.7891 11.5966 45.7891C11.6472 45.7891 12.4642 45.0122 13.4121 44.0624L15.1356 42.3359L10.4431 37.6445C7.86227 35.0643 5.72375 32.9541 5.6907 32.9553C5.65776 32.9566 5.46364 33.1608 5.25924 33.4094ZM24.1729 35.3603L21.7745 37.7609L22.2397 38.1504C22.8797 38.6862 24.9486 39.6696 25.9745 39.9257C26.9204 40.1618 29.7 40.2351 29.9057 40.0294C30.1363 39.7988 29.4616 37.4968 28.7421 36.0591C28.3272 35.2303 27.22 33.5657 26.8595 33.2289L26.5713 32.9596L24.1729 35.3603ZM18.9778 40.5553L17.1961 42.34L21.8978 47.0405L26.5993 51.741L27.0028 51.2814C28.1042 50.0271 29.2403 47.831 29.7256 46.0183C30.0604 44.7678 30.3353 42.464 30.2217 41.859L30.1496 41.4738L29.273 41.5823C26.6571 41.906 22.9111 40.7515 21.0662 39.053L20.7595 38.7706L18.9778 40.5553ZM46.3183 39.1963C43.0548 39.4158 40.1964 39.6132 39.9662 39.6348L39.5477 39.6739L39.267 40.9929C39.1127 41.7184 39.0013 42.3216 39.0195 42.3332C39.0377 42.345 42.1919 42.5839 46.0287 42.8643C50.8782 43.2188 53.0983 43.3386 53.3118 43.2575C53.6363 43.1341 56.6212 41.2591 56.8901 41.0097C57.0166 40.8923 56.8171 40.69 55.8793 39.9851C55.2367 39.502 54.5272 39.03 54.3027 38.9363C53.7641 38.7112 53.3014 38.7263 46.3183 39.1963ZM33.7528 39.0185C33.0463 39.185 32.4075 39.5558 31.9711 40.0529C31.5738 40.5054 31.5728 40.5095 31.6423 41.4935C31.7314 42.7563 31.5627 44.5703 31.2215 46.0201L30.9534 47.1594L31.3442 47.4856C31.7371 47.8137 32.4521 48.0899 32.9081 48.0899C33.0615 48.0899 33.1787 47.9879 33.2214 47.8174C33.3228 47.4104 35.1171 39.0137 35.1171 38.9455C35.1171 38.8536 34.2576 38.8996 33.7528 39.0185ZM36.5187 39.3878C36.4331 39.6484 34.6327 48.147 34.6327 48.2907C34.6327 48.4461 35.9771 48.7354 36.0938 48.6053C36.183 48.5057 38.0233 40.0201 38.0233 39.7085C38.0233 39.4835 37.88 39.419 37.132 39.3068C36.7106 39.2436 36.5597 39.2636 36.5187 39.3878ZM14.3866 45.1529L12.6094 46.9395L12.9735 47.3633C13.9373 48.4851 14.8409 50.4312 15.1946 52.1465C15.3901 53.0946 15.4702 55.7029 15.3162 56.1043C15.2626 56.2442 15.3334 56.3077 15.5835 56.344C16.2227 56.4366 18.5863 56.2165 19.4997 55.9791C21.5505 55.4464 23.7163 54.3726 24.9804 53.2618L25.5607 52.752L20.8623 48.0591L16.1639 43.3663L14.3866 45.1529ZM38.6369 44.0135C38.5825 44.1576 38.5023 44.4934 38.4587 44.7598L38.3792 45.2442L45.1102 47.694L51.8412 50.1439L54.1975 49.1518C55.4934 48.6061 56.536 48.1063 56.5142 48.0412C56.4926 47.9761 55.7395 47.2271 54.8407 46.3769L53.2067 44.831L46.4323 44.3437C42.7065 44.0757 39.4505 43.8328 39.197 43.804C38.8096 43.7601 38.72 43.7936 38.6369 44.0135ZM2.75478 44.5452C2.19327 44.604 2.18043 44.7414 2.60026 46.1904C3.13077 48.0209 4.12241 49.8801 5.38953 51.42L5.68852 51.7832L8.10785 49.3665C10.8838 46.5934 10.7792 46.9115 9.2316 45.9469C7.36252 44.782 5.12373 44.2975 2.75478 44.5452ZM37.7833 47.9247C37.6358 48.6241 37.5341 49.2113 37.5574 49.2296C37.5805 49.2479 40.3854 50.7699 43.7903 52.6119C50.8805 56.4475 50.1947 56.2147 52.5445 55.5853C53.316 55.3788 53.9662 55.1917 53.9894 55.1696C54.067 55.0962 51.7216 51.8728 51.4153 51.632C51.2496 51.5016 48.5908 50.4802 45.507 49.3621C42.4234 48.2439 39.4843 47.1771 38.9759 46.9912L38.0514 46.6532L37.7833 47.9247ZM9.15265 50.3758L6.74094 52.7944L7.14322 53.1365C8.17372 54.0127 9.75048 54.9316 11.1624 55.4785C12.164 55.8665 13.7193 56.2158 13.8525 56.0826C14.0568 55.8783 13.9866 53.0783 13.7538 52.1465C13.488 51.0825 12.5029 49.0241 11.9689 48.4171L11.5643 47.9572L9.15265 50.3758ZM29.9682 49.3916C29.7725 49.7747 29.5938 50.1272 29.5707 50.1752C29.5477 50.2232 29.7645 50.1315 30.0525 49.9714C30.3404 49.8113 30.8431 49.6136 31.1695 49.5321L31.763 49.384L31.109 49.0453C30.7492 48.8592 30.4254 48.7042 30.3893 48.701C30.3533 48.6979 30.1637 49.0086 29.9682 49.3916ZM31.5968 50.9123C30.3548 51.2634 29.5072 51.9849 28.9738 53.1452C28.0578 55.1378 28.9576 57.4917 30.9937 58.4295C31.4151 58.6235 31.787 58.6835 32.5741 58.6844C33.4552 58.6855 33.7019 58.6373 34.2866 58.3502C35.0844 57.9583 35.8784 57.1464 36.2468 56.3456C36.6232 55.5273 36.6182 53.9409 36.2366 53.1666C35.3659 51.3999 33.3455 50.4182 31.5968 50.9123ZM40.6874 52.6284C40.6874 52.6701 41.0236 53.1894 41.4345 53.7824L42.1817 54.8605L42.5021 54.6712C42.6783 54.5671 42.9486 54.3869 43.1027 54.2706L43.3829 54.0592L42.7315 53.6954C42.3731 53.4953 41.7667 53.1563 41.3837 52.9421C41.0007 52.7279 40.6874 52.5867 40.6874 52.6284ZM43.2035 55.936C42.3561 56.5158 41.6614 57.0482 41.6595 57.119C41.653 57.3682 42.361 57.9191 42.8232 58.0245C43.1061 58.0891 43.4647 58.085 43.7306 58.014C44.1906 57.8915 46.6344 56.2435 46.7096 56.0052C46.7491 55.8801 45.0667 54.864 44.8405 54.8765C44.7875 54.8794 44.0508 55.3561 43.2035 55.936Z" fill="black"/>
</g>
</svg>
