<svg width="62" height="63" viewBox="0 0 62 63" fill="none" xmlns="http://www.w3.org/2000/svg">
<g id="Traced Image">
<path id="Vector" fill-rule="evenodd" clip-rule="evenodd" d="M8.41593 2.55316C6.27911 3.01271 4.5465 4.34983 3.6274 6.2487C2.68009 8.20594 2.68142 10.2344 3.63104 12.1966C4.15755 13.2842 5.25418 14.5186 6.09445 14.9691C6.40178 15.134 6.52009 15.2674 6.47044 15.393C6.21639 16.0357 5.91753 17.8572 5.8542 19.1486C5.68212 22.6616 6.65899 26.003 8.61271 28.5843C8.87076 28.9253 9.08195 29.2265 9.08195 29.2536C9.08195 29.2807 8.74131 29.5074 8.32511 29.7575C3.90422 32.4126 1.43827 36.4404 1.02546 41.6807C0.842247 44.0056 2.04144 46.2159 4.05123 47.2579L4.81 47.6514L4.46247 48.6038C3.70054 50.6913 3.71943 53.1006 4.51417 55.2126C5.45459 57.7116 7.22171 59.4403 9.68742 60.2735C10.6149 60.5869 12.6399 60.5859 13.5624 60.2716C14.9746 59.7905 16.0763 59.0945 16.9547 58.1282L17.3803 57.6601L18.3292 58.0285C20.2614 58.7789 22.3559 58.7818 24.2745 58.0369L25.2021 57.6766L25.9803 58.436C27.7265 60.1397 30.1587 60.8818 32.3776 60.3881C34.4711 59.9224 36.282 58.5797 37.4179 56.6511L37.9628 55.7258L49.0675 55.7224C57.056 55.7199 60.2564 55.6805 60.4723 55.5821C60.6375 55.5069 60.8321 55.3017 60.9047 55.1263C60.9964 54.9049 61.0268 52.6475 61.0038 47.7594C60.9728 41.1834 60.9562 40.6973 60.7546 40.4956C60.5604 40.3012 60.2221 40.2758 57.3973 40.2435L54.256 40.2075L54.2227 33.7044L54.1894 27.2013L50.6417 22.154C46.8373 16.7414 46.8241 16.7267 46.092 17.1124C45.9179 17.2039 44.2953 19.4058 42.271 22.297L38.7523 27.3224L38.7511 30.512L38.7499 33.7016L38.2861 33.1148C37.5639 32.2013 36.261 31.0655 34.9355 30.1944C34.2695 29.7566 33.6791 29.36 33.6235 29.3131C33.5681 29.2661 33.7804 28.8806 34.0953 28.4566C34.9065 27.3645 35.9157 25.2096 36.27 23.8127C36.9163 21.2649 36.9392 18.4506 36.3326 16.1258C36.203 15.6289 36.108 15.2154 36.1216 15.207C37.944 14.085 39.1437 12.4704 39.5357 10.6115C40.0241 8.29555 39.3859 6.20014 37.6705 4.48703C36.6115 3.42964 35.6973 2.91959 34.3055 2.60995C32.6935 2.25127 30.9058 2.55764 29.375 3.45482C28.6611 3.8732 27.6011 4.92648 27.1926 5.62349L26.8798 6.15715L25.7108 5.87464C24.0513 5.47346 22.2255 5.30175 20.4648 5.38155C19.0717 5.44464 16.7323 5.80913 16.0461 6.06996C15.7905 6.16708 15.7195 6.11707 15.3937 5.61005C14.5591 4.3112 13.1738 3.23673 11.7547 2.78772C10.8729 2.50872 9.17677 2.38944 8.41593 2.55316ZM8.22327 4.59771C7.45978 4.84995 6.65886 5.36786 6.10389 5.96813C4.67947 7.5088 4.44563 9.87013 5.5333 11.7298C5.82465 12.2278 6.94307 13.3361 7.15438 13.3361C7.21214 13.3361 7.35043 13.1589 7.46184 12.9425C7.95808 11.9785 8.96086 10.6507 9.91919 9.68909C10.901 8.70363 12.6833 7.40333 13.5363 7.0501L13.9228 6.88989L13.7123 6.53C13.3654 5.93664 12.5055 5.22546 11.6522 4.82621C10.62 4.34317 9.2665 4.25295 8.22327 4.59771ZM31.4733 4.59771C30.712 4.84922 29.9126 5.36532 29.3509 5.96813C28.6123 6.76032 28.6167 6.78115 29.6456 7.36748C31.9671 8.69055 34.0531 10.7885 35.008 12.7609C35.1612 13.0772 35.3514 13.3361 35.4309 13.3361C35.7947 13.3361 36.8243 12.1954 37.2646 11.3045C37.6962 10.4313 37.7206 10.3195 37.7206 9.21889C37.7206 8.11996 37.6957 8.00553 37.2683 7.14092C36.7231 6.03751 36.019 5.34873 34.9022 4.82621C33.87 4.34317 32.5165 4.25295 31.4733 4.59771ZM18.9511 7.42004C16.6651 7.71139 14.1492 8.71913 12.3937 10.0467C9.44596 12.2758 7.74992 15.8655 7.74992 19.8751C7.74992 27.33 13.3219 32.4814 21.3698 32.4667C27.5904 32.4553 32.4006 29.3326 34.1584 24.1643C35.0959 21.4081 35.0959 18.3422 34.1584 15.586C32.6145 11.0467 28.7156 8.06462 23.4638 7.40611C22.2984 7.25995 20.155 7.26661 18.9511 7.42004ZM14.8285 17.2662C14.641 17.4535 14.5312 17.7017 14.5312 17.9376C14.5312 18.3701 14.9942 18.9064 15.3676 18.9064C15.7893 18.9064 16.2053 18.6445 16.3541 18.2852C16.7425 17.3475 15.5462 16.5484 14.8285 17.2662ZM26.4535 17.2662C26.266 17.4535 26.1562 17.7017 26.1562 17.9376C26.1562 18.3701 26.6192 18.9064 26.9926 18.9064C27.4143 18.9064 27.8303 18.6445 27.9791 18.2852C28.3675 17.3475 27.1712 16.5484 26.4535 17.2662ZM18.9625 19.0324C18.0876 19.2941 17.3539 20.5034 17.4661 21.4986C17.5588 22.3205 17.9492 22.8171 19.2004 23.7041L20.3437 24.5145V26.0093V27.504L20.0107 27.5015C19.5475 27.498 18.2067 27.0071 17.5847 26.6133C16.4585 25.9003 15.6588 24.7684 15.5389 23.7178C15.4528 22.9623 15.2782 22.5874 14.9411 22.4338C14.4818 22.2245 14.1854 22.2684 13.8597 22.5943C13.0627 23.3912 14.0118 26.1219 15.5544 27.4703C17.8232 29.4533 21.3332 30.0796 24.3327 29.0365C26.8118 28.1744 28.6041 26.2481 28.9674 24.0554C29.1186 23.1427 28.9777 22.6498 28.5036 22.4338C27.7255 22.0793 27.2532 22.4363 27.1093 23.4876C26.9304 24.7955 26.1597 25.8977 24.864 26.6985C24.2738 27.0633 23.0282 27.504 22.5878 27.504H22.2812V25.9998V24.4957L23.4294 23.6817C24.3731 23.0128 24.6318 22.7589 24.8825 22.256C25.3327 21.3525 25.2397 20.4858 24.6126 19.7406C24.01 19.0245 23.553 18.9107 21.3124 18.9195C20.2135 18.9237 19.156 18.9746 18.9625 19.0324ZM44.029 23.1436C42.724 25.0079 41.6562 26.561 41.6562 26.5947C41.6562 26.6287 43.8359 26.6564 46.4999 26.6564C49.164 26.6564 51.3437 26.6287 51.3437 26.5947C51.3437 26.4638 46.5927 19.754 46.4999 19.754C46.4459 19.754 45.334 21.2793 44.029 23.1436ZM19.4123 21.042C19.2989 21.3378 19.4785 21.5431 20.4393 22.2158L21.3124 22.8269L22.1855 22.2158C23.1464 21.5431 23.326 21.3378 23.2125 21.042C23.1467 20.8708 22.8894 20.8439 21.3124 20.8439C19.7354 20.8439 19.4781 20.8708 19.4123 21.042ZM40.7179 33.1046L40.754 37.6154L41.1053 38.9171L41.4566 40.2189H46.8845H52.3124V34.4064V28.5939H46.497H40.6817L40.7179 33.1046ZM45.3253 30.7495C44.0099 31.2194 43.1717 32.1034 42.7871 33.4261C42.2813 35.1661 43.2011 37.101 44.9153 37.9028C45.456 38.1557 45.774 38.2193 46.4999 38.2193C48.0672 38.2193 49.3306 37.4141 49.9964 35.991C50.6498 34.5942 50.3247 32.7899 49.2205 31.6858C48.2356 30.7009 46.5771 30.3022 45.3253 30.7495ZM9.63486 31.2135C5.62569 33.5472 3.33908 37.1004 2.96623 41.5759C2.82261 43.2998 3.37759 44.5499 4.66493 45.4027C5.63078 46.0424 5.78687 46.0267 6.65111 45.2018C7.50289 44.3887 8.94015 43.5917 9.97029 43.3611L10.6432 43.2106L10.7189 42.5321C11.1036 39.0856 12.1219 36.0995 13.5991 34.0861C13.8853 33.6962 14.1595 33.3109 14.2088 33.2298C14.2688 33.131 14.0472 32.9559 13.5367 32.6986C12.7485 32.3012 11.576 31.548 10.9799 31.056C10.7917 30.9007 10.5737 30.7784 10.4955 30.7844C10.4174 30.7904 10.0301 30.9834 9.63486 31.2135ZM31.0654 31.4475C30.6019 31.8053 29.8018 32.3041 29.2875 32.556C28.7732 32.8077 28.3487 33.0423 28.3441 33.0769C28.3396 33.1117 28.6098 33.5159 28.9447 33.9752C30.5462 36.1721 31.4495 38.8143 31.911 42.6529L31.978 43.2098L32.6527 43.3608C33.6895 43.5928 35.1212 44.388 35.9829 45.2105L36.7462 45.9391L37.1729 45.7851C38.4105 45.3381 39.4119 44.1485 39.6488 42.8441C39.8373 41.8061 39.3208 39.054 38.6228 37.3773C37.7849 35.3647 35.95 33.1594 34.0878 31.9266C33.0939 31.2688 32.1734 30.7646 32.0038 30.7852C31.9511 30.7916 31.5289 31.0896 31.0654 31.4475ZM45.7068 32.6393C44.485 33.1714 44.1965 34.7955 45.1536 35.7527C46.5141 37.1132 48.7435 35.8946 48.3856 33.9861C48.1714 32.8446 46.8085 32.1594 45.7068 32.6393ZM15.5118 34.7333C13.9843 36.6923 13.0134 39.3337 12.6497 42.5197L12.5737 43.1857L13.2129 43.3368C14.7143 43.6916 16.3747 44.7683 17.3655 46.0293C19.33 48.5299 19.8655 51.8179 18.822 54.9731C18.441 56.1249 18.4182 56.076 19.496 56.4149C20.3926 56.6968 22.2322 56.6968 23.1288 56.4149C24.2146 56.0734 24.1954 56.1117 23.8166 55.0374C22.3133 50.7726 24.0945 45.7817 27.765 43.975C28.3121 43.7057 29.0503 43.4179 29.4055 43.3355L30.0511 43.1857L29.9751 42.5197C29.7227 40.3089 29.1411 38.2314 28.3308 36.6466C27.8363 35.6798 26.6012 33.9457 26.3337 33.8432C26.256 33.8133 25.6258 33.9105 24.9331 34.0592C23.135 34.4451 19.5395 34.4474 17.6796 34.0638C16.9803 33.9196 16.3701 33.8015 16.3235 33.8013C16.277 33.801 15.9116 34.2205 15.5118 34.7333ZM41.527 43.1134L41.3499 44.0703L42.2275 44.1146C43.5906 44.1835 43.5266 44.0098 43.5692 47.7521C43.608 51.1392 43.5638 51.4661 43.0348 51.7071C42.851 51.7908 41.9706 51.8439 40.7641 51.8439H38.7935L38.6787 52.8126L38.5639 53.7814H42.0475H45.5312V47.9689V42.1564H43.6175H41.7039L41.527 43.1134ZM47.4687 47.9689V53.7814H53.2812H59.0937V47.9689V42.1564H53.2812H47.4687V47.9689ZM52.7154 44.3085C52.4499 44.5197 49.4062 50.5062 49.4062 50.8173C49.4062 51.1448 49.6794 51.577 49.9701 51.7095C50.3742 51.8935 56.1881 51.8935 56.5922 51.7095C56.8831 51.5769 57.1562 51.1447 57.1562 50.8169C57.1562 50.4801 54.0163 44.3492 53.7787 44.222C53.4305 44.0356 53.0161 44.0693 52.7154 44.3085ZM10.0333 45.3431C5.5752 46.8627 4.35833 53.4297 7.88034 56.9619C10.0959 59.1839 13.1496 59.1744 15.389 56.9387C17.5296 54.8016 18.0466 51.3315 16.648 48.489C15.3142 45.7784 12.5764 44.4763 10.0333 45.3431ZM29.4083 45.3431C24.9502 46.8627 23.7333 53.4297 27.2553 56.9619C29.4709 59.1839 32.5246 59.1744 34.764 56.9387C36.9046 54.8016 37.4216 51.3315 36.023 48.489C34.6892 45.7784 31.9514 44.4763 29.4083 45.3431ZM39.6306 46.5044C39.3492 46.7592 38.8292 47.1192 38.4753 47.3044L37.8317 47.6414L38.1999 48.7722L38.5683 49.903L40.1122 49.9047L41.6562 49.9064V47.9689V46.0314L40.8993 46.0364C40.1952 46.041 40.1069 46.0735 39.6306 46.5044ZM52.5829 48.6349L51.9506 49.9064H53.2812H54.6117L53.9794 48.6349C53.6316 47.9356 53.3174 47.3634 53.2812 47.3634C53.245 47.3634 52.9307 47.9356 52.5829 48.6349Z" fill="black"/>
</g>
</svg>
