<svg width="33" height="32" viewBox="0 0 33 32" fill="none" xmlns="http://www.w3.org/2000/svg">
<g id="Visa" clip-path="url(#clip0_654_3852)">
<g id="Group 20">
<path id="Subtract" fill-rule="evenodd" clip-rule="evenodd" d="M11.7612 21.1554H14.3723L16.0045 10.8506H13.3931L11.7612 21.1554ZM7.07518 17.9383L9.56452 10.8506H12.3747L8.22046 21.1557H5.49987L3.23132 12.203C1.75848 11.2941 0.5 11.0251 0.5 11.0251L0.50027 11.0241C0.526735 11.0298 2.49082 11.4559 4.37524 13.0233C6.16033 14.5076 6.76165 16.3516 6.78042 16.4102L6.78089 16.4126L6.78062 16.4121L7.07518 17.9383ZM32.5 21.1554H30.1024L29.7966 19.6247H26.4772L25.9329 21.1554H23.2109L27.1052 11.6183C27.1052 11.6183 27.3413 10.8504 28.3106 10.8504H30.4096L32.5 21.1554ZM28.6011 13.654L27.2292 17.5102H29.373L28.6011 13.654ZM23.7877 11.1158L23.4151 13.3287C22.2977 12.6961 19.7547 12.5464 19.7545 13.7116C19.7545 14.1744 20.3298 14.4928 21.0233 14.8765C22.0751 15.4584 23.3985 16.1905 23.3985 17.8052C23.3985 20.3852 20.7103 21.3332 18.9284 21.3332C17.1471 21.3332 15.9812 20.7513 15.9812 20.7513L16.3693 18.4375C17.4384 19.3193 20.6779 19.5699 20.6779 18.1715C20.6779 17.5839 20.0402 17.2374 19.3007 16.8356C18.2804 16.2811 17.0663 15.6214 17.0663 14.0779C17.0663 11.2484 20.1435 10.6665 21.4392 10.6665C22.6379 10.6665 23.7877 11.1158 23.7877 11.1158Z" fill="#2566AF"/>
<path id="Vector" d="M6.79275 16.2683L5.91249 11.7495C5.91249 11.7495 5.80605 10.8447 4.67151 10.8447H0.548381L0.5 11.0149C0.5 11.0149 2.48174 11.4256 4.38257 12.9644C6.20008 14.4352 6.79275 16.2683 6.79275 16.2683Z" fill="#E6A540"/>
</g>
</g>
<defs>
<clipPath id="clip0_654_3852">
<rect width="32" height="32" fill="white" transform="translate(0.5)"/>
</clipPath>
</defs>
</svg>
