<svg width="732" height="1024" viewBox="0 0 732 1024" fill="none" xmlns="http://www.w3.org/2000/svg">
<g clip-path="url(#clip0_39_995)">
<rect width="732" height="1024" fill="white"/>
<path opacity="0.5" d="M577.276 184.857C584.692 182.381 597.169 170.594 598.175 169.637C604.675 177.023 611.655 183.946 619.064 190.356C623.351 194.093 627.775 197.749 632.256 201.35C629.976 200.026 627.91 198.848 627.614 198.728C619.079 195.021 600.533 193.05 593.733 201.162C592.646 202.541 591.852 204.14 591.403 205.856C590.954 207.571 590.861 209.365 591.128 211.119C591.396 212.873 592.019 214.549 592.957 216.036C593.895 217.524 595.126 218.791 596.571 219.754C602.557 224.097 611.513 223.149 618.105 220.932C624.698 218.715 635.627 208.884 638.446 206.231L643.649 210.329C652.002 216.841 660.356 223.296 668.38 229.884C671.206 232.205 673.921 234.608 676.636 236.983C674.598 235.806 672.88 234.834 672.584 234.714C664.076 231.008 645.504 229.035 638.703 237.148C637.615 238.529 636.821 240.131 636.372 241.848C635.923 243.566 635.829 245.361 636.097 247.118C636.364 248.874 636.987 250.552 637.925 252.042C638.863 253.533 640.095 254.802 641.541 255.768C647.527 260.082 656.51 259.136 663.075 256.946C669.639 254.757 679.537 245.826 682.913 242.71C685.57 245.224 688.228 247.738 690.883 250.336C692.579 252.122 694.307 253.741 695.891 255.636C697.476 257.532 699.09 259.316 700.649 261.155C703.578 264.744 706.585 268.447 709.35 272.06C711.273 274.554 713.09 276.934 714.905 279.37C712.107 277.021 706.56 272.549 706.051 272.227C698.176 267.245 680.087 262.363 672.227 269.352C670.948 270.543 669.927 271.999 669.23 273.625C668.532 275.25 668.174 277.009 668.18 278.785C668.185 280.562 668.553 282.317 669.26 283.936C669.966 285.554 670.996 287.001 672.282 288.18C677.592 293.376 686.565 293.863 693.402 292.72C700.896 291.425 714.451 282.168 716.142 281.004C719.142 285.016 722.007 288.968 724.687 292.719C731.83 302.796 737.806 311.747 742.382 318.975L748.591 315.821C743.717 308.5 737.34 299.286 729.632 288.913C726.608 284.816 723.289 280.515 719.836 276.126C723.333 272.114 726.598 267.892 729.613 263.483C736.914 266.483 752.084 266.343 754.044 266.338C754.375 271.405 754.683 276.302 754.889 280.972C755.444 293.098 755.604 303.724 755.6 312.238L762.333 308.788C762.133 300.802 761.727 291.294 761.023 280.654C760.667 275.502 760.21 270.039 759.703 264.406C761.623 263.894 777.364 259.583 783.292 254.623C788.664 250.126 794.299 242.854 794.062 235.233C794.066 233.456 793.707 231.699 793.009 230.076C792.311 228.454 791.289 227.002 790.009 225.815C788.73 224.628 787.222 223.734 785.584 223.189C783.946 222.645 782.214 222.464 780.503 222.657C770.227 224.103 761.721 241.276 760.088 250.675C760.073 251.237 759.587 257.378 759.404 261.251C759.164 258.969 758.977 256.744 758.712 254.377C758.235 249.7 757.62 245.047 756.961 240.056C756.587 237.658 756.188 235.231 755.789 232.776C755.39 230.321 754.774 227.804 754.268 225.29C752.976 219.468 751.412 213.667 749.712 207.834C753.672 207.403 767.717 205.492 773.717 201.967C779.717 198.442 786.337 192.039 787.185 184.558C787.448 182.802 787.351 181.009 786.899 179.295C786.448 177.581 785.652 175.985 784.563 174.61C783.474 173.236 782.116 172.113 780.579 171.316C779.041 170.519 777.358 170.065 775.638 169.983C765.271 169.713 754.324 185.474 751.335 194.641C751.129 195.226 749.702 201.961 748.979 205.679C747.926 202.167 746.874 198.684 745.712 195.197C742.299 185.105 738.559 175.004 734.874 164.904C733.729 161.812 732.638 158.72 731.548 155.629C732.941 155.469 749.705 153.685 756.427 149.645C762.375 146.034 769.019 139.716 769.895 132.236C770.159 130.48 770.061 128.686 769.61 126.972C769.158 125.259 768.362 123.662 767.273 122.288C766.184 120.913 764.827 119.791 763.289 118.994C761.751 118.197 760.068 117.742 758.348 117.661C747.981 117.391 737.034 133.151 734.022 142.177C733.813 142.874 731.737 152.571 731.345 155.062C728.799 148.252 726.554 141.421 724.471 134.623C721.645 125.433 719.397 116.063 717.74 106.573C718.393 106.59 735.868 104.712 742.756 100.564C748.731 96.9538 755.375 90.6356 756.251 83.1557C756.51 81.3976 756.409 79.6036 755.954 77.8896C755.499 76.1756 754.701 74.58 753.609 73.2059C752.518 71.8319 751.16 70.71 749.621 69.9131C748.082 69.1162 746.398 68.662 744.677 68.5798C734.31 68.3101 723.39 84.0711 720.378 93.0971C720.141 93.8215 717.936 104.274 717.669 106.177C717.683 105.616 717.398 105.074 717.331 104.511C715.918 94.9409 715.341 85.2582 715.606 75.579C715.745 70.2437 716.041 65.1371 716.497 60.1753C719.789 60.2609 734.823 60.0901 741.41 57.0581C747.996 54.0261 754.998 48.6164 756.66 41.2694C757.109 39.5523 757.203 37.7576 756.935 36.0019C756.668 34.2462 756.046 32.5688 755.109 31.0788C754.171 29.5887 752.941 28.3194 751.496 27.3533C750.052 26.3873 748.426 25.7462 746.724 25.4716C736.44 24.1362 723.896 38.4499 719.968 47.1148C719.738 47.5865 718.08 52.6857 717.006 56.2827C717.255 54.0693 717.451 51.7421 717.724 49.6136C718.723 41.5749 720.11 34.305 721.422 27.848C722.171 24.1864 722.936 20.9187 723.67 17.8467C726.901 16.1043 739.856 8.99487 744.28 3.26519C748.704 -2.4645 752.59 -10.5686 750.795 -17.9774C750.425 -19.7116 749.706 -21.3455 748.683 -22.7729C747.661 -24.2003 746.359 -25.3894 744.862 -26.263C743.365 -27.1367 741.705 -27.6754 739.992 -27.844C738.279 -28.0127 736.55 -27.8076 734.917 -27.2421C725.183 -23.5614 720.449 -4.88564 720.8 4.64937C720.778 5.4918 722.759 18.3288 722.925 18.2207L723.115 18.2257C722.358 21.1565 721.541 24.3105 720.742 27.8022C719.323 34.2283 717.664 41.4911 716.583 49.5277C715.229 58.167 714.366 66.8798 713.998 75.6215C713.525 85.4168 713.898 95.2347 715.114 104.959L715.105 105.296C713.818 102.452 709.936 94.6519 709.569 94.1084C704.33 86.1603 690.027 73.93 680.067 76.8462C678.424 77.3777 676.907 78.2605 675.615 79.4373C674.323 80.614 673.286 82.0582 672.571 83.6755C671.855 85.2929 671.478 87.0471 671.464 88.8238C671.45 90.6005 671.799 92.3596 672.488 93.9866C675.164 100.997 683.084 105.334 689.786 107.25C697.3 109.385 714.008 106.644 715.348 106.426C716.818 116.284 718.93 126.027 721.668 135.59C723.236 141.25 724.972 146.747 726.679 152.299C725.49 149.88 724.402 147.744 724.218 147.458C718.98 139.51 704.649 127.279 694.717 130.196C693.073 130.728 691.556 131.611 690.264 132.787C688.971 133.963 687.933 135.406 687.215 137.023C686.498 138.639 686.118 140.393 686.1 142.169C686.082 143.946 686.426 145.706 687.11 147.335C689.813 154.375 697.706 158.683 704.436 160.6C711.166 162.517 725.486 160.501 729.259 159.897L731.38 166.275C734.872 176.481 738.392 186.633 741.48 196.689C742.586 200.23 743.556 203.768 744.525 207.305C743.465 205.17 742.558 203.376 742.402 203.119C737.163 195.171 722.832 182.94 712.9 185.857C711.259 186.392 709.744 187.278 708.455 188.455C707.166 189.633 706.13 191.076 705.415 192.692C704.701 194.308 704.323 196.061 704.307 197.836C704.29 199.612 704.636 201.37 705.32 202.998C708.024 210.009 715.916 214.345 722.646 216.262C729.376 218.179 742.303 216.324 746.786 215.654C747.671 219.302 748.584 222.95 749.226 226.536C749.652 228.991 750.244 231.339 750.534 233.819C750.823 236.3 751.223 238.727 751.569 241.124C752.073 245.802 752.602 250.621 752.972 255.211C753.271 258.394 753.491 261.434 753.711 264.475C752.633 260.934 750.389 254.048 750.158 253.48C746.537 245.933 741.099 239.473 734.364 234.719C734.003 233.861 733.55 233.048 733.011 232.296C732.064 230.815 730.825 229.558 729.374 228.606C727.924 227.654 726.295 227.028 724.594 226.769C722.892 226.51 721.157 226.624 719.5 227.103C717.842 227.582 716.301 228.416 714.976 229.55C707.169 236.597 709.23 255.759 712.895 264.537C713.127 265.049 716.065 270.38 718.102 273.721C716.678 271.941 715.307 270.192 713.83 268.383C710.929 264.767 707.944 261.233 704.721 257.44L699.851 252.03C698.238 250.218 696.322 248.482 694.545 246.666C690.377 242.567 685.96 238.602 681.405 234.747C684.471 232.016 695.335 222.605 698.225 216.161C701.116 209.717 703.473 200.73 700.191 193.985C699.472 192.37 698.432 190.929 697.138 189.757C695.843 188.586 694.324 187.709 692.678 187.183C691.033 186.658 689.298 186.497 687.587 186.709C685.876 186.921 684.226 187.503 682.746 188.417C673.993 194.174 673.246 213.459 675.565 222.708C675.713 223.274 678.105 229.715 679.484 233.207C676.821 230.918 674.023 228.597 671.167 226.359C662.923 219.878 654.401 213.587 645.906 207.297L638.188 201.476C639.274 200.549 652.304 189.535 655.76 182.263C658.813 175.851 660.981 166.831 657.699 160.086C656.981 158.471 655.94 157.03 654.645 155.858C653.35 154.687 651.829 153.811 650.183 153.288C648.536 152.765 646.801 152.607 645.09 152.824C643.379 153.041 641.731 153.628 640.253 154.546C631.527 160.277 630.753 179.589 633.072 188.81C633.245 189.489 636.707 198.768 637.709 201.07C632.021 196.763 626.418 192.346 621.06 187.936C613.78 181.897 606.892 175.372 600.439 168.404C600.941 167.967 614.58 156.52 618.12 149.194C621.172 142.81 623.341 133.762 620.058 127.017C619.34 125.405 618.301 123.968 617.008 122.799C615.714 121.631 614.197 120.757 612.554 120.234C610.911 119.711 609.179 119.552 607.471 119.766C605.763 119.981 604.117 120.564 602.641 121.478C593.887 127.235 593.113 146.52 595.459 155.741C595.631 156.476 599.347 166.436 600.146 168.171L598.979 166.989C592.7 159.815 587.051 152.079 582.1 143.873C579.304 139.36 576.887 134.914 574.605 130.527C577.377 128.66 589.855 119.993 593.721 113.715C597.588 107.437 600.558 98.9715 598.019 91.9086C597.477 90.2216 596.597 88.6718 595.435 87.36C594.274 86.0483 592.858 85.0039 591.279 84.2948C589.7 83.5858 587.993 83.2281 586.27 83.2448C584.547 83.2615 582.847 83.6523 581.278 84.3919C571.98 89.1236 569.168 108.215 570.502 117.663C570.489 118.168 571.879 123.319 572.981 127.028C571.998 125.036 570.935 122.985 570.005 121.05C566.545 113.795 563.84 106.84 561.464 100.849C560.139 97.3579 558.915 94.1789 557.985 91.2042C559.785 87.9352 566.776 74.573 567.427 67.3401C568.078 60.1073 566.9 51.0003 561.504 45.9425C560.269 44.705 558.796 43.7499 557.179 43.1394C555.562 42.5288 553.838 42.2765 552.119 42.3987C550.401 42.521 548.726 43.0151 547.203 43.8489C545.68 44.6828 544.344 45.8377 543.282 47.2386C537.122 55.8455 543.155 74.0989 548.535 81.8539C549.007 82.5406 557.498 92.1188 557.584 91.9524L557.589 91.7559C558.496 94.5895 559.53 97.7355 560.723 101.082C562.959 107.238 565.555 114.19 568.876 121.555C572.359 129.532 576.294 137.291 580.66 144.791C585.487 153.224 591.049 161.184 597.277 168.574L597.515 168.833C594.835 167.19 587.512 162.953 586.784 162.653C578.277 158.947 559.704 156.975 552.904 165.087C551.816 166.466 551.022 168.065 550.574 169.781C550.125 171.496 550.031 173.29 550.299 175.044C550.567 176.798 551.19 178.474 552.128 179.962C553.066 181.449 554.297 182.716 555.742 183.679C561.727 188.078 570.711 187.075 577.276 184.857Z" fill="#E0E0E0"/>
<path d="M107.047 970.043C102.935 968.614 96.0693 961.968 95.5162 961.428C91.8472 965.496 87.9151 969.302 83.7469 972.82C81.3354 974.871 78.8474 976.876 76.3287 978.85C77.6069 978.129 78.7649 977.487 78.9307 977.422C83.707 975.417 94.0442 974.445 97.7746 979.007C98.3706 979.782 98.8017 980.678 99.0399 981.636C99.2781 982.594 99.318 983.593 99.157 984.568C98.9961 985.542 98.6378 986.471 98.1056 987.293C97.5735 988.115 96.8793 988.811 96.0685 989.338C92.7067 991.714 87.7278 991.126 84.0731 989.847C80.4183 988.568 74.4011 983.021 72.8498 981.526L69.9257 983.771C65.2316 987.339 60.5371 990.876 56.0254 994.489C54.4366 995.762 52.9091 997.081 51.3813 998.385C52.5242 997.743 53.4868 997.214 53.6526 997.149C58.4137 995.144 68.766 994.172 72.4965 998.734C73.0927 999.511 73.5241 1000.41 73.7624 1001.37C74.0008 1002.33 74.0408 1003.33 73.8799 1004.3C73.7189 1005.28 73.3607 1006.21 72.8284 1007.03C72.2962 1007.85 71.6018 1008.55 70.7906 1009.08C67.4286 1011.44 62.4346 1010.85 58.7952 1009.59C55.1558 1008.33 49.7063 1003.29 47.8483 1001.53C46.3519 1002.91 44.8555 1004.29 43.3598 1005.72C42.4035 1006.7 41.4307 1007.59 40.5359 1008.64C39.641 1009.68 38.7302 1010.66 37.85 1011.68C36.1952 1013.66 34.4958 1015.7 32.932 1017.69C31.8448 1019.06 30.8172 1020.38 29.7901 1021.72C31.3636 1020.43 34.4819 1017.98 34.7674 1017.8C39.1853 1015.08 49.2878 1012.49 53.6159 1016.43C54.3196 1017.11 54.8783 1017.92 55.2555 1018.83C55.6327 1019.74 55.82 1020.72 55.805 1021.71C55.7901 1022.7 55.5733 1023.68 55.1689 1024.57C54.7644 1025.47 54.1813 1026.27 53.4576 1026.91C50.4661 1029.77 45.468 1029.98 41.6699 1029.3C37.5069 1028.53 30.0239 1023.28 29.0903 1022.62C27.3933 1024.83 25.7715 1027.02 24.2544 1029.09C20.2091 1034.65 16.8222 1039.59 14.2253 1043.58L10.7906 1041.78C13.5535 1037.74 17.1659 1032.66 21.5271 1026.93C23.2387 1024.67 25.1154 1022.3 27.0672 1019.88C25.1476 1017.62 23.3589 1015.25 21.7104 1012.78C17.6259 1014.4 9.1823 1014.22 8.09095 1014.2C7.87225 1017.02 7.66739 1019.74 7.52143 1022.34C7.12967 1029.09 6.9689 1035 6.91314 1039.74L3.18825 1037.77C3.35418 1033.33 3.64481 1028.04 4.10862 1022.12C4.34182 1019.26 4.63328 1016.22 4.95372 1013.09C3.88878 1012.79 -4.8446 1010.28 -8.11123 1007.48C-11.0712 1004.94 -14.1585 1000.85 -13.9746 996.613C-13.9649 995.624 -13.7533 994.648 -13.3536 993.75C-12.9538 992.851 -12.3749 992.05 -11.6547 991.398C-10.9344 990.746 -10.0889 990.258 -9.17338 989.966C-8.25784 989.675 -7.29278 989.585 -6.3412 989.704C-0.630981 990.58 3.9876 1000.2 4.83292 1005.44C4.83724 1005.75 5.06636 1009.17 5.14162 1011.33C5.29079 1010.06 5.41011 1008.83 5.57378 1007.51C5.87126 1004.91 6.24471 1002.32 6.64588 999.55C6.86995 998.218 7.10895 996.869 7.34773 995.505C7.58652 994.141 7.9461 992.744 8.24506 991.348C9.0036 988.116 9.91387 984.897 10.8997 981.662C8.69859 981.395 0.893097 980.236 -2.42312 978.233C-5.73934 976.23 -9.38084 972.621 -9.80215 968.451C-9.93705 967.471 -9.87076 966.474 -9.60766 965.522C-9.34456 964.571 -8.89051 963.688 -8.27498 962.931C-7.65946 962.173 -6.89627 961.557 -6.03494 961.124C-5.1736 960.691 -4.2334 960.449 -3.27543 960.415C2.49737 960.336 8.48443 969.183 10.0858 974.307C10.1964 974.634 10.9455 978.393 11.3227 980.467C11.9323 978.52 12.5421 976.588 13.2125 974.655C15.181 969.06 17.3315 963.462 19.4516 957.865C20.1099 956.151 20.7378 954.438 21.3658 952.724C20.5916 952.626 11.2713 951.519 7.55705 949.224C4.27049 947.174 0.614491 943.611 0.178024 939.442C0.0431277 938.462 0.109371 937.464 0.372468 936.513C0.635566 935.562 1.08962 934.679 1.70515 933.921C2.32067 933.164 3.0839 932.548 3.94524 932.115C4.80658 931.682 5.74678 931.44 6.70475 931.406C12.4775 931.327 18.4646 940.174 20.0801 945.219C20.1915 945.609 21.2816 951.021 21.4827 952.41C22.946 948.636 24.2425 944.849 25.4482 941.079C27.0836 935.982 28.3988 930.782 29.3855 925.51C29.0218 925.515 19.3069 924.351 15.5008 921.995C12.1991 919.945 8.54308 916.382 8.10661 912.212C7.97402 911.232 8.04241 910.234 8.30733 909.283C8.57225 908.332 9.02781 907.449 9.6445 906.692C10.2612 905.934 11.0253 905.319 11.8873 904.886C12.7493 904.453 13.69 904.211 14.6485 904.177C20.4213 904.097 26.3932 912.945 28.0086 917.99C28.1355 918.395 29.292 924.228 29.4279 925.29C29.4236 924.977 29.5862 924.678 29.6273 924.365C30.4787 919.047 30.8658 913.661 30.7841 908.271C30.743 905.3 30.6128 902.455 30.3928 899.69C28.5594 899.715 20.1913 899.518 16.5454 897.785C12.8995 896.053 9.03834 892.994 8.16334 888.893C7.92511 887.934 7.88505 886.934 8.04576 885.958C8.20646 884.983 8.56432 884.053 9.09611 883.23C9.62789 882.407 10.3217 881.709 11.1324 881.181C11.9431 880.653 12.8525 880.307 13.8015 880.166C19.5358 879.492 26.4212 887.546 28.5492 892.396C28.6741 892.66 29.5621 895.51 30.1354 897.519C30.0123 896.286 29.9186 894.989 29.781 893.802C29.2796 889.32 28.5568 885.264 27.8705 881.661C27.4786 879.617 27.0745 877.793 26.6871 876.078C24.9003 875.086 17.7369 871.04 15.3132 867.821C12.8894 864.601 10.7809 860.063 11.8303 855.951C12.0482 854.988 12.4598 854.084 13.0386 853.296C13.6173 852.508 14.3501 851.855 15.1896 851.379C16.029 850.903 16.9563 850.614 17.9112 850.532C18.866 850.45 19.8271 850.576 20.7321 850.902C26.126 853.017 28.6342 863.445 28.3741 868.751C28.3806 869.22 27.191 876.352 27.0992 876.291L26.9932 876.293C27.3946 877.929 27.8281 879.691 28.2491 881.64C28.9957 885.227 29.8701 889.281 30.4169 893.762C31.1118 898.581 31.5331 903.437 31.6787 908.305C31.8757 913.761 31.6012 919.224 30.8585 924.629L30.8611 924.817C31.5971 923.243 33.8106 918.927 34.0187 918.627C36.989 914.238 45.0343 907.527 50.5587 909.218C51.4701 909.525 52.3087 910.026 53.0198 910.69C53.7309 911.354 54.2985 912.165 54.6857 913.07C55.0728 913.975 55.2708 914.954 55.2667 915.944C55.2626 916.933 55.0565 917.91 54.6618 918.811C53.1242 922.695 48.6862 925.055 44.9419 926.077C40.7447 927.214 31.4626 925.575 30.7182 925.444C29.8329 930.922 28.5912 936.331 27.0017 941.636C26.0903 944.777 25.0867 947.825 24.0988 950.904C24.7774 949.565 25.3976 948.383 25.5015 948.225C28.4718 943.837 36.5322 937.125 42.0415 938.816C42.9528 939.124 43.7914 939.626 44.5028 940.289C45.2142 940.953 45.7826 941.763 46.171 942.668C46.5593 943.572 46.7591 944.551 46.7571 945.54C46.7552 946.529 46.5516 947.507 46.1597 948.409C44.6072 952.309 40.1842 954.654 36.4248 955.676C32.6654 956.697 24.7075 955.478 22.6112 955.116L21.3871 958.652C19.3739 964.31 17.3451 969.937 15.5582 975.514C14.9185 977.477 14.3546 979.44 13.7906 981.403C14.3957 980.222 14.9124 979.229 15.0013 979.087C17.9716 974.698 26.0321 967.987 31.5414 969.678C32.4514 969.987 33.2884 970.49 33.9982 971.155C34.7079 971.819 35.2746 972.629 35.6615 973.534C36.0483 974.438 36.2467 975.417 36.2438 976.405C36.2409 977.393 36.0367 978.37 35.6444 979.271C34.0917 983.156 29.6689 985.516 25.9095 986.538C22.1501 987.559 14.9665 986.438 12.4756 986.035C11.958 988.06 11.4252 990.085 11.0436 992.076C10.7896 993.44 10.4439 994.743 10.266 996.122C10.088 997.501 9.84897 998.849 9.64005 1000.18C9.32742 1002.78 9.00073 1005.46 8.76321 1008.01C8.57549 1009.78 8.43213 1011.47 8.28879 1013.17C8.91331 1011.2 10.2093 1007.38 10.3414 1007.07C12.4085 1002.89 15.4796 999.333 19.2611 996.733C19.4677 996.257 19.7258 995.808 20.0306 995.393C20.568 994.575 21.2663 993.884 22.0801 993.363C22.8939 992.843 23.805 992.506 24.7539 992.373C25.7028 992.241 26.6682 992.316 27.5875 992.594C28.5067 992.872 29.3591 993.347 30.089 993.987C34.3872 997.963 33.1098 1008.62 31.0099 1013.48C30.8774 1013.76 29.2056 1016.71 28.0491 1018.55C28.8539 1017.57 29.6286 1016.61 30.4635 1015.61C32.1029 1013.62 33.7885 1011.67 35.6085 1009.58L38.3558 1006.6C39.2665 1005.61 40.3444 1004.65 41.346 1003.65C43.6941 1001.4 46.1797 999.223 48.7419 997.108C47.0537 995.567 41.07 990.254 39.5047 986.647C37.9394 983.04 36.688 978.021 38.5611 974.289C38.9721 973.395 39.561 972.6 40.2895 971.956C41.018 971.313 41.8697 970.835 42.7893 970.554C43.7088 970.273 44.6756 970.194 45.6268 970.324C46.5779 970.454 47.492 970.789 48.3097 971.308C53.1437 974.572 53.4285 985.313 52.0748 990.446C51.9882 990.76 50.613 994.329 49.8214 996.264C51.3195 995.007 52.8932 993.734 54.4978 992.508C59.1315 988.956 63.9182 985.512 68.6898 982.068L73.0254 978.88C72.4272 978.357 65.2489 972.137 63.3741 968.065C61.7181 964.475 60.5726 959.44 62.4456 955.707C62.8562 954.812 63.4452 954.018 64.1741 953.374C64.903 952.731 65.7554 952.254 66.6756 951.974C67.5957 951.694 68.563 951.618 69.514 951.75C70.465 951.882 71.3784 952.22 72.1945 952.742C77.0131 955.991 77.3133 966.747 75.9594 971.864C75.8586 972.241 73.8686 977.383 73.2951 978.657C76.4905 976.299 79.6395 973.878 82.6522 971.459C86.7458 968.147 90.6247 964.562 94.2639 960.726C93.9877 960.479 86.4726 954.015 84.5519 949.912C82.8962 946.338 81.7504 941.286 83.6235 937.554C84.0343 936.661 84.6228 935.869 85.3505 935.227C86.0783 934.585 86.929 934.109 87.8473 933.829C88.7655 933.549 89.7308 933.472 90.6801 933.603C91.6295 933.734 92.5416 934.07 93.3572 934.589C98.1912 937.853 98.4911 948.593 97.1221 953.711C97.0216 954.119 94.8853 959.638 94.4288 960.598L95.0866 959.948C98.6305 955.997 101.827 951.73 104.64 947.195C106.227 944.702 107.602 942.243 108.902 939.816C107.372 938.758 100.485 933.849 98.3751 930.328C96.2655 926.807 94.6695 922.074 96.1309 918.16C96.444 917.224 96.9445 916.367 97.5998 915.645C98.2551 914.923 99.0506 914.351 99.9344 913.967C100.818 913.583 101.771 913.395 102.73 913.416C103.689 913.437 104.633 913.667 105.501 914.089C110.645 916.786 112.08 927.433 111.274 932.683C111.278 932.965 110.469 935.822 109.83 937.88C110.391 936.777 110.997 935.643 111.527 934.572C113.503 930.557 115.056 926.703 116.419 923.385C117.181 921.45 117.884 919.689 118.422 918.039C117.442 916.207 113.64 908.721 113.327 904.691C113.014 900.66 113.732 895.598 116.77 892.819C117.466 892.139 118.292 891.617 119.197 891.288C120.101 890.959 121.062 890.831 122.018 890.91C122.974 890.99 123.903 891.277 124.745 891.751C125.587 892.226 126.323 892.878 126.905 893.665C130.275 898.498 126.793 908.618 123.746 912.898C123.478 913.278 118.686 918.552 118.64 918.459L118.638 918.349C118.114 919.92 117.517 921.665 116.83 923.52C115.544 926.931 114.051 930.784 112.153 934.861C110.159 939.278 107.916 943.57 105.435 947.716C102.69 952.377 99.5403 956.771 96.0234 960.842L95.889 960.985C97.3921 960.088 101.497 957.779 101.904 957.617C106.665 955.612 117.018 954.64 120.748 959.203C121.344 959.978 121.775 960.873 122.014 961.831C122.252 962.789 122.292 963.788 122.131 964.763C121.97 965.738 121.611 966.666 121.079 967.488C120.547 968.31 119.853 969.007 119.042 969.533C115.681 971.941 110.686 971.322 107.047 970.043Z" fill="#E0E0E0"/>
</g>
<defs>
<clipPath id="clip0_39_995">
<rect width="732" height="1024" fill="white"/>
</clipPath>
</defs>
</svg>
