<svg width="22" height="22" viewBox="0 0 22 22" fill="none" xmlns="http://www.w3.org/2000/svg">
<path d="M17.3867 11.627C17.19 11.627 16.9843 11.5644 16.7875 11.5196C16.389 11.4318 15.9975 11.3153 15.6159 11.1708C15.2009 11.0199 14.7449 11.0277 14.3354 11.1928C13.9259 11.3579 13.5919 11.6687 13.3978 12.0652L13.201 12.4677C12.3299 11.9831 11.5294 11.3812 10.822 10.6789C10.1197 9.97147 9.5178 9.17098 9.0332 8.29986L9.40884 8.04943C9.80538 7.85528 10.1161 7.52133 10.2812 7.11184C10.4463 6.70236 10.4542 6.24628 10.3032 5.83136C10.1612 5.44895 10.0447 5.05754 9.95442 4.65972C9.9097 4.46296 9.87392 4.25725 9.84709 4.05154C9.73848 3.42156 9.40851 2.85105 8.9166 2.44277C8.42468 2.03448 7.80316 1.81524 7.16395 1.82453H4.4808C4.09535 1.82091 3.71364 1.90039 3.36167 2.05755C3.00969 2.2147 2.69571 2.44586 2.4411 2.73527C2.18649 3.02468 1.99722 3.36555 1.88619 3.73468C1.77515 4.10381 1.74496 4.49253 1.79765 4.87438C2.27412 8.62128 3.98534 12.1027 6.66099 14.7686C9.33665 17.4345 12.8242 19.1331 16.5728 19.5959H16.9127C17.5722 19.5969 18.209 19.3549 18.7015 18.9162C18.9844 18.6631 19.2105 18.3529 19.3646 18.006C19.5188 17.6591 19.5976 17.2834 19.5959 16.9038V14.2207C19.5849 13.5994 19.3587 13.0012 18.9558 12.5282C18.5529 12.0552 17.9983 11.7366 17.3867 11.627ZM17.8339 16.9933C17.8338 17.1202 17.8066 17.2457 17.7541 17.3614C17.7017 17.4771 17.6252 17.5802 17.5298 17.664C17.4299 17.7503 17.313 17.8148 17.1867 17.8533C17.0605 17.8918 16.9275 17.9035 16.7964 17.8876C13.4469 17.4582 10.3356 15.9258 7.95343 13.5323C5.57123 11.1387 4.05365 8.02022 3.64008 4.66867C3.62585 4.53766 3.63832 4.40512 3.67675 4.27907C3.71518 4.15301 3.77877 4.03606 3.86368 3.93527C3.94749 3.83987 4.05066 3.76341 4.16632 3.71098C4.28197 3.65855 4.40747 3.63135 4.53446 3.63118H7.21761C7.42559 3.62656 7.62869 3.69458 7.79193 3.82354C7.95517 3.9525 8.06835 4.13434 8.11199 4.33775C8.14776 4.58221 8.19248 4.82369 8.24615 5.0622C8.34947 5.53366 8.48697 5.99699 8.65756 6.44849L7.40543 7.02984C7.29837 7.07896 7.20207 7.14874 7.12205 7.23518C7.04203 7.32162 6.97988 7.42302 6.93916 7.53355C6.89844 7.64408 6.87995 7.76156 6.88476 7.87925C6.88957 7.99694 6.91758 8.11253 6.96718 8.21936C8.25438 10.9765 10.4707 13.1928 13.2279 14.48C13.4456 14.5695 13.6898 14.5695 13.9076 14.48C14.0191 14.4401 14.1216 14.3785 14.2091 14.2986C14.2967 14.2188 14.3674 14.1224 14.4174 14.015L14.9719 12.7628C15.4343 12.9282 15.9062 13.0656 16.385 13.1742C16.6235 13.2279 16.865 13.2726 17.1095 13.3084C17.3129 13.352 17.4947 13.4652 17.6237 13.6285C17.7526 13.7917 17.8207 13.9948 17.816 14.2028L17.8339 16.9933Z" fill="#A8AFB9"/>
</svg>
